<?xml version="1.0" encoding="UTF-8" standalone="no"?>
<!-- Created with Inkscape (http://www.inkscape.org/) -->

<svg
   xmlns:dc="http://purl.org/dc/elements/1.1/"
   xmlns:cc="http://creativecommons.org/ns#"
   xmlns:rdf="http://www.w3.org/1999/02/22-rdf-syntax-ns#"
   xmlns:svg="http://www.w3.org/2000/svg"
   xmlns="http://www.w3.org/2000/svg"
   xmlns:sodipodi="http://sodipodi.sourceforge.net/DTD/sodipodi-0.dtd"
   xmlns:inkscape="http://www.inkscape.org/namespaces/inkscape"
   width="500"
   height="505"
   viewBox="0 0 500 505"
   version="1.1"
   id="svg5306"
   inkscape:version="0.92.2 5c3e80d, 2017-08-06"
   sodipodi:docname="circle-with-clip.svg">
  <defs
     id="defs5300">
    <clipPath
       clipPathUnits="userSpaceOnUse"
       id="clipPath6745">
      <path
         style="fill:none;stroke:#000000;stroke-width:1px;stroke-linecap:butt;stroke-linejoin:miter;stroke-opacity:1"
         d="m 73.003005,238.28186 c 0,0 66.525795,-73.35172 176.996995,-73.57355 110.4712,-0.22183 177.6813,74.23903 177.6813,74.23903 l -85.55149,85.10783 c 0,0 -35.40692,-38.95462 -92.12981,-38.67886 -58.49728,0.28438 -91.7054,38.27326 -91.7054,38.27326 z"
         id="path6747"
         inkscape:connector-curvature="0"
         sodipodi:nodetypes="czccscc" />
    </clipPath>
  </defs>
  <sodipodi:namedview
     id="base"
     pagecolor="#ffffff"
     bordercolor="#666666"
     borderopacity="1.0"
     inkscape:pageopacity="0.0"
     inkscape:pageshadow="2"
     inkscape:zoom="2.254"
     inkscape:cx="157.49778"
     inkscape:cy="264.62038"
     inkscape:document-units="px"
     inkscape:current-layer="layer1"
     showgrid="false"
     units="px"
     inkscape:window-width="2560"
     inkscape:window-height="1340"
     inkscape:window-x="0"
     inkscape:window-y="1"
     inkscape:window-maximized="1" />
  <metadata
     id="metadata5303">
    <rdf:RDF>
      <cc:Work
         rdf:about="">
        <dc:format>image/svg+xml</dc:format>
        <dc:type
           rdf:resource="http://purl.org/dc/dcmitype/StillImage" />
        <dc:title></dc:title>
      </cc:Work>
    </rdf:RDF>
  </metadata>
  <g
     inkscape:label="Layer 1"
     inkscape:groupmode="layer"
     id="layer1"
     transform="translate(0,-159.70831)">
    <g
       id="g6743"
       clip-path="url(#clipPath6745)">
      <circle
         style="fill:#011c9b;fill-opacity:1;stroke:none;stroke-width:32.08246994;stroke-miterlimit:4;stroke-dasharray:none;stroke-opacity:1"
         id="circle6655"
         cx="137.46393"
         cy="464.31311"
         r="250"
         transform="rotate(-14.591129)" />
      <g
         id="g6698">
        <circle
           style="fill:#011c9b;fill-opacity:1;stroke:none;stroke-width:32.08246994;stroke-miterlimit:4;stroke-dasharray:none;stroke-opacity:1"
           id="path5851"
           cx="137.46393"
           cy="464.31311"
           r="250"
           transform="rotate(-14.591129)" />
        <g
           aria-label="  100     105     110     115     120     125     130     135     140     145     150     155     160"
           style="font-style:normal;font-variant:normal;font-weight:normal;font-stretch:normal;font-size:16px;line-height:1.25;font-family:sans-serif;-inkscape-font-specification:'sans-serif, Normal';font-variant-ligatures:normal;font-variant-caps:normal;font-variant-numeric:normal;font-feature-settings:normal;text-align:start;letter-spacing:0px;word-spacing:0px;writing-mode:lr-tb;text-anchor:start;fill:#dcdcdc;fill-opacity:1;stroke:none"
           id="text5914"
           transform="rotate(-14.591129,250,414.70831)">
          <path
             inkscape:connector-curvature="0"
             d="m 18.970187,402.45353 0.168662,-2.5726 -8.879375,-0.58215 0.377811,2.83548 -1.4344206,-0.094 -0.3788327,-2.81989 0.103242,-1.57474 10.3137953,0.67618 0.168663,-2.5726 1.32528,0.0869 -0.439545,6.70435 z"
             style="fill:#dcdcdc;fill-opacity:1"
             id="path5922" />
          <path
             inkscape:connector-curvature="0"
             d="m 10.826401,388.13653 q -0.133197,1.21145 0.995269,1.95643 1.121554,0.73636 3.51339,0.99934 2.384071,0.26213 3.646587,-0.21211 1.255605,-0.48285 1.388802,-1.6943 0.134051,-1.21922 -0.987503,-1.95558 -1.128466,-0.74498 -3.512536,-1.0071 -2.391837,-0.26298 -3.647442,0.21987 -1.262516,0.47424 -1.396567,1.69345 z m -1.2425126,-0.13661 q 0.2143105,-1.94919 1.8723906,-2.80435 1.651168,-0.86378 4.586604,-0.54104 2.927669,0.3219 4.359485,1.52465 1.424904,1.19413 1.210594,3.14332 -0.214311,1.94919 -1.865479,2.81297 -1.65808,0.85516 -4.58575,0.53327 -2.935435,-0.32275 -4.360339,-1.51688 -1.4318162,-1.20275 -1.2175056,-3.15194 z"
             style="fill:#dcdcdc;fill-opacity:1"
             id="path5924" />
          <path
             inkscape:connector-curvature="0"
             d="m 12.224762,377.57153 q -0.186695,1.20436 0.907685,1.99857 1.087857,0.78528 3.465707,1.15389 2.37013,0.3674 3.652402,-0.0505 1.275749,-0.42679 1.462445,-1.63116 0.187892,-1.21209 -0.899965,-1.99737 -1.09438,-0.79421 -3.46451,-1.16162 -2.37785,-0.3686 -3.653599,0.0582 -1.282273,0.41788 -1.470165,1.62997 z m -1.235247,-0.19149 q 0.300388,-1.93779 1.9947,-2.71871 1.687787,-0.78984 4.606058,-0.33746 2.91055,0.45118 4.287718,1.71613 1.370645,1.25604 1.070257,3.19383 -0.300389,1.9378 -1.988176,2.72764 -1.694311,0.78092 -4.604861,0.32974 -2.918271,-0.45238 -4.288916,-1.70842 -1.377168,-1.26495 -1.07678,-3.20275 z"
             style="fill:#dcdcdc;fill-opacity:1"
             id="path5926" />
          <path
             inkscape:connector-curvature="0"
             d="m 28.692439,347.07972 0.785924,-2.45541 -8.474896,-2.71263 -0.319262,2.84267 -1.369079,-0.43822 0.314499,-2.82778 0.481081,-1.50301 9.843974,3.15084 0.785923,-2.45542 1.26491,0.40487 -2.048164,6.39896 z"
             style="fill:#dcdcdc;fill-opacity:1"
             id="path5928" />
          <path
             inkscape:connector-curvature="0"
             d="m 24.258942,331.21319 q -0.422952,1.14301 0.491214,2.13937 0.909549,0.98632 3.166254,1.82138 2.249378,0.83235 3.589206,0.67837 1.335213,-0.16401 1.758164,-1.30702 0.425663,-1.15033 -0.483887,-2.13665 -0.914165,-0.99636 -3.163543,-1.82871 -2.256705,-0.83505 -3.591917,-0.67104 -1.339828,0.15397 -1.765491,1.3043 z m -1.172314,-0.43379 q 0.680518,-1.83907 2.496466,-2.26669 1.811332,-0.43767 4.580924,0.58718 2.762266,1.02213 3.859738,2.53615 1.092857,1.50398 0.412338,3.34305 -0.680518,1.83907 -2.49185,2.27673 -1.815948,0.42763 -4.578213,-0.59451 -2.769593,-1.02484 -3.862449,-2.52882 -1.097473,-1.51402 -0.416954,-3.35309 z"
             style="fill:#dcdcdc;fill-opacity:1"
             id="path5930" />
          <path
             inkscape:connector-curvature="0"
             d="m 25.917681,323.99196 2.406907,-5.70865 1.223797,0.51599 -1.845397,4.37687 2.634762,1.11088 q 0.02557,-0.36228 0.108723,-0.70027 0.07596,-0.34103 0.209507,-0.65778 0.758798,-1.7997 2.188172,-2.4349 1.429374,-0.63521 3.113894,0.075 1.734911,0.73148 2.244272,2.21802 0.502162,1.4835 -0.326445,3.44877 -0.285308,0.67669 -0.697938,1.33361 -0.409594,0.64972 -0.955616,1.30127 l -1.461357,-0.61615 q 0.625908,-0.49916 1.090058,-1.1174 0.46415,-0.61824 0.788915,-1.38852 0.525089,-1.24539 0.176552,-2.24867 -0.348537,-1.00328 -1.47155,-1.47677 -1.123013,-0.47349 -2.084659,-0.0226 -0.961645,0.45088 -1.486734,1.69627 -0.24585,0.58311 -0.362122,1.22084 -0.113237,0.63054 -0.09464,1.35058 z"
             style="fill:#dcdcdc;fill-opacity:1"
             id="path5932" />
          <path
             inkscape:connector-curvature="0"
             d="m 51.556571,295.71826 1.357468,-2.19181 -7.565046,-4.68532 -0.99855,2.68059 -1.222097,-0.75689 0.990323,-2.66731 0.830935,-1.34165 8.787144,5.44222 1.357468,-2.19181 1.129112,0.6993 -3.537646,5.71198 z"
             style="fill:#dcdcdc;fill-opacity:1"
             id="path5934" />
          <path
             inkscape:connector-curvature="0"
             d="m 57.027238,287.05457 1.453071,-2.12963 -7.350441,-5.01529 -1.116119,2.63381 -1.187429,-0.8102 1.107313,-2.6209 0.889456,-1.30359 8.537869,5.82549 1.453072,-2.12963 1.09708,0.74856 -3.786792,5.54993 z"
             style="fill:#dcdcdc;fill-opacity:1"
             id="path5936" />
          <path
             inkscape:connector-curvature="0"
             d="m 57.294235,270.58519 q -0.730681,0.97542 -0.137784,2.1907 0.591327,1.20435 2.517169,2.64697 1.919589,1.43795 3.247851,1.67155 1.326692,0.22266 2.057373,-0.75277 0.735365,-0.98168 0.144038,-2.18602 -0.592897,-1.21528 -2.512486,-2.65322 -1.925842,-1.44263 -3.252534,-1.66529 -1.328262,-0.2336 -2.063627,0.74808 z m -1.000437,-0.74942 q 1.175647,-1.56944 3.03821,-1.46271 1.860993,0.0958 4.224527,1.86629 2.35728,1.76581 2.978621,3.52951 0.619773,1.75276 -0.555874,3.3222 -1.175647,1.56944 -3.036641,1.47365 -1.862563,-0.10673 -4.219843,-1.87254 -2.363533,-1.7705 -2.983306,-3.52326 -0.621341,-1.7637 0.554306,-3.33314 z"
             style="fill:#dcdcdc;fill-opacity:1"
             id="path5938" />
          <path
             inkscape:connector-curvature="0"
             d="m 86.139396,251.39262 1.844218,-1.80155 -6.218084,-6.36534 -1.613219,2.36224 -1.004502,-1.02829 1.602042,-2.35133 1.128885,-1.10276 7.222586,7.39363 1.844217,-1.80155 0.928073,0.95005 -4.806143,4.69496 z"
             style="fill:#dcdcdc;fill-opacity:1"
             id="path5940" />
          <path
             inkscape:connector-curvature="0"
             d="m 93.530404,244.29652 1.921719,-1.71864 -5.931913,-6.63284 -1.715622,2.28895 -0.958272,-1.0715 1.703975,-2.27854 1.176325,-1.05202 6.890185,7.70435 1.921719,-1.71864 0.88536,0.98998 -5.008116,4.47888 z"
             style="fill:#dcdcdc;fill-opacity:1"
             id="path5942" />
          <path
             inkscape:connector-curvature="0"
             d="m 94.482842,229.69549 4.795344,-3.92258 0.840904,1.02801 -3.676631,3.00747 1.810418,2.21324 q 0.191874,-0.30836 0.423321,-0.56833 0.2265,-0.26602 0.492572,-0.48367 1.51177,-1.23662 3.07232,-1.13036 1.56054,0.10626 2.71802,1.52128 1.19211,1.45735 0.94788,3.00963 -0.24918,1.54624 -1.90004,2.89664 -0.56843,0.46497 -1.24018,0.85297 -0.66572,0.38306 -1.4529,0.70399 l -1.00414,-1.22756 q 0.78662,-0.14888 1.48585,-0.47861 0.69924,-0.32974 1.34628,-0.85901 1.04615,-0.85575 1.20677,-1.90563 0.16063,-1.04988 -0.61103,-1.99323 -0.77165,-0.94334 -1.83254,-0.99403 -1.06089,-0.0507 -2.107034,0.80505 -0.489814,0.40067 -0.890592,0.91018 -0.39473,0.50457 -0.714719,1.14987 z"
             style="fill:#dcdcdc;fill-opacity:1"
             id="path5944" />
          <path
             inkscape:connector-curvature="0"
             d="m 130.35021,216.66277 2.22317,-1.30547 -4.50584,-7.6733 -2.13371,1.90524 -0.72789,-1.23959 2.12023,-1.89733 1.36085,-0.7991 5.23374,8.91289 2.22317,-1.30547 0.67251,1.14527 -5.79372,3.40213 z"
             style="fill:#dcdcdc;fill-opacity:1"
             id="path5946" />
          <path
             inkscape:connector-curvature="0"
             d="m 140.19077,211.04367 4.86853,-2.57553 0.62105,1.17397 -6.54662,3.46327 -0.62105,-1.17397 q 0.35942,-1.24191 0.99611,-3.34639 0.63993,-2.11505 0.78024,-2.70189 0.27165,-1.10709 0.26007,-1.76384 -0.008,-0.66731 -0.275,-1.17143 -0.43474,-0.82178 -1.28881,-1.03284 -0.84717,-0.21471 -1.77254,0.27482 -0.65604,0.34706 -1.26749,0.96219 -0.60455,0.61148 -1.18847,1.51255 l -0.74526,-1.40876 q 0.66349,-0.78408 1.30417,-1.34397 0.64067,-0.55988 1.24838,-0.88137 1.60213,-0.84755 2.97889,-0.55063 1.37677,0.29692 2.08549,1.63663 0.3361,0.63532 0.39762,1.33636 0.0648,0.69048 -0.15449,1.79637 -0.0667,0.29159 -0.48426,1.74102 -0.42122,1.44253 -1.19656,4.05344 z"
             style="fill:#dcdcdc;fill-opacity:1"
             id="path5948" />
          <path
             inkscape:connector-curvature="0"
             d="m 147.15519,197.10926 q -1.10156,0.52147 -1.14462,1.87298 -0.0393,1.3411 0.99022,3.51597 1.02621,2.16781 2.09176,2.99451 1.06928,0.8163 2.17084,0.29483 1.10861,-0.5248 1.14796,-1.86591 0.0431,-1.3515 -0.98315,-3.51931 -1.02956,-2.17487 -2.09883,-2.99117 -1.06556,-0.8267 -2.17418,-0.3019 z m -0.53483,-1.1298 q 1.77237,-0.83902 3.36966,0.12493 1.60101,0.95355 2.86455,3.62271 1.2602,2.6621 0.98626,4.51187 -0.27023,1.83937 -2.04261,2.67839 -1.77238,0.83902 -3.37338,-0.11453 -1.59729,-0.96395 -2.85749,-3.62605 -1.26355,-2.66916 -0.99332,-4.50852 0.27395,-1.84978 2.04633,-2.6888 z"
             style="fill:#dcdcdc;fill-opacity:1"
             id="path5950" />
          <path
             inkscape:connector-curvature="0"
             d="m 181.63513,193.62682 2.47337,-0.72742 -2.5107,-8.53689 -2.53202,1.33099 -0.40559,-1.3791 2.51703,-1.32658 1.51401,-0.44527 2.91629,9.91599 2.47338,-0.72742 0.37473,1.27416 -6.44577,1.8957 z"
             style="fill:#dcdcdc;fill-opacity:1"
             id="path5952" />
          <path
             inkscape:connector-curvature="0"
             d="m 192.54513,190.56243 5.3481,-1.31674 0.31752,1.28962 -7.19149,1.77059 -0.31752,-1.28961 q 0.65013,-1.11752 1.77861,-3.00452 1.13419,-1.89645 1.41275,-2.43169 0.53226,-1.00804 0.68044,-1.64796 0.15391,-0.64937 0.0176,-1.20315 -0.22226,-0.90273 -0.99956,-1.31479 -0.76972,-0.41392 -1.78623,-0.16365 -0.72067,0.17743 -1.46315,0.62575 -0.73489,0.44645 -1.52007,1.17883 l -0.38101,-1.54753 q 0.83397,-0.59958 1.59139,-0.9872 0.75742,-0.38763 1.42498,-0.55199 1.75994,-0.43331 3.02346,0.18891 1.26352,0.62223 1.62586,2.09391 0.17183,0.69791 0.0613,1.39291 -0.10477,0.68555 -0.58591,1.70514 -0.13549,0.26669 -0.89239,1.57141 -0.75877,1.29714 -2.14469,3.64176 z"
             style="fill:#dcdcdc;fill-opacity:1"
             id="path5954" />
          <path
             inkscape:connector-curvature="0"
             d="m 199.18725,178.37381 6.07568,-1.21161 0.25974,1.30248 -4.65827,0.92895 0.5592,2.80416 q 0.3142,-0.18215 0.64061,-0.30301 0.32489,-0.12852 0.662,-0.19575 1.91541,-0.38197 3.24333,0.4446 1.32792,0.82658 1.68545,2.6194 0.36822,1.84646 -0.57629,3.1023 -0.94604,1.24818 -3.03767,1.66529 -0.72019,0.14362 -1.49548,0.17077 -0.76762,0.0256 -1.61333,-0.0607 l -0.31016,-1.55532 q 0.76442,0.23791 1.53661,0.27512 0.77218,0.0372 1.59198,-0.12628 1.32546,-0.26433 1.96025,-1.11585 0.63479,-0.85153 0.39644,-2.04675 -0.23835,-1.19521 -1.15122,-1.7381 -0.91286,-0.5429 -2.23832,-0.27857 -0.6206,0.12376 -1.21369,0.38542 -0.58543,0.26014 -1.17094,0.67963 z"
             style="fill:#dcdcdc;fill-opacity:1"
             id="path5956" />
          <path
             inkscape:connector-curvature="0"
             d="m 236.97555,183.72008 2.57583,-0.10869 -0.37517,-8.89053 -2.77848,0.68025 -0.0606,-1.43622 2.76286,-0.67959 1.57673,-0.0665 0.43577,10.32675 2.57584,-0.1087 0.056,1.32695 -6.71277,0.28327 z"
             style="fill:#dcdcdc;fill-opacity:1"
             id="path5958" />
          <path
             inkscape:connector-curvature="0"
             d="m 251.73026,178.42141 q 1.13248,0.24375 1.76424,1.01024 0.63957,0.76651 0.63802,1.89151 -0.002,1.72656 -1.19118,2.67024 -1.1888,0.94367 -3.3763,0.94066 -0.73438,-10e-4 -1.51542,-0.15053 -0.77324,-0.14169 -1.60097,-0.43189 l 0.002,-1.52344 q 0.65572,0.38372 1.4367,0.58011 0.78098,0.19639 1.63254,0.19756 1.48438,0.002 2.25862,-0.58283 0.78206,-0.58486 0.78359,-1.70204 0.001,-1.03125 -0.72434,-1.61038 -0.71794,-0.58693 -2.007,-0.5887 l -1.35938,-0.002 0.002,-1.29688 1.42187,0.002 q 1.16406,0.002 1.78189,-0.45848 0.61783,-0.4679 0.61903,-1.3429 0.001,-0.89844 -0.63873,-1.37588 -0.63214,-0.48525 -1.81964,-0.48688 -0.64844,-9e-4 -1.39082,0.13871 -0.74238,0.1396 -1.63341,0.43525 l 0.002,-1.40625 q 0.89878,-0.24877 1.6802,-0.37269 0.78923,-0.12391 1.48454,-0.12295 1.79688,0.002 2.84262,0.82423 1.04576,0.81394 1.04384,2.20456 -0.001,0.96875 -0.55695,1.63986 -0.5556,0.6633 -1.57939,0.9197 z"
             style="fill:#dcdcdc;fill-opacity:1"
             id="path5960" />
          <path
             inkscape:connector-curvature="0"
             d="m 260.97664,174.32942 q -1.21751,-0.0548 -1.88814,1.11941 -0.66246,1.16673 -0.77058,3.57055 -0.10777,2.39601 0.44693,3.6253 0.56286,1.22184 1.78038,1.2766 1.22532,0.0551 1.88779,-1.11161 0.67062,-1.17418 0.77839,-3.5702 0.10812,-2.40382 -0.45474,-3.62565 -0.5547,-1.22929 -1.78003,-1.2844 z m 0.0562,-1.24874 q 1.95896,0.0881 2.91931,1.68756 0.96851,1.592 0.83582,4.54214 -0.13234,2.94234 -1.24021,4.44877 -1.09971,1.49898 -3.05867,1.41087 -1.95895,-0.0881 -2.92746,-1.68011 -0.96036,-1.59945 -0.82802,-4.54179 0.13269,-2.95014 1.2324,-4.44912 1.10787,-1.50643 3.06683,-1.41832 z"
             style="fill:#dcdcdc;fill-opacity:1"
             id="path5962" />
          <path
             inkscape:connector-curvature="0"
             d="m 293.07861,187.36289 2.52691,0.51134 1.76488,-8.72166 -2.86053,-0.005 0.28511,-1.40894 2.84522,0.002 1.54677,0.313 -2.04999,10.1306 2.5269,0.51134 -0.26341,1.30174 -6.58528,-1.33258 z"
             style="fill:#dcdcdc;fill-opacity:1"
             id="path5964" />
          <path
             inkscape:connector-curvature="0"
             d="m 308.67729,185.75936 q 1.04063,0.50893 1.46953,1.40486 0.43647,0.89781 0.16443,1.98943 -0.41751,1.67532 -1.79835,2.30543 -1.38085,0.6301 -3.50343,0.10113 -0.71258,-0.17758 -1.43475,-0.51053 -0.71648,-0.32348 -1.45013,-0.80421 l 0.36839,-1.47823 q 0.5442,0.53014 1.25504,0.90858 0.71083,0.37843 1.53712,0.58435 1.44033,0.35894 2.3325,-0.0226 0.89975,-0.37963 1.1699,-1.46367 0.24937,-1.00064 -0.31583,-1.7373 -0.55573,-0.74235 -1.80654,-1.05407 l -1.31903,-0.32871 0.3136,-1.25839 1.37968,0.34383 q 1.12951,0.28149 1.83985,-0.0165 0.71222,-0.30559 0.9238,-1.15462 0.21726,-0.87178 -0.28912,-1.48911 -0.4969,-0.62302 -1.64916,-0.91018 -0.62919,-0.1568 -1.38336,-0.19982 -0.75416,-0.043 -1.69015,0.0297 l 0.34005,-1.36451 q 0.93223,-0.0253 1.72052,0.0423 0.79587,0.0695 1.47055,0.23765 1.74355,0.43451 2.561,1.48362 0.81933,1.04154 0.48306,2.3909 -0.23426,0.94 -0.93496,1.4578 -0.6988,0.51022 -1.75421,0.5129 z"
             style="fill:#dcdcdc;fill-opacity:1"
             id="path5966" />
          <path
             inkscape:connector-curvature="0"
             d="m 315.72146,182.06678 5.93863,1.76484 -0.37834,1.27309 -4.5532,-1.35311 -0.81453,2.74091 q 0.36289,-0.0144 0.70797,0.0311 0.34731,0.038 0.67682,0.13593 1.8722,0.55638 2.66067,1.90727 0.78847,1.35089 0.2677,3.10327 -0.53634,1.80481 -1.95788,2.47448 -1.41932,0.66218 -3.46376,0.0546 -0.70395,-0.2092 -1.40225,-0.54712 -0.6908,-0.33569 -1.39842,-0.80679 l 0.45178,-1.52023 q 0.56494,0.56725 1.23045,0.96063 0.66552,0.39338 1.46682,0.63151 1.29556,0.38501 2.25445,-0.0717 0.9589,-0.45671 1.30608,-1.62496 0.34718,-1.16825 -0.20667,-2.07451 -0.55385,-0.90626 -1.84941,-1.29127 -0.6066,-0.18027 -1.25325,-0.22574 -0.63916,-0.0432 -1.35279,0.0544 z"
             style="fill:#dcdcdc;fill-opacity:1"
             id="path5968" />
          <path
             inkscape:connector-curvature="0"
             d="m 346.64015,204.44932 2.32709,1.10967 3.83003,-8.03201 -2.77371,-0.69945 0.61873,-1.29753 2.7596,0.69273 1.42446,0.67925 -4.44875,9.32953 2.3271,1.10967 -0.57165,1.1988 -6.06455,-2.89185 z"
             style="fill:#dcdcdc;fill-opacity:1"
             id="path5970" />
          <path
             inkscape:connector-curvature="0"
             d="m 363.64832,202.94114 -6.44378,3.62258 3.51666,1.87306 z m 0.28093,-1.40824 1.75143,0.93286 -3.5735,6.70923 1.46872,0.78228 -0.61701,1.15843 -1.46872,-0.78228 -1.29278,2.42718 -1.38598,-0.7382 1.29278,-2.42719 -4.6475,-2.47538 0.71617,-1.3446 z"
             style="fill:#dcdcdc;fill-opacity:1"
             id="path5972" />
          <path
             inkscape:connector-curvature="0"
             d="m 372.25163,207.41045 q -1.04921,-0.62008 -2.19268,0.10166 -1.13276,0.719 -2.35702,2.79053 -1.22029,2.0648 -1.30781,3.4106 -0.0768,1.34306 0.97239,1.96314 1.05594,0.62405 2.1887,-0.0949 1.14347,-0.72174 2.36375,-2.78654 1.22427,-2.07153 1.30109,-3.41458 0.0875,-1.34581 -0.96842,-1.96986 z m 0.63598,-1.07612 q 1.68816,0.99769 1.78496,2.8608 0.1075,1.86035 -1.39501,4.40268 -1.49853,2.5356 -3.18405,3.34537 -1.67482,0.80701 -3.36298,-0.19069 -1.68816,-0.99769 -1.79566,-2.85804 -0.0968,-1.86311 1.40173,-4.39871 1.50251,-2.54233 3.17733,-3.34934 1.68552,-0.80976 3.37368,0.18793 z"
             style="fill:#dcdcdc;fill-opacity:1"
             id="path5974" />
          <path
             inkscape:connector-curvature="0"
             d="m 394.46771,234.00047 1.99097,1.63792 5.65329,-6.87187 -2.5233,-1.34746 0.91326,-1.11012 2.51123,1.33754 1.21872,1.0026 -6.56655,7.98198 1.99097,1.63792 -0.84377,1.02565 -5.18859,-4.26851 z"
             style="fill:#dcdcdc;fill-opacity:1"
             id="path5976" />
          <path
             inkscape:connector-curvature="0"
             d="m 411.33641,236.63212 -7.12622,1.96527 2.9625,2.66437 z m 0.6116,-1.29924 1.47544,1.32696 -5.08319,5.65199 1.23728,1.11276 -0.87767,0.97589 -1.23728,-1.11277 -1.83893,2.04471 -1.16758,-1.05007 1.83894,-2.04471 -3.91515,-3.52114 1.01872,-1.13272 z"
             style="fill:#dcdcdc;fill-opacity:1"
             id="path5978" />
          <path
             inkscape:connector-curvature="0"
             d="m 416.94156,239.94137 4.41961,4.34153 -0.93072,0.94746 -3.38856,-3.32869 -2.00378,2.03982 q 0.32735,0.15729 0.61089,0.35917 0.28903,0.19631 0.53425,0.4372 1.39332,1.3687 1.45697,2.93157 0.0636,1.56286 -1.21746,2.86701 -1.31944,1.34316 -2.88905,1.26876 -1.56415,-0.08 -3.08565,-1.57461 -0.52389,-0.51463 -0.98248,-1.14034 -0.45301,-0.62023 -0.85743,-1.36795 l 1.11139,-1.13138 q 0.23333,0.76582 0.63696,1.42517 0.40364,0.65934 0.99998,1.24514 0.96418,0.94715 2.02529,0.99294 1.06111,0.0458 1.91518,-0.82364 0.85408,-0.86944 0.78939,-1.92956 -0.0647,-1.06013 -1.02887,-2.00727 -0.45144,-0.44346 -1.00142,-0.78661 -0.54441,-0.33766 -1.22061,-0.58576 z"
             style="fill:#dcdcdc;fill-opacity:1"
             id="path5980" />
          <path
             inkscape:connector-curvature="0"
             d="m 433.79188,274.1794 1.53989,2.06772 7.13677,-5.31496 -2.12636,-1.91345 1.15291,-0.8586 2.11702,1.90091 0.9426,1.2657 -8.28967,6.17357 1.53989,2.06771 -1.06519,0.79328 -4.01305,-5.3886 z"
             style="fill:#dcdcdc;fill-opacity:1"
             id="path5982" />
          <path
             inkscape:connector-curvature="0"
             d="m 448.24986,276.43501 3.47742,5.12732 -1.09917,0.74548 -2.66617,-3.93117 -2.36646,1.60497 q 0.28994,0.21871 0.52814,0.47251 0.24467,0.24941 0.43762,0.5339 1.09629,1.61643 0.85071,3.16119 -0.24557,1.54477 -1.75855,2.57089 -1.55824,1.05682 -3.08242,0.67457 -1.51772,-0.38664 -2.71486,-2.15178 -0.41221,-0.60778 -0.7385,-1.31159 -0.3219,-0.69733 -0.57106,-1.51009 l 1.31255,-0.89019 q 0.0778,0.79679 0.34364,1.52274 0.26579,0.72596 0.735,1.41779 0.75863,1.11857 1.78991,1.37256 1.03128,0.25399 2.03994,-0.43009 1.00865,-0.68408 1.15413,-1.73617 0.14549,-1.05208 -0.61314,-2.17066 -0.3552,-0.52372 -0.82678,-0.96851 -0.46719,-0.43833 -1.08124,-0.81481 z"
             style="fill:#dcdcdc;fill-opacity:1"
             id="path5984" />
          <path
             inkscape:connector-curvature="0"
             d="m 455.06095,288.74808 q -0.6388,-1.03792 -1.98692,-0.93293 -1.33736,0.10756 -3.38659,1.36878 -2.04258,1.25713 -2.7478,2.4067 -0.69447,1.15213 -0.0557,2.19005 0.6429,1.04458 1.98026,0.93703 1.34811,-0.105 3.39069,-1.36213 2.04924,-1.26122 2.74371,-2.41335 0.70521,-1.14957 0.0623,-2.19415 z m 1.06453,-0.65518 q 1.02782,1.66999 0.24432,3.36312 -0.77274,1.69568 -3.28771,3.24354 -2.50832,1.54377 -4.37695,1.47375 -1.85789,-0.0675 -2.8857,-1.73745 -1.02782,-1.66999 -0.25507,-3.36567 0.78349,-1.69312 3.29181,-3.23689 2.51497,-1.54787 4.37285,-1.48041 1.86864,0.07 2.89645,1.74001 z"
             style="fill:#dcdcdc;fill-opacity:1"
             id="path5986" />
          <path
             inkscape:connector-curvature="0"
             d="m 462.30178,322.63532 0.99489,2.37842 8.20918,-3.43389 -1.60126,-2.37038 1.32616,-0.55472 1.59522,2.35595 0.609,1.45589 -9.53533,3.98862 0.9949,2.37843 -1.22525,0.51252 -2.59276,-6.19832 z"
             style="fill:#dcdcdc;fill-opacity:1"
             id="path5988" />
          <path
             inkscape:connector-curvature="0"
             d="m 475.78799,328.32121 2.13356,5.81634 -1.24688,0.45739 -1.63582,-4.45944 -2.68447,0.98472 q 0.2284,0.28236 0.39813,0.58625 0.17706,0.3012 0.29544,0.62392 0.67262,1.83365 0.0606,3.2731 -0.61203,1.43945 -2.32833,2.06903 -1.76764,0.6484 -3.15405,-0.0913 -1.37907,-0.74236 -2.11358,-2.74471 -0.2529,-0.68945 -0.39922,-1.45129 -0.14362,-0.7545 -0.18872,-1.6034 l 1.48892,-0.54617 q -0.11725,0.79195 -0.035,1.56065 0.0822,0.76869 0.37013,1.55349 0.46546,1.26889 1.40465,1.76485 0.93919,0.49596 2.08338,0.0762 1.1442,-0.41972 1.53991,-1.40535 0.39571,-0.98563 -0.0697,-2.25452 -0.21793,-0.5941 -0.56788,-1.13977 -0.34727,-0.53834 -0.85198,-1.05221 z"
             style="fill:#dcdcdc;fill-opacity:1"
             id="path5990" />
          <path
             inkscape:connector-curvature="0"
             d="m 479.39235,338.4047 1.87189,5.90575 -1.26605,0.40129 -1.4352,-4.52799 -2.72573,0.86395 q 0.21557,0.29227 0.37157,0.60343 0.16344,0.3088 0.2673,0.63649 0.59013,1.86183 -0.0855,3.27254 -0.67566,1.4107 -2.41834,1.96306 -1.79481,0.56889 -3.14683,-0.23191 -1.34458,-0.80315 -1.989,-2.83628 -0.22189,-0.70005 -0.33406,-1.46766 -0.10981,-0.76016 -0.11699,-1.61022 l 1.51181,-0.47919 q -0.15247,0.78593 -0.1046,1.55753 0.0479,0.7716 0.30045,1.56846 0.40837,1.2884 1.32449,1.82577 0.91612,0.53738 2.07791,0.16914 1.16179,-0.36824 1.60108,-1.33523 0.4393,-0.96699 0.0309,-2.25538 -0.1912,-0.60324 -0.51645,-1.16399 -0.3229,-0.5533 -0.80418,-1.08918 z"
             style="fill:#dcdcdc;fill-opacity:1"
             id="path5992" />
          <path
             inkscape:connector-curvature="0"
             d="m 478.21786,376.5562 0.38777,2.5488 8.79721,-1.33837 -0.97794,-2.68818 1.42114,-0.21621 0.9756,2.67273 0.23735,1.56018 -10.21836,1.55458 0.38777,2.54879 -1.31302,0.19976 -1.01054,-6.64232 z"
             style="fill:#dcdcdc;fill-opacity:1"
             id="path5994" />
          <path
             inkscape:connector-curvature="0"
             d="m 485.12525,389.43054 q -0.11316,-1.05645 -0.90216,-1.60051 -0.78816,-0.5363 -2.04659,-0.4015 -1.25065,0.13396 -1.91512,0.82586 -0.65586,0.69882 -0.5427,1.75528 0.11316,1.05646 0.90133,1.59275 0.79676,0.54323 2.04742,0.40927 1.25843,-0.1348 1.91429,-0.83363 0.6567,-0.69106 0.54353,-1.74752 z m 5.25085,2.58829 -1.42932,0.1531 q 0.21641,-0.62032 0.2991,-1.24204 0.0835,-0.61395 0.0203,-1.20433 -0.16642,-1.55361 -1.30331,-2.26469 -1.13606,-0.70332 -3.26922,-0.59268 0.72492,0.38592 1.1563,1.03901 0.43916,0.65224 0.52819,1.48343 0.18722,1.74781 -0.76884,2.87165 -0.94745,1.13078 -2.77295,1.32632 -1.78665,0.19138 -2.97957,-0.74942 -1.19293,-0.94079 -1.38098,-2.69638 -0.21551,-2.01193 1.20858,-3.2409 1.43184,-1.22981 4.3604,-1.5435 2.7499,-0.29456 4.52098,0.83574 1.77885,1.12946 2.01433,3.32783 0.0632,0.59037 0.0108,1.20099 -0.0516,0.61839 -0.21477,1.29587 z"
             style="fill:#dcdcdc;fill-opacity:1"
             id="path5996" />
          <path
             inkscape:connector-curvature="0"
             d="m 490.14612,399.40907 q -0.0763,-1.21635 -1.31577,-1.75696 -1.23114,-0.5333 -3.63266,-0.38256 -2.39373,0.15025 -3.55632,0.83379 -1.1543,0.69086 -1.07795,1.90721 0.0768,1.22416 1.30798,1.75746 1.23942,0.5406 3.63315,0.39035 2.40152,-0.15073 3.55582,-0.84159 1.16259,-0.68354 1.08575,-1.9077 z m 1.24755,-0.0783 q 0.12284,1.95708 -1.36419,3.0837 -1.47875,1.13392 -4.42607,1.31892 -2.93953,0.18451 -4.55625,-0.75512 -1.60844,-0.93232 -1.73128,-2.88941 -0.12285,-1.95709 1.3559,-3.09101 1.48703,-1.12662 4.42656,-1.31112 2.94732,-0.185 4.55576,0.74732 1.61673,0.93963 1.73957,2.89672 z"
             style="fill:#dcdcdc;fill-opacity:1"
             id="path5998" />
        </g>
      </g>
    </g>
    <path
       sodipodi:nodetypes="czccscc"
       inkscape:connector-curvature="0"
       id="path5886"
       d="m 73.003005,238.28186 c 0,0 66.525795,-73.35172 176.996995,-73.57355 110.4712,-0.22183 177.6813,74.23903 177.6813,74.23903 l -85.55149,85.10783 c 0,0 -35.40692,-38.95462 -92.12981,-38.67886 -58.49728,0.28438 -91.7054,38.27326 -91.7054,38.27326 z"
       style="fill:none;stroke:#dddddd;stroke-width:1px;stroke-linecap:butt;stroke-linejoin:miter;stroke-opacity:1" />
    <rect
       style="fill:none;fill-opacity:1;stroke:none;stroke-width:15.60000038;stroke-miterlimit:4;stroke-dasharray:none;stroke-opacity:1"
       id="rect5872"
       width="346.33801"
       height="156.85599"
       x="77.173141"
       y="165.27885" />
    <circle
       cy="-414.70831"
       cx="-250"
       id="circle5910"
       style="fill:none;fill-opacity:1;stroke:none;stroke-width:0.97894502;stroke-miterlimit:4;stroke-dasharray:none;stroke-opacity:1"
       r="230"
       transform="scale(-1)" />
  </g>
</svg>
