<?xml version="1.0" encoding="UTF-8" standalone="no"?>
<!-- Created with Inkscape (http://www.inkscape.org/) -->

<svg
   xmlns:dc="http://purl.org/dc/elements/1.1/"
   xmlns:cc="http://creativecommons.org/ns#"
   xmlns:rdf="http://www.w3.org/1999/02/22-rdf-syntax-ns#"
   xmlns:svg="http://www.w3.org/2000/svg"
   xmlns="http://www.w3.org/2000/svg"
   xmlns:xlink="http://www.w3.org/1999/xlink"
   xmlns:sodipodi="http://sodipodi.sourceforge.net/DTD/sodipodi-0.dtd"
   xmlns:inkscape="http://www.inkscape.org/namespaces/inkscape"
   width="500"
   height="505"
   viewBox="0 0 500 505"
   version="1.1"
   id="svg5306"
   inkscape:version="0.92.2 5c3e80d, 2017-08-06"
   sodipodi:docname="circle-with-images-scale-clipped.plain.svg">
  <defs
     id="defs5300">
    <clipPath
       clipPathUnits="userSpaceOnUse"
       id="clipPath9953">
      <path
         style="fill:none;stroke:#000000;stroke-width:1px;stroke-linecap:butt;stroke-linejoin:miter;stroke-opacity:1"
         d="m 73.003005,238.28186 c 0,0 66.525795,-73.35172 176.996995,-73.57355 110.4712,-0.22183 177.6813,74.23903 177.6813,74.23903 l -85.55149,85.10783 c 0,0 -35.40692,-38.95462 -92.12981,-38.67886 -58.49728,0.28438 -91.7054,38.27326 -91.7054,38.27326 z"
         id="path9955"
         inkscape:connector-curvature="0"
         sodipodi:nodetypes="czccscc" />
    </clipPath>
    <clipPath
       clipPathUnits="userSpaceOnUse"
       id="clipPath10464">
      <path
         style="fill:none;stroke:none;stroke-width:1px;stroke-linecap:butt;stroke-linejoin:miter;stroke-opacity:1"
         d="m 73.003005,238.28186 c 0,0 66.525795,-73.35172 176.996995,-73.57355 110.4712,-0.22183 177.6813,74.23903 177.6813,74.23903 l -85.55149,85.10783 c 0,0 -35.40692,-38.95462 -92.12981,-38.67886 -58.49728,0.28438 -91.7054,38.27326 -91.7054,38.27326 z"
         id="path10466"
         inkscape:connector-curvature="0"
         sodipodi:nodetypes="czccscc" />
    </clipPath>
  </defs>
  <sodipodi:namedview
     id="base"
     pagecolor="#ffffff"
     bordercolor="#666666"
     borderopacity="1.0"
     inkscape:pageopacity="0.0"
     inkscape:pageshadow="2"
     inkscape:zoom="2.2673267"
     inkscape:cx="250"
     inkscape:cy="285.04386"
     inkscape:document-units="px"
     inkscape:current-layer="layer1"
     showgrid="true"
     units="px"
     inkscape:window-width="2560"
     inkscape:window-height="1340"
     inkscape:window-x="0"
     inkscape:window-y="1"
     inkscape:window-maximized="1"
     inkscape:snap-global="false">
    <inkscape:grid
       type="xygrid"
       id="grid7947" />
  </sodipodi:namedview>
  <metadata
     id="metadata5303">
    <rdf:RDF>
      <cc:Work
         rdf:about="">
        <dc:format>image/svg+xml</dc:format>
        <dc:type
           rdf:resource="http://purl.org/dc/dcmitype/StillImage" />
        <dc:title></dc:title>
      </cc:Work>
    </rdf:RDF>
  </metadata>
  <g
     inkscape:label="Layer 1"
     inkscape:groupmode="layer"
     id="layer1"
     transform="translate(0,-159.70831)">
    <circle
       cy="221.73535"
       cx="-430.48395"
       id="circlefortextpath"
       style="fill:none;fill-opacity:1;stroke:none;stroke-width:0.93638217;stroke-miterlimit:4;stroke-dasharray:none;stroke-opacity:1"
       transform="rotate(-93.830706)"
       r="220" />
    <g
       id="g10462"
       clip-path="url(#clipPath10464)">
      <circle
         r="250"
         cy="414.70831"
         cx="250"
         id="clippreventioncircle"
         style="fill:none;fill-opacity:1;stroke:none;stroke-width:32.08246994;stroke-miterlimit:4;stroke-dasharray:none;stroke-opacity:1" />
      <g
         id="completescale">
        <circle
           r="250"
           cy="414.70831"
           cx="250"
           id="bluebackgroundcircle"
           style="fill:#011c9b;fill-opacity:1;stroke:none;stroke-width:32.08246994;stroke-miterlimit:4;stroke-dasharray:none;stroke-opacity:1" />
        <path
           inkscape:connector-curvature="0"
           id="feather"
           d="m 296.61877,208.80844 c -0.48434,0.49376 -1.70558,3.39325 -1.70291,1.22151 -3.13236,1.52625 -5.55026,7.55164 -4.46938,8.75715 -0.0757,-1.86409 -0.94918,-4.55593 -1.96116,-1.24635 -0.44862,0.85045 -0.35276,4.97184 -1.13163,2.27554 -3.30761,1.91806 -5.29446,6.03132 -4.06839,9.76932 0.3908,1.67423 0.15787,4.31662 -0.2602,1.05282 0.11555,-2.34789 -3.25814,-4.23609 -3.27041,-0.77917 -0.53076,1.53869 -1.06462,6.54619 -0.83081,5.75349 0.38914,-2.55717 -1.89741,-2.62634 -2.31819,-0.36443 -1.619,1.52098 -2.53672,6.79618 -2.31725,6.75091 0.43267,-2.35929 -1.49979,-2.46215 -1.46755,-0.15442 -0.0524,0.86139 -0.23819,2.44366 -0.52369,0.55895 -2.37411,0.96696 -2.1875,6.96077 -2.66449,6.41757 -2.35521,-2.49295 -3.59933,3.96385 -4.24811,5.74969 -0.3506,3.22978 -3.65894,5.62088 -2.90111,8.95671 1.41296,2.09183 3.47603,-2.57947 5.15781,-3.05342 10.48686,-9.21425 19.09092,-20.52361 25.36704,-32.98272 -5.87262,13.59536 -14.77675,25.88643 -26.15247,35.40255 -7.04975,6.05891 -14.89216,11.16713 -23.17335,15.37606 0.62614,2.04059 5.37102,-1.95198 7.30558,-2.61424 4.10507,-2.33809 7.97462,-5.0559 11.855,-7.74235 3.60022,0.29469 7.31999,0.41655 10.64952,-1.20597 2.24334,-1.5064 2.40075,-4.5211 5.35864,-5.06633 2.3745,-1.60223 -2.32584,-2.88156 0.64634,-2.69817 4.38219,-0.99862 7.19496,-4.81554 10.01813,-7.99648 -1.51482,-0.78458 -7.00305,-0.0901 -2.5616,-0.85684 4.12106,-0.55211 7.56347,-3.66668 9.12365,-7.43545 2.10233,-1.99873 -0.49672,-3.06842 -1.95288,-1.4301 -4.03662,0.5936 3.05093,-2.01238 3.79631,-3.57786 2.29711,-1.69798 2.39031,-4.69054 1.09873,-6.73669 0.80394,-0.93485 4.49256,-2.75435 1.23498,-2.96487 2.22673,-1.32947 4.02245,-7.17024 0.95675,-7.21297 -1.10848,0.98439 -2.94049,1.88722 -0.8139,0.41287 2.00744,-1.24651 3.54533,-6.78554 1.2393,-6.68951 -1.03323,0.0601 0.75461,-5.0543 -0.29143,-6.78832 -1.50005,-3.47966 -3.15356,0.0743 -4.7274,1.14095 z"
           style="fill:#c4c3c1;fill-opacity:1;stroke-width:0.10158391" />
        <path
           inkscape:connector-curvature="0"
           style="fill:#c4c3c1;fill-opacity:1;stroke-width:1.87049615"
           d="m 242.96714,605.54499 c 1.69259,0.96986 3.52072,1.84489 5.40093,2.31738 4.24729,1.06745 8.54203,1.94598 12.81519,2.8612 1.01071,0.21573 1.84601,1.2386 2.06854,2.24749 0.6694,2.98331 2.6184,5.55051 5.6348,7.11297 1.17393,0.60788 1.25356,1.19939 0.84955,2.25429 -0.25753,0.67036 -0.48667,1.35007 -0.7101,2.02741 -0.32003,0.98201 0.10236,2.29869 1.09311,2.59269 2.37954,0.70667 5.7371,0.33197 7.91232,-0.98884 0.88138,-0.53714 0.98716,-1.93649 0.46534,-2.82761 -0.28519,-0.49974 -0.58509,-1.00007 -0.88281,-1.50696 -0.52178,-0.89127 -0.30656,-2.15953 0.38359,-2.92849 2.07809,-2.31547 3.1317,-4.97506 2.95522,-8.09595 -0.0493,-1.03388 0.51481,-2.21751 1.44793,-2.65729 3.38115,-1.59386 6.73505,-3.10485 9.94897,-4.86966 2.29962,-1.26141 4.5917,-2.78754 6.35709,-4.68773 1.39822,-1.50621 2.53107,-3.68578 2.81632,-5.70223 0.37367,-2.6275 -1.05544,-7.93217 -3.48291,-11.2463 -0.6078,-0.83511 -1.70505,-0.72099 -2.27972,0.13325 -0.5312,0.79384 -1.07621,1.57272 -1.72646,2.24978 -1.71906,1.79059 -1.50849,3.68894 -0.61272,5.64677 0.27007,0.60338 0.6321,1.16567 1.03268,1.7707 0.57143,0.86057 0.3498,1.60487 -0.4976,1.65519 -0.54026,0.0324 -1.035,0.0679 -1.52643,0.1337 -1.53972,0.20388 -3.59245,1.17933 -4.46721,0.53139 -1.04001,-0.76824 -1.19634,-2.88884 -1.46289,-4.46888 -0.1321,-0.78839 0.10024,-1.87955 0.59245,-2.49136 1.83421,-2.27673 3.92488,-4.34667 5.77193,-6.61179 3.0441,-3.74192 4.34149,-7.88851 2.07498,-12.50541 -1.95131,-3.97449 -4.01518,-7.89513 -6.10216,-11.8015 -2.05448,-3.84637 -1.61475,-5.50537 2.22386,-7.81392 0.14244,-0.0834 0.26628,-0.21184 0.40633,-0.35561 0.20357,-0.217 0.18913,-0.4917 -0.0317,-0.62911 -0.16971,-0.10938 -0.3098,-0.19054 -0.42461,-0.16837 -3.26691,0.65693 -6.55362,1.24697 -9.76903,2.10104 -0.92107,0.24166 -1.66374,1.07067 -0.41909,2.30882 0.84368,0.84056 1.45524,2.21458 1.57706,3.41145 0.35569,3.51658 0.31077,7.07139 0.64056,10.59131 0.0768,0.72862 0.29212,1.4423 0.52968,2.11609 0.35927,0.96771 -0.0849,2.15875 -0.99004,2.65717 -2.13698,1.17638 -4.23683,2.3349 -6.39117,3.52303 -0.90516,0.49824 -1.60816,0.066 -1.57148,-0.96642 0.0334,-0.94528 0.0684,-1.87762 0.10675,-2.81021 0.10855,-2.59532 -1.28005,-4.12066 -3.54076,-3.84499 -5.74666,0.70061 -11.05518,2.69041 -15.39281,6.49332 -1.34083,1.17443 -2.59682,1.60666 -3.85507,1.63163 -1.03275,0.0187 -1.96156,-1.0446 -2.08222,-2.07025 -0.25148,-2.11762 -0.47977,-4.17388 -0.82731,-6.20956 -0.56295,-3.31481 -2.05342,-6.59015 -0.74073,-10.14281 0.35572,-0.96953 0.16812,-1.9108 -0.64353,-2.2124 -0.53355,-0.1972 -1.02318,-0.35007 -1.51177,-0.34785 -2.57349,0.005 -5.14751,0.21105 -7.71875,0.37937 -0.24856,0.0177 -0.49634,0.0785 -0.74009,0.14883 -0.40047,0.11967 -0.73534,0.35958 -0.74962,0.52592 -0.0198,0.16771 0.2848,0.4145 0.67981,0.55418 0.23446,0.0834 0.47211,0.16433 0.71177,0.23501 3.33093,0.97921 4.45756,2.9471 3.61127,6.2855 -0.80349,3.16121 -1.83189,6.29107 -2.30594,9.50268 -0.45802,3.11535 -1.10544,6.53198 -0.29728,9.43441 1.23868,4.47589 5.13076,6.73995 8.88933,9.16167 0.86879,0.56032 1.66856,0.19758 1.86439,-0.81558 2.56065,-13.15962 12.27894,-18.57867 19.96707,-19.49353 1.02614,-0.1207 1.88174,0.66854 1.90155,1.6652 0.005,0.60328 0.004,1.20436 -0.0618,1.79742 -0.15807,1.46842 0.43728,2.03516 1.77267,2.66226 2.37908,1.11581 4.7674,2.42284 6.74288,4.12768 1.75368,1.51083 3.52184,3.15155 4.46809,5.4217 0.39696,0.95624 -0.051,1.19063 -0.81736,0.49885 -5.55808,-5.02216 -11.9939,-7.29393 -19.09537,-3.76694 -6.27844,3.11999 -12.25078,7.20423 -12.66305,15.1034 -0.0572,1.03134 -0.82659,1.97624 -1.85204,2.10724 -1.15774,0.14918 -2.27654,0.29101 -3.32491,0.4247 -1.02379,0.13045 -1.77467,-0.59737 -1.60631,-1.61619 0.3174,-1.87525 0.71907,-3.75584 0.084,-5.17563 -0.68742,-1.54139 -2.40303,-2.62312 -4.08427,-3.81884 -0.8413,-0.59783 -1.80906,-0.35519 -2.10619,0.6337 -0.88669,2.92126 -1.04957,5.65742 -1.00975,8.47523 0.0549,3.64567 1.47859,6.37203 4.56828,8.13754 z m 28.29888,-0.91501 c 3.57915,-0.44217 6.27636,1.87924 6.74829,5.80716 0.4993,4.17147 -1.86027,8.01829 -5.12201,8.34652 -3.18918,0.32086 -6.22043,-2.78391 -6.74838,-6.91404 -0.50817,-3.97421 1.4836,-6.78966 5.1221,-7.23964 z"
           id="sumo" />
        <path
           inkscape:connector-curvature="0"
           d="m 464.56442,430.08898 c 0,0 0.83181,2.95387 -1.98911,3.9976 0,0 -4.9544,4.18614 -8.44157,4.54939 0,0 -1.06626,0.14642 -1.60582,-0.90357 -0.39474,-0.78409 -1.40612,-1.86464 -2.22936,-2.5824 0,0 -2.84899,-2.42512 -2.72062,-6.63703 0,0 0.078,-0.5574 -2.62087,-1.82507 -1.37722,-0.6441 -3.42941,-2.34854 -5.00895,-3.60211 -0.95502,-0.75917 -3.52033,-1.82663 -4.28896,-2.11729 -1.65826,-0.63751 -5.81189,-0.94042 -7.01277,-0.36452 0,0 -4.62994,1.78749 -6.6733,2.24613 -0.12391,0.0298 -2.80853,0.84413 -6.6237,0.27113 -0.3711,-0.0549 -1.81747,-0.35145 -2.67538,-0.47398 -1.22708,-0.17827 -3.77858,-0.21265 -4.95683,0.22359 -1.12704,0.41658 -2.20005,1.7435 -5.10943,2.03169 -2.84132,0.2944 -6.90581,-0.65005 -9.37475,-0.41193 -1.38022,0.13354 -3.36571,0.69222 -4.71273,3.29752 0,0 -0.68788,2.49202 -1.50223,1.3378 0,0 -0.018,-2.89839 0.66062,-4.57632 0,0 -0.13826,-2.90028 0.94627,-3.24374 0,0 0.84067,0.0334 1.51248,0.36445 0,0 4.22863,-0.50361 7.06163,-2.48866 2.04481,-1.43243 2.88436,-1.73011 10.02084,-0.7441 0,0 1.56771,-2.31412 7.00173,-3.54019 1.59884,-0.35879 4.35259,-0.90357 6.40025,-1.34519 0,0 -7.4941,-3.86492 -11.328,-3.67599 0,0 -3.97444,1.60234 -5.47263,1.78381 -1.2803,0.15238 -3.33594,0.0482 -5.12126,-0.54372 -1.84546,-0.61282 -6.21647,0.43739 -7.69659,0.76846 0,0 -2.56358,0.85759 -2.44759,-0.9569 0,0 0.49474,-3.13125 -0.20975,-4.16265 0,0 -0.32815,-3.59946 0.0273,-4.33803 0,0 0.4854,-1.18236 1.32318,0.86072 0,0 -0.0108,2.14245 1.31582,2.93372 0,0 1.09943,0.98088 1.2628,1.2971 0,0 3.33429,-1.2128 8.13745,-2.33505 1.84953,-0.42873 6.08865,-0.62131 7.96585,-0.86013 1.16959,-0.15229 3.88377,0.55131 5.0293,0.21429 3.03512,-0.88495 5.36909,-2.3251 12.51413,0.26343 0,0 2.98997,1.37857 4.67239,2.16312 2.29594,1.06814 6.50739,1.27429 9.97597,0.31456 0,0 3.11335,-2.03785 6.04207,-2.07175 0,0 1.90477,0.31414 1.94777,-2.77293 0,0 -0.43585,-2.33788 3.24508,-6.06115 l 1.75824,-2.2116 c 0,0 0.63127,-1.18042 3.88883,0.1783 0,0 4.07194,2.30594 5.24589,3.50868 l 1.6717,0.86861 c 0,0 1.86373,0.78257 0.94452,3.87075 0,0 -0.31051,1.78078 -1.36782,1.46398 0,0 -3.36221,0.33402 -2.90909,-0.71877 0,0 0.29249,-0.49778 0.97655,-0.59869 0,0 0.12627,-1.57089 0.59351,-1.90447 0,0 -2.53631,-0.89768 -2.97554,-1.31689 0,0 -3.6701,0.28889 -4.39663,-0.0807 0,0 1.58848,3.32442 -1.43908,5.30893 0,0 1.08454,4.06159 -1.13396,5.59653 0,0 -2.15067,2.67191 0.32247,3.18331 l 1.49868,-0.0121 c 0,0 0.91343,-0.3535 1.56485,-0.42303 0,0 -0.40113,-0.70506 1.46939,-0.86932 0,0 1.22506,-0.36771 1.00114,0.47353 0,0 3.73307,-1.30044 4.62587,2.59785 0,0 0.99131,5.06392 -4.48369,4.45012 0,0 0.36953,1.83862 -2.75955,-0.0874 0,0 0.14038,-0.53827 -0.10563,-0.44361 -0.14173,0.0578 -1.66916,0.11073 -1.66916,0.11073 0,0 -2.39932,0.0476 -2.06783,2.1347 0,0 2.47953,3.78798 0.95486,5.53457 0,0 2.91306,2.4538 1.23083,5.57998 0,0 -0.19642,0.99918 0.66408,1.31294 0,0 1.67106,-1.93343 6.0511,-1.31723 0,0 1.55455,-0.10524 1.21456,-0.81733 l -0.11069,-0.69984 c 0,0 -1.13287,-0.18707 -0.95905,-2.22963 0,0 -0.3955,0.0602 -0.47377,-0.0402 -0.26198,-0.32978 -0.17233,-1.40365 0.0552,-1.76282 0.51794,-0.8228 2.94008,-0.8333 3.43606,1.1158 z"
           id="man"
           style="fill:#c4c3c1;fill-opacity:1;stroke-width:0.37338251"
           inkscape:transform-center-x="0.41420263"
           inkscape:transform-center-y="-9.2251716" />
        <path
           inkscape:connector-curvature="0"
           style="fill:#c4c3c1;fill-opacity:1;fill-rule:nonzero;stroke:none;stroke-width:0.12140682"
           d="m 380.664,306.30319 c -1.74802,-0.90445 -3.89345,-4.62728 -0.47286,-4.33127 2.57054,-1.99221 5.25932,-3.90908 8.46971,-4.70445 3.54353,-1.0988 7.10207,-2.47933 9.99804,-4.80677 -0.0664,4.42347 -4.97382,3.51736 -7.95358,4.227 -3.42357,1.49337 -6.20446,5.22773 -4.98369,9.09515 1.00788,2.83124 -2.13588,3.30722 -3.5723,1.51971 -0.49565,-0.33312 -0.98969,-0.66615 -1.48532,-0.99937 z m 17.91652,9.80331 c 1.02704,-2.23227 -0.74423,-5.24801 1.895,-6.85452 2.56063,-3.18349 5.12105,-6.48846 8.59482,-8.7158 1.74099,-1.94332 6.24238,-1.46786 5.95655,-4.87718 -0.50584,-2.30846 -3.74785,-5.3281 0.0573,-6.38518 2.00901,-2.33076 5.81507,-5.92098 2.87501,-8.95725 -2.16613,-2.83458 -6.98393,-4.25243 -8.53142,-0.0312 -0.44367,2.4116 1.06053,5.57538 -1.13866,7.51452 -2.70491,0.21605 -6.3278,-4.23372 -8.45306,-0.69582 -3.13623,2.48793 -6.06435,5.62273 -10.10678,6.56681 -3.21047,1.28279 -5.82201,3.74642 -9.13761,4.80137 -3.57359,-1.72096 -5.46755,3.7954 -8.81557,1.06598 -1.71814,0.24318 4.25609,1.54671 0.89028,2.23148 -3.49678,-1.0436 -4.67091,3.81891 -2.83113,6.01818 1.06293,-4.28307 6.29658,-1.26038 8.28352,0.72389 1.5068,1.63531 4.02131,3.43819 1.12924,5.00951 -1.95874,2.70563 -5.7272,2.34571 -7.79894,4.88774 -2.3614,2.18272 -4.68962,4.46813 -7.37043,6.25392 -3.48673,0.15884 -5.21543,3.14904 -7.24294,5.59373 -3.24131,1.40193 0.91341,6.45132 2.2703,2.65335 4.11886,-6.43657 12.01661,-8.07514 18.0377,-12.08258 2.67615,-1.33734 5.54541,-4.95054 8.61776,-3.68588 1.8843,2.54417 6.27073,2.75982 6.96324,-0.91822 0.52592,-3.40167 0.95212,-7.26248 4.36483,-9.08583 2.03709,-1.10913 4.21905,-4.44654 5.48167,-4.9743 -2.8436,3.80927 -4.53903,8.33018 -7.18949,12.24371 -0.13882,1.41343 2.05044,2.98558 3.19333,1.69871 z"
           id="woman" />
        <path
           inkscape:connector-curvature="0"
           style="fill:#c4c3c1;fill-opacity:1;stroke:#d2ccc9;stroke-width:0.50939494;stroke-miterlimit:4;stroke-dasharray:none;stroke-opacity:1"
           d="m 366.29333,555.34967 c 6.46047,4.82619 14.3791,7.73887 22.44517,8.09283 1.04185,0.35181 2.38761,2.84851 3.14884,1.22545 1.57885,-2.52232 5.4583,-0.82073 7.95142,-2.07302 14.91175,-3.12445 27.1801,-15.89528 29.59666,-30.95323 0.8855,-5.33171 0.7165,-10.86378 -0.63293,-16.10304 0.46816,-1.08973 2.86539,-2.45389 0.98768,-3.21118 -2.63753,-1.26818 -3.20018,-4.1276 -4.50537,-6.51375 -6.49758,-12.14183 -19.34464,-20.63465 -33.09383,-21.72491 -5.00668,-3.76196 -10.01348,-7.524 -15.02016,-11.28597 -13.12043,17.46159 -26.24088,34.9232 -39.36132,52.38484 4.81961,3.6214 9.63905,7.24267 14.45868,10.86408 2.56766,7.65011 7.6051,14.43692 14.02546,19.29803 z m 24.95806,9.42543 c -2.98729,-1.31965 0.0606,-1.81607 0.67544,-0.89892 -0.22508,0.29955 -0.45034,0.59934 -0.67544,0.89892 z M 353.7251,506.97999 c 2.05629,-2.15704 5.61959,-3.41481 7.86554,-0.71079 2.84435,2.65759 6.86577,3.92275 8.74571,7.51893 1.49739,1.20605 6.13298,5.75955 1.48264,3.86717 -3.63562,0.30461 -6.55652,-3.01451 -10.16848,-2.18114 -3.1059,-0.77631 -8.30991,0.25293 -10.27055,-1.60854 0.5553,-2.36439 1.34256,-4.67369 2.3451,-6.88556 z m 38.72576,56.11254 c 2.74091,-2.94104 0.1204,-7.08226 2.65015,-10.26792 1.73842,-3.5347 0.72508,-8.17259 3.38024,-11.10334 1.84737,-1.06224 1.89472,-8.2277 2.93088,-3.13464 1.39112,2.93892 4.44413,3.42182 7.23744,2.84266 0.10909,0.30729 -1.59549,2.20797 -2.20805,3.13684 -4.67071,6.15636 -9.28118,12.46491 -13.98645,18.52958 z m 19.5111,-26.50072 c 0.52828,-2.90782 -1.98101,-5.54433 -4.96971,-5.80053 -3.69812,-0.48475 3.15181,-1.94466 2.76352,-4.33375 3.34798,-2.36124 7.15267,-3.59072 10.34477,-6.24309 0.93658,-1.72136 6.42138,-3.37869 6.11583,-1.99202 -4.77292,6.35213 -9.54583,12.70423 -14.31872,19.05635 l 0.0562,-0.6941 z m 15.49222,-19.99887 c -2.72062,1.34536 0.77147,-1.25261 0.21643,-0.28806 l -0.13682,0.1821 z m 1.01086,-1.204 c -1.50739,0.17164 -2.26768,0.58424 -0.48738,-0.57244 -1.61452,-0.14651 -4.07657,1.12436 -1.16839,-0.54244 -3.47339,0.43504 -6.25257,3.09468 -9.72944,3.98375 -3.15768,1.84781 -5.95466,4.0329 -9.1546,5.8313 2.03753,-2.96594 4.45315,-5.3724 6.70065,-8.19973 1.18131,-3.31623 4.54398,-4.30906 6.60391,-6.68599 0.85909,-1.88973 -2.77854,2.23367 -0.60878,-0.78113 2.12808,-3.41702 -1.42737,0.43541 -1.09438,-0.34408 2.14862,-2.68979 -0.69578,-0.78129 -1.0445,0.0701 1.9993,-3.57383 -1.50371,0.94686 -2.58301,1.9282 -2.20634,3.04923 -5.46448,5.34753 -7.34359,8.60032 -2.38265,2.51213 -4.75365,7.74544 -8.73818,4.87962 -3.81869,-0.88984 -6.34146,-3.25206 -8.48415,-6.43667 -1.89065,-2.20964 -2.47235,-5.28759 -4.37751,-7.5681 -1.73444,-2.12183 -3.39949,-4.08419 -3.92506,-6.87027 -0.37947,-3.00986 -1.11424,-6.04778 -3.40033,-8.22722 -2.37247,-1.92932 -6.39595,-7.50887 -1.6078,-8.45699 4.591,-1.22701 9.53216,-1.97764 14.21698,-1.3283 11.63729,8.74414 23.27444,17.48815 34.9117,26.23225 0.52171,1.46812 0.94849,2.98334 1.31332,4.48825 z m -56.30605,-27.07578 c 1.46772,2.39287 3.86415,5.12899 4.69251,8.31816 0.89188,3.51596 3.62607,6.28032 3.70534,10.09648 0.0849,1.78093 2.98718,4.84157 -0.31652,2.58645 -2.76171,-0.83134 -4.43995,-3.34737 -6.38547,-5.38839 -2.57791,-3.23746 -6.90333,-4.27977 -10.77577,-4.96903 -0.95773,-2.04753 -4.34011,-1.36472 -1.68373,-3.08367 3.07501,-3.1059 6.94777,-5.83536 10.76324,-7.56037 z M 357.7338,500.1348 c 2.81198,0.0136 5.88351,1.15313 8.38435,2.83735 2.39063,2.25821 5.87889,3.18397 7.49295,6.17744 1.18203,1.64725 5.86238,5.04359 5.00588,5.24726 -3.11961,-2.00406 -6.32433,-3.88717 -8.52489,-6.98063 -2.40181,-2.70523 -6.06671,-3.33847 -9.20275,-4.89611 -1.50159,-0.17804 -2.42621,-2.0568 -3.15429,-2.38699 z m -7.31473,21.01432 c 2.06729,-0.99312 2.8959,-5.05255 6.18827,-2.98561 3.40646,1.92923 7.41266,1.71202 10.96929,2.70281 3.90067,0.72741 6.98305,3.46313 11.01193,3.9641 2.66532,0.12097 4.62111,1.77269 7.10727,2.50152 3.30534,1.37301 5.33854,4.28724 7.54284,7.04897 2.47114,3.033 -1.8847,5.628 -2.9754,8.29055 -2.98989,1.99765 -3.95327,5.7302 -5.92517,8.66013 -1.34818,0.75686 -4.34332,7.76752 -1.72328,3.5682 -0.32899,0.87613 -0.53298,3.89552 -1.87103,2.01823 -9.3547,-7.029 -18.70923,-14.05789 -28.06392,-21.08688 -1.68414,-4.68809 -2.46724,-9.70818 -2.26062,-14.68188 z m 0.29252,-3.70771 c -0.0275,-2.57804 0.89031,-1.07202 0,0 z m 31.54883,40.5781 c 2.43394,0.0286 3.35226,-3.80855 4.42937,-6.03628 2.51896,-2.4422 3.92193,-5.73935 6.30952,-8.19894 2.36624,-4.22611 0.40201,2.42926 -0.17371,4.04937 -1.42594,3.32516 -0.20324,7.31752 -2.34123,10.43567 -0.24323,1.76249 0.51071,5.89028 0.7141,1.80281 0.52642,1.37699 -0.12685,4.88368 0.95394,1.15564 1.02388,3.11789 -3.71621,2.11581 -5.0843,0.41255 -1.60089,-1.20539 -3.20166,-2.41069 -4.80073,-3.61849 z m 39.54901,-10.2171 c -6.65485,9.0265 -17.49193,14.71478 -28.68156,15.21755 11.77203,-15.66705 23.54405,-31.33409 35.31609,-47.00113 2.62933,10.89587 0.17988,22.86681 -6.63453,31.78358 z m 8.27732,-34.70913 c -1.49935,3.41438 -2.0587,-0.22411 -2.08048,-1.56324 0.6937,0.52122 1.38697,1.04214 2.08048,1.56324 z m -16.63784,-20.49853 c 5.96554,4.46554 10.64061,10.61129 13.4055,17.52717 -11.32641,-8.51052 -22.6527,-17.02097 -33.97911,-25.53149 7.41505,0.73674 14.6217,3.51412 20.57361,8.00432 z m -22.05633,-8.5758 c -11.72379,-0.60993 -23.68644,3.93507 -31.62306,12.68436 5.8343,-7.76468 11.66861,-15.5294 17.50291,-23.29408 4.70667,3.53653 9.41348,7.07318 14.12015,10.60972 z m -52.96239,41.06704 c 5.67712,-7.5555 11.35424,-15.11101 17.03137,-22.66652 -0.82104,2.23462 -4.10886,4.32074 -2.84986,5.98621 -3.4131,8.50253 -3.59796,18.23643 -0.58888,26.88061 -4.52894,-3.39174 -9.08012,-6.83956 -13.59163,-10.20132 z m 49.64102,37.85488 c -15.51838,-0.98856 -29.85865,-11.76367 -35.12686,-26.3939 11.70896,8.79797 23.41791,17.59594 35.12686,26.3939 z"
           id="davinci" />
        <g
           aria-label="120                125                 130                 135                140                 145                 150"
           style="font-style:normal;font-variant:normal;font-weight:normal;font-stretch:normal;font-size:16px;line-height:1.25;font-family:sans-serif;-inkscape-font-specification:'sans-serif, Normal';font-variant-ligatures:normal;font-variant-caps:normal;font-variant-numeric:normal;font-feature-settings:normal;text-align:start;letter-spacing:0px;word-spacing:0px;writing-mode:lr-tb;text-anchor:start;fill:#dddddd;fill-opacity:1;stroke:none"
           id="scalenumbers">
          <path
             inkscape:connector-curvature="0"
             d="m 237.2232,193.72757 2.57562,-0.11373 -0.39253,-8.88977 -2.77715,0.68567 -0.0634,-1.4361 2.76153,-0.68499 1.57659,-0.0696 0.45595,10.32588 2.57561,-0.11373 0.0586,1.32683 -6.71221,0.29638 z"
             style="fill:#dddddd;fill-opacity:1"
             id="path9780" />
          <path
             inkscape:connector-curvature="0"
             d="m 248.55105,193.36882 5.5078,0.009 -0.002,1.32813 -7.40624,-0.0119 0.002,-1.32813 q 0.89993,-0.92824 2.44931,-2.48826 1.5572,-1.56782 1.95637,-2.0203 0.75917,-0.85035 1.05699,-1.43581 0.30564,-0.59326 0.30655,-1.16357 0.001,-0.92969 -0.65381,-1.51667 -0.6475,-0.58698 -1.69438,-0.58866 -0.74218,-0.001 -1.57072,0.25529 -0.82072,0.2565 -1.75906,0.77843 l 0.003,-1.59375 q 0.95374,-0.38128 1.78218,-0.57526 0.82844,-0.19399 1.51594,-0.19288 1.81249,0.003 2.88916,0.91088 1.07667,0.90798 1.07424,2.4236 -10e-4,0.71875 -0.27563,1.36675 -0.26665,0.6402 -0.97899,1.51406 -0.19568,0.22625 -1.24429,1.3105 -1.04861,1.07645 -2.95797,3.0187 z"
             style="fill:#dddddd;fill-opacity:1"
             id="path9782" />
          <path
             inkscape:connector-curvature="0"
             d="m 261.25435,184.33746 q -1.21737,-0.0581 -1.89119,1.11427 -0.66564,1.16491 -0.78031,3.56843 -0.1143,2.39571 0.43705,3.62651 0.55953,1.22337 1.77689,1.28145 1.22517,0.0584 1.89082,-1.10647 0.67382,-1.17234 0.78811,-3.56806 0.11467,-2.40351 -0.44485,-3.62688 -0.55135,-1.2308 -1.77652,-1.28925 z m 0.0596,-1.24858 q 1.95871,0.0935 2.9147,1.69551 0.96417,1.59464 0.82344,4.54441 -0.14036,2.94196 -1.25233,4.44537 -1.1038,1.49597 -3.06251,1.40253 -1.95871,-0.0935 -2.92287,-1.68809 -0.95599,-1.60206 -0.81563,-4.54403 0.14073,-2.94977 1.24452,-4.44574 1.11197,-1.50341 3.07068,-1.40996 z"
             style="fill:#dddddd;fill-opacity:1"
             id="path9784" />
          <path
             inkscape:connector-curvature="0"
             d="m 346.60205,215.50855 2.30263,1.15958 4.00231,-7.94756 -2.75799,-0.75909 0.64656,-1.28389 2.74402,0.75206 1.40949,0.70981 -4.64886,9.23145 2.30263,1.15958 -0.59736,1.1862 -6.00079,-3.02193 z"
             style="fill:#dddddd;fill-opacity:1"
             id="path9786" />
          <path
             inkscape:connector-curvature="0"
             d="m 356.65979,220.73439 4.79935,2.70226 -0.65161,1.15729 -6.4536,-3.63368 0.65161,-1.15729 q 1.239,-0.36931 3.3535,-0.97189 2.12515,-0.60556 2.69465,-0.80492 1.07813,-0.37023 1.62429,-0.73514 0.55681,-0.36789 0.83661,-0.86485 0.45613,-0.8101 0.17177,-1.64264 -0.27756,-0.82871 -1.18978,-1.34233 -0.64672,-0.36414 -1.49481,-0.54578 -0.84129,-0.17782 -1.91501,-0.18167 l 0.78193,-1.38875 q 1.01835,0.13406 1.83577,0.37016 0.81743,0.23611 1.4165,0.57342 1.57936,0.88925 2.07418,2.20788 0.49483,1.31864 -0.24878,2.63931 -0.35263,0.6263 -0.90903,1.05717 -0.54577,0.42791 -1.59455,0.84155 -0.28135,0.1016 -1.72635,0.53423 -1.44118,0.42583 -4.05664,1.18567 z"
             style="fill:#dddddd;fill-opacity:1"
             id="path9788" />
          <path
             inkscape:connector-curvature="0"
             d="m 369.86113,216.41163 5.25228,3.28564 -0.70436,1.12596 -4.02697,-2.51913 -1.51645,2.42413 q 0.35358,0.083 0.674,0.2189 0.32458,0.12932 0.616,0.31162 1.65583,1.03583 2.0552,2.54814 0.39937,1.51232 -0.57017,3.06217 -0.99853,1.59622 -2.54723,1.86225 -1.54456,0.2594 -3.35272,-0.87172 -0.62259,-0.38947 -1.20538,-0.90149 -0.57617,-0.50787 -1.13241,-1.15072 l 0.84109,-1.34453 q 0.39308,0.69744 0.92948,1.25415 0.5364,0.55672 1.24509,1.00005 1.14583,0.7168 2.19183,0.53255 1.04599,-0.18425 1.69235,-1.21748 0.64635,-1.03324 0.35444,-2.05444 -0.29191,-1.02119 -1.43775,-1.73798 -0.53648,-0.33561 -1.14755,-0.552 -0.60444,-0.21224 -1.31825,-0.30859 z"
             style="fill:#dddddd;fill-opacity:1"
             id="path9790" />
          <path
             inkscape:connector-curvature="0"
             d="m 434.35585,292.13057 1.3991,2.16547 7.47414,-4.82903 -1.99452,-2.05051 1.20741,-0.7801 1.98604,2.03737 0.85642,1.32553 -8.68154,5.60914 1.3991,2.16546 -1.11554,0.72075 -3.64615,-5.64333 z"
             style="fill:#dddddd;fill-opacity:1"
             id="path9792" />
          <path
             inkscape:connector-curvature="0"
             d="m 446.3945,302.18961 q 0.36062,1.10085 0.0173,2.03293 -0.33937,0.93883 -1.31162,1.50483 -1.49214,0.86864 -2.90654,0.31796 -1.4144,-0.55067 -2.51495,-2.44117 -0.36946,-0.63466 -0.63423,-1.38452 -0.26759,-0.73917 -0.43441,-1.60029 l 1.3166,-0.76645 q -6.8e-4,0.75975 0.22358,1.53319 0.22426,0.77343 0.65268,1.50938 0.7468,1.28283 1.6423,1.65647 0.89943,0.38039 1.86493,-0.18168 0.89124,-0.51882 1.02533,-1.43759 0.14477,-0.91595 -0.50376,-2.03 l -0.68391,-1.1748 1.1208,-0.65247 0.71535,1.22882 q 0.58564,1.00602 1.29451,1.30751 0.71561,0.29756 1.47181,-0.14266 0.77645,-0.45201 0.86601,-1.24541 0.10024,-0.79059 -0.4972,-1.81686 -0.32623,-0.56039 -0.82116,-1.13106 -0.49493,-0.57067 -1.19958,-1.19101 l 1.21532,-0.70749 q 0.66807,0.65067 1.16914,1.26296 0.50501,0.61904 0.85483,1.21995 0.90401,1.5529 0.72177,2.87034 -0.1755,1.31351 -1.37731,2.01314 -0.83722,0.48738 -1.69694,0.34603 -0.85296,-0.14528 -1.59067,-0.90005 z"
             style="fill:#dddddd;fill-opacity:1"
             id="path9794" />
          <path
             inkscape:connector-curvature="0"
             d="m 454.59207,308.14586 q -0.56351,-1.08065 -1.91567,-1.07163 -1.34163,0.0123 -3.47523,1.1249 -2.12667,1.10894 -2.91172,2.20555 -0.77451,1.09992 -0.21101,2.18058 0.56712,1.08758 1.90874,1.07524 1.35217,-0.009 3.47884,-1.11797 2.1336,-1.11256 2.90811,-2.21248 0.78505,-1.0966 0.21794,-2.18419 z m 1.10836,-0.57795 q 0.90666,1.73875 0.005,3.37198 -0.89118,1.63654 -3.50969,3.00195 -2.61159,1.3618 -4.47054,1.1593 -1.84841,-0.19918 -2.75507,-1.93793 -0.90666,-1.73875 -0.0155,-3.37529 0.90172,-1.63323 3.51331,-2.99503 2.61851,-1.36541 4.46692,-1.16623 1.85895,0.2025 2.76561,1.94125 z"
             style="fill:#dddddd;fill-opacity:1"
             id="path9796" />
          <path
             inkscape:connector-curvature="0"
             d="m 471.02331,402.6866 0.10507,2.57598 8.89104,-0.36264 -0.67633,-2.77943 1.4363,-0.0586 0.6757,2.76382 0.0643,1.57682 -10.32735,0.42122 0.10507,2.57599 -1.32702,0.0541 -0.27381,-6.71317 z"
             style="fill:#dddddd;fill-opacity:1"
             id="path9798" />
          <path
             inkscape:connector-curvature="0"
             d="m 476.28766,417.46244 q -0.24784,1.13159 -1.01661,1.76057 -0.76882,0.6368 -1.8938,0.63118 -1.72654,-0.009 -2.66591,-1.20083 -0.93938,-1.1922 -0.92845,-3.37967 0.004,-0.73437 0.156,-1.51487 0.14449,-0.77272 0.43768,-1.5994 l 1.52342,0.008 q -0.38609,0.65433 -0.5853,1.4346 -0.19921,0.78026 -0.20346,1.63181 -0.007,1.48436 0.57466,2.26071 0.58203,0.78417 1.6992,0.78975 1.03124,0.005 1.61298,-0.71852 0.58952,-0.71581 0.59596,-2.00486 l 0.007,-1.35936 1.29685,0.006 -0.007,1.42185 q -0.006,1.16405 0.45204,1.78353 0.46566,0.61952 1.34065,0.62389 0.89843,0.004 1.37819,-0.63375 0.48752,-0.63038 0.49345,-1.81787 0.003,-0.64843 -0.13368,-1.39131 -0.13691,-0.74288 -0.42934,-1.63498 l 1.40623,0.007 q 0.24552,0.89967 0.36661,1.68153 0.12106,0.78968 0.11759,1.48498 -0.009,1.79686 -0.8345,2.83962 -0.81772,1.04281 -2.20833,1.03586 -0.96873,-0.005 -1.63783,-0.56287 -0.66129,-0.55799 -0.91399,-1.58271 z"
             style="fill:#dddddd;fill-opacity:1"
             id="path9800" />
          <path
             inkscape:connector-curvature="0"
             d="m 481.54125,423.448 -0.31634,6.18723 -1.32639,-0.0678 0.24254,-4.74381 -2.85565,-0.146 q 0.0995,0.34929 0.13655,0.69538 0.0449,0.34649 0.0273,0.6898 -0.0997,1.95057 -1.22689,3.03506 -1.12715,1.08448 -2.95289,0.99114 -1.88036,-0.0961 -2.86603,-1.31994 -0.97787,-1.2234 -0.86897,-3.35343 0.0375,-0.73342 0.20143,-1.49166 0.16353,-0.75045 0.45469,-1.54912 l 1.58387,0.081 q -0.41821,0.68266 -0.64377,1.42211 -0.22555,0.73945 -0.26823,1.57429 -0.069,1.3498 0.60071,2.17414 0.66972,0.82433 1.88688,0.88656 1.21716,0.0622 1.96746,-0.6895 0.7503,-0.75173 0.81931,-2.10153 0.0323,-0.63199 -0.0758,-1.27116 -0.10853,-0.63136 -0.3715,-1.30191 z"
             style="fill:#dddddd;fill-opacity:1"
             id="path9802" />
          <path
             inkscape:connector-curvature="0"
             d="m 448.86788,511.99018 -1.16745,2.29865 7.93383,4.02947 0.76852,-2.75537 1.28167,0.65094 -0.76145,2.74144 -0.71461,1.40705 -9.2155,-4.6804 -1.16745,2.29865 -1.18415,-0.60142 3.04243,-5.99042 z"
             style="fill:#dddddd;fill-opacity:1"
             id="path9804" />
          <path
             inkscape:connector-curvature="0"
             d="m 449.93176,529.04176 -3.44853,-6.53857 -1.96666,3.46518 z m 1.40021,0.31859 -0.97948,1.72579 -6.61102,-3.75208 -0.82137,1.44722 -1.14147,-0.64784 0.82137,-1.44722 -2.39166,-1.35738 0.7751,-1.36569 2.39165,1.35738 2.59908,-4.57948 1.32493,0.75196 z"
             style="fill:#dddddd;fill-opacity:1"
             id="path9806" />
          <path
             inkscape:connector-curvature="0"
             d="m 445.21512,537.53384 q 0.64987,-1.03103 -0.0388,-2.19469 -0.68627,-1.15289 -2.72189,-2.43597 -2.02901,-1.27891 -3.37175,-1.40494 -1.3403,-0.11525 -1.99017,0.91578 -0.65404,1.03764 0.0322,2.19052 0.68871,1.16367 2.71772,2.44258 2.03562,1.28308 3.37592,1.39833 1.34275,0.12603 1.99679,-0.91161 z m 1.05746,0.66653 q -1.04563,1.6589 -2.91074,1.70231 -1.86267,0.0542 -4.36093,-1.52051 -2.49165,-1.57052 -3.25281,-3.27854 -0.75873,-1.69725 0.2869,-3.35615 1.04563,-1.65889 2.9083,-1.71307 1.86511,-0.0434 4.35676,1.52711 2.49826,1.57469 3.25698,3.27194 0.76117,1.70802 -0.28446,3.36691 z"
             style="fill:#dddddd;fill-opacity:1"
             id="path9808" />
          <path
             inkscape:connector-curvature="0"
             d="m 371.94744,599.48257 -2.17025,1.39168 4.80341,7.49063 2.05732,-1.98749 0.77597,1.21008 -2.04417,1.97905 -1.32845,0.85188 -5.57937,-8.7007 -2.17025,1.39168 -0.71692,-1.11801 5.65578,-3.6268 z"
             style="fill:#dddddd;fill-opacity:1"
             id="path9810" />
          <path
             inkscape:connector-curvature="0"
             d="m 364.2334,614.72774 0.33612,-7.3846 -3.45026,1.99273 z m 1.04624,0.98359 -1.71836,0.99246 -3.80182,-6.58255 -1.44099,0.83226 -0.65643,-1.13655 1.44099,-0.83226 -1.37538,-2.38136 1.35981,-0.78537 1.37538,2.38136 4.55975,-2.63353 0.76192,1.31921 z"
             style="fill:#dddddd;fill-opacity:1"
             id="path9812" />
          <path
             inkscape:connector-curvature="0"
             d="m 359.3241,619.0437 -5.50314,2.84558 -0.61002,-1.17975 4.21931,-2.18172 -1.31335,-2.53991 q -0.25152,0.26198 -0.53174,0.46844 -0.27664,0.21341 -0.58198,0.3713 -1.73492,0.89709 -3.23971,0.47026 -1.5048,-0.42683 -2.34448,-2.05071 -0.86479,-1.67246 -0.30469,-3.14063 0.5637,-1.46123 2.45822,-2.44085 0.65233,-0.33731 1.38983,-0.57793 0.73056,-0.23704 1.56711,-0.38816 l 0.72844,1.40875 q -0.8004,-0.0171 -1.55272,0.16084 -0.75233,0.17793 -1.49487,0.56189 -1.20056,0.62079 -1.57493,1.61472 -0.37436,0.99393 0.18542,2.07652 0.55979,1.08258 1.58723,1.35167 1.02745,0.26908 2.22801,-0.35171 0.56211,-0.29065 1.05963,-0.70623 0.49059,-0.41198 0.93716,-0.97711 z"
             style="fill:#dddddd;fill-opacity:1"
             id="path9814" />
          <path
             inkscape:connector-curvature="0"
             d="m 261.26623,635.77164 -2.57632,0.0964 0.33273,8.89221 2.78169,-0.66698 0.0538,1.4365 -2.76608,0.66639 -1.57702,0.059 -0.38649,-10.32871 -2.57632,0.0964 -0.0497,-1.3272 6.71405,-0.25123 z"
             style="fill:#dddddd;fill-opacity:1"
             id="path9816" />
          <path
             inkscape:connector-curvature="0"
             d="m 251.19323,646.40088 -6.19509,-0.0519 0.0111,-1.32808 4.74983,0.0398 0.024,-2.85928 q -0.34472,0.1143 -0.68892,0.16611 -0.34426,0.0596 -0.688,0.0567 -1.95305,-0.0164 -3.08466,-1.09621 -1.13161,-1.07984 -1.11629,-2.9079 0.0158,-1.88275 1.1964,-2.91976 1.18055,-1.0292 3.31329,-1.01132 0.73435,0.006 1.4989,0.13757 0.75673,0.13135 1.56711,0.38816 l -0.0133,1.58588 q -0.69989,-0.3887 -1.44829,-0.58248 -0.7484,-0.19378 -1.58431,-0.20079 -1.35152,-0.0113 -2.14651,0.69296 -0.795,0.7043 -0.80522,1.92301 -0.0102,1.21871 0.77286,1.93623 0.78307,0.71753 2.13459,0.72887 0.63279,0.005 1.26676,-0.13001 0.62615,-0.13538 1.28487,-0.42674 z"
             style="fill:#dddddd;fill-opacity:1"
             id="path9818" />
          <path
             inkscape:connector-curvature="0"
             d="m 237.17142,644.99877 q 1.21694,0.0664 1.89874,-1.10134 0.67358,-1.16035 0.80465,-3.56303 0.13064,-2.39487 -0.4123,-3.6294 -0.55117,-1.22716 -1.76811,-1.29354 -1.22474,-0.0668 -1.89832,1.09353 -0.6818,1.16772 -0.81244,3.5626 -0.13107,2.40268 0.4201,3.62984 0.54294,1.23453 1.76768,1.30134 z m -0.0681,1.24814 q -1.95803,-0.10681 -2.90306,-1.71536 -0.95327,-1.60118 -0.79241,-4.54992 0.16043,-2.94094 1.28263,-4.43672 1.11397,-1.48841 3.072,-1.3816 1.95803,0.10681 2.91129,1.70799 0.94504,1.60855 0.78461,4.54949 -0.16086,2.94874 -1.27483,4.43715 -1.1222,1.49578 -3.08023,1.38897 z"
             style="fill:#dddddd;fill-opacity:1"
             id="path9820" />
        </g>
        <g
           id="scalestrokes">
          <path
             inkscape:tile-y0="5"
             inkscape:tile-x0="249"
             inkscape:tile-h="10"
             inkscape:tile-w="2"
             inkscape:tile-cy="255.00077"
             inkscape:tile-cx="250"
             inkscape:transform-center-y="-245.00077"
             inkscape:connector-curvature="0"
             id="path7949"
             d="m 250,164.70831 v 10"
             style="fill:none;stroke:#dddddd;stroke-width:2;stroke-linecap:butt;stroke-linejoin:miter;stroke-miterlimit:4;stroke-dasharray:none;stroke-opacity:1" />
          <use
             height="100%"
             width="100%"
             inkscape:transform-center-y="-245.00077"
             id="use9582"
             xlink:href="#path7949"
             inkscape:tiled-clone-of="#path7949"
             y="0"
             x="0" />
          <use
             height="100%"
             width="100%"
             inkscape:transform-center-y="-243.65863"
             inkscape:transform-center-x="-25.609554"
             id="use9584"
             transform="rotate(6,250,414.70908)"
             xlink:href="#path7949"
             inkscape:tiled-clone-of="#path7949"
             y="0"
             x="0" />
          <use
             height="100%"
             width="100%"
             inkscape:transform-center-y="-239.64692"
             inkscape:transform-center-x="-50.938524"
             id="use9586"
             transform="rotate(12,250,414.70908)"
             xlink:href="#path7949"
             inkscape:tiled-clone-of="#path7949"
             y="0"
             x="0" />
          <use
             height="100%"
             width="100%"
             inkscape:transform-center-y="-233.00958"
             inkscape:transform-center-x="-75.709402"
             id="use9588"
             transform="rotate(18,250,414.70908)"
             xlink:href="#path7949"
             inkscape:tiled-clone-of="#path7949"
             y="0"
             x="0" />
          <use
             height="100%"
             width="100%"
             inkscape:transform-center-y="-223.81934"
             inkscape:transform-center-x="-99.650791"
             id="use9590"
             transform="rotate(24,250,414.70908)"
             xlink:href="#path7949"
             inkscape:tiled-clone-of="#path7949"
             y="0"
             x="0" />
          <use
             height="100%"
             width="100%"
             inkscape:transform-center-y="-212.17689"
             inkscape:transform-center-x="-122.50038"
             id="use9592"
             transform="rotate(30,250,414.70908)"
             xlink:href="#path7949"
             inkscape:tiled-clone-of="#path7949"
             y="0"
             x="0" />
          <use
             height="100%"
             width="100%"
             inkscape:transform-center-y="-198.20979"
             inkscape:transform-center-x="-144.00784"
             id="use9594"
             transform="rotate(36,250,414.70908)"
             xlink:href="#path7949"
             inkscape:tiled-clone-of="#path7949"
             y="0"
             x="0" />
          <use
             height="100%"
             width="100%"
             inkscape:transform-center-y="-182.07105"
             inkscape:transform-center-x="-163.93751"
             id="use9596"
             transform="rotate(42,250,414.70908)"
             xlink:href="#path7949"
             inkscape:tiled-clone-of="#path7949"
             y="0"
             x="0" />
          <use
             height="100%"
             width="100%"
             inkscape:transform-center-y="-163.93751"
             inkscape:transform-center-x="-182.07105"
             id="use9598"
             transform="rotate(48,250,414.70908)"
             xlink:href="#path7949"
             inkscape:tiled-clone-of="#path7949"
             y="0"
             x="0" />
          <use
             height="100%"
             width="100%"
             inkscape:transform-center-y="-144.00784"
             inkscape:transform-center-x="-198.20979"
             id="use9600"
             transform="rotate(54,250,414.70908)"
             xlink:href="#path7949"
             inkscape:tiled-clone-of="#path7949"
             y="0"
             x="0" />
          <use
             height="100%"
             width="100%"
             inkscape:transform-center-y="-122.50039"
             inkscape:transform-center-x="-212.17689"
             id="use9602"
             transform="rotate(60,250,414.70908)"
             xlink:href="#path7949"
             inkscape:tiled-clone-of="#path7949"
             y="0"
             x="0" />
          <use
             height="100%"
             width="100%"
             inkscape:transform-center-y="-99.650791"
             inkscape:transform-center-x="-223.81934"
             id="use9604"
             transform="rotate(66,250,414.70908)"
             xlink:href="#path7949"
             inkscape:tiled-clone-of="#path7949"
             y="0"
             x="0" />
          <use
             height="100%"
             width="100%"
             inkscape:transform-center-y="-75.709402"
             inkscape:transform-center-x="-233.00958"
             id="use9606"
             transform="rotate(72,250,414.70908)"
             xlink:href="#path7949"
             inkscape:tiled-clone-of="#path7949"
             y="0"
             x="0" />
          <use
             height="100%"
             width="100%"
             inkscape:transform-center-y="-50.938524"
             inkscape:transform-center-x="-239.64692"
             id="use9608"
             transform="rotate(78,250,414.70908)"
             xlink:href="#path7949"
             inkscape:tiled-clone-of="#path7949"
             y="0"
             x="0" />
          <use
             height="100%"
             width="100%"
             inkscape:transform-center-y="-25.609554"
             inkscape:transform-center-x="-243.65863"
             id="use9610"
             transform="rotate(84,250,414.70908)"
             xlink:href="#path7949"
             inkscape:tiled-clone-of="#path7949"
             y="0"
             x="0" />
          <use
             height="100%"
             width="100%"
             inkscape:transform-center-x="-245.00077"
             id="use9612"
             transform="rotate(90,250,414.70908)"
             xlink:href="#path7949"
             inkscape:tiled-clone-of="#path7949"
             y="0"
             x="0" />
          <use
             height="100%"
             width="100%"
             inkscape:transform-center-y="25.609554"
             inkscape:transform-center-x="-243.65863"
             id="use9614"
             transform="rotate(96,250,414.70908)"
             xlink:href="#path7949"
             inkscape:tiled-clone-of="#path7949"
             y="0"
             x="0" />
          <use
             height="100%"
             width="100%"
             inkscape:transform-center-y="50.938524"
             inkscape:transform-center-x="-239.64692"
             id="use9616"
             transform="rotate(102,250,414.70908)"
             xlink:href="#path7949"
             inkscape:tiled-clone-of="#path7949"
             y="0"
             x="0" />
          <use
             height="100%"
             width="100%"
             inkscape:transform-center-y="75.709402"
             inkscape:transform-center-x="-233.00958"
             id="use9618"
             transform="rotate(108,250,414.70908)"
             xlink:href="#path7949"
             inkscape:tiled-clone-of="#path7949"
             y="0"
             x="0" />
          <use
             height="100%"
             width="100%"
             inkscape:transform-center-y="99.650791"
             inkscape:transform-center-x="-223.81934"
             id="use9620"
             transform="rotate(114,250,414.70908)"
             xlink:href="#path7949"
             inkscape:tiled-clone-of="#path7949"
             y="0"
             x="0" />
          <use
             height="100%"
             width="100%"
             inkscape:transform-center-y="122.50038"
             inkscape:transform-center-x="-212.17689"
             id="use9622"
             transform="rotate(120,250,414.70908)"
             xlink:href="#path7949"
             inkscape:tiled-clone-of="#path7949"
             y="0"
             x="0" />
          <use
             height="100%"
             width="100%"
             inkscape:transform-center-y="144.00784"
             inkscape:transform-center-x="-198.20979"
             id="use9624"
             transform="rotate(126,250,414.70908)"
             xlink:href="#path7949"
             inkscape:tiled-clone-of="#path7949"
             y="0"
             x="0" />
          <use
             height="100%"
             width="100%"
             inkscape:transform-center-y="163.93751"
             inkscape:transform-center-x="-182.07105"
             id="use9626"
             transform="rotate(132,250,414.70908)"
             xlink:href="#path7949"
             inkscape:tiled-clone-of="#path7949"
             y="0"
             x="0" />
          <use
             height="100%"
             width="100%"
             inkscape:transform-center-y="182.07105"
             inkscape:transform-center-x="-163.93751"
             id="use9628"
             transform="rotate(138,250,414.70908)"
             xlink:href="#path7949"
             inkscape:tiled-clone-of="#path7949"
             y="0"
             x="0" />
          <use
             height="100%"
             width="100%"
             inkscape:transform-center-y="198.20979"
             inkscape:transform-center-x="-144.00784"
             id="use9630"
             transform="rotate(144,250,414.70908)"
             xlink:href="#path7949"
             inkscape:tiled-clone-of="#path7949"
             y="0"
             x="0" />
          <use
             height="100%"
             width="100%"
             inkscape:transform-center-y="212.17689"
             inkscape:transform-center-x="-122.50038"
             id="use9632"
             transform="rotate(150,250,414.70908)"
             xlink:href="#path7949"
             inkscape:tiled-clone-of="#path7949"
             y="0"
             x="0" />
          <use
             height="100%"
             width="100%"
             inkscape:transform-center-y="223.81934"
             inkscape:transform-center-x="-99.650791"
             id="use9634"
             transform="rotate(156,250,414.70908)"
             xlink:href="#path7949"
             inkscape:tiled-clone-of="#path7949"
             y="0"
             x="0" />
          <use
             height="100%"
             width="100%"
             inkscape:transform-center-y="233.00958"
             inkscape:transform-center-x="-75.709402"
             id="use9636"
             transform="rotate(162,250,414.70908)"
             xlink:href="#path7949"
             inkscape:tiled-clone-of="#path7949"
             y="0"
             x="0" />
          <use
             height="100%"
             width="100%"
             inkscape:transform-center-y="239.64692"
             inkscape:transform-center-x="-50.938524"
             id="use9638"
             transform="rotate(168,250,414.70908)"
             xlink:href="#path7949"
             inkscape:tiled-clone-of="#path7949"
             y="0"
             x="0" />
          <use
             height="100%"
             width="100%"
             inkscape:transform-center-y="243.65863"
             inkscape:transform-center-x="-25.609554"
             id="use9640"
             transform="rotate(174,250,414.70908)"
             xlink:href="#path7949"
             inkscape:tiled-clone-of="#path7949"
             y="0"
             x="0" />
          <use
             height="100%"
             width="100%"
             inkscape:transform-center-y="245.00077"
             id="use9642"
             transform="rotate(180,250,414.70908)"
             xlink:href="#path7949"
             inkscape:tiled-clone-of="#path7949"
             y="0"
             x="0" />
          <path
             inkscape:transform-center-x="-1.6424661e-06"
             style="fill:none;stroke:#fd3d09;stroke-width:10.33217144;stroke-linecap:butt;stroke-linejoin:miter;stroke-miterlimit:4;stroke-dasharray:none;stroke-opacity:1"
             d="M 435.78678,581.99225 416.59103,564.70831"
             id="use9646"
             inkscape:connector-curvature="0"
             inkscape:transform-center-y="-632.84747"
             inkscape:tile-x0="249"
             inkscape:tile-y0="5" />
        </g>
      </g>
    </g>
    <path
       sodipodi:nodetypes="czccscc"
       inkscape:connector-curvature="0"
       id="scalewindowborder"
       d="m 73.003005,238.28186 c 0,0 66.525795,-73.35172 176.996995,-73.57355 110.4712,-0.22183 177.6813,74.23903 177.6813,74.23903 l -85.55149,85.10783 c 0,0 -35.40692,-38.95462 -92.12981,-38.67886 -58.49728,0.28438 -91.7054,38.27326 -91.7054,38.27326 z"
       style="fill:none;stroke:#dddddd;stroke-width:1px;stroke-linecap:butt;stroke-linejoin:miter;stroke-opacity:1" />
    <path
       style="fill:none;stroke:#ff1f00;stroke-width:4;stroke-linecap:round;stroke-linejoin:miter;stroke-miterlimit:4;stroke-dasharray:none;stroke-opacity:0.6655949"
       d="M 250.07424,179.776 250,299.70831"
       id="hand"
       inkscape:connector-curvature="0" />
  </g>
</svg>
