<?xml version="1.0" encoding="UTF-8" standalone="no"?>
<!-- Created with Inkscape (http://www.inkscape.org/) -->

<svg
   xmlns:dc="http://purl.org/dc/elements/1.1/"
   xmlns:cc="http://creativecommons.org/ns#"
   xmlns:rdf="http://www.w3.org/1999/02/22-rdf-syntax-ns#"
   xmlns:svg="http://www.w3.org/2000/svg"
   xmlns="http://www.w3.org/2000/svg"
   xmlns:xlink="http://www.w3.org/1999/xlink"
   xmlns:sodipodi="http://sodipodi.sourceforge.net/DTD/sodipodi-0.dtd"
   xmlns:inkscape="http://www.inkscape.org/namespaces/inkscape"
   width="500"
   height="505"
   viewBox="0 0 500 505"
   version="1.1"
   id="svg5306"
   inkscape:version="0.92.2 5c3e80d, 2017-08-06"
   sodipodi:docname="circle-with-images-scale-clipped.inkscape.svg">
  <defs
     id="defs5300">
    <clipPath
       clipPathUnits="userSpaceOnUse"
       id="clipPath9953">
      <path
         style="fill:none;stroke:#000000;stroke-width:1px;stroke-linecap:butt;stroke-linejoin:miter;stroke-opacity:1"
         d="m 73.003005,238.28186 c 0,0 66.525795,-73.35172 176.996995,-73.57355 110.4712,-0.22183 177.6813,74.23903 177.6813,74.23903 l -85.55149,85.10783 c 0,0 -35.40692,-38.95462 -92.12981,-38.67886 -58.49728,0.28438 -91.7054,38.27326 -91.7054,38.27326 z"
         id="path9955"
         inkscape:connector-curvature="0"
         sodipodi:nodetypes="czccscc" />
    </clipPath>
  </defs>
  <sodipodi:namedview
     id="base"
     pagecolor="#ffffff"
     bordercolor="#666666"
     borderopacity="1.0"
     inkscape:pageopacity="0.0"
     inkscape:pageshadow="2"
     inkscape:zoom="6.4129684"
     inkscape:cx="250"
     inkscape:cy="430.59504"
     inkscape:document-units="px"
     inkscape:current-layer="layer1"
     showgrid="true"
     units="px"
     inkscape:window-width="2560"
     inkscape:window-height="1340"
     inkscape:window-x="0"
     inkscape:window-y="1"
     inkscape:window-maximized="1"
     inkscape:snap-global="true">
    <inkscape:grid
       type="xygrid"
       id="grid7947" />
  </sodipodi:namedview>
  <metadata
     id="metadata5303">
    <rdf:RDF>
      <cc:Work
         rdf:about="">
        <dc:format>image/svg+xml</dc:format>
        <dc:type
           rdf:resource="http://purl.org/dc/dcmitype/StillImage" />
        <dc:title></dc:title>
      </cc:Work>
    </rdf:RDF>
  </metadata>
  <g
     inkscape:label="Layer 1"
     inkscape:groupmode="layer"
     id="layer1"
     transform="translate(0,-159.70831)">
    <circle
       cy="221.73535"
       cx="-430.48395"
       id="circlefortextpath"
       style="fill:none;fill-opacity:1;stroke:none;stroke-width:0.93638217;stroke-miterlimit:4;stroke-dasharray:none;stroke-opacity:1"
       transform="rotate(-93.830706)"
       r="220" />
    <g
       id="scale"
       clip-path="url(#clipPath9953)">
      <circle
         r="250"
         cy="414.70831"
         cx="250"
         id="clippreventioncircle"
         style="fill:none;fill-opacity:1;stroke:none;stroke-width:32.08246994;stroke-miterlimit:4;stroke-dasharray:none;stroke-opacity:1" />
      <g
         id="completescale">
        <circle
           r="250"
           cy="414.70831"
           cx="250"
           id="bluebackgroundcircle"
           style="fill:#011c9b;fill-opacity:1;stroke:none;stroke-width:32.08246994;stroke-miterlimit:4;stroke-dasharray:none;stroke-opacity:1" />
        <path
           inkscape:connector-curvature="0"
           id="feather"
           d="m 275.08309,206.86037 c -0.41285,0.42088 -1.45383,2.8924 -1.45156,1.04121 -2.67001,1.30097 -4.73103,6.437 -3.80969,7.46458 -0.0645,-1.58895 -0.80908,-3.88347 -1.67169,-1.06239 -0.3824,0.72492 -0.30069,4.23799 -0.9646,1.93967 -2.8194,1.63495 -4.51298,5.14108 -3.46788,8.32735 0.33311,1.42711 0.13456,3.67948 -0.2218,0.89742 0.0985,-2.00134 -2.77723,-3.61084 -2.78769,-0.66416 -0.45242,1.31157 -0.90748,5.57996 -0.70818,4.90426 0.3317,-2.17973 -1.61735,-2.23869 -1.97602,-0.31064 -1.38003,1.29648 -2.1623,5.79305 -1.97522,5.75446 0.36881,-2.01105 -1.27842,-2.09873 -1.25094,-0.13162 -0.0447,0.73424 -0.20303,2.08297 -0.44639,0.47644 -2.02369,0.82424 -1.86462,5.93335 -2.27121,5.47033 -2.00757,-2.12499 -3.06806,3.37878 -3.62108,4.90102 -0.29885,2.75306 -3.11887,4.79123 -2.4729,7.63469 1.20441,1.78307 2.96296,-2.19874 4.39651,-2.60273 8.93898,-7.85421 16.27306,-17.49429 21.62282,-28.11441 -5.00581,11.58866 -12.59568,22.06554 -22.29232,30.17707 -6.00919,5.1646 -12.69405,9.51884 -19.75292,13.10652 0.53372,1.7394 4.57825,-1.66386 6.22726,-2.22837 3.49916,-1.99299 6.79755,-4.30964 10.10518,-6.59957 3.06882,0.2512 6.23955,0.35507 9.07763,-1.02796 1.91222,-1.28406 2.0464,-3.85378 4.5677,-4.31853 2.02402,-1.36574 -1.98254,-2.45624 0.55094,-2.29992 3.73537,-0.85122 6.13297,-4.10476 8.53943,-6.81618 -1.29123,-0.66878 -5.96938,-0.0768 -2.1835,-0.73037 3.51278,-0.47062 6.44709,-3.12547 7.77698,-6.33797 1.79202,-1.70371 -0.4234,-2.61551 -1.66463,-1.21901 -3.44081,0.50598 2.60061,-1.71535 3.23597,-3.04976 1.95805,-1.44736 2.03749,-3.99821 0.93655,-5.74234 0.68528,-0.79687 3.82945,-2.34781 1.0527,-2.52725 1.89806,-1.13324 3.42873,-6.1119 0.81553,-6.14833 -0.94487,0.8391 -2.50647,1.60867 -0.69377,0.35193 1.71114,-1.06252 3.02204,-5.78398 1.05638,-5.70212 -0.88072,0.0512 0.64323,-4.30828 -0.24841,-5.78635 -1.27864,-2.96606 -2.68809,0.0633 -4.02963,0.97254 z"
           style="fill:#c4c3c1;fill-opacity:1;stroke-width:0.08658993" />
        <path
           inkscape:connector-curvature="0"
           style="fill:#c4c3c1;fill-opacity:1;stroke-width:1.65774715"
           d="m 268.71437,611.37508 c 1.5906,0.67754 3.29062,1.25751 4.99461,1.47778 3.84922,0.49769 7.72055,0.82415 11.57673,1.18515 0.91199,0.0847 1.75358,0.89812 2.05438,1.76292 0.8995,2.55609 2.88193,4.61282 5.69931,5.67423 1.09644,0.4129 1.22806,0.92521 0.98221,1.89569 -0.15693,0.61681 -0.28789,1.23887 -0.41408,1.85827 -0.17953,0.89758 0.32921,2.0125 1.23177,2.16821 2.16783,0.37443 5.08397,-0.30461 6.86106,-1.69339 0.71985,-0.56444 0.66738,-1.80706 0.11543,-2.53708 -0.303,-0.41019 -0.61899,-0.81933 -0.93376,-1.23449 -0.55195,-0.73017 -0.49446,-1.8688 0.033,-2.61738 1.58813,-2.25409 2.2388,-4.7045 1.75882,-7.43293 -0.15092,-0.90483 0.22242,-2.00527 0.99795,-2.4894 2.81007,-1.75453 5.60478,-3.43329 8.24988,-5.32089 1.89276,-1.34942 3.75133,-2.93106 5.10745,-4.78713 1.07394,-1.47111 1.84428,-3.50727 1.88557,-5.31168 0.0556,-2.35143 -1.75406,-6.87159 -4.23531,-9.53596 -0.62182,-0.67178 -1.57568,-0.4572 -1.9926,0.35443 -0.38494,0.75394 -0.78361,1.49616 -1.28549,2.15971 -1.32673,1.75478 -0.94393,3.40367 0.0481,5.03364 0.30047,0.50296 0.6776,0.9602 1.09309,1.45103 0.59246,0.69798 0.47482,1.37612 -0.26577,1.50857 -0.47213,0.0847 -0.90388,0.16742 -1.32956,0.27645 -1.33395,0.3396 -3.03916,1.41167 -3.87647,0.93239 -0.99526,-0.56797 -1.35344,-2.41813 -1.75241,-3.78104 -0.19827,-0.68015 -0.10732,-1.66469 0.26228,-2.25436 1.37752,-2.19464 3.00226,-4.23394 4.39229,-6.41968 2.28997,-3.61006 3.0005,-7.39458 0.52539,-11.2223 -2.13085,-3.2951 -4.35517,-6.5311 -6.59836,-9.75213 -2.20833,-3.17161 -1.99389,-4.6775 1.14447,-7.10864 0.11669,-0.0882 0.21232,-0.21416 0.32063,-0.35526 0.15659,-0.21216 0.11532,-0.45244 -0.0934,-0.5504 -0.16074,-0.0786 -0.29248,-0.13547 -0.39123,-0.10401 -2.80698,0.91802 -5.63835,1.77923 -8.37949,2.8654 -0.78554,0.30851 -1.35295,1.11541 -0.12869,2.07568 0.83,0.65204 1.51117,1.79775 1.7429,2.83847 0.67886,3.05807 1.00911,6.19146 1.66553,9.25515 0.14338,0.63329 0.40714,1.23903 0.68631,1.80734 0.41688,0.81435 0.14982,1.90883 -0.59496,2.44166 -1.75846,1.25768 -3.48609,2.49576 -5.2586,3.76558 -0.74485,0.53268 -1.40854,0.22536 -1.48365,-0.68711 -0.069,-0.83544 -0.13531,-1.65966 -0.19833,-2.48447 -0.17448,-2.29552 -1.55527,-3.49358 -3.51632,-3.01579 -4.98496,1.21442 -9.45018,3.51793 -12.87229,7.31622 -1.05794,1.17314 -2.11841,1.68421 -3.22325,1.83707 -0.90701,0.12397 -1.8351,-0.71533 -2.04799,-1.60549 -0.44162,-1.83764 -0.85644,-3.62368 -1.37409,-5.37919 -0.84028,-2.85893 -2.49281,-5.58662 -1.70704,-8.84999 0.21224,-0.89032 -0.0508,-1.69925 -0.79652,-1.88026 -0.49012,-0.11807 -0.93697,-0.20168 -1.36675,-0.1489 -2.26455,0.27173 -4.50855,0.72122 -6.75409,1.13683 -0.21691,0.0415 -0.42866,0.12072 -0.63588,0.20797 -0.34002,0.147 -0.6098,0.39298 -0.60506,0.54087 1e-5,0.14966 0.29377,0.33518 0.65597,0.41705 0.21502,0.0489 0.43262,0.0955 0.65089,0.13279 3.03354,0.51534 4.22983,2.13015 3.83226,5.15642 -0.37835,2.86587 -0.95789,5.72755 -1.04103,8.60351 -0.0791,2.78957 -0.29347,5.86402 0.72014,8.33445 1.5558,3.81052 5.21688,5.39833 8.77684,7.13879 0.82294,0.40279 1.48911,3.4e-4 1.55608,-0.91175 0.8848,-11.8486 8.87449,-17.62904 15.54592,-19.23399 0.89057,-0.21298 1.72572,0.39266 1.84683,1.26779 0.067,0.53048 0.12897,1.05957 0.13287,1.58838 0.0136,1.30885 0.59656,1.74573 1.83711,2.15874 2.20998,0.73459 4.44799,1.63651 6.36402,2.93151 1.70064,1.1473 3.42754,2.40742 4.49651,4.30703 0.44885,0.80033 0.079,1.05321 -0.66749,0.52408 -5.41429,-3.842 -11.31499,-5.17199 -17.19835,-1.32904 -5.20132,3.39911 -10.03293,7.61506 -9.57407,14.61028 0.0571,0.91366 -0.52194,1.82535 -1.41084,2.04732 -1.00345,0.25173 -1.97339,0.49294 -2.8822,0.71966 -0.88749,0.22132 -1.62408,-0.34116 -1.58189,-1.25537 0.0843,-1.68349 0.24219,-3.38045 -0.46439,-4.56399 -0.76536,-1.28513 -2.38785,-2.05873 -3.99195,-2.93623 -0.80266,-0.43866 -1.62917,-0.12444 -1.78781,0.77683 -0.47653,2.66333 -0.33526,5.08847 -0.007,7.56438 0.42753,3.20297 1.96419,5.45444 4.8672,6.68692 z m 24.81165,-3.74909 c 3.10412,-0.76148 5.71952,1.00109 6.54348,4.40909 0.87338,3.61952 -0.80319,7.25069 -3.63982,7.87888 -2.77353,0.61415 -5.76442,-1.80314 -6.65871,-5.38329 -0.86067,-3.44498 0.59948,-6.13015 3.75505,-6.90468 z"
           id="sumo" />
        <path
           inkscape:connector-curvature="0"
           d="m 464.87629,428.84151 c 0,0 0.83181,2.95387 -1.98911,3.9976 0,0 -4.9544,4.18614 -8.44157,4.54939 0,0 -1.06626,0.14642 -1.60582,-0.90357 -0.39474,-0.78409 -1.40612,-1.86464 -2.22936,-2.5824 0,0 -2.84899,-2.42512 -2.72062,-6.63703 0,0 0.078,-0.5574 -2.62087,-1.82507 -1.37722,-0.6441 -3.42941,-2.34854 -5.00895,-3.60211 -0.95502,-0.75917 -3.52033,-1.82663 -4.28896,-2.11729 -1.65826,-0.63751 -5.81189,-0.94042 -7.01277,-0.36452 0,0 -4.62994,1.78749 -6.6733,2.24613 -0.12391,0.0298 -2.80853,0.84413 -6.6237,0.27113 -0.3711,-0.0549 -1.81747,-0.35145 -2.67538,-0.47398 -1.22708,-0.17827 -3.77858,-0.21265 -4.95683,0.22359 -1.12704,0.41658 -2.20005,1.7435 -5.10943,2.03169 -2.84132,0.2944 -6.90581,-0.65005 -9.37475,-0.41193 -1.38022,0.13354 -3.36571,0.69222 -4.71273,3.29752 0,0 -0.68788,2.49202 -1.50223,1.3378 0,0 -0.018,-2.89839 0.66062,-4.57632 0,0 -0.13826,-2.90028 0.94627,-3.24374 0,0 0.84067,0.0334 1.51248,0.36445 0,0 4.22863,-0.50361 7.06163,-2.48866 2.04481,-1.43243 2.88436,-1.73011 10.02084,-0.7441 0,0 1.56771,-2.31412 7.00173,-3.54019 1.59884,-0.35879 4.35259,-0.90357 6.40025,-1.34519 0,0 -7.4941,-3.86492 -11.328,-3.67599 0,0 -3.97444,1.60234 -5.47263,1.78381 -1.2803,0.15238 -3.33594,0.0482 -5.12126,-0.54372 -1.84546,-0.61282 -6.21647,0.43739 -7.69659,0.76846 0,0 -2.56358,0.85759 -2.44759,-0.9569 0,0 0.49474,-3.13125 -0.20975,-4.16265 0,0 -0.32815,-3.59946 0.0273,-4.33803 0,0 0.4854,-1.18236 1.32318,0.86072 0,0 -0.0108,2.14245 1.31582,2.93372 0,0 1.09943,0.98088 1.2628,1.2971 0,0 3.33429,-1.2128 8.13745,-2.33505 1.84953,-0.42873 6.08865,-0.62131 7.96585,-0.86013 1.16959,-0.15229 3.88377,0.55131 5.0293,0.21429 3.03512,-0.88495 5.36909,-2.3251 12.51413,0.26343 0,0 2.98997,1.37857 4.67239,2.16312 2.29594,1.06814 6.50739,1.27429 9.97597,0.31456 0,0 3.11335,-2.03785 6.04207,-2.07175 0,0 1.90477,0.31414 1.94777,-2.77293 0,0 -0.43585,-2.33788 3.24508,-6.06115 l 1.75824,-2.2116 c 0,0 0.63127,-1.18042 3.88883,0.1783 0,0 4.07194,2.30594 5.24589,3.50868 l 1.6717,0.86861 c 0,0 1.86373,0.78257 0.94452,3.87075 0,0 -0.31051,1.78078 -1.36782,1.46398 0,0 -3.36221,0.33402 -2.90909,-0.71877 0,0 0.29249,-0.49778 0.97655,-0.59869 0,0 0.12627,-1.57089 0.59351,-1.90447 0,0 -2.53631,-0.89768 -2.97554,-1.31689 0,0 -3.6701,0.28889 -4.39663,-0.0807 0,0 1.58848,3.32442 -1.43908,5.30893 0,0 1.08454,4.06159 -1.13396,5.59653 0,0 -2.15067,2.67191 0.32247,3.18331 l 1.49868,-0.0121 c 0,0 0.91343,-0.3535 1.56485,-0.42303 0,0 -0.40113,-0.70506 1.46939,-0.86932 0,0 1.22506,-0.36771 1.00114,0.47353 0,0 3.73307,-1.30044 4.62587,2.59785 0,0 0.99131,5.06392 -4.48369,4.45012 0,0 0.36953,1.83862 -2.75955,-0.0874 0,0 0.14038,-0.53827 -0.10563,-0.44361 -0.14173,0.0578 -1.66916,0.11073 -1.66916,0.11073 0,0 -2.39932,0.0476 -2.06783,2.1347 0,0 2.47953,3.78798 0.95486,5.53457 0,0 2.91306,2.4538 1.23083,5.57998 0,0 -0.19642,0.99918 0.66408,1.31294 0,0 1.67106,-1.93343 6.0511,-1.31723 0,0 1.55455,-0.10524 1.21456,-0.81733 l -0.11069,-0.69984 c 0,0 -1.13287,-0.18707 -0.95905,-2.22963 0,0 -0.3955,0.0602 -0.47377,-0.0402 -0.26198,-0.32978 -0.17233,-1.40365 0.0552,-1.76282 0.51794,-0.8228 2.94008,-0.8333 3.43606,1.1158 z"
           id="man"
           style="fill:#c4c3c1;fill-opacity:1;stroke-width:0.37338251"
           inkscape:transform-center-x="0.41420263"
           inkscape:transform-center-y="-9.2251716" />
        <path
           inkscape:connector-curvature="0"
           style="fill:#c4c3c1;fill-opacity:1;fill-rule:nonzero;stroke:none;stroke-width:0.12819454"
           d="m 377.09149,298.72726 c -1.83028,-0.98433 -4.03269,-4.95092 -0.4263,-4.5808 2.74746,-2.06005 5.61849,-4.03855 9.02132,-4.82423 3.75967,-1.10042 7.53994,-2.49802 10.63663,-4.9065 -0.14461,4.66906 -5.31047,3.62978 -8.46837,4.32882 -3.63967,1.51901 -6.63854,5.41483 -5.41481,9.51851 1.01642,3.00612 -2.3107,3.45572 -3.79713,1.54432 -0.51769,-0.36005 -1.03367,-0.71997 -1.55134,-1.08012 z m 18.75073,10.65178 c 1.12192,-2.33948 -0.69736,-5.55325 2.11612,-7.20492 2.75705,-3.31793 5.51593,-6.76412 9.22095,-9.0572 1.87082,-2.02238 6.61526,-1.44461 6.3709,-5.0489 -0.49518,-2.44573 -3.86716,-5.68838 0.16801,-6.74034 2.1603,-2.42692 6.2391,-6.1533 3.18619,-9.40842 -2.23921,-3.02916 -7.30185,-4.60722 -9.00673,-0.17661 -0.50902,2.53863 1.02579,5.90419 -1.3287,7.91446 -2.85942,0.18255 -6.60944,-4.57641 -8.91281,-0.87697 -3.35305,2.57388 -6.49728,5.83422 -10.78107,6.76289 -3.41113,1.30027 -6.20981,3.85734 -9.72809,4.91529 -3.74394,-1.87712 -5.83642,3.91502 -9.32521,0.97699 -1.81807,0.22782 4.46742,1.70465 0.90236,2.37093 -3.67425,-1.16068 -4.99574,3.95326 -3.09038,6.30617 1.19433,-4.50406 6.66899,-1.22465 8.73334,0.90376 1.56331,1.75189 4.18771,3.69766 1.10786,5.30792 -2.11354,2.82356 -6.08612,2.38011 -8.31622,5.02902 -2.52986,2.26471 -5.02642,4.63838 -7.88683,6.47863 -3.68386,0.10899 -5.55933,3.23685 -7.74109,5.78375 -3.4457,1.42555 0.85571,6.82652 2.35224,2.83957 4.45697,-6.72621 12.82281,-8.32318 19.24721,-12.45274 2.84793,-1.36687 5.93806,-5.13329 9.16047,-3.74635 1.94656,2.71779 6.574,3.01934 7.36708,-0.85218 0.61253,-3.58254 1.12752,-7.65151 4.76127,-9.51909 2.16938,-1.13669 4.52924,-4.6235 5.87117,-5.15944 -3.06635,3.97385 -4.93247,8.71837 -7.79665,12.80554 -0.17036,1.48993 2.11453,3.18663 3.34282,1.84723 z"
           id="woman" />
        <path
           inkscape:connector-curvature="0"
           style="fill:#c4c3c1;fill-opacity:1;stroke:#d2ccc9;stroke-width:0.50939494;stroke-miterlimit:4;stroke-dasharray:none;stroke-opacity:1"
           d="m 368.5296,550.3748 c 6.29722,5.03732 14.11513,8.21045 22.16507,8.83114 1.02963,0.3861 2.29203,2.92595 3.10655,1.32898 1.66147,-2.4687 5.48247,-0.63966 8.01567,-1.80877 15.00698,-2.62929 27.69121,-14.98713 30.60474,-29.95688 1.06146,-5.29947 1.07561,-10.83411 -0.0997,-16.11516 0.50396,-1.07364 2.94502,-2.35772 1.0934,-3.17673 -2.59412,-1.35477 -3.06183,-4.23125 -4.28735,-6.65928 -6.09222,-12.35019 -18.65121,-21.26349 -32.3568,-22.80814 -4.87945,-3.92558 -9.75901,-7.85124 -14.63846,-11.77683 -13.69107,17.01785 -27.38217,34.03573 -41.07327,51.05362 4.69714,3.77891 9.39411,7.55768 14.09126,11.3366 2.31311,7.73088 7.1232,14.68067 13.37918,19.75158 z m 24.63248,10.24616 c -2.94198,-1.41778 0.1206,-1.81308 0.70482,-0.87607 -0.23487,0.29193 -0.46993,0.58411 -0.70482,0.87607 z m -35.5932,-59.00526 c 2.12654,-2.08781 5.72951,-3.22698 7.88475,-0.45012 2.75484,2.75025 6.7322,4.1478 8.4921,7.80422 1.45666,1.25494 5.93903,5.95935 1.35386,3.91413 -3.6437,0.18413 -6.45317,-3.22985 -10.09072,-2.51645 -3.07852,-0.87866 -8.31374,-0.0222 -10.21171,-1.94753 0.63324,-2.34472 1.49649,-4.62669 2.57167,-6.80418 z m 36.84769,57.36331 c 2.83673,-2.84873 0.35469,-7.07441 2.98848,-10.1746 1.85445,-3.47524 0.99513,-8.14413 3.74582,-10.9854 1.8815,-1.00053 2.16595,-8.1605 3.03301,-3.03594 1.2931,2.98334 4.32845,3.567 7.1394,3.0806 0.0989,0.31073 -1.66768,2.15396 -2.31064,3.06205 -4.87189,5.99843 -9.68859,12.15096 -14.59196,18.0566 z m 20.37737,-25.84056 c 0.62422,-2.88874 -1.79646,-5.60685 -4.77504,-5.96181 -3.68006,-0.60686 3.21444,-1.83929 2.90542,-4.23993 3.42428,-2.24915 7.26757,-3.35205 10.5457,-5.89734 0.99303,-1.68943 6.52967,-3.16435 6.17839,-1.78855 -4.9805,6.19071 -9.96099,12.3814 -14.94148,18.57209 l 0.0792,-0.69186 z m 16.14552,-19.47526 c -2.76364,1.2546 0.81251,-1.22639 0.22586,-0.28073 l -0.14278,0.17747 z m 1.05016,-1.16988 c -1.51224,0.12166 -2.28577,0.50888 -0.46816,-0.58826 -1.6088,-0.19985 -4.11156,0.98885 -1.14981,-0.5808 -3.48589,0.31986 -6.35156,2.88607 -9.85595,3.6596 -3.21709,1.74231 -6.08484,3.83365 -9.34255,5.52517 2.13456,-2.89689 4.6285,-5.22209 6.96833,-7.97351 1.29041,-3.27532 4.68408,-4.15633 6.82154,-6.46379 0.92115,-1.86026 -2.85093,2.1405 -0.5826,-0.80084 2.23999,-3.34474 -1.44099,0.38793 -1.0824,-0.38012 2.23646,-2.61721 -0.66953,-0.80388 -1.04624,0.0355 2.11647,-3.50571 -1.53421,0.89658 -2.6454,1.84166 -2.30604,2.97455 -5.63844,5.16378 -7.62416,8.3526 -2.46449,2.4319 -5.00737,7.58389 -8.89488,4.58779 -3.78715,-1.01573 -6.23036,-3.46014 -8.26651,-6.71391 -1.81649,-2.27099 -2.29601,-5.3665 -4.12467,-7.70881 -1.66326,-2.17806 -3.26247,-4.19444 -3.69555,-6.99639 -0.27967,-3.02077 -0.91351,-6.08134 -3.12622,-8.33523 -2.30733,-2.00677 -6.14397,-7.71641 -1.32707,-8.50556 4.62909,-1.07442 9.59239,-1.66113 14.25315,-0.85711 11.34157,9.12443 22.68299,18.24876 34.02452,27.37316 0.47283,1.48458 0.84924,3.01309 1.16407,4.52926 z M 376.61039,483.5691 c 1.38773,2.44013 3.6923,5.25406 4.41467,8.46889 0.77505,3.54354 3.41626,6.39686 3.3692,10.21357 0.0258,1.78277 2.82533,4.93777 -0.40194,2.57455 -2.73268,-0.92227 -4.32674,-3.49246 -6.20366,-5.59674 -2.46936,-3.32099 -6.75792,-4.50586 -10.60542,-5.3229 -0.88946,-2.07809 -4.29259,-1.5076 -1.58078,-3.13769 3.17611,-3.00245 7.13708,-5.60226 11.00754,-7.20006 z m -14.80849,11.33781 c 2.80999,0.10668 5.84213,1.34719 8.28586,3.11324 2.3146,2.3361 5.77031,3.37678 7.28443,6.42203 1.12687,1.68545 5.69226,5.23481 4.8295,5.41003 -3.05159,-2.10619 -6.19223,-4.09432 -8.28922,-7.25892 -2.31098,-2.78322 -5.95291,-3.53739 -9.03569,-5.19795 -1.49488,-0.22763 -2.35682,-2.13596 -3.07357,-2.49006 z m -8.00613,20.76076 c 2.09903,-0.92417 3.06152,-4.95395 6.28369,-2.77919 3.34075,2.0409 7.35195,1.95637 10.87384,3.06431 3.87446,0.8561 6.86462,3.69231 10.87472,4.32633 2.65985,0.20908 4.55992,1.92465 7.0206,2.73535 3.25808,1.48163 5.19374,4.46154 7.30544,7.29472 2.36942,3.1131 -2.0699,5.56254 -3.24811,8.18754 -3.05437,1.89762 -4.14073,5.59624 -6.20851,8.45932 -1.37248,0.71183 -4.59798,7.61953 -1.8404,3.50922 -0.35781,0.86475 -0.6616,3.87574 -1.93681,1.9552 -9.11697,-7.33471 -18.23378,-14.66931 -27.35074,-22.00401 -1.52808,-4.74126 -2.14463,-9.7845 -1.77353,-14.74865 z m 0.41506,-3.696 c 0.0578,-2.57754 0.92529,-1.04197 0,0 z m 30.18875,41.59987 c 2.43167,0.10911 3.47646,-3.69553 4.6267,-5.88639 2.59839,-2.35752 4.1097,-5.60643 6.57737,-7.98566 2.5048,-4.14549 0.32141,2.44123 -0.30759,4.0414 -1.53521,3.27616 -0.44527,7.30679 -2.68529,10.35248 -0.30142,1.75348 0.31551,5.90395 0.65405,1.82545 0.48057,1.39366 -0.28842,4.87681 0.91517,1.18658 0.92014,3.15006 -3.78418,1.99168 -5.09516,0.24408 -1.56013,-1.25772 -3.12013,-2.51532 -4.67837,-3.77537 z m 39.86545,-8.90276 c -6.9499,8.80134 -17.96928,14.12789 -29.16942,14.26009 12.28403,-15.26891 24.56806,-30.53781 36.85209,-45.80672 2.26733,10.97692 -0.57691,22.86025 -7.68267,31.54663 z m 9.42138,-34.41621 c -1.61152,3.3629 -2.05016,-0.29212 -2.02761,-1.63123 0.67607,0.5439 1.35172,1.08747 2.02761,1.63123 z m -15.9504,-21.03788 c 5.8145,4.66051 10.28363,10.9576 12.81815,17.96118 -11.03857,-8.88067 -22.07704,-17.76126 -33.11561,-26.64193 7.38659,0.98172 14.49739,3.99606 20.29746,8.68075 z m -21.76046,-9.30099 c -11.69719,-0.99754 -23.80369,3.14911 -32.02549,11.63097 6.08805,-7.56736 12.17611,-15.13476 18.26416,-22.70213 4.58706,3.69035 9.17426,7.38082 13.76133,11.07116 z m -54.29236,39.29195 c 5.92403,-7.3635 11.84806,-14.727 17.7721,-22.09051 -0.89453,2.20623 -4.24959,4.18241 -3.04637,5.88863 -3.69261,8.38492 -4.19948,18.10737 -1.4781,26.84639 -4.41422,-3.53974 -8.84881,-7.13629 -13.2466,-10.6455 z m 48.36115,39.47685 c -15.47716,-1.50155 -29.45302,-12.7453 -34.2342,-27.54185 11.4114,9.18062 22.8228,18.36124 34.2342,27.54185 z"
           id="davinci" />
        <g
           aria-label="120                125                 130                 135                140                 145                 150"
           style="font-style:normal;font-variant:normal;font-weight:normal;font-stretch:normal;font-size:16px;line-height:1.25;font-family:sans-serif;-inkscape-font-specification:'sans-serif, Normal';font-variant-ligatures:normal;font-variant-caps:normal;font-variant-numeric:normal;font-feature-settings:normal;text-align:start;letter-spacing:0px;word-spacing:0px;writing-mode:lr-tb;text-anchor:start;fill:#dddddd;fill-opacity:1;stroke:none"
           id="scalenumbers">
          <path
             inkscape:connector-curvature="0"
             d="m 237.2232,193.72757 2.57562,-0.11373 -0.39253,-8.88977 -2.77715,0.68567 -0.0634,-1.4361 2.76153,-0.68499 1.57659,-0.0696 0.45595,10.32588 2.57561,-0.11373 0.0586,1.32683 -6.71221,0.29638 z"
             style="fill:#dddddd;fill-opacity:1"
             id="path9780" />
          <path
             inkscape:connector-curvature="0"
             d="m 248.55105,193.36882 5.5078,0.009 -0.002,1.32813 -7.40624,-0.0119 0.002,-1.32813 q 0.89993,-0.92824 2.44931,-2.48826 1.5572,-1.56782 1.95637,-2.0203 0.75917,-0.85035 1.05699,-1.43581 0.30564,-0.59326 0.30655,-1.16357 0.001,-0.92969 -0.65381,-1.51667 -0.6475,-0.58698 -1.69438,-0.58866 -0.74218,-0.001 -1.57072,0.25529 -0.82072,0.2565 -1.75906,0.77843 l 0.003,-1.59375 q 0.95374,-0.38128 1.78218,-0.57526 0.82844,-0.19399 1.51594,-0.19288 1.81249,0.003 2.88916,0.91088 1.07667,0.90798 1.07424,2.4236 -10e-4,0.71875 -0.27563,1.36675 -0.26665,0.6402 -0.97899,1.51406 -0.19568,0.22625 -1.24429,1.3105 -1.04861,1.07645 -2.95797,3.0187 z"
             style="fill:#dddddd;fill-opacity:1"
             id="path9782" />
          <path
             inkscape:connector-curvature="0"
             d="m 261.25435,184.33746 q -1.21737,-0.0581 -1.89119,1.11427 -0.66564,1.16491 -0.78031,3.56843 -0.1143,2.39571 0.43705,3.62651 0.55953,1.22337 1.77689,1.28145 1.22517,0.0584 1.89082,-1.10647 0.67382,-1.17234 0.78811,-3.56806 0.11467,-2.40351 -0.44485,-3.62688 -0.55135,-1.2308 -1.77652,-1.28925 z m 0.0596,-1.24858 q 1.95871,0.0935 2.9147,1.69551 0.96417,1.59464 0.82344,4.54441 -0.14036,2.94196 -1.25233,4.44537 -1.1038,1.49597 -3.06251,1.40253 -1.95871,-0.0935 -2.92287,-1.68809 -0.95599,-1.60206 -0.81563,-4.54403 0.14073,-2.94977 1.24452,-4.44574 1.11197,-1.50341 3.07068,-1.40996 z"
             style="fill:#dddddd;fill-opacity:1"
             id="path9784" />
          <path
             inkscape:connector-curvature="0"
             d="m 346.60205,215.50855 2.30263,1.15958 4.00231,-7.94756 -2.75799,-0.75909 0.64656,-1.28389 2.74402,0.75206 1.40949,0.70981 -4.64886,9.23145 2.30263,1.15958 -0.59736,1.1862 -6.00079,-3.02193 z"
             style="fill:#dddddd;fill-opacity:1"
             id="path9786" />
          <path
             inkscape:connector-curvature="0"
             d="m 356.65979,220.73439 4.79935,2.70226 -0.65161,1.15729 -6.4536,-3.63368 0.65161,-1.15729 q 1.239,-0.36931 3.3535,-0.97189 2.12515,-0.60556 2.69465,-0.80492 1.07813,-0.37023 1.62429,-0.73514 0.55681,-0.36789 0.83661,-0.86485 0.45613,-0.8101 0.17177,-1.64264 -0.27756,-0.82871 -1.18978,-1.34233 -0.64672,-0.36414 -1.49481,-0.54578 -0.84129,-0.17782 -1.91501,-0.18167 l 0.78193,-1.38875 q 1.01835,0.13406 1.83577,0.37016 0.81743,0.23611 1.4165,0.57342 1.57936,0.88925 2.07418,2.20788 0.49483,1.31864 -0.24878,2.63931 -0.35263,0.6263 -0.90903,1.05717 -0.54577,0.42791 -1.59455,0.84155 -0.28135,0.1016 -1.72635,0.53423 -1.44118,0.42583 -4.05664,1.18567 z"
             style="fill:#dddddd;fill-opacity:1"
             id="path9788" />
          <path
             inkscape:connector-curvature="0"
             d="m 369.86113,216.41163 5.25228,3.28564 -0.70436,1.12596 -4.02697,-2.51913 -1.51645,2.42413 q 0.35358,0.083 0.674,0.2189 0.32458,0.12932 0.616,0.31162 1.65583,1.03583 2.0552,2.54814 0.39937,1.51232 -0.57017,3.06217 -0.99853,1.59622 -2.54723,1.86225 -1.54456,0.2594 -3.35272,-0.87172 -0.62259,-0.38947 -1.20538,-0.90149 -0.57617,-0.50787 -1.13241,-1.15072 l 0.84109,-1.34453 q 0.39308,0.69744 0.92948,1.25415 0.5364,0.55672 1.24509,1.00005 1.14583,0.7168 2.19183,0.53255 1.04599,-0.18425 1.69235,-1.21748 0.64635,-1.03324 0.35444,-2.05444 -0.29191,-1.02119 -1.43775,-1.73798 -0.53648,-0.33561 -1.14755,-0.552 -0.60444,-0.21224 -1.31825,-0.30859 z"
             style="fill:#dddddd;fill-opacity:1"
             id="path9790" />
          <path
             inkscape:connector-curvature="0"
             d="m 434.35585,292.13057 1.3991,2.16547 7.47414,-4.82903 -1.99452,-2.05051 1.20741,-0.7801 1.98604,2.03737 0.85642,1.32553 -8.68154,5.60914 1.3991,2.16546 -1.11554,0.72075 -3.64615,-5.64333 z"
             style="fill:#dddddd;fill-opacity:1"
             id="path9792" />
          <path
             inkscape:connector-curvature="0"
             d="m 446.3945,302.18961 q 0.36062,1.10085 0.0173,2.03293 -0.33937,0.93883 -1.31162,1.50483 -1.49214,0.86864 -2.90654,0.31796 -1.4144,-0.55067 -2.51495,-2.44117 -0.36946,-0.63466 -0.63423,-1.38452 -0.26759,-0.73917 -0.43441,-1.60029 l 1.3166,-0.76645 q -6.8e-4,0.75975 0.22358,1.53319 0.22426,0.77343 0.65268,1.50938 0.7468,1.28283 1.6423,1.65647 0.89943,0.38039 1.86493,-0.18168 0.89124,-0.51882 1.02533,-1.43759 0.14477,-0.91595 -0.50376,-2.03 l -0.68391,-1.1748 1.1208,-0.65247 0.71535,1.22882 q 0.58564,1.00602 1.29451,1.30751 0.71561,0.29756 1.47181,-0.14266 0.77645,-0.45201 0.86601,-1.24541 0.10024,-0.79059 -0.4972,-1.81686 -0.32623,-0.56039 -0.82116,-1.13106 -0.49493,-0.57067 -1.19958,-1.19101 l 1.21532,-0.70749 q 0.66807,0.65067 1.16914,1.26296 0.50501,0.61904 0.85483,1.21995 0.90401,1.5529 0.72177,2.87034 -0.1755,1.31351 -1.37731,2.01314 -0.83722,0.48738 -1.69694,0.34603 -0.85296,-0.14528 -1.59067,-0.90005 z"
             style="fill:#dddddd;fill-opacity:1"
             id="path9794" />
          <path
             inkscape:connector-curvature="0"
             d="m 454.59207,308.14586 q -0.56351,-1.08065 -1.91567,-1.07163 -1.34163,0.0123 -3.47523,1.1249 -2.12667,1.10894 -2.91172,2.20555 -0.77451,1.09992 -0.21101,2.18058 0.56712,1.08758 1.90874,1.07524 1.35217,-0.009 3.47884,-1.11797 2.1336,-1.11256 2.90811,-2.21248 0.78505,-1.0966 0.21794,-2.18419 z m 1.10836,-0.57795 q 0.90666,1.73875 0.005,3.37198 -0.89118,1.63654 -3.50969,3.00195 -2.61159,1.3618 -4.47054,1.1593 -1.84841,-0.19918 -2.75507,-1.93793 -0.90666,-1.73875 -0.0155,-3.37529 0.90172,-1.63323 3.51331,-2.99503 2.61851,-1.36541 4.46692,-1.16623 1.85895,0.2025 2.76561,1.94125 z"
             style="fill:#dddddd;fill-opacity:1"
             id="path9796" />
          <path
             inkscape:connector-curvature="0"
             d="m 471.02331,402.6866 0.10507,2.57598 8.89104,-0.36264 -0.67633,-2.77943 1.4363,-0.0586 0.6757,2.76382 0.0643,1.57682 -10.32735,0.42122 0.10507,2.57599 -1.32702,0.0541 -0.27381,-6.71317 z"
             style="fill:#dddddd;fill-opacity:1"
             id="path9798" />
          <path
             inkscape:connector-curvature="0"
             d="m 476.28766,417.46244 q -0.24784,1.13159 -1.01661,1.76057 -0.76882,0.6368 -1.8938,0.63118 -1.72654,-0.009 -2.66591,-1.20083 -0.93938,-1.1922 -0.92845,-3.37967 0.004,-0.73437 0.156,-1.51487 0.14449,-0.77272 0.43768,-1.5994 l 1.52342,0.008 q -0.38609,0.65433 -0.5853,1.4346 -0.19921,0.78026 -0.20346,1.63181 -0.007,1.48436 0.57466,2.26071 0.58203,0.78417 1.6992,0.78975 1.03124,0.005 1.61298,-0.71852 0.58952,-0.71581 0.59596,-2.00486 l 0.007,-1.35936 1.29685,0.006 -0.007,1.42185 q -0.006,1.16405 0.45204,1.78353 0.46566,0.61952 1.34065,0.62389 0.89843,0.004 1.37819,-0.63375 0.48752,-0.63038 0.49345,-1.81787 0.003,-0.64843 -0.13368,-1.39131 -0.13691,-0.74288 -0.42934,-1.63498 l 1.40623,0.007 q 0.24552,0.89967 0.36661,1.68153 0.12106,0.78968 0.11759,1.48498 -0.009,1.79686 -0.8345,2.83962 -0.81772,1.04281 -2.20833,1.03586 -0.96873,-0.005 -1.63783,-0.56287 -0.66129,-0.55799 -0.91399,-1.58271 z"
             style="fill:#dddddd;fill-opacity:1"
             id="path9800" />
          <path
             inkscape:connector-curvature="0"
             d="m 481.54125,423.448 -0.31634,6.18723 -1.32639,-0.0678 0.24254,-4.74381 -2.85565,-0.146 q 0.0995,0.34929 0.13655,0.69538 0.0449,0.34649 0.0273,0.6898 -0.0997,1.95057 -1.22689,3.03506 -1.12715,1.08448 -2.95289,0.99114 -1.88036,-0.0961 -2.86603,-1.31994 -0.97787,-1.2234 -0.86897,-3.35343 0.0375,-0.73342 0.20143,-1.49166 0.16353,-0.75045 0.45469,-1.54912 l 1.58387,0.081 q -0.41821,0.68266 -0.64377,1.42211 -0.22555,0.73945 -0.26823,1.57429 -0.069,1.3498 0.60071,2.17414 0.66972,0.82433 1.88688,0.88656 1.21716,0.0622 1.96746,-0.6895 0.7503,-0.75173 0.81931,-2.10153 0.0323,-0.63199 -0.0758,-1.27116 -0.10853,-0.63136 -0.3715,-1.30191 z"
             style="fill:#dddddd;fill-opacity:1"
             id="path9802" />
          <path
             inkscape:connector-curvature="0"
             d="m 448.86788,511.99018 -1.16745,2.29865 7.93383,4.02947 0.76852,-2.75537 1.28167,0.65094 -0.76145,2.74144 -0.71461,1.40705 -9.2155,-4.6804 -1.16745,2.29865 -1.18415,-0.60142 3.04243,-5.99042 z"
             style="fill:#dddddd;fill-opacity:1"
             id="path9804" />
          <path
             inkscape:connector-curvature="0"
             d="m 449.93176,529.04176 -3.44853,-6.53857 -1.96666,3.46518 z m 1.40021,0.31859 -0.97948,1.72579 -6.61102,-3.75208 -0.82137,1.44722 -1.14147,-0.64784 0.82137,-1.44722 -2.39166,-1.35738 0.7751,-1.36569 2.39165,1.35738 2.59908,-4.57948 1.32493,0.75196 z"
             style="fill:#dddddd;fill-opacity:1"
             id="path9806" />
          <path
             inkscape:connector-curvature="0"
             d="m 445.21512,537.53384 q 0.64987,-1.03103 -0.0388,-2.19469 -0.68627,-1.15289 -2.72189,-2.43597 -2.02901,-1.27891 -3.37175,-1.40494 -1.3403,-0.11525 -1.99017,0.91578 -0.65404,1.03764 0.0322,2.19052 0.68871,1.16367 2.71772,2.44258 2.03562,1.28308 3.37592,1.39833 1.34275,0.12603 1.99679,-0.91161 z m 1.05746,0.66653 q -1.04563,1.6589 -2.91074,1.70231 -1.86267,0.0542 -4.36093,-1.52051 -2.49165,-1.57052 -3.25281,-3.27854 -0.75873,-1.69725 0.2869,-3.35615 1.04563,-1.65889 2.9083,-1.71307 1.86511,-0.0434 4.35676,1.52711 2.49826,1.57469 3.25698,3.27194 0.76117,1.70802 -0.28446,3.36691 z"
             style="fill:#dddddd;fill-opacity:1"
             id="path9808" />
          <path
             inkscape:connector-curvature="0"
             d="m 371.94744,599.48257 -2.17025,1.39168 4.80341,7.49063 2.05732,-1.98749 0.77597,1.21008 -2.04417,1.97905 -1.32845,0.85188 -5.57937,-8.7007 -2.17025,1.39168 -0.71692,-1.11801 5.65578,-3.6268 z"
             style="fill:#dddddd;fill-opacity:1"
             id="path9810" />
          <path
             inkscape:connector-curvature="0"
             d="m 364.2334,614.72774 0.33612,-7.3846 -3.45026,1.99273 z m 1.04624,0.98359 -1.71836,0.99246 -3.80182,-6.58255 -1.44099,0.83226 -0.65643,-1.13655 1.44099,-0.83226 -1.37538,-2.38136 1.35981,-0.78537 1.37538,2.38136 4.55975,-2.63353 0.76192,1.31921 z"
             style="fill:#dddddd;fill-opacity:1"
             id="path9812" />
          <path
             inkscape:connector-curvature="0"
             d="m 359.3241,619.0437 -5.50314,2.84558 -0.61002,-1.17975 4.21931,-2.18172 -1.31335,-2.53991 q -0.25152,0.26198 -0.53174,0.46844 -0.27664,0.21341 -0.58198,0.3713 -1.73492,0.89709 -3.23971,0.47026 -1.5048,-0.42683 -2.34448,-2.05071 -0.86479,-1.67246 -0.30469,-3.14063 0.5637,-1.46123 2.45822,-2.44085 0.65233,-0.33731 1.38983,-0.57793 0.73056,-0.23704 1.56711,-0.38816 l 0.72844,1.40875 q -0.8004,-0.0171 -1.55272,0.16084 -0.75233,0.17793 -1.49487,0.56189 -1.20056,0.62079 -1.57493,1.61472 -0.37436,0.99393 0.18542,2.07652 0.55979,1.08258 1.58723,1.35167 1.02745,0.26908 2.22801,-0.35171 0.56211,-0.29065 1.05963,-0.70623 0.49059,-0.41198 0.93716,-0.97711 z"
             style="fill:#dddddd;fill-opacity:1"
             id="path9814" />
          <path
             inkscape:connector-curvature="0"
             d="m 261.26623,635.77164 -2.57632,0.0964 0.33273,8.89221 2.78169,-0.66698 0.0538,1.4365 -2.76608,0.66639 -1.57702,0.059 -0.38649,-10.32871 -2.57632,0.0964 -0.0497,-1.3272 6.71405,-0.25123 z"
             style="fill:#dddddd;fill-opacity:1"
             id="path9816" />
          <path
             inkscape:connector-curvature="0"
             d="m 251.19323,646.40088 -6.19509,-0.0519 0.0111,-1.32808 4.74983,0.0398 0.024,-2.85928 q -0.34472,0.1143 -0.68892,0.16611 -0.34426,0.0596 -0.688,0.0567 -1.95305,-0.0164 -3.08466,-1.09621 -1.13161,-1.07984 -1.11629,-2.9079 0.0158,-1.88275 1.1964,-2.91976 1.18055,-1.0292 3.31329,-1.01132 0.73435,0.006 1.4989,0.13757 0.75673,0.13135 1.56711,0.38816 l -0.0133,1.58588 q -0.69989,-0.3887 -1.44829,-0.58248 -0.7484,-0.19378 -1.58431,-0.20079 -1.35152,-0.0113 -2.14651,0.69296 -0.795,0.7043 -0.80522,1.92301 -0.0102,1.21871 0.77286,1.93623 0.78307,0.71753 2.13459,0.72887 0.63279,0.005 1.26676,-0.13001 0.62615,-0.13538 1.28487,-0.42674 z"
             style="fill:#dddddd;fill-opacity:1"
             id="path9818" />
          <path
             inkscape:connector-curvature="0"
             d="m 237.17142,644.99877 q 1.21694,0.0664 1.89874,-1.10134 0.67358,-1.16035 0.80465,-3.56303 0.13064,-2.39487 -0.4123,-3.6294 -0.55117,-1.22716 -1.76811,-1.29354 -1.22474,-0.0668 -1.89832,1.09353 -0.6818,1.16772 -0.81244,3.5626 -0.13107,2.40268 0.4201,3.62984 0.54294,1.23453 1.76768,1.30134 z m -0.0681,1.24814 q -1.95803,-0.10681 -2.90306,-1.71536 -0.95327,-1.60118 -0.79241,-4.54992 0.16043,-2.94094 1.28263,-4.43672 1.11397,-1.48841 3.072,-1.3816 1.95803,0.10681 2.91129,1.70799 0.94504,1.60855 0.78461,4.54949 -0.16086,2.94874 -1.27483,4.43715 -1.1222,1.49578 -3.08023,1.38897 z"
             style="fill:#dddddd;fill-opacity:1"
             id="path9820" />
        </g>
        <g
           id="scalestrokes">
          <path
             inkscape:tile-y0="5"
             inkscape:tile-x0="249"
             inkscape:tile-h="10"
             inkscape:tile-w="2"
             inkscape:tile-cy="255.00077"
             inkscape:tile-cx="250"
             inkscape:transform-center-y="-245.00077"
             inkscape:connector-curvature="0"
             id="path7949"
             d="m 250,164.70831 v 10"
             style="fill:none;stroke:#dddddd;stroke-width:2;stroke-linecap:butt;stroke-linejoin:miter;stroke-miterlimit:4;stroke-dasharray:none;stroke-opacity:1" />
          <use
             height="100%"
             width="100%"
             inkscape:transform-center-y="-245.00077"
             id="use9582"
             xlink:href="#path7949"
             inkscape:tiled-clone-of="#path7949"
             y="0"
             x="0" />
          <use
             height="100%"
             width="100%"
             inkscape:transform-center-y="-243.65863"
             inkscape:transform-center-x="-25.609554"
             id="use9584"
             transform="rotate(6,250,414.70908)"
             xlink:href="#path7949"
             inkscape:tiled-clone-of="#path7949"
             y="0"
             x="0" />
          <use
             height="100%"
             width="100%"
             inkscape:transform-center-y="-239.64692"
             inkscape:transform-center-x="-50.938524"
             id="use9586"
             transform="rotate(12,250,414.70908)"
             xlink:href="#path7949"
             inkscape:tiled-clone-of="#path7949"
             y="0"
             x="0" />
          <use
             height="100%"
             width="100%"
             inkscape:transform-center-y="-233.00958"
             inkscape:transform-center-x="-75.709402"
             id="use9588"
             transform="rotate(18,250,414.70908)"
             xlink:href="#path7949"
             inkscape:tiled-clone-of="#path7949"
             y="0"
             x="0" />
          <use
             height="100%"
             width="100%"
             inkscape:transform-center-y="-223.81934"
             inkscape:transform-center-x="-99.650791"
             id="use9590"
             transform="rotate(24,250,414.70908)"
             xlink:href="#path7949"
             inkscape:tiled-clone-of="#path7949"
             y="0"
             x="0" />
          <use
             height="100%"
             width="100%"
             inkscape:transform-center-y="-212.17689"
             inkscape:transform-center-x="-122.50038"
             id="use9592"
             transform="rotate(30,250,414.70908)"
             xlink:href="#path7949"
             inkscape:tiled-clone-of="#path7949"
             y="0"
             x="0" />
          <use
             height="100%"
             width="100%"
             inkscape:transform-center-y="-198.20979"
             inkscape:transform-center-x="-144.00784"
             id="use9594"
             transform="rotate(36,250,414.70908)"
             xlink:href="#path7949"
             inkscape:tiled-clone-of="#path7949"
             y="0"
             x="0" />
          <use
             height="100%"
             width="100%"
             inkscape:transform-center-y="-182.07105"
             inkscape:transform-center-x="-163.93751"
             id="use9596"
             transform="rotate(42,250,414.70908)"
             xlink:href="#path7949"
             inkscape:tiled-clone-of="#path7949"
             y="0"
             x="0" />
          <use
             height="100%"
             width="100%"
             inkscape:transform-center-y="-163.93751"
             inkscape:transform-center-x="-182.07105"
             id="use9598"
             transform="rotate(48,250,414.70908)"
             xlink:href="#path7949"
             inkscape:tiled-clone-of="#path7949"
             y="0"
             x="0" />
          <use
             height="100%"
             width="100%"
             inkscape:transform-center-y="-144.00784"
             inkscape:transform-center-x="-198.20979"
             id="use9600"
             transform="rotate(54,250,414.70908)"
             xlink:href="#path7949"
             inkscape:tiled-clone-of="#path7949"
             y="0"
             x="0" />
          <use
             height="100%"
             width="100%"
             inkscape:transform-center-y="-122.50039"
             inkscape:transform-center-x="-212.17689"
             id="use9602"
             transform="rotate(60,250,414.70908)"
             xlink:href="#path7949"
             inkscape:tiled-clone-of="#path7949"
             y="0"
             x="0" />
          <use
             height="100%"
             width="100%"
             inkscape:transform-center-y="-99.650791"
             inkscape:transform-center-x="-223.81934"
             id="use9604"
             transform="rotate(66,250,414.70908)"
             xlink:href="#path7949"
             inkscape:tiled-clone-of="#path7949"
             y="0"
             x="0" />
          <use
             height="100%"
             width="100%"
             inkscape:transform-center-y="-75.709402"
             inkscape:transform-center-x="-233.00958"
             id="use9606"
             transform="rotate(72,250,414.70908)"
             xlink:href="#path7949"
             inkscape:tiled-clone-of="#path7949"
             y="0"
             x="0" />
          <use
             height="100%"
             width="100%"
             inkscape:transform-center-y="-50.938524"
             inkscape:transform-center-x="-239.64692"
             id="use9608"
             transform="rotate(78,250,414.70908)"
             xlink:href="#path7949"
             inkscape:tiled-clone-of="#path7949"
             y="0"
             x="0" />
          <use
             height="100%"
             width="100%"
             inkscape:transform-center-y="-25.609554"
             inkscape:transform-center-x="-243.65863"
             id="use9610"
             transform="rotate(84,250,414.70908)"
             xlink:href="#path7949"
             inkscape:tiled-clone-of="#path7949"
             y="0"
             x="0" />
          <use
             height="100%"
             width="100%"
             inkscape:transform-center-x="-245.00077"
             id="use9612"
             transform="rotate(90,250,414.70908)"
             xlink:href="#path7949"
             inkscape:tiled-clone-of="#path7949"
             y="0"
             x="0" />
          <use
             height="100%"
             width="100%"
             inkscape:transform-center-y="25.609554"
             inkscape:transform-center-x="-243.65863"
             id="use9614"
             transform="rotate(96,250,414.70908)"
             xlink:href="#path7949"
             inkscape:tiled-clone-of="#path7949"
             y="0"
             x="0" />
          <use
             height="100%"
             width="100%"
             inkscape:transform-center-y="50.938524"
             inkscape:transform-center-x="-239.64692"
             id="use9616"
             transform="rotate(102,250,414.70908)"
             xlink:href="#path7949"
             inkscape:tiled-clone-of="#path7949"
             y="0"
             x="0" />
          <use
             height="100%"
             width="100%"
             inkscape:transform-center-y="75.709402"
             inkscape:transform-center-x="-233.00958"
             id="use9618"
             transform="rotate(108,250,414.70908)"
             xlink:href="#path7949"
             inkscape:tiled-clone-of="#path7949"
             y="0"
             x="0" />
          <use
             height="100%"
             width="100%"
             inkscape:transform-center-y="99.650791"
             inkscape:transform-center-x="-223.81934"
             id="use9620"
             transform="rotate(114,250,414.70908)"
             xlink:href="#path7949"
             inkscape:tiled-clone-of="#path7949"
             y="0"
             x="0" />
          <use
             height="100%"
             width="100%"
             inkscape:transform-center-y="122.50038"
             inkscape:transform-center-x="-212.17689"
             id="use9622"
             transform="rotate(120,250,414.70908)"
             xlink:href="#path7949"
             inkscape:tiled-clone-of="#path7949"
             y="0"
             x="0" />
          <use
             height="100%"
             width="100%"
             inkscape:transform-center-y="144.00784"
             inkscape:transform-center-x="-198.20979"
             id="use9624"
             transform="rotate(126,250,414.70908)"
             xlink:href="#path7949"
             inkscape:tiled-clone-of="#path7949"
             y="0"
             x="0" />
          <use
             height="100%"
             width="100%"
             inkscape:transform-center-y="163.93751"
             inkscape:transform-center-x="-182.07105"
             id="use9626"
             transform="rotate(132,250,414.70908)"
             xlink:href="#path7949"
             inkscape:tiled-clone-of="#path7949"
             y="0"
             x="0" />
          <use
             height="100%"
             width="100%"
             inkscape:transform-center-y="182.07105"
             inkscape:transform-center-x="-163.93751"
             id="use9628"
             transform="rotate(138,250,414.70908)"
             xlink:href="#path7949"
             inkscape:tiled-clone-of="#path7949"
             y="0"
             x="0" />
          <use
             height="100%"
             width="100%"
             inkscape:transform-center-y="198.20979"
             inkscape:transform-center-x="-144.00784"
             id="use9630"
             transform="rotate(144,250,414.70908)"
             xlink:href="#path7949"
             inkscape:tiled-clone-of="#path7949"
             y="0"
             x="0" />
          <use
             height="100%"
             width="100%"
             inkscape:transform-center-y="212.17689"
             inkscape:transform-center-x="-122.50038"
             id="use9632"
             transform="rotate(150,250,414.70908)"
             xlink:href="#path7949"
             inkscape:tiled-clone-of="#path7949"
             y="0"
             x="0" />
          <use
             height="100%"
             width="100%"
             inkscape:transform-center-y="223.81934"
             inkscape:transform-center-x="-99.650791"
             id="use9634"
             transform="rotate(156,250,414.70908)"
             xlink:href="#path7949"
             inkscape:tiled-clone-of="#path7949"
             y="0"
             x="0" />
          <use
             height="100%"
             width="100%"
             inkscape:transform-center-y="233.00958"
             inkscape:transform-center-x="-75.709402"
             id="use9636"
             transform="rotate(162,250,414.70908)"
             xlink:href="#path7949"
             inkscape:tiled-clone-of="#path7949"
             y="0"
             x="0" />
          <use
             height="100%"
             width="100%"
             inkscape:transform-center-y="239.64692"
             inkscape:transform-center-x="-50.938524"
             id="use9638"
             transform="rotate(168,250,414.70908)"
             xlink:href="#path7949"
             inkscape:tiled-clone-of="#path7949"
             y="0"
             x="0" />
          <use
             height="100%"
             width="100%"
             inkscape:transform-center-y="243.65863"
             inkscape:transform-center-x="-25.609554"
             id="use9640"
             transform="rotate(174,250,414.70908)"
             xlink:href="#path7949"
             inkscape:tiled-clone-of="#path7949"
             y="0"
             x="0" />
          <use
             height="100%"
             width="100%"
             inkscape:transform-center-y="245.00077"
             id="use9642"
             transform="rotate(180,250,414.70908)"
             xlink:href="#path7949"
             inkscape:tiled-clone-of="#path7949"
             y="0"
             x="0" />
          <path
             inkscape:transform-center-x="-1.6424661e-06"
             style="fill:none;stroke:#fd3d09;stroke-width:10.33217144;stroke-linecap:butt;stroke-linejoin:miter;stroke-miterlimit:4;stroke-dasharray:none;stroke-opacity:1"
             d="M 435.78678,581.99225 416.59103,564.70831"
             id="use9646"
             inkscape:connector-curvature="0"
             inkscape:transform-center-y="-632.84747"
             inkscape:tile-x0="249"
             inkscape:tile-y0="5" />
        </g>
      </g>
    </g>
    <path
       sodipodi:nodetypes="czccscc"
       inkscape:connector-curvature="0"
       id="scalewindowborder"
       d="m 73.003005,238.28186 c 0,0 66.525795,-73.35172 176.996995,-73.57355 110.4712,-0.22183 177.6813,74.23903 177.6813,74.23903 l -85.55149,85.10783 c 0,0 -35.40692,-38.95462 -92.12981,-38.67886 -58.49728,0.28438 -91.7054,38.27326 -91.7054,38.27326 z"
       style="fill:none;stroke:#dddddd;stroke-width:1px;stroke-linecap:butt;stroke-linejoin:miter;stroke-opacity:1" />
    <path
       style="fill:none;stroke:#ff1f00;stroke-width:4;stroke-linecap:round;stroke-linejoin:miter;stroke-miterlimit:4;stroke-dasharray:none;stroke-opacity:0.6655949"
       d="M 250.07424,179.776 250,299.70831"
       id="hand"
       inkscape:connector-curvature="0" />
  </g>
</svg>
