<?xml version="1.0" encoding="UTF-8" standalone="no"?>
<!-- Created with Inkscape (http://www.inkscape.org/) -->

<svg
   xmlns:dc="http://purl.org/dc/elements/1.1/"
   xmlns:cc="http://creativecommons.org/ns#"
   xmlns:rdf="http://www.w3.org/1999/02/22-rdf-syntax-ns#"
   xmlns:svg="http://www.w3.org/2000/svg"
   xmlns="http://www.w3.org/2000/svg"
   xmlns:xlink="http://www.w3.org/1999/xlink"
   xmlns:sodipodi="http://sodipodi.sourceforge.net/DTD/sodipodi-0.dtd"
   xmlns:inkscape="http://www.inkscape.org/namespaces/inkscape"
   width="500"
   height="505"
   viewBox="0 0 500 505"
   version="1.1"
   id="svg5306"
   inkscape:version="0.92.2 5c3e80d, 2017-08-06"
   sodipodi:docname="circle-with-carimages-scale-clipped.inkscape.svg">
  <defs
     id="defs5300">
    <clipPath
       clipPathUnits="userSpaceOnUse"
       id="clipPath9953">
      <path
         style="fill:none;stroke:#000000;stroke-width:1px;stroke-linecap:butt;stroke-linejoin:miter;stroke-opacity:1"
         d="m 73.003005,238.28186 c 0,0 66.525795,-73.35172 176.996995,-73.57355 110.4712,-0.22183 177.6813,74.23903 177.6813,74.23903 l -85.55149,85.10783 c 0,0 -35.40692,-38.95462 -92.12981,-38.67886 -58.49728,0.28438 -91.7054,38.27326 -91.7054,38.27326 z"
         id="path9955"
         inkscape:connector-curvature="0"
         sodipodi:nodetypes="czccscc" />
    </clipPath>
    <clipPath
       clipPathUnits="userSpaceOnUse"
       id="clipPath1367">
      <path
         sodipodi:nodetypes="czccscc"
         inkscape:connector-curvature="0"
         id="path1369"
         d="m 73.003005,238.28186 c 0,0 66.525795,-73.35172 176.996995,-73.57355 110.4712,-0.22183 177.6813,74.23903 177.6813,74.23903 l -85.55149,85.10783 c 0,0 -35.40692,-38.95462 -92.12981,-38.67886 -58.49728,0.28438 -91.7054,38.27326 -91.7054,38.27326 z"
         style="fill:none;stroke:none;stroke-width:1px;stroke-linecap:butt;stroke-linejoin:miter;stroke-opacity:1" />
    </clipPath>
  </defs>
  <sodipodi:namedview
     id="base"
     pagecolor="#ffffff"
     bordercolor="#666666"
     borderopacity="1.0"
     inkscape:pageopacity="0.0"
     inkscape:pageshadow="2"
     inkscape:zoom="1.7356152"
     inkscape:cx="250.0003"
     inkscape:cy="329.85409"
     inkscape:document-units="px"
     inkscape:current-layer="layer1"
     showgrid="true"
     units="px"
     inkscape:window-width="2560"
     inkscape:window-height="1340"
     inkscape:window-x="0"
     inkscape:window-y="1"
     inkscape:window-maximized="1"
     inkscape:snap-global="false">
    <inkscape:grid
       type="xygrid"
       id="grid7947" />
  </sodipodi:namedview>
  <metadata
     id="metadata5303">
    <rdf:RDF>
      <cc:Work
         rdf:about="">
        <dc:format>image/svg+xml</dc:format>
        <dc:type
           rdf:resource="http://purl.org/dc/dcmitype/StillImage" />
        <dc:title />
      </cc:Work>
    </rdf:RDF>
  </metadata>
  <g
     inkscape:label="Base Image"
     inkscape:groupmode="layer"
     id="layer1"
     transform="translate(0,-159.70831)">
    <circle
       cy="221.73535"
       cx="-430.48395"
       id="circlefortextpath"
       style="fill:none;fill-opacity:1;stroke:none;stroke-width:0.93638217;stroke-miterlimit:4;stroke-dasharray:none;stroke-opacity:0.66559488"
       transform="rotate(-93.830706)"
       r="220" />
    <g
       id="scale"
       clip-path="url(#clipPath1367)">
      <g
         id="completescale">
        <circle
           r="250"
           cy="414.70831"
           cx="250"
           id="bluebackgroundcircle"
           style="fill:#0b1d62;fill-opacity:1;stroke:none;stroke-width:32.08246994;stroke-miterlimit:4;stroke-dasharray:none;stroke-opacity:1" />
        <g
           aria-label="120                125                 130                 135                140                 145                 150"
           style="font-style:normal;font-variant:normal;font-weight:normal;font-stretch:normal;font-size:16px;line-height:1.25;font-family:sans-serif;-inkscape-font-specification:'sans-serif, Normal';font-variant-ligatures:normal;font-variant-caps:normal;font-variant-numeric:normal;font-feature-settings:normal;text-align:start;letter-spacing:0px;word-spacing:0px;writing-mode:lr-tb;text-anchor:start;fill:#dddddd;fill-opacity:1;stroke:none"
           id="scalenumbers">
          <path
             inkscape:connector-curvature="0"
             d="m 237.2232,193.72757 2.57562,-0.11373 -0.39253,-8.88977 -2.77715,0.68567 -0.0634,-1.4361 2.76153,-0.68499 1.57659,-0.0696 0.45595,10.32588 2.57561,-0.11373 0.0586,1.32683 -6.71221,0.29638 z"
             style="fill:#dddddd;fill-opacity:1"
             id="path9780" />
          <path
             inkscape:connector-curvature="0"
             d="m 248.55105,193.36882 5.5078,0.009 -0.002,1.32813 -7.40624,-0.0119 0.002,-1.32813 q 0.89993,-0.92824 2.44931,-2.48826 1.5572,-1.56782 1.95637,-2.0203 0.75917,-0.85035 1.05699,-1.43581 0.30564,-0.59326 0.30655,-1.16357 0.001,-0.92969 -0.65381,-1.51667 -0.6475,-0.58698 -1.69438,-0.58866 -0.74218,-0.001 -1.57072,0.25529 -0.82072,0.2565 -1.75906,0.77843 l 0.003,-1.59375 q 0.95374,-0.38128 1.78218,-0.57526 0.82844,-0.19399 1.51594,-0.19288 1.81249,0.003 2.88916,0.91088 1.07667,0.90798 1.07424,2.4236 -10e-4,0.71875 -0.27563,1.36675 -0.26665,0.6402 -0.97899,1.51406 -0.19568,0.22625 -1.24429,1.3105 -1.04861,1.07645 -2.95797,3.0187 z"
             style="fill:#dddddd;fill-opacity:1"
             id="path9782" />
          <path
             inkscape:connector-curvature="0"
             d="m 261.25435,184.33746 q -1.21737,-0.0581 -1.89119,1.11427 -0.66564,1.16491 -0.78031,3.56843 -0.1143,2.39571 0.43705,3.62651 0.55953,1.22337 1.77689,1.28145 1.22517,0.0584 1.89082,-1.10647 0.67382,-1.17234 0.78811,-3.56806 0.11467,-2.40351 -0.44485,-3.62688 -0.55135,-1.2308 -1.77652,-1.28925 z m 0.0596,-1.24858 q 1.95871,0.0935 2.9147,1.69551 0.96417,1.59464 0.82344,4.54441 -0.14036,2.94196 -1.25233,4.44537 -1.1038,1.49597 -3.06251,1.40253 -1.95871,-0.0935 -2.92287,-1.68809 -0.95599,-1.60206 -0.81563,-4.54403 0.14073,-2.94977 1.24452,-4.44574 1.11197,-1.50341 3.07068,-1.40996 z"
             style="fill:#dddddd;fill-opacity:1"
             id="path9784" />
          <path
             inkscape:connector-curvature="0"
             d="m 346.60205,215.50855 2.30263,1.15958 4.00231,-7.94756 -2.75799,-0.75909 0.64656,-1.28389 2.74402,0.75206 1.40949,0.70981 -4.64886,9.23145 2.30263,1.15958 -0.59736,1.1862 -6.00079,-3.02193 z"
             style="fill:#dddddd;fill-opacity:1"
             id="path9786" />
          <path
             inkscape:connector-curvature="0"
             d="m 356.65979,220.73439 4.79935,2.70226 -0.65161,1.15729 -6.4536,-3.63368 0.65161,-1.15729 q 1.239,-0.36931 3.3535,-0.97189 2.12515,-0.60556 2.69465,-0.80492 1.07813,-0.37023 1.62429,-0.73514 0.55681,-0.36789 0.83661,-0.86485 0.45613,-0.8101 0.17177,-1.64264 -0.27756,-0.82871 -1.18978,-1.34233 -0.64672,-0.36414 -1.49481,-0.54578 -0.84129,-0.17782 -1.91501,-0.18167 l 0.78193,-1.38875 q 1.01835,0.13406 1.83577,0.37016 0.81743,0.23611 1.4165,0.57342 1.57936,0.88925 2.07418,2.20788 0.49483,1.31864 -0.24878,2.63931 -0.35263,0.6263 -0.90903,1.05717 -0.54577,0.42791 -1.59455,0.84155 -0.28135,0.1016 -1.72635,0.53423 -1.44118,0.42583 -4.05664,1.18567 z"
             style="fill:#dddddd;fill-opacity:1"
             id="path9788" />
          <path
             inkscape:connector-curvature="0"
             d="m 369.86113,216.41163 5.25228,3.28564 -0.70436,1.12596 -4.02697,-2.51913 -1.51645,2.42413 q 0.35358,0.083 0.674,0.2189 0.32458,0.12932 0.616,0.31162 1.65583,1.03583 2.0552,2.54814 0.39937,1.51232 -0.57017,3.06217 -0.99853,1.59622 -2.54723,1.86225 -1.54456,0.2594 -3.35272,-0.87172 -0.62259,-0.38947 -1.20538,-0.90149 -0.57617,-0.50787 -1.13241,-1.15072 l 0.84109,-1.34453 q 0.39308,0.69744 0.92948,1.25415 0.5364,0.55672 1.24509,1.00005 1.14583,0.7168 2.19183,0.53255 1.04599,-0.18425 1.69235,-1.21748 0.64635,-1.03324 0.35444,-2.05444 -0.29191,-1.02119 -1.43775,-1.73798 -0.53648,-0.33561 -1.14755,-0.552 -0.60444,-0.21224 -1.31825,-0.30859 z"
             style="fill:#dddddd;fill-opacity:1"
             id="path9790" />
          <path
             inkscape:connector-curvature="0"
             d="m 434.35585,292.13057 1.3991,2.16547 7.47414,-4.82903 -1.99452,-2.05051 1.20741,-0.7801 1.98604,2.03737 0.85642,1.32553 -8.68154,5.60914 1.3991,2.16546 -1.11554,0.72075 -3.64615,-5.64333 z"
             style="fill:#dddddd;fill-opacity:1"
             id="path9792" />
          <path
             inkscape:connector-curvature="0"
             d="m 446.3945,302.18961 q 0.36062,1.10085 0.0173,2.03293 -0.33937,0.93883 -1.31162,1.50483 -1.49214,0.86864 -2.90654,0.31796 -1.4144,-0.55067 -2.51495,-2.44117 -0.36946,-0.63466 -0.63423,-1.38452 -0.26759,-0.73917 -0.43441,-1.60029 l 1.3166,-0.76645 q -6.8e-4,0.75975 0.22358,1.53319 0.22426,0.77343 0.65268,1.50938 0.7468,1.28283 1.6423,1.65647 0.89943,0.38039 1.86493,-0.18168 0.89124,-0.51882 1.02533,-1.43759 0.14477,-0.91595 -0.50376,-2.03 l -0.68391,-1.1748 1.1208,-0.65247 0.71535,1.22882 q 0.58564,1.00602 1.29451,1.30751 0.71561,0.29756 1.47181,-0.14266 0.77645,-0.45201 0.86601,-1.24541 0.10024,-0.79059 -0.4972,-1.81686 -0.32623,-0.56039 -0.82116,-1.13106 -0.49493,-0.57067 -1.19958,-1.19101 l 1.21532,-0.70749 q 0.66807,0.65067 1.16914,1.26296 0.50501,0.61904 0.85483,1.21995 0.90401,1.5529 0.72177,2.87034 -0.1755,1.31351 -1.37731,2.01314 -0.83722,0.48738 -1.69694,0.34603 -0.85296,-0.14528 -1.59067,-0.90005 z"
             style="fill:#dddddd;fill-opacity:1"
             id="path9794" />
          <path
             inkscape:connector-curvature="0"
             d="m 454.59207,308.14586 q -0.56351,-1.08065 -1.91567,-1.07163 -1.34163,0.0123 -3.47523,1.1249 -2.12667,1.10894 -2.91172,2.20555 -0.77451,1.09992 -0.21101,2.18058 0.56712,1.08758 1.90874,1.07524 1.35217,-0.009 3.47884,-1.11797 2.1336,-1.11256 2.90811,-2.21248 0.78505,-1.0966 0.21794,-2.18419 z m 1.10836,-0.57795 q 0.90666,1.73875 0.005,3.37198 -0.89118,1.63654 -3.50969,3.00195 -2.61159,1.3618 -4.47054,1.1593 -1.84841,-0.19918 -2.75507,-1.93793 -0.90666,-1.73875 -0.0155,-3.37529 0.90172,-1.63323 3.51331,-2.99503 2.61851,-1.36541 4.46692,-1.16623 1.85895,0.2025 2.76561,1.94125 z"
             style="fill:#dddddd;fill-opacity:1"
             id="path9796" />
          <path
             inkscape:connector-curvature="0"
             d="m 471.02331,402.6866 0.10507,2.57598 8.89104,-0.36264 -0.67633,-2.77943 1.4363,-0.0586 0.6757,2.76382 0.0643,1.57682 -10.32735,0.42122 0.10507,2.57599 -1.32702,0.0541 -0.27381,-6.71317 z"
             style="fill:#dddddd;fill-opacity:1"
             id="path9798" />
          <path
             inkscape:connector-curvature="0"
             d="m 476.28766,417.46244 q -0.24784,1.13159 -1.01661,1.76057 -0.76882,0.6368 -1.8938,0.63118 -1.72654,-0.009 -2.66591,-1.20083 -0.93938,-1.1922 -0.92845,-3.37967 0.004,-0.73437 0.156,-1.51487 0.14449,-0.77272 0.43768,-1.5994 l 1.52342,0.008 q -0.38609,0.65433 -0.5853,1.4346 -0.19921,0.78026 -0.20346,1.63181 -0.007,1.48436 0.57466,2.26071 0.58203,0.78417 1.6992,0.78975 1.03124,0.005 1.61298,-0.71852 0.58952,-0.71581 0.59596,-2.00486 l 0.007,-1.35936 1.29685,0.006 -0.007,1.42185 q -0.006,1.16405 0.45204,1.78353 0.46566,0.61952 1.34065,0.62389 0.89843,0.004 1.37819,-0.63375 0.48752,-0.63038 0.49345,-1.81787 0.003,-0.64843 -0.13368,-1.39131 -0.13691,-0.74288 -0.42934,-1.63498 l 1.40623,0.007 q 0.24552,0.89967 0.36661,1.68153 0.12106,0.78968 0.11759,1.48498 -0.009,1.79686 -0.8345,2.83962 -0.81772,1.04281 -2.20833,1.03586 -0.96873,-0.005 -1.63783,-0.56287 -0.66129,-0.55799 -0.91399,-1.58271 z"
             style="fill:#dddddd;fill-opacity:1"
             id="path9800" />
          <path
             inkscape:connector-curvature="0"
             d="m 481.54125,423.448 -0.31634,6.18723 -1.32639,-0.0678 0.24254,-4.74381 -2.85565,-0.146 q 0.0995,0.34929 0.13655,0.69538 0.0449,0.34649 0.0273,0.6898 -0.0997,1.95057 -1.22689,3.03506 -1.12715,1.08448 -2.95289,0.99114 -1.88036,-0.0961 -2.86603,-1.31994 -0.97787,-1.2234 -0.86897,-3.35343 0.0375,-0.73342 0.20143,-1.49166 0.16353,-0.75045 0.45469,-1.54912 l 1.58387,0.081 q -0.41821,0.68266 -0.64377,1.42211 -0.22555,0.73945 -0.26823,1.57429 -0.069,1.3498 0.60071,2.17414 0.66972,0.82433 1.88688,0.88656 1.21716,0.0622 1.96746,-0.6895 0.7503,-0.75173 0.81931,-2.10153 0.0323,-0.63199 -0.0758,-1.27116 -0.10853,-0.63136 -0.3715,-1.30191 z"
             style="fill:#dddddd;fill-opacity:1"
             id="path9802" />
          <path
             inkscape:connector-curvature="0"
             d="m 448.86788,511.99018 -1.16745,2.29865 7.93383,4.02947 0.76852,-2.75537 1.28167,0.65094 -0.76145,2.74144 -0.71461,1.40705 -9.2155,-4.6804 -1.16745,2.29865 -1.18415,-0.60142 3.04243,-5.99042 z"
             style="fill:#dddddd;fill-opacity:1"
             id="path9804" />
          <path
             inkscape:connector-curvature="0"
             d="m 449.93176,529.04176 -3.44853,-6.53857 -1.96666,3.46518 z m 1.40021,0.31859 -0.97948,1.72579 -6.61102,-3.75208 -0.82137,1.44722 -1.14147,-0.64784 0.82137,-1.44722 -2.39166,-1.35738 0.7751,-1.36569 2.39165,1.35738 2.59908,-4.57948 1.32493,0.75196 z"
             style="fill:#dddddd;fill-opacity:1"
             id="path9806" />
          <path
             inkscape:connector-curvature="0"
             d="m 445.21512,537.53384 q 0.64987,-1.03103 -0.0388,-2.19469 -0.68627,-1.15289 -2.72189,-2.43597 -2.02901,-1.27891 -3.37175,-1.40494 -1.3403,-0.11525 -1.99017,0.91578 -0.65404,1.03764 0.0322,2.19052 0.68871,1.16367 2.71772,2.44258 2.03562,1.28308 3.37592,1.39833 1.34275,0.12603 1.99679,-0.91161 z m 1.05746,0.66653 q -1.04563,1.6589 -2.91074,1.70231 -1.86267,0.0542 -4.36093,-1.52051 -2.49165,-1.57052 -3.25281,-3.27854 -0.75873,-1.69725 0.2869,-3.35615 1.04563,-1.65889 2.9083,-1.71307 1.86511,-0.0434 4.35676,1.52711 2.49826,1.57469 3.25698,3.27194 0.76117,1.70802 -0.28446,3.36691 z"
             style="fill:#dddddd;fill-opacity:1"
             id="path9808" />
          <path
             inkscape:connector-curvature="0"
             d="m 371.94744,599.48257 -2.17025,1.39168 4.80341,7.49063 2.05732,-1.98749 0.77597,1.21008 -2.04417,1.97905 -1.32845,0.85188 -5.57937,-8.7007 -2.17025,1.39168 -0.71692,-1.11801 5.65578,-3.6268 z"
             style="fill:#dddddd;fill-opacity:1"
             id="path9810" />
          <path
             inkscape:connector-curvature="0"
             d="m 364.2334,614.72774 0.33612,-7.3846 -3.45026,1.99273 z m 1.04624,0.98359 -1.71836,0.99246 -3.80182,-6.58255 -1.44099,0.83226 -0.65643,-1.13655 1.44099,-0.83226 -1.37538,-2.38136 1.35981,-0.78537 1.37538,2.38136 4.55975,-2.63353 0.76192,1.31921 z"
             style="fill:#dddddd;fill-opacity:1"
             id="path9812" />
          <path
             inkscape:connector-curvature="0"
             d="m 359.3241,619.0437 -5.50314,2.84558 -0.61002,-1.17975 4.21931,-2.18172 -1.31335,-2.53991 q -0.25152,0.26198 -0.53174,0.46844 -0.27664,0.21341 -0.58198,0.3713 -1.73492,0.89709 -3.23971,0.47026 -1.5048,-0.42683 -2.34448,-2.05071 -0.86479,-1.67246 -0.30469,-3.14063 0.5637,-1.46123 2.45822,-2.44085 0.65233,-0.33731 1.38983,-0.57793 0.73056,-0.23704 1.56711,-0.38816 l 0.72844,1.40875 q -0.8004,-0.0171 -1.55272,0.16084 -0.75233,0.17793 -1.49487,0.56189 -1.20056,0.62079 -1.57493,1.61472 -0.37436,0.99393 0.18542,2.07652 0.55979,1.08258 1.58723,1.35167 1.02745,0.26908 2.22801,-0.35171 0.56211,-0.29065 1.05963,-0.70623 0.49059,-0.41198 0.93716,-0.97711 z"
             style="fill:#dddddd;fill-opacity:1"
             id="path9814" />
          <path
             inkscape:connector-curvature="0"
             d="m 261.26623,635.77164 -2.57632,0.0964 0.33273,8.89221 2.78169,-0.66698 0.0538,1.4365 -2.76608,0.66639 -1.57702,0.059 -0.38649,-10.32871 -2.57632,0.0964 -0.0497,-1.3272 6.71405,-0.25123 z"
             style="fill:#dddddd;fill-opacity:1"
             id="path9816" />
          <path
             inkscape:connector-curvature="0"
             d="m 251.19323,646.40088 -6.19509,-0.0519 0.0111,-1.32808 4.74983,0.0398 0.024,-2.85928 q -0.34472,0.1143 -0.68892,0.16611 -0.34426,0.0596 -0.688,0.0567 -1.95305,-0.0164 -3.08466,-1.09621 -1.13161,-1.07984 -1.11629,-2.9079 0.0158,-1.88275 1.1964,-2.91976 1.18055,-1.0292 3.31329,-1.01132 0.73435,0.006 1.4989,0.13757 0.75673,0.13135 1.56711,0.38816 l -0.0133,1.58588 q -0.69989,-0.3887 -1.44829,-0.58248 -0.7484,-0.19378 -1.58431,-0.20079 -1.35152,-0.0113 -2.14651,0.69296 -0.795,0.7043 -0.80522,1.92301 -0.0102,1.21871 0.77286,1.93623 0.78307,0.71753 2.13459,0.72887 0.63279,0.005 1.26676,-0.13001 0.62615,-0.13538 1.28487,-0.42674 z"
             style="fill:#dddddd;fill-opacity:1"
             id="path9818" />
          <path
             inkscape:connector-curvature="0"
             d="m 237.17142,644.99877 q 1.21694,0.0664 1.89874,-1.10134 0.67358,-1.16035 0.80465,-3.56303 0.13064,-2.39487 -0.4123,-3.6294 -0.55117,-1.22716 -1.76811,-1.29354 -1.22474,-0.0668 -1.89832,1.09353 -0.6818,1.16772 -0.81244,3.5626 -0.13107,2.40268 0.4201,3.62984 0.54294,1.23453 1.76768,1.30134 z m -0.0681,1.24814 q -1.95803,-0.10681 -2.90306,-1.71536 -0.95327,-1.60118 -0.79241,-4.54992 0.16043,-2.94094 1.28263,-4.43672 1.11397,-1.48841 3.072,-1.3816 1.95803,0.10681 2.91129,1.70799 0.94504,1.60855 0.78461,4.54949 -0.16086,2.94874 -1.27483,4.43715 -1.1222,1.49578 -3.08023,1.38897 z"
             style="fill:#dddddd;fill-opacity:1"
             id="path9820" />
        </g>
        <g
           id="scalestrokes">
          <path
             inkscape:tile-y0="5"
             inkscape:tile-x0="249"
             inkscape:tile-h="10"
             inkscape:tile-w="2"
             inkscape:tile-cy="255.00077"
             inkscape:tile-cx="250"
             inkscape:transform-center-y="-245.00077"
             inkscape:connector-curvature="0"
             id="path7949"
             d="m 250,164.70831 v 10"
             style="fill:none;stroke:#dddddd;stroke-width:2;stroke-linecap:butt;stroke-linejoin:miter;stroke-miterlimit:4;stroke-dasharray:none;stroke-opacity:1" />
          <use
             height="100%"
             width="100%"
             inkscape:transform-center-y="-245.00077"
             id="use9582"
             xlink:href="#path7949"
             inkscape:tiled-clone-of="#path7949"
             y="0"
             x="0" />
          <use
             height="100%"
             width="100%"
             inkscape:transform-center-y="-243.65863"
             inkscape:transform-center-x="-25.609554"
             id="use9584"
             transform="rotate(6,250,414.70908)"
             xlink:href="#path7949"
             inkscape:tiled-clone-of="#path7949"
             y="0"
             x="0" />
          <use
             height="100%"
             width="100%"
             inkscape:transform-center-y="-239.64692"
             inkscape:transform-center-x="-50.938524"
             id="use9586"
             transform="rotate(12,250,414.70908)"
             xlink:href="#path7949"
             inkscape:tiled-clone-of="#path7949"
             y="0"
             x="0" />
          <use
             height="100%"
             width="100%"
             inkscape:transform-center-y="-233.00958"
             inkscape:transform-center-x="-75.709402"
             id="use9588"
             transform="rotate(18,250,414.70908)"
             xlink:href="#path7949"
             inkscape:tiled-clone-of="#path7949"
             y="0"
             x="0" />
          <use
             height="100%"
             width="100%"
             inkscape:transform-center-y="-223.81934"
             inkscape:transform-center-x="-99.650791"
             id="use9590"
             transform="rotate(24,250,414.70908)"
             xlink:href="#path7949"
             inkscape:tiled-clone-of="#path7949"
             y="0"
             x="0" />
          <use
             height="100%"
             width="100%"
             inkscape:transform-center-y="-212.17689"
             inkscape:transform-center-x="-122.50038"
             id="use9592"
             transform="rotate(30,250,414.70908)"
             xlink:href="#path7949"
             inkscape:tiled-clone-of="#path7949"
             y="0"
             x="0" />
          <use
             height="100%"
             width="100%"
             inkscape:transform-center-y="-198.20979"
             inkscape:transform-center-x="-144.00784"
             id="use9594"
             transform="rotate(36,250,414.70908)"
             xlink:href="#path7949"
             inkscape:tiled-clone-of="#path7949"
             y="0"
             x="0" />
          <use
             height="100%"
             width="100%"
             inkscape:transform-center-y="-182.07105"
             inkscape:transform-center-x="-163.93751"
             id="use9596"
             transform="rotate(42,250,414.70908)"
             xlink:href="#path7949"
             inkscape:tiled-clone-of="#path7949"
             y="0"
             x="0" />
          <use
             height="100%"
             width="100%"
             inkscape:transform-center-y="-163.93751"
             inkscape:transform-center-x="-182.07105"
             id="use9598"
             transform="rotate(48,250,414.70908)"
             xlink:href="#path7949"
             inkscape:tiled-clone-of="#path7949"
             y="0"
             x="0" />
          <use
             height="100%"
             width="100%"
             inkscape:transform-center-y="-144.00784"
             inkscape:transform-center-x="-198.20979"
             id="use9600"
             transform="rotate(54,250,414.70908)"
             xlink:href="#path7949"
             inkscape:tiled-clone-of="#path7949"
             y="0"
             x="0" />
          <use
             height="100%"
             width="100%"
             inkscape:transform-center-y="-122.50039"
             inkscape:transform-center-x="-212.17689"
             id="use9602"
             transform="rotate(60,250,414.70908)"
             xlink:href="#path7949"
             inkscape:tiled-clone-of="#path7949"
             y="0"
             x="0" />
          <use
             height="100%"
             width="100%"
             inkscape:transform-center-y="-99.650791"
             inkscape:transform-center-x="-223.81934"
             id="use9604"
             transform="rotate(66,250,414.70908)"
             xlink:href="#path7949"
             inkscape:tiled-clone-of="#path7949"
             y="0"
             x="0" />
          <use
             height="100%"
             width="100%"
             inkscape:transform-center-y="-75.709402"
             inkscape:transform-center-x="-233.00958"
             id="use9606"
             transform="rotate(72,250,414.70908)"
             xlink:href="#path7949"
             inkscape:tiled-clone-of="#path7949"
             y="0"
             x="0" />
          <use
             height="100%"
             width="100%"
             inkscape:transform-center-y="-50.938524"
             inkscape:transform-center-x="-239.64692"
             id="use9608"
             transform="rotate(78,250,414.70908)"
             xlink:href="#path7949"
             inkscape:tiled-clone-of="#path7949"
             y="0"
             x="0" />
          <use
             height="100%"
             width="100%"
             inkscape:transform-center-y="-25.609554"
             inkscape:transform-center-x="-243.65863"
             id="use9610"
             transform="rotate(84,250,414.70908)"
             xlink:href="#path7949"
             inkscape:tiled-clone-of="#path7949"
             y="0"
             x="0" />
          <use
             height="100%"
             width="100%"
             inkscape:transform-center-x="-245.00077"
             id="use9612"
             transform="rotate(90,250,414.70908)"
             xlink:href="#path7949"
             inkscape:tiled-clone-of="#path7949"
             y="0"
             x="0" />
          <use
             height="100%"
             width="100%"
             inkscape:transform-center-y="25.609554"
             inkscape:transform-center-x="-243.65863"
             id="use9614"
             transform="rotate(96,250,414.70908)"
             xlink:href="#path7949"
             inkscape:tiled-clone-of="#path7949"
             y="0"
             x="0" />
          <use
             height="100%"
             width="100%"
             inkscape:transform-center-y="50.938524"
             inkscape:transform-center-x="-239.64692"
             id="use9616"
             transform="rotate(102,250,414.70908)"
             xlink:href="#path7949"
             inkscape:tiled-clone-of="#path7949"
             y="0"
             x="0" />
          <use
             height="100%"
             width="100%"
             inkscape:transform-center-y="75.709402"
             inkscape:transform-center-x="-233.00958"
             id="use9618"
             transform="rotate(108,250,414.70908)"
             xlink:href="#path7949"
             inkscape:tiled-clone-of="#path7949"
             y="0"
             x="0" />
          <use
             height="100%"
             width="100%"
             inkscape:transform-center-y="99.650791"
             inkscape:transform-center-x="-223.81934"
             id="use9620"
             transform="rotate(114,250,414.70908)"
             xlink:href="#path7949"
             inkscape:tiled-clone-of="#path7949"
             y="0"
             x="0" />
          <use
             height="100%"
             width="100%"
             inkscape:transform-center-y="122.50038"
             inkscape:transform-center-x="-212.17689"
             id="use9622"
             transform="rotate(120,250,414.70908)"
             xlink:href="#path7949"
             inkscape:tiled-clone-of="#path7949"
             y="0"
             x="0" />
          <use
             height="100%"
             width="100%"
             inkscape:transform-center-y="144.00784"
             inkscape:transform-center-x="-198.20979"
             id="use9624"
             transform="rotate(126,250,414.70908)"
             xlink:href="#path7949"
             inkscape:tiled-clone-of="#path7949"
             y="0"
             x="0" />
          <use
             height="100%"
             width="100%"
             inkscape:transform-center-y="163.93751"
             inkscape:transform-center-x="-182.07105"
             id="use9626"
             transform="rotate(132,250,414.70908)"
             xlink:href="#path7949"
             inkscape:tiled-clone-of="#path7949"
             y="0"
             x="0" />
          <use
             height="100%"
             width="100%"
             inkscape:transform-center-y="182.07105"
             inkscape:transform-center-x="-163.93751"
             id="use9628"
             transform="rotate(138,250,414.70908)"
             xlink:href="#path7949"
             inkscape:tiled-clone-of="#path7949"
             y="0"
             x="0" />
          <use
             height="100%"
             width="100%"
             inkscape:transform-center-y="198.20979"
             inkscape:transform-center-x="-144.00784"
             id="use9630"
             transform="rotate(144,250,414.70908)"
             xlink:href="#path7949"
             inkscape:tiled-clone-of="#path7949"
             y="0"
             x="0" />
          <use
             height="100%"
             width="100%"
             inkscape:transform-center-y="212.17689"
             inkscape:transform-center-x="-122.50038"
             id="use9632"
             transform="rotate(150,250,414.70908)"
             xlink:href="#path7949"
             inkscape:tiled-clone-of="#path7949"
             y="0"
             x="0" />
          <use
             height="100%"
             width="100%"
             inkscape:transform-center-y="223.81934"
             inkscape:transform-center-x="-99.650791"
             id="use9634"
             transform="rotate(156,250,414.70908)"
             xlink:href="#path7949"
             inkscape:tiled-clone-of="#path7949"
             y="0"
             x="0" />
          <use
             height="100%"
             width="100%"
             inkscape:transform-center-y="233.00958"
             inkscape:transform-center-x="-75.709402"
             id="use9636"
             transform="rotate(162,250,414.70908)"
             xlink:href="#path7949"
             inkscape:tiled-clone-of="#path7949"
             y="0"
             x="0" />
          <use
             height="100%"
             width="100%"
             inkscape:transform-center-y="239.64692"
             inkscape:transform-center-x="-50.938524"
             id="use9638"
             transform="rotate(168,250,414.70908)"
             xlink:href="#path7949"
             inkscape:tiled-clone-of="#path7949"
             y="0"
             x="0" />
          <use
             height="100%"
             width="100%"
             inkscape:transform-center-y="243.65863"
             inkscape:transform-center-x="-25.609554"
             id="use9640"
             transform="rotate(174,250,414.70908)"
             xlink:href="#path7949"
             inkscape:tiled-clone-of="#path7949"
             y="0"
             x="0" />
          <use
             height="100%"
             width="100%"
             inkscape:transform-center-y="245.00077"
             id="use9642"
             transform="rotate(180,250,414.70908)"
             xlink:href="#path7949"
             inkscape:tiled-clone-of="#path7949"
             y="0"
             x="0" />
          <path
             inkscape:transform-center-x="-1.6424661e-06"
             style="fill:none;stroke:#fd3d09;stroke-width:10.33217144;stroke-linecap:butt;stroke-linejoin:miter;stroke-miterlimit:4;stroke-dasharray:none;stroke-opacity:1"
             d="M 435.78678,581.99225 416.59103,564.70831"
             id="use9646"
             inkscape:connector-curvature="0"
             inkscape:transform-center-y="-632.84747"
             inkscape:tile-x0="249"
             inkscape:tile-y0="5" />
        </g>
        <path
           style="fill:#dddddd;fill-opacity:1;stroke-width:0.16866797"
           d="m 238.85148,276.69134 c -0.92622,-0.41054 -3.08691,-1.90257 -3.14969,-2.17496 -0.0244,-0.10794 -0.13295,-0.28514 -0.2402,-0.39398 -0.16056,-0.16289 -0.27045,-0.11504 -0.62143,0.27061 -1.95152,2.14424 -4.69282,2.45429 -7.17919,0.81197 -1.45074,-0.95826 -2.14547,-2.01866 -2.39638,-3.65766 -0.14916,-0.97422 -0.11599,-1.41413 0.1822,-2.41723 l 0.36453,-1.22624 -0.45535,-0.0687 c -0.55755,-0.0841 -2.45493,-1.20578 -3.28404,-1.94145 -1.18771,-1.05388 -1.05603,-1.61566 1.14443,-4.88237 0.87206,-1.29462 0.95923,-1.37311 1.70484,-1.53487 0.74542,-0.16172 0.85652,-0.12676 2.16218,0.6813 0.75702,0.46847 1.39635,0.81518 1.42076,0.77046 0.0245,-0.0447 0.86695,-2.21606 1.87233,-4.82521 4.41014,-11.44521 7.03379,-16.80575 12.0395,-24.59872 5.17008,-8.04885 10.23866,-14.3432 15.30186,-19.00249 0.71217,-0.65533 1.31695,-1.22316 1.344,-1.26183 0.027,-0.0386 -0.33206,-0.35142 -0.79801,-0.69498 -1.63476,-1.20544 -1.437,-2.17277 1.18569,-5.79963 1.03814,-1.43562 1.73914,-1.41146 4.06657,0.14017 1.03805,0.69204 1.51268,1.12117 1.68071,1.51965 l 0.23417,0.55527 1.75596,-0.45739 c 1.88059,-0.48988 3.23822,-0.52461 4.41548,-0.11301 1.13219,0.39585 2.29381,2.59197 2.62368,4.96024 l 0.20147,1.44639 0.63765,-0.018 c 0.47449,-0.0134 1.01569,0.21665 2.11479,0.89886 1.64305,1.01987 2.07823,1.45374 2.24939,2.24266 0.10049,0.46326 -0.0816,0.84355 -1.34196,2.80228 -1.43202,2.22553 -1.47176,2.26923 -2.2101,2.42942 -0.64619,0.14019 -0.88111,0.0912 -1.67143,-0.34902 -0.50577,-0.28167 -0.94395,-0.47423 -0.97376,-0.4279 -0.0299,0.0464 -0.3535,0.96602 -0.71932,2.0438 -2.87534,8.47147 -9.76044,20.69254 -16.60888,29.48086 -2.98901,3.83568 -7.46892,8.78213 -13.0924,14.45589 l -2.36362,2.38474 1.33282,0.86487 c 1.51773,0.98486 1.9489,1.58272 1.77474,2.4609 -0.0616,0.31066 -0.69175,1.4536 -1.40032,2.53988 -1.09338,1.6762 -1.383,2.009 -1.91408,2.19949 -0.51495,0.1847 -0.76103,0.16457 -1.38959,-0.1141 z m 1.73495,-5.72454 -1.35108,-0.86934 -1.09933,1.69875 -1.09933,1.69876 1.35216,0.8774 1.35215,0.87743 1.09825,-1.70683 1.09826,-1.70681 z m -7.19833,2.40656 c 1.47286,-1.36686 11.47692,-11.52027 13.71807,-13.92283 5.68742,-6.09708 8.83001,-10.11174 13.04788,-16.66873 7.34994,-11.42601 11.76917,-21.4107 12.37577,-27.9615 0.27004,-2.91614 -0.16543,-5.21185 -1.23369,-6.50384 -0.85822,-1.03797 -4.00201,-0.47144 -6.96515,1.25515 -7.43105,4.32996 -18.43283,17.8573 -25.41488,31.24908 -2.63084,5.04606 -4.98254,10.65676 -9.76302,23.29278 -2.04675,5.41009 -2.31527,6.2482 -2.24299,7.00079 0.10888,1.13348 0.68753,2.00536 1.77772,2.67848 1.16292,0.71803 1.79437,0.85851 2.85811,0.63579 0.76672,-0.16005 1.05795,-0.32732 1.84218,-1.05517 z m -1.81844,-1.19327 c -0.35007,-0.4114 -0.26131,-0.9511 0.19354,-1.1762 0.46396,-0.22959 0.93174,-0.0174 1.03764,0.47075 0.16211,0.74721 -0.75062,1.27019 -1.23118,0.70545 z m -2.80832,-1.80702 c -0.35008,-0.4114 -0.26121,-0.95112 0.19354,-1.17618 0.46395,-0.22961 0.93174,-0.0174 1.03764,0.47074 0.16211,0.74721 -0.75062,1.27019 -1.23118,0.70544 z m 4.90969,-0.93771 c -0.22577,-0.10018 -0.35615,-0.31744 -0.38954,-0.64901 -0.0427,-0.42427 0.0276,-0.52328 0.47317,-0.6659 0.42975,-0.13764 0.57408,-0.0996 0.80701,0.21254 0.23701,0.31754 0.24629,0.4451 0.0564,0.77526 -0.26507,0.4609 -0.47907,0.53482 -0.94704,0.32711 z m -2.80833,-1.80702 c -0.22577,-0.10018 -0.35615,-0.31743 -0.38952,-0.649 -0.0428,-0.42428 0.0276,-0.52328 0.47316,-0.66591 0.4351,-0.13932 0.57344,-0.10038 0.82049,0.2306 0.2646,0.35452 0.26256,0.44121 -0.0187,0.79157 -0.37489,0.46694 -0.44254,0.4893 -0.88539,0.29271 z m 37.05061,-51.88684 c -0.39372,-0.38724 -0.37635,-0.83406 0.0417,-1.074 0.72569,-0.41644 1.40849,0.13118 1.09498,0.8782 -0.21872,0.52112 -0.71847,0.6072 -1.13673,0.19583 z m -2.81013,-1.80879 c -0.49724,-0.48908 -0.32874,-1.07268 0.35229,-1.22043 0.60586,-0.13144 1.02142,0.35758 0.80489,0.94723 -0.20647,0.56223 -0.73617,0.68728 -1.15717,0.27325 z m 4.69671,-1.03886 c -0.58096,-0.45502 -0.10792,-1.44754 0.63534,-1.3331 0.39053,0.0601 0.70394,0.71966 0.51493,1.08355 -0.19324,0.37202 -0.82024,0.50805 -1.15027,0.24955 z m -2.76687,-1.76647 c -0.64843,-0.41723 -0.24617,-1.44788 0.53638,-1.37436 0.42946,0.0404 0.77486,0.69458 0.57243,1.08426 -0.18092,0.3483 -0.77628,0.50407 -1.10882,0.29009 z m -40.16729,53.27787 1.02463,-1.60273 -1.35934,-0.88207 -1.35932,-0.88207 -1.082,1.71346 -1.082,1.71348 1.24324,0.80898 c 0.68379,0.44493 1.3213,0.79203 1.4167,0.77133 0.0954,-0.0207 0.63454,-0.75887 1.19809,-1.64038 z m 49.83041,-46.58487 1.06084,-1.65816 -1.36072,-0.86817 -1.36071,-0.86817 -0.40321,0.6509 c -0.22176,0.358 -0.51697,1.24887 -0.65601,1.97973 l -0.25281,1.32882 0.86294,0.56677 c 0.47462,0.31171 0.90476,0.55768 0.95589,0.54659 0.0511,-0.0111 0.57032,-0.76633 1.15379,-1.67831 z m -14.78251,-8.72934 c 0.54588,-0.37067 1.17341,-0.96494 1.39448,-1.32061 l 0.40196,-0.64667 -1.35483,-0.86441 -1.35482,-0.86442 -1.08837,1.70117 -1.08837,1.70117 0.89475,0.58767 c 0.49213,0.32321 0.96404,0.54094 1.04871,0.48385 0.0847,-0.0571 0.60059,-0.40709 1.14649,-0.77775 z"
           id="skateboard"
           inkscape:connector-curvature="0" />
        <g
           id="moped"
           transform="matrix(0.57901854,0.55542977,-0.55542977,0.57901854,279.66993,-94.92219)">
          <path
             id="path15475"
             style="opacity:1;fill:none;fill-opacity:1;fill-rule:nonzero;stroke:#dddddd;stroke-width:5.63536549;stroke-linecap:round;stroke-linejoin:round;stroke-miterlimit:4;stroke-dasharray:none;stroke-dashoffset:0;stroke-opacity:1"
             d="m 388.6703,276.41349 a 19.438384,19.438384 0 1 1 -38.87676,0 19.438384,19.438384 0 1 1 38.87676,0 z"
             inkscape:connector-curvature="0" />
          <path
             id="path12814"
             style="fill:#dddddd;fill-opacity:1;fill-rule:evenodd;stroke:none;stroke-width:0.19148055px;stroke-linecap:butt;stroke-linejoin:miter;stroke-opacity:1"
             d="m 469.88357,245.23576 h -40.80871 c -1.5393,0.59742 -2.63989,1.57505 -1.76635,4.26359 l 10.53718,6.82176 c 4.50094,-3.37561 9.16757,-3.93464 13.82623,-4.62905 l 18.33347,-0.0609 z"
             inkscape:connector-curvature="0" />
          <path
             id="path13701"
             style="fill:#dddddd;fill-opacity:1;fill-rule:evenodd;stroke:none;stroke-width:0.19148055px;stroke-linecap:butt;stroke-linejoin:miter;stroke-opacity:1"
             d="m 457.25028,281.4511 -42.47847,-0.0505 c -8.87173,-0.26984 -13.94115,-7.61942 -19.45028,-15.576 -9.63754,-13.91906 -11.02628,-14.06885 -13.00352,-20.53231 l 14.14556,0.0148 c 0.94255,0.2871 1.88509,0.42782 2.82764,1.59517 l 8.51481,12.12012 c 0.70954,3.0024 0.12087,5.42717 -0.62334,7.99915 -0.85932,2.96977 2.55568,8.26041 7.88322,8.0446 l 42.28529,-2.47202 z"
             inkscape:connector-curvature="0" />
          <path
             id="path14588"
             style="fill:#dddddd;fill-opacity:1;fill-rule:evenodd;stroke:none;stroke-width:0.19148055px;stroke-linecap:butt;stroke-linejoin:miter;stroke-opacity:1"
             d="m 366.42503,274.92392 c 0.34455,-1.03365 16.41662,-40.20106 16.41662,-40.20106 1.95291,-3.50202 4.69212,-5.43144 8.26921,-5.68508 h 11.02563 l -0.0609,6.4751 h -10.63061 c -1.29936,-0.12258 -2.27636,0.69662 -3.09051,3.00004 l -16.0216,39.1065 c -1.55761,3.63811 -7.47809,2.35846 -5.90783,-2.6955 z"
             inkscape:connector-curvature="0" />
          <path
             id="path17247"
             style="opacity:1;fill:none;fill-opacity:1;fill-rule:nonzero;stroke:#dddddd;stroke-width:5.63536549;stroke-linecap:round;stroke-linejoin:round;stroke-miterlimit:4;stroke-dasharray:none;stroke-dashoffset:0;stroke-opacity:1"
             d="m 471.63796,276.48792 a 19.438384,19.438384 0 1 1 -38.87676,0 19.438384,19.438384 0 1 1 38.87676,0 z"
             inkscape:connector-curvature="0" />
        </g>
        <g
           id="car"
           transform="matrix(-0.00146204,0.75493781,-0.75493781,-0.00146204,692.51403,296.63812)">
          <path
             id="path25345"
             style="opacity:1;fill:#dddddd;fill-opacity:1;fill-rule:nonzero;stroke:none;stroke-width:6.56018209;stroke-linecap:round;stroke-linejoin:round;stroke-miterlimit:4;stroke-dasharray:none;stroke-dashoffset:0;stroke-opacity:1"
             d="m 109.70842,376.92596 a 10.731915,10.731915 0 1 1 -21.463826,0 10.731915,10.731915 0 1 1 21.463826,0 z"
             inkscape:connector-curvature="0" />
          <path
             id="path24454"
             d="m 135.63867,334.78516 c -1.20201,-0.074 -1.85234,0.49462 -2.42383,1.15625 l -17.35351,17.38671 -37.949221,6.30274 c -0.528669,0.46097 -1.059545,0.91372 -1.484375,2.10156 l 0.08008,13.05664 c 0.823028,2.09241 1.382945,1.81996 2.00586,2.11133 h 7.30664 c 0,-17.74868 26.439456,-17.68084 26.439456,0 h 67.41992 c 0,-17.78594 26.24023,-17.74969 26.24023,0 h 5.98828 c 1.00628,-0.0926 1.57118,-0.98084 2.05078,-2.02148 l -0.0996,-18.1543 c -0.0722,-0.3893 -0.2153,-0.84938 -0.5,-1.45117 l -25.80274,-20.48828 z m -0.50195,5.46875 h 22.99609 v 15.63086 h -35.9707 c -1.36933,-0.54012 -1.5541,-1.35911 -0.98438,-2.35547 l 12.93165,-12.76172 c 0.29157,-0.24778 0.52052,-0.58876 1.02734,-0.51367 z m 27.26758,0.002 H 181.75 c 0.50682,-0.0751 0.73772,0.26589 1.0293,0.51367 l 11.08203,11.16211 c 1.02189,1.53896 3.07383,3.64397 1.51367,3.95508 h -32.9707 z"
             style="fill:#dddddd;fill-opacity:1;fill-rule:evenodd;stroke:none;stroke-width:0.2025601px;stroke-linecap:butt;stroke-linejoin:miter;stroke-opacity:1"
             inkscape:connector-curvature="0" />
          <path
             id="path25343"
             style="opacity:1;fill:#dddddd;fill-opacity:1;fill-rule:nonzero;stroke:none;stroke-width:6.56018209;stroke-linecap:round;stroke-linejoin:round;stroke-miterlimit:4;stroke-dasharray:none;stroke-dashoffset:0;stroke-opacity:1"
             d="m 203.42047,376.92144 a 10.731915,10.731915 0 1 1 -21.46383,0 10.731915,10.731915 0 1 1 21.46383,0 z"
             inkscape:connector-curvature="0" />
        </g>
        <path
           style="fill:#dddddd;fill-opacity:1;stroke-width:0.21812381"
           d="m 365.69616,515.48331 c 0.27274,-0.12423 1.59453,-0.48783 2.93731,-0.80792 l 2.44144,-0.58193 1.32496,-1.45655 c 8.16148,-8.97236 11.48045,-11.8321 21.75488,-18.74478 4.45419,-2.9968 4.75037,-3.13421 7.31718,-3.39427 1.46335,-0.14827 2.17897,0.0543 3.81026,1.07832 2.38446,1.49686 3.00345,1.999 2.76818,2.2456 -0.29577,0.31002 -5.25686,0.024 -6.78658,-0.39121 -1.15968,-0.3148 -1.72992,-0.28521 -1.35713,0.0704 0.28736,0.27414 3.46426,1.58865 4.24808,1.75775 0.42974,0.0927 1.56665,0.0795 2.52646,-0.0293 2.02185,-0.22916 3.21318,-0.0381 3.91052,0.62719 0.39905,0.3807 0.53438,1.00653 0.70096,3.24093 0.11346,1.52304 0.18311,3.52262 0.15479,4.44357 -0.10731,3.48886 -1.25927,8.31062 -2.71084,11.34669 -1.59059,3.32687 -4.55274,6.85478 -6.92214,8.24427 -0.72619,0.42586 -1.28998,0.80326 -1.25288,0.83866 0.0372,0.0354 0.56652,-0.0642 1.17644,-0.22138 l 1.10898,-0.28572 -0.7587,4.16212 c -1.40909,7.73008 -2.36933,11.09876 -4.11787,14.44626 l -1.18294,2.26468 -3.54669,3.70081 c -2.65114,2.7663 -3.964,4.00345 -5.19926,4.89931 -2.01644,1.4624 -4.31742,2.72085 -4.32576,2.36586 -0.003,-0.14362 1.5882,-1.78534 3.53688,-3.64826 1.94867,-1.86291 4.16175,-4.01779 4.91796,-4.78862 1.54211,-1.57182 3.08031,-3.54282 2.8996,-3.71522 -0.1185,-0.11305 -2.18786,1.66445 -3.49193,2.9994 l -0.68594,0.7022 0.36953,-1.30552 c 0.20324,-0.71803 0.4714,-1.41899 0.59592,-1.55771 0.47313,-0.52708 1.39393,-4.00047 1.47221,-5.55333 0.0449,-0.89113 0.0197,-2.66581 -0.056,-3.94374 -0.11676,-1.97024 -0.20165,-2.32012 -0.55835,-2.30135 -0.23135,0.0122 -1.43162,0.61772 -2.66727,1.34565 -1.23564,0.72793 -2.34303,1.33265 -2.46086,1.34382 -0.36235,0.0344 3.57682,-3.7849 6.33136,-6.13866 1.43516,-1.2263 2.66772,-2.35353 2.73902,-2.50496 0.14698,-0.31212 -2.09017,0.73133 -4.21939,1.96804 -2.19838,1.27686 -2.1757,1.14129 0.42083,-2.51434 2.30296,-3.24232 7.00205,-11.1485 8.52742,-14.34732 1.34441,-2.81932 2.07836,-6.00605 1.5085,-6.5497 -0.10184,-0.0971 -0.63482,-0.0696 -1.18444,0.0612 -1.36827,0.32568 -4.20906,2.41646 -6.34115,4.66705 -1.48249,1.56505 -1.73516,1.93629 -2.48736,3.65634 -1.2824,2.93259 -3.70441,9.03726 -4.71583,11.88635 -0.82635,2.32778 -4.06172,9.0397 -5.73828,11.90434 -0.81725,1.39639 -0.89924,1.49345 -0.98478,1.16575 -0.13299,-0.50952 0.87574,-3.46886 6.27971,-18.42273 1.02083,-2.82485 1.93575,-4.88008 2.17498,-4.88571 0.078,-0.002 0.001,0.88352 -0.17017,1.96745 -0.1716,1.08393 -0.28571,1.99588 -0.25356,2.02655 0.18307,0.17465 0.88804,-1.59678 2.00006,-5.02562 0.43121,-1.3296 1.07746,-2.89724 1.43613,-3.48368 1.09663,-1.793 4.10934,-4.54811 7.28697,-6.66387 2.99117,-1.99162 3.27794,-2.35338 2.17049,-2.7381 -0.72397,-0.25149 -1.41522,0.1748 -4.57079,2.81887 -4.38704,3.67592 -12.37695,12.35656 -13.2636,14.41022 -0.098,0.22712 0.37578,-0.23241 1.05294,-1.02113 1.02534,-1.19425 1.27055,-1.39655 1.46661,-1.20951 0.39139,0.3734 -0.67717,2.92321 -3.83575,9.15291 -3.92984,7.75085 -5.66986,11.73598 -6.92265,15.85483 -0.56679,1.86346 -1.14347,3.50669 -1.28151,3.65161 -0.13805,0.14493 -0.93622,0.33306 -1.77374,0.41806 -1.3387,0.13589 -1.49036,0.19678 -1.25478,0.50388 0.14738,0.19213 0.58805,0.44296 0.97926,0.55741 0.91482,0.26764 1.33969,0.69048 2.72555,2.71247 2.07646,3.02964 3.19696,5.5543 3.53232,7.95885 0.39323,2.81931 -0.1352,4.11479 -2.99599,7.34478 -2.02138,2.28226 -3.67867,3.69762 -7.91996,6.76381 -2.568,1.85651 -2.87391,1.87259 -2.35594,0.12389 0.47388,-1.5998 0.31565,-2.33054 -0.22294,-1.02957 -0.8138,1.96569 -3.97807,6.18579 -5.25041,7.00232 l -0.75566,0.48494 0.73648,-0.80472 c 0.85216,-0.93105 2.95367,-4.0151 2.95069,-4.33012 -0.001,-0.11732 -0.96424,0.79523 -2.14027,2.02794 -1.33233,1.39655 -2.61193,2.56087 -3.39507,3.08922 -1.44554,0.97526 -1.60897,0.94378 -3.24288,-0.62442 -1.24359,-1.19349 -1.29346,-1.64278 -0.20363,-1.83242 0.43602,-0.0759 0.9886,-0.34323 1.22796,-0.59412 0.64809,-0.67933 0.7691,-2.35426 0.28912,-4.00213 l -0.42558,-1.46115 0.79093,-0.0882 c 1.13277,-0.12627 2.26101,-0.88072 3.41151,-2.28124 1.35103,-1.64463 1.39756,-1.92764 0.52247,-3.17778 -0.4007,-0.5724 -0.76989,-1.08031 -0.82045,-1.12869 -0.0505,-0.0485 -0.71922,0.56856 -1.48591,1.37095 -0.7667,0.80242 -1.89916,1.86603 -2.51659,2.36361 l -1.12258,0.90468 0.71592,1.76413 c 0.76992,1.89722 1.02209,3.51396 0.71292,4.57072 -0.27135,0.92747 -0.57362,1.17751 -1.6251,1.34431 -0.89691,0.14224 -0.92136,0.16177 -1.04491,0.83375 l -0.12651,0.68807 -0.14779,-0.63326 c -0.12387,-0.52782 -0.60682,-1.06772 -2.9095,-3.24567 -4.50889,-4.2647 -5.93517,-6.99307 -5.11289,-9.78063 0.29081,-0.98586 3.00392,-7.19686 5.48408,-12.55453 3.3614,-7.26126 5.35716,-12.86107 6.59623,-18.50799 0.97302,-4.43451 2.42562,-8.00815 4.54223,-11.17467 1.16142,-1.73752 3.54035,-4.30686 4.31417,-4.65946 z m -5.83325,11.11165 c -1.0837,3.12907 1.19601,8.20758 4.8713,10.85184 2.3031,1.65701 4.44904,2.01729 6.1714,1.0361 2.15672,-1.22865 2.08347,-5.38107 -0.15964,-9.04931 -0.85108,-1.39183 -3.37175,-3.78847 -4.6995,-4.46823 -1.96729,-1.00726 -4.34283,-0.89915 -5.4212,0.2467 -0.24659,0.26217 -0.58974,0.8844 -0.76239,1.38293 z m 2.47878,-0.65417 c 0.26336,0.0557 2.12593,2.37005 2.23086,2.77201 0.0319,0.12309 -0.13522,0.24627 -0.37187,0.27388 -0.3227,0.0377 -0.60907,-0.15968 -1.14559,-0.78951 -1.09161,-1.28142 -1.44901,-2.41187 -0.7134,-2.25638 z m -0.69496,2.48566 c 0.2464,0.0171 0.8971,0.40147 1.44605,0.85422 0.83118,0.68556 0.95797,0.86524 0.75801,1.07485 -0.3504,0.36728 -1.52264,-0.0521 -2.34881,-0.84026 -0.76515,-0.72997 -0.70958,-1.14799 0.14475,-1.08881 z m 3.23379,-2.80353 c 0.45473,0.15117 0.5895,0.38458 0.90342,1.5646 0.39818,1.49661 0.34171,1.76803 -0.30213,1.45338 -0.59485,-0.29069 -1.132,-1.4141 -1.13403,-2.37176 l -0.002,-0.8239 z m 1.86258,0.75292 c 0.42289,0.40345 0.42424,0.5033 0.0129,0.93448 -0.48032,0.50345 -0.58873,0.40635 -0.69089,-0.61879 -0.0727,-0.72878 0.14085,-0.82819 0.67803,-0.31571 z m -3.50256,4.81993 c 0.83266,0.0797 1.09201,0.26531 1.10437,0.79055 0.0117,0.49905 -0.19881,0.67697 -0.93562,0.79058 -0.59809,0.0923 -0.63101,0.0684 -0.8875,-0.64266 -0.32306,-0.89563 -0.22135,-1.02839 0.71875,-0.93847 z m 5.00267,-3.69026 c 0.49031,0.46778 0.52371,0.6304 0.26697,1.30012 -0.47155,1.23003 -0.67294,1.32723 -1.37069,0.66156 -0.54888,-0.52364 -0.58312,-0.65959 -0.315,-1.24984 0.53608,-1.17993 0.79293,-1.30881 1.41868,-0.71183 z m -3.36567,5.44538 c 0.67924,-0.016 0.96883,1.15025 0.46945,1.89067 -0.21319,0.31616 -0.33476,0.28356 -0.87871,-0.23539 -0.58758,-0.56056 -0.60293,-0.6385 -0.22121,-1.12616 0.22555,-0.28819 0.5092,-0.52631 0.63039,-0.5291 z m 4.86923,-3.79859 c 0.68235,0.88683 0.65928,0.95319 -0.31408,0.9033 -0.79925,-0.041 -0.83976,-0.0683 -0.77974,-0.52567 0.0349,-0.26537 0.18163,-0.60646 0.32623,-0.75802 0.2189,-0.22944 0.34733,-0.16581 0.76759,0.38039 z m -0.23674,1.24625 c 0.72184,-0.002 0.94716,0.0999 1.26283,0.56864 0.51699,0.76762 0.44637,0.91874 -0.52285,1.11889 -0.95261,0.1967 -1.61001,-0.0854 -1.84169,-0.79042 -0.21937,-0.66734 0.0602,-0.89492 1.10171,-0.89711 z m -2.91491,3.69973 c 0.50389,-0.13156 0.87997,0.82888 0.97231,2.48477 0.0698,1.24871 0.0482,1.31415 -0.3443,1.04155 -0.52032,-0.36144 -1.21227,-2.24199 -1.07687,-2.92669 0.0616,-0.3116 0.23554,-0.54395 0.44886,-0.59963 z m 2.48036,-1.3874 c 0.10827,0.0229 0.66652,0.39805 1.24052,0.83371 0.90823,0.68931 1.04165,0.86788 1.02829,1.37608 -0.015,0.5689 -0.0328,0.5761 -0.6883,0.27827 -0.84346,-0.3832 -1.70531,-1.19445 -1.90079,-1.78911 -0.15528,-0.47266 -0.0188,-0.77057 0.32024,-0.69892 z m -0.86338,1.26223 c 0.2683,0.0567 1.64633,2.16042 1.87909,2.86863 0.0754,0.22923 0.0716,0.48531 -0.008,0.56907 -0.21581,0.22621 -1.52974,-1.10739 -1.88109,-1.90933 -0.36405,-0.83078 -0.35918,-1.60633 0.0103,-1.5284 z m 2.42706,-1.54397 c 0.51192,-0.14805 0.60967,-0.062 0.7237,0.63655 0.0754,0.46181 0.0342,0.52753 -0.29042,0.46238 -0.45177,-0.0907 -1.14221,-0.70118 -0.97533,-0.86246 0.0646,-0.0627 0.3087,-0.16898 0.54207,-0.23651 z m 2.02696,-3.20994 c 0.0961,-0.002 0.42477,-0.73383 0.73023,-1.62569 0.70793,-2.06706 0.59,-3.63793 -0.43495,-5.79343 -1.70691,-3.5897 -2.39486,-3.59974 -0.77141,-0.0112 1.07152,2.36852 1.29982,3.85926 0.78696,5.13862 -0.19941,0.49746 -0.40413,0.90544 -0.45493,0.90663 -0.0509,8.2e-4 -0.634,-0.91128 -1.29603,-2.02773 -0.80857,-1.36358 -1.54797,-2.35109 -2.25255,-3.00838 -1.03848,-0.96879 -1.02624,-0.94181 1.23447,2.72344 1.25585,2.03605 2.36203,3.70006 2.45821,3.69779 z m 2.29073,-11.99633 c 0.15059,0.43744 0.77988,1.29643 1.56292,2.13365 1.27276,1.36085 1.32033,1.39141 1.64123,1.05505 0.24825,-0.26021 0.22547,-0.60014 -0.0916,-1.36608 -0.3511,-0.84823 -0.61352,-1.16678 -1.56095,-1.89482 -1.78278,-1.36992 -2.04407,-1.35777 -1.55161,0.0722 z m 7.21412,-2.65747 -0.32839,1.04332 0.65365,-0.88374 c 0.3595,-0.48606 1.82676,-2.20643 3.26057,-3.82304 2.27437,-2.56432 2.51585,-2.89161 1.89282,-2.56547 -0.45709,0.23927 -1.51253,1.23983 -2.93219,2.77973 -1.94333,2.10791 -2.25874,2.53511 -2.54646,3.4492 z m -20.85258,23.10545 c 0.23771,0.65523 0.74339,1.2947 2.13556,2.7008 1.0032,1.01331 2.10636,2.02579 2.45134,2.2501 l 0.62726,0.40777 0.21257,-0.72653 c 0.20608,-0.70445 0.18493,-0.74722 -0.69479,-1.40536 -0.49906,-0.37331 -1.77792,-1.50818 -2.84197,-2.52187 -1.06391,-1.01381 -1.99467,-1.78014 -2.06804,-1.70323 -0.0734,0.0768 0.007,0.52616 0.17808,0.99832 z m 25.8492,-26.539 c -0.78043,1.17172 -1.13983,1.86732 -0.93897,1.8174 0.17908,-0.044 2.16332,-2.0052 4.40965,-4.35712 4.35709,-4.56213 8.57627,-8.37234 9.9253,-8.96373 0.96218,-0.42178 0.96953,-0.63777 0.0258,-0.75625 -0.81639,-0.10249 -2.53177,0.82473 -4.50689,2.43615 -1.96522,1.60335 -7.50733,7.71036 -8.91485,9.82355 z m -25.96569,30.29506 c 0.55042,2.74293 0.10265,4.72461 -2.29998,10.1773 -0.7201,1.63428 -1.47722,3.43852 -1.68248,4.0094 -0.3719,1.0345 -0.36989,1.04318 0.59771,2.57668 l 0.97085,1.53867 0.67593,-0.90941 c 0.37177,-0.50017 1.52199,-2.39279 2.55609,-4.20581 l 1.88018,-3.2964 -0.97068,0.92331 c -0.53382,0.50788 -1.03729,0.85978 -1.11871,0.78209 -0.30581,-0.29174 0.22945,-2.13668 1.03763,-3.57651 0.46068,-0.82071 1.31979,-2.16847 1.90915,-2.995 1.60246,-2.24734 1.63163,-2.03702 -0.54422,-3.92203 -2.2488,-1.94817 -2.6386,-2.20419 -2.91495,-1.91453 -0.11793,0.12365 -0.16139,0.4891 -0.0965,0.81219 z m 13.18119,-12.61366 c -0.26941,0.63958 -0.57467,1.45291 -0.67838,1.80738 -0.20841,0.71236 0.022,2.89345 0.30492,2.88679 0.0986,-0.002 0.21989,-0.63376 0.26984,-1.4032 0.05,-0.76945 0.27056,-2.15626 0.49023,-3.08181 0.4457,-1.87795 0.34031,-1.93497 -0.38661,-0.20916 z m -28.77882,34.85648 c -0.20884,0.95961 0.0655,2.04003 0.957,3.76817 0.94271,1.82752 3.85845,4.70418 5.12477,5.05606 1.3052,0.36269 1.81042,0.31428 2.32257,-0.22255 0.55817,-0.58507 0.57004,-1.91637 0.0305,-3.41895 -1.16264,-3.23782 -5.06624,-6.85796 -7.08315,-6.56879 -0.86782,0.12446 -1.13723,0.40069 -1.35168,1.38606 z m 2.27808,0.0134 c 0.96994,1.21183 1.18282,1.61455 0.81211,1.53619 -0.38375,-0.0811 -1.5056,-1.62226 -1.50227,-2.06371 0.002,-0.24148 0.18955,-0.098 0.69016,0.52752 z m -0.78165,0.99658 c 1.07111,0.52983 1.64569,1.09969 1.38464,1.37332 -0.27712,0.29048 -0.74159,0.0784 -1.57979,-0.72122 -0.89765,-0.85637 -0.81,-1.14925 0.19512,-0.65206 z m 2.23973,-1.24556 c 0.14889,0.14204 0.37099,0.64248 0.49358,1.11205 0.16342,0.62604 0.1315,0.85596 -0.11971,0.86187 -0.25121,0.006 -0.41621,-0.22204 -0.61854,-0.85444 -0.30372,-0.94919 -0.17828,-1.52299 0.24467,-1.11948 z m -1.29547,3.01703 c 0.27133,0.0752 0.60454,0.24287 0.74045,0.37254 0.39805,0.37975 -0.25431,0.83461 -0.88353,0.61603 -0.71955,-0.24998 -0.81204,-0.33527 -0.4625,-0.4265 0.1516,-0.0401 0.239,-0.21308 0.19403,-0.38543 -0.0604,-0.23111 0.0477,-0.2775 0.41154,-0.17658 z m 2.54312,-2.12821 c 0.28934,0.27604 0.31424,0.46059 0.0934,0.69206 -0.34861,0.36541 -0.49794,0.26822 -0.60447,-0.3934 -0.10506,-0.65275 0.0468,-0.74153 0.51106,-0.29866 z m 0.76392,0.82217 c 0.47663,0.19898 0.61844,0.86629 0.28485,1.33956 -0.28297,0.40128 -0.71565,0.17839 -1.05864,-0.54545 -0.20745,-0.43779 0.32321,-0.9823 0.77393,-0.79417 z m -2.63887,2.89093 c 0.68227,-0.3102 1.15729,0.24031 0.91675,1.06247 -0.10896,0.37245 -0.28509,0.67921 -0.39141,0.68171 -0.41585,0.01 -1.36745,-1.21486 -1.11366,-1.43332 0.0588,-0.0505 0.3235,-0.19046 0.58832,-0.31086 z m 3.72599,-1.62443 c 0.10262,0.10968 0.27479,0.38817 0.38248,0.61902 0.18981,0.40693 0.17943,0.41519 -0.34023,0.27111 -0.2948,-0.0817 -0.56454,-0.25798 -0.59944,-0.3916 -0.0915,-0.35076 0.33669,-0.73391 0.55719,-0.49854 z m 0.0872,1.10935 c 0.70495,0.20626 1.28109,0.85335 1.01142,1.13602 -0.26402,0.27674 -1.41789,-0.22091 -1.65527,-0.71392 -0.2981,-0.61912 -0.21526,-0.67343 0.64385,-0.4221 z m -2.02035,1.42371 c 0.32489,0.0687 0.83736,2.39088 0.54516,2.4672 -0.31579,0.0824 -0.69066,-0.56462 -0.87914,-1.51734 -0.14595,-0.73781 -0.0431,-1.02984 0.33466,-0.95 z m 2.42441,0.62763 c 0.52081,0.49686 0.92597,1.00254 0.90037,1.12372 -0.0651,0.30797 -1.0894,-0.37758 -1.55387,-1.03998 -0.67994,-0.9697 -0.32309,-1.01542 0.6535,-0.0837 z m -1.32921,-0.3637 c 0.2758,0.26312 1.01251,1.99694 0.89905,2.11586 -0.16096,0.16872 -0.86987,-0.76479 -1.10225,-1.45159 -0.11529,-0.34086 0.0332,-0.82645 0.2032,-0.66427 z m 1.79453,-0.21623 c 0.41192,0.17196 0.55425,0.57875 0.23181,0.66296 -0.29518,0.077 -0.88736,-0.47836 -0.70934,-0.66495 0.0739,-0.0775 0.28874,-0.0765 0.47731,0.002 z m 21.6794,-35.67527 c -0.2985,0.64307 -0.47342,1.73469 -0.5013,3.12849 -0.0236,1.17741 0.0135,2.13943 0.0824,2.13781 0.25704,-0.006 1.59888,-4.83652 1.65177,-5.94631 0.0549,-1.1528 0.0548,-1.15317 -0.35974,-0.73056 -0.22792,0.23273 -0.62103,0.86732 -0.87318,1.41057 z m 31.74118,-31.10898 c -0.0425,2.19575 -0.20049,3.72285 -0.36851,3.56257 -0.0554,-0.0528 -0.2105,-0.6209 -0.34474,-1.26236 -0.13422,-0.64146 -0.31724,-1.16458 -0.40673,-1.16246 -0.0895,0.002 -0.14341,1.77609 -0.11986,3.9422 0.041,3.77469 -0.16035,5.4333 -1.21792,10.03024 -0.57518,2.50012 -0.30386,2.8153 1.12449,1.30623 2.58355,-2.72955 4.05792,-7.28444 4.04158,-12.48591 -0.009,-2.98669 -0.167,-3.73424 -1.1081,-5.25504 -1.16528,-1.88317 -1.54421,-1.56954 -1.60026,1.32454 z m -52.48016,53.96384 c -0.4268,0.90946 -0.62005,2.45575 -0.31496,2.52023 0.12952,0.0274 0.37692,-0.18002 0.54987,-0.46083 0.46857,-0.76101 1.41084,-3.23289 1.27995,-3.35775 -0.36354,-0.34682 -0.99792,0.19683 -1.51483,1.29836 z m 0.42322,5.40991 c -0.67645,1.54441 -1.10331,2.76509 -0.9486,2.7126 0.42317,-0.1436 2.36709,-1.7696 3.47824,-2.90944 l 0.98234,-1.00769 -0.45868,-0.78999 c -0.25226,-0.43449 -0.6371,-1.05491 -0.85518,-1.3787 -0.46923,-0.69669 -0.30543,-0.94811 -2.19811,3.37323 z m 9.13298,-6.60186 c -2.28649,3.43057 -3.81775,6.08292 -3.72551,6.45302 0.11042,0.4433 1.38278,1.66994 1.55017,1.49447 0.21723,-0.2277 3.08026,-7.63891 3.90616,-10.11146 0.82049,-2.45633 0.93848,-3.43217 0.15017,-1.24192 -0.25124,0.69799 -1.09765,2.23063 -1.88094,3.40584 z m 6.80081,-5.36212 c -0.18403,1.00088 0.0932,0.74184 0.90393,-0.84481 0.4687,-0.91717 0.63374,-1.44014 0.43837,-1.38916 -0.40345,0.10535 -1.19232,1.4182 -1.34231,2.23396 z m 0.79853,0.65053 c -0.60317,1.42004 -1.93818,5.6191 -1.82179,5.73014 0.0377,0.0359 0.34053,-0.63486 0.67315,-1.49052 0.71701,-1.84448 2.6794,-5.95877 3.0049,-6.29995 0.12574,-0.13181 0.1576,-0.3074 0.0708,-0.39021 -0.28397,-0.2709 -1.34336,1.07625 -1.92707,2.45054 z m -9.78133,18.99836 c 0.25028,0.6867 0.67581,1.54825 0.94558,1.91458 l 0.49051,0.66604 0.47976,-0.94559 c 0.73549,-1.44955 0.6954,-1.71459 -0.38607,-2.55223 -0.94987,-0.73572 -1.66661,-0.94784 -1.87018,-0.55349 -0.0631,0.12222 0.0901,0.78403 0.34046,1.47068 z m 2.26913,-2.69264 c -0.29383,0.9842 -0.17506,1.58801 0.31005,1.5766 0.17622,-0.004 0.26899,-0.53485 0.24118,-1.38003 -0.0505,-1.53295 -0.1425,-1.56576 -0.55129,-0.19656 z m 14.68828,-23.09403 c 2.06452,-1.93037 2.65264,-2.06016 1.80142,-0.39747 -0.71141,1.38946 -3.06743,4.84733 -3.30659,4.85296 -0.10744,0.003 -0.25907,-0.36105 -0.33683,-0.80799 -0.15396,-0.8849 0.16866,-2.14392 0.65673,-2.56276 0.16915,-0.14518 0.70256,-0.63322 1.1853,-1.08464 z m -12.86728,29.92955 c 0.32436,-0.2709 1.36524,-1.04144 2.31311,-1.71231 0.94786,-0.67088 2.40071,-1.76062 3.22853,-2.42166 0.82784,-0.66102 1.55422,-1.15506 1.61419,-1.09785 0.06,0.0573 -0.14579,0.61431 -0.45726,1.23799 -0.54204,1.08542 -0.65186,1.1968 -2.56548,2.60201 -2.94199,2.16022 -5.95729,3.87201 -6.27933,3.56476 -0.0829,-0.0791 1.22622,-1.40443 2.14624,-2.17294 z"
           id="racecar"
           inkscape:connector-curvature="0"
           inkscape:transform-center-x="0.44104803"
           inkscape:transform-center-y="-0.88209607" />
        <g
           id="lorry"
           transform="matrix(-0.76005223,0.00824045,-0.00824045,-0.76005223,501.54564,867.71453)">
          <path
             id="path11756"
             d="m 296.02772,346.23505 v 36.08751 l 56.97066,0.0466 c -3.34321,2.73141 -5.43044,6.49623 -5.40316,11.43754 l -56.554,-0.0336 c -0.54174,-19.17034 -27.73974,-19.10511 -28.33073,-0.11081 -4.08499,-0.0305 -4.65162,-0.95825 -4.69101,-4.72119 v -14.39049 c -0.0513,-6.43098 -0.85442,-2.18581 3.9061,-14.38101 4.8983,-12.99992 3.54792,-11.79832 7.9784,-12.13382 z m -11.31551,21.27797 0.22548,-15.3323 -14.54314,0.9019 c -2.65129,0.17762 -2.67335,0.19426 -3.6076,3.26939 l -3.72033,9.9209 c -1.24983,3.04297 -1.0509,3.93963 2.36748,3.49486 z m 108.82937,14.88341 0.0277,8.10769 -9.39125,3.32434 -8.2457,-0.005 c 0.0336,-4.70126 -1.92019,-8.65529 -5.38431,-11.43283 z"
             style="fill:#dddddd;fill-opacity:0.86666667;fill-rule:evenodd;stroke:none;stroke-width:0.14535849"
             inkscape:connector-curvature="0" />
          <rect
             id="rect11758"
             style="fill:#dddddd;fill-opacity:0.86666667;stroke:none;stroke-width:0.14535849"
             width="91.768311"
             height="43.854881"
             y="335.38284"
             x="301.8483" />
          <circle
             id="circle11760"
             style="fill:#dddddd;fill-opacity:0.86666667;stroke:none;stroke-width:0.14535849"
             cy="393.50317"
             cx="276.87177"
             r="11.192604" />
          <circle
             id="circle11762"
             style="fill:#dddddd;fill-opacity:0.86666667;stroke:none;stroke-width:0.14535849"
             cy="393.50317"
             cx="361.76114"
             r="11.192604" />
        </g>
      </g>
      <circle
         r="250"
         cy="414.70831"
         cx="250"
         id="clippreventioncircle"
         style="fill:none;fill-opacity:1;stroke:none;stroke-width:32.08246994;stroke-miterlimit:4;stroke-dasharray:none;stroke-opacity:1" />
    </g>
    <path
       sodipodi:nodetypes="czccscc"
       inkscape:connector-curvature="0"
       id="scalewindowborder"
       d="m 73.003005,238.28186 c 0,0 66.525795,-73.35172 176.996995,-73.57355 110.4712,-0.22183 177.6813,74.23903 177.6813,74.23903 l -85.55149,85.10783 c 0,0 -35.40692,-38.95462 -92.12981,-38.67886 -58.49728,0.28438 -91.7054,38.27326 -91.7054,38.27326 z"
       style="fill:none;stroke:#dddddd;stroke-width:1px;stroke-linecap:butt;stroke-linejoin:miter;stroke-opacity:1" />
    <path
       style="fill:none;stroke:#ff1f00;stroke-width:4;stroke-linecap:round;stroke-linejoin:miter;stroke-miterlimit:4;stroke-dasharray:none;stroke-opacity:0.6655949"
       d="M 250.07424,179.776 250,299.70831"
       id="hand"
       inkscape:connector-curvature="0" />
  </g>
  <g
     inkscape:groupmode="layer"
     id="layer3"
     inkscape:label="Persons"
     style="display:none">
    <path
       transform="translate(0,-159.70831)"
       inkscape:connector-curvature="0"
       id="feather"
       d="m 350.10948,231.65411 c -0.62033,0.30592 -2.73132,2.63877 -2.01095,0.58998 -3.46078,0.40509 -7.7344,5.2926 -7.11275,6.78763 0.54471,-1.78434 0.61009,-4.6136 -1.43896,-1.82454 -0.70451,0.65436 -1.97631,4.57578 -1.82017,1.77359 -3.75569,0.71696 -6.99046,3.94229 -7.06886,7.87545 -0.18456,1.7093 -1.27781,4.12618 -0.59357,0.90764 0.88512,-2.17773 -1.67482,-5.07493 -2.82904,-1.81637 -1.00953,1.27676 -3.16855,5.82634 -2.68587,5.15548 1.21252,-2.28481 -0.92265,-3.10588 -2.06743,-1.1102 -2.03074,0.90035 -4.64054,5.5757 -4.41844,5.60552 1.18819,-2.08366 -0.60165,-2.8195 -1.33402,-0.63082 -0.33418,0.79565 -1.03252,2.22758 -0.67901,0.35443 -2.56028,0.12788 -4.36535,5.84647 -4.63598,5.17614 -1.39881,-3.13132 -4.70722,2.55133 -5.90983,4.02235 -1.39846,2.93235 -5.31119,4.09552 -5.69858,7.49435 0.64211,2.44129 4.13326,-1.28553 5.87717,-1.17694 12.94309,-5.23003 24.80172,-13.05974 34.84329,-22.74406 -10.03633,10.89007 -22.50265,19.54713 -36.38442,24.76826 -8.6562,3.38814 -17.74627,5.61702 -26.95321,6.85212 -0.0836,2.13286 5.71433,-0.0669 7.75906,-0.0525 4.64716,-0.84979 9.19755,-2.1358 13.7478,-3.38864 3.30046,1.46814 6.77087,2.81268 10.44956,2.38189 2.61517,-0.68021 3.76021,-3.47344 6.73206,-3.01032 2.77064,-0.72731 -1.24264,-3.48838 1.50186,-2.33287 4.46596,0.50599 8.38227,-2.16666 12.09818,-4.23564 -1.17034,-1.24119 -6.57964,-2.39982 -2.1344,-1.65539 4.07192,0.84109 8.35033,-0.96057 11.06854,-4.0018 2.64482,-1.19149 0.54543,-3.06014 -1.37041,-1.99522 -4.00594,-0.77403 3.54461,-0.89082 4.76555,-2.12193 2.72924,-0.84326 3.80636,-3.63681 3.26371,-5.99487 1.06775,-0.61657 5.15046,-1.11457 2.14557,-2.39001 2.54101,-0.51872 6.1664,-5.43764 3.28713,-6.4913 -1.37155,0.56266 -3.39901,0.80919 -0.90462,0.12063 2.30663,-0.51291 5.58894,-5.23227 3.38079,-5.90387 -0.99502,-0.2848 2.38283,-4.52078 1.96875,-6.50309 -0.26557,-3.7799 -3.00087,-0.97225 -4.83881,-0.48577 z"
       style="fill:#c4c3c1;fill-opacity:1;stroke-width:0.10158391" />
    <path
       transform="translate(0,-159.70831)"
       inkscape:connector-curvature="0"
       style="fill:#c4c3c1;fill-opacity:1;stroke-width:1.87049615"
       d="m 261.48369,604.47624 c 1.77584,0.80739 3.67776,1.50769 5.59391,1.80233 4.32848,0.66574 8.68654,1.13893 13.02655,1.65067 1.02644,0.12031 1.95371,1.06061 2.26957,2.04427 0.94536,2.90767 3.12583,5.28143 6.27509,6.55507 1.2256,0.49547 1.36019,1.07694 1.05655,2.16499 -0.19373,0.6915 -0.35833,1.38966 -0.51745,2.08493 -0.22683,1.00762 0.31638,2.2791 1.33069,2.47914 2.43519,0.48113 5.74301,-0.20582 7.78523,-1.72418 0.82732,-0.61719 0.8018,-2.0203 0.19897,-2.85873 -0.33065,-0.47089 -0.67602,-0.941 -1.01982,-1.41783 -0.60282,-0.8386 -0.50709,-2.12141 0.10809,-2.95152 1.85254,-2.4996 2.65291,-5.24604 2.18545,-8.33677 -0.14549,-1.02478 0.30526,-2.25592 1.19317,-2.78101 3.21735,-1.90296 6.4153,-3.72087 9.45018,-5.7784 2.17163,-1.47086 4.311,-3.20458 5.89102,-5.26148 1.2513,-1.63032 2.17543,-3.90626 2.27092,-5.94054 0.1264,-2.65092 -1.79234,-7.79877 -4.51899,-10.87146 -0.68321,-0.77463 -1.76499,-0.55844 -2.25728,0.3458 -0.45467,0.84001 -0.92448,1.66643 -1.50859,2.40132 -1.54414,1.94345 -1.15702,3.8138 -0.0822,5.67933 0.3253,0.57547 0.73832,1.10146 1.19369,1.66639 0.64938,0.80339 0.4983,1.56515 -0.34068,1.69447 -0.53491,0.0824 -1.02412,0.16437 -1.50726,0.2758 -1.51391,0.34693 -3.46646,1.51 -4.39796,0.94668 -1.10728,-0.66766 -1.46116,-2.76436 -1.87425,-4.31255 -0.2052,-0.7726 -0.076,-1.8807 0.35696,-2.53584 1.61334,-2.43823 3.50134,-4.69455 5.12855,-7.12241 2.68096,-4.01011 3.58504,-8.25983 0.89685,-12.64463 -2.31431,-3.77467 -4.73567,-7.4852 -7.17868,-11.17937 -2.40505,-3.63746 -2.12234,-5.3303 1.48365,-7.98759 0.13402,-0.0963 0.2453,-0.2358 0.37131,-0.39204 0.18239,-0.23508 0.14233,-0.50723 -0.0905,-0.62338 -0.17919,-0.0931 -0.32625,-0.16075 -0.43849,-0.12793 -3.19119,0.95946 -6.40834,1.85416 -9.52983,3.00508 -0.89445,0.3267 -1.55637,1.22151 -0.20143,2.33788 0.91857,0.75801 1.6559,2.06884 1.88908,3.24908 0.68286,3.46793 0.96997,7.01144 1.62786,10.48505 0.14457,0.71826 0.42566,1.40867 0.72518,2.05731 0.44816,0.92988 0.11728,2.15723 -0.7373,2.73808 -2.01765,1.371 -4.00001,2.72075 -6.03384,4.10507 -0.85463,0.58069 -1.59501,0.21556 -1.65494,-0.81528 -0.0551,-0.94426 -0.10742,-1.8758 -0.15643,-2.80788 -0.13454,-2.59411 -1.65966,-3.98296 -3.88469,-3.49716 -5.65601,1.23477 -10.75526,3.71211 -14.71839,7.90386 -1.22516,1.29464 -2.43525,1.84239 -3.68566,1.98488 -1.02647,0.11513 -2.05061,-0.85666 -2.26664,-1.86653 -0.44833,-2.08485 -0.86785,-4.11076 -1.40417,-6.10503 -0.87037,-3.24767 -2.6605,-6.36933 -1.68567,-10.02916 0.26352,-0.99853 -0.0112,-1.91814 -0.84754,-2.14254 -0.54965,-0.14646 -1.05142,-0.2529 -1.53766,-0.20501 -2.56176,0.24556 -5.10521,0.69158 -7.64948,1.0993 -0.24584,0.0408 -0.48684,0.12456 -0.72294,0.21738 -0.38754,0.15658 -0.6985,0.42674 -0.69717,0.59368 -0.004,0.16884 0.32229,0.38607 0.72863,0.48822 0.24124,0.0611 0.48541,0.11946 0.73063,0.16743 3.40788,0.66353 4.71355,2.51749 4.18304,5.92038 -0.50445,3.22248 -1.23575,6.43477 -1.40749,9.67664 -0.16479,3.14451 -0.48998,6.60671 0.58598,9.42088 1.65167,4.3405 5.73836,6.23079 9.70686,8.29055 0.91737,0.47665 1.67973,0.0407 1.77998,-0.9863 1.31924,-13.34138 10.48838,-19.64519 18.05732,-21.27476 1.01037,-0.21608 1.93599,0.4897 2.04888,1.48015 0.0613,0.60017 0.11655,1.19871 0.10651,1.79532 -0.0202,1.47678 0.62562,1.98538 2.01378,2.48489 2.47297,0.88853 4.97302,1.96656 7.09922,3.47926 1.88723,1.34027 3.80104,2.80851 4.95537,4.98026 0.48461,0.91495 0.0605,1.19019 -0.76716,0.57308 -6.00322,-4.48058 -12.62323,-6.14076 -19.36389,-1.96535 -5.95927,3.69327 -11.52366,8.31793 -11.19568,16.22106 0.0395,1.03217 -0.63822,2.04484 -1.64693,2.27113 -1.13872,0.25679 -2.23938,0.50256 -3.27065,0.73368 -1.00712,0.22553 -1.82274,-0.42886 -1.75036,-1.45896 0.1407,-1.8967 0.36482,-3.80661 -0.40021,-5.16082 -0.8285,-1.47038 -2.63773,-2.38699 -4.42338,-3.4203 -0.8935,-0.51657 -1.83434,-0.18452 -2.03773,0.82782 -0.60971,2.99136 -0.5161,5.73076 -0.21303,8.5325 0.39546,3.62458 2.06779,6.20592 5.309,7.67486 z m 28.08941,-3.55647 c 3.52214,-0.77483 6.42456,1.28427 7.26161,5.15086 0.88708,4.10655 -1.10254,8.1571 -4.31932,8.7888 -3.14521,0.61758 -6.45344,-2.19021 -7.36517,-6.2529 -0.87746,-3.90929 0.84238,-6.89862 4.42288,-7.68676 z"
       id="sumo" />
    <path
       transform="translate(0,-159.70831)"
       inkscape:connector-curvature="0"
       d="m 459.24773,450.58715 c 0,0 0.60548,3.00841 -2.28644,3.8353 0,0 -5.25747,3.79852 -8.76214,3.89638 0,0 -1.07429,0.0655 -1.5327,-1.02271 -0.33417,-0.81175 -1.26074,-1.96586 -2.0272,-2.74396 0,0 -2.65695,-2.63412 -2.20966,-6.82418 0,0 0.12002,-0.54987 -2.47497,-2.01849 -1.32444,-0.74664 -3.24152,-2.60175 -4.72149,-3.97145 -0.89472,-0.82938 -3.37172,-2.08823 -4.11611,-2.43634 -1.60516,-0.76137 -5.72387,-1.37828 -6.96496,-0.89508 0,0 -4.75211,1.43137 -6.82437,1.7338 -0.1258,0.0204 -2.86444,0.6288 -6.62519,-0.23177 -0.36587,-0.0828 -1.7856,-0.48822 -2.63175,-0.67542 -1.21004,-0.27078 -3.75159,-0.49848 -4.95952,-0.15281 -1.15537,0.32994 -2.32588,1.57171 -5.24874,1.63853 -2.85547,0.0781 -6.83666,-1.17169 -9.31656,-1.12142 -1.38637,0.0289 -3.40849,0.43509 -4.94913,2.93077 0,0 -0.87482,2.43271 -1.59932,1.22008 0,0 0.20177,-2.89142 1.00562,-4.51307 0,0 0.082,-2.90242 1.18945,-3.16268 0,0 0.83572,0.097 1.4805,0.47806 0,0 4.25463,-0.18206 7.22997,-1.94618 2.14751,-1.2733 3.00721,-1.50648 10.04842,0.0177 0,0 1.73861,-2.18862 7.24995,-2.99924 1.62143,-0.23655 4.40856,-0.57101 6.48379,-0.85613 0,0 -7.17954,-4.4219 -11.01673,-4.52415 0,0 -4.08448,1.29644 -5.59212,1.36383 -1.28818,0.0544 -3.32999,-0.20483 -5.0653,-0.93039 -1.79369,-0.75095 -6.23174,-0.0351 -7.73269,0.18279 0,0 -2.62122,0.6608 -2.36801,-1.13968 0,0 0.73068,-3.08473 0.1064,-4.16658 0,0 -0.0538,-3.61397 0.35608,-4.32346 0,0 0.57363,-1.14217 1.25412,0.95855 0,0 -0.17318,2.13546 1.08964,3.02502 0,0 1.02191,1.0614 1.16084,1.38909 0,0 3.41664,-0.95655 8.29104,-1.71146 1.87672,-0.28729 6.11823,-0.15799 8.00813,-0.25377 1.17775,-0.0636 3.8308,0.84415 4.9986,0.59493 3.09347,-0.65233 5.5299,-1.9114 12.45814,1.21132 0,0 2.87686,1.60127 4.49497,2.51109 2.20837,1.2391 6.39207,1.76392 9.92342,1.06989 0,0 3.25887,-1.79597 6.18174,-1.60776 0,0 1.87548,0.45763 2.15236,-2.6173 0,0 -0.25732,-2.36419 3.69522,-5.79771 l 1.92083,-2.07195 c 0,0 0.71894,-1.12918 3.86413,0.47257 0,0 3.88543,2.608 4.96482,3.89626 l 1.60103,0.99283 c 0,0 1.79906,0.92162 0.64839,3.93122 0,0 -0.44461,1.75212 -1.47487,1.35608 0,0 -3.37786,0.0781 -2.84624,-0.93724 0,0 0.32939,-0.47417 1.01913,-0.52293 0,0 0.24499,-1.55679 0.73617,-1.854 0,0 -2.46097,-1.08737 -2.86714,-1.53866 0,0 -3.68143,0.01 -4.37787,-0.41375 0,0 1.33191,3.43525 -1.83737,5.18454 0,0 0.77351,4.13213 -1.55496,5.49448 0,0 -2.34703,2.50117 0.0803,3.19859 l 1.49528,0.10154 c 0,0 0.9376,-0.28324 1.59242,-0.30318 0,0 -0.34653,-0.73344 1.53106,-0.75543 0,0 1.24941,-0.27378 0.96237,0.54806 0,0 3.82089,-1.01371 4.41561,2.94104 0,0 0.60459,5.1245 -4.80812,4.09742 0,0 0.22904,1.86134 -2.74499,-0.29634 0,0 0.18078,-0.52607 -0.0718,-0.45032 -0.1457,0.0469 -1.67275,-0.0161 -1.67275,-0.0161 0,0 -2.39602,-0.13444 -2.2237,1.9718 0,0 2.18525,3.96503 0.53256,5.59103 0,0 2.71866,2.66757 0.80428,5.65722 0,0 -0.27159,0.98141 0.56265,1.3595 0,0 1.81281,-1.8012 6.13355,-0.85473 0,0 1.55806,0.013 1.27302,-0.72291 l -0.0575,-0.7062 c 0,0 -1.11543,-0.27241 -0.78727,-2.29591 0,0 -0.39896,0.0296 -0.46936,-0.076 -0.23623,-0.3487 -0.0655,-1.41269 0.18867,-1.75357 0.57882,-0.78117 2.99479,-0.60803 3.34159,1.37307 z"
       id="man"
       style="fill:#c4c3c1;fill-opacity:1;stroke-width:0.37338251"
       inkscape:transform-center-x="-0.37485624"
       inkscape:transform-center-y="-7.1004208" />
    <path
       transform="translate(0,-159.70831)"
       inkscape:connector-curvature="0"
       style="fill:#c4c3c1;fill-opacity:1;fill-rule:nonzero;stroke:none;stroke-width:0.12140682"
       d="m 394.79677,326.5056 c -1.59863,-1.14806 -3.18233,-5.14233 0.15934,-4.3541 2.83194,-1.59896 5.76996,-3.10626 9.06169,-3.42834 3.6653,-0.57407 7.38625,-1.42473 10.58873,-3.30826 -0.70627,4.36722 -5.43075,2.76001 -8.48186,3.03066 -3.60375,0.98185 -6.8961,4.27415 -6.24824,8.27758 0.58725,2.94735 -2.5923,2.96306 -3.75473,0.98638 -0.44218,-0.40138 -0.88279,-0.80244 -1.32493,-1.20392 z m 16.30802,12.2945 c 1.33948,-2.06001 0.0237,-5.30046 2.86765,-6.50785 2.99464,-2.77913 6.00667,-5.67847 9.76637,-7.3793 2.00405,-1.67072 6.38914,-0.54841 6.60004,-3.96318 -0.16622,-2.35738 -2.93677,-5.81468 0.98134,-6.30958 2.32536,-2.01526 6.61121,-5.01648 4.14182,-8.44649 -1.73281,-3.11839 -6.2945,-5.21897 -8.43697,-1.26633 -0.78822,2.32193 0.24197,5.67019 -2.21484,7.27042 -2.70769,-0.17793 -5.64801,-5.10544 -8.2632,-1.9126 -3.46345,2.00754 -6.81466,4.68528 -10.95121,5.03401 -3.36238,0.80435 -6.30315,2.86383 -9.73658,3.42753 -3.28671,-2.22032 -5.95954,2.96362 -8.87701,-0.22186 -1.73524,-0.008 3.98724,2.14674 0.55775,2.33688 -3.3088,-1.53898 -5.1747,3.10225 -3.6728,5.54476 1.67198,-4.084 6.41273,-0.33527 8.09138,1.91582 1.25411,1.83627 3.48103,3.98428 0.3919,5.12022 -2.3299,2.39347 -6.00652,1.49163 -8.42453,3.70684 -2.6526,1.81776 -5.28723,3.74192 -8.19839,5.12068 -3.47298,-0.34776 -5.61647,2.36059 -7.97663,4.4859 -3.41016,0.91777 -0.03,6.51559 1.86213,2.95415 5.00754,-5.77227 13.05932,-6.24987 19.59727,-9.34314 2.8416,-0.93571 6.20386,-4.09532 9.06068,-2.39908 1.49602,2.79023 5.80498,3.63881 7.02281,0.0999 1.01299,-3.28966 1.99378,-7.04805 5.63456,-8.35799 2.17624,-0.80244 4.81849,-3.7887 6.14423,-4.12805 -3.36525,3.35733 -5.6975,7.58507 -8.88674,11.07353 -0.34204,1.37843 1.59648,3.25103 2.91367,2.14323 z"
       id="woman" />
    <path
       transform="translate(0,-159.70831)"
       inkscape:connector-curvature="0"
       style="fill:#c4c3c1;fill-opacity:1;stroke:#d2ccc9;stroke-width:0.50939494;stroke-miterlimit:4;stroke-dasharray:none;stroke-opacity:1"
       d="m 353.82605,561.53666 c 5.99956,5.38842 13.62369,9.00242 21.6251,10.08138 1.00594,0.44421 2.12137,3.05197 3.02568,1.50406 1.7996,-2.36988 5.51004,-0.32582 8.10581,-1.34848 15.13254,-1.76879 28.50119,-13.38282 32.26407,-28.16194 1.36208,-5.23029 1.69199,-10.7551 0.8199,-16.0946 0.5644,-1.04314 3.07474,-2.18586 1.27287,-3.10918 -2.5126,-1.50057 -2.81544,-4.39904 -3.90043,-6.89304 -5.37767,-12.67767 -17.40765,-22.293 -31.00277,-24.61709 -4.64753,-4.19758 -9.29517,-8.39525 -13.9427,-12.59284 -14.63972,16.20899 -29.27946,32.418 -43.9192,48.62704 4.47388,4.04074 8.9476,8.08134 13.42149,12.12209 1.86825,7.85027 6.27399,15.06318 12.23046,20.48276 z m 24.00777,11.63488 c -2.8563,-1.58333 0.22391,-1.80323 0.75365,-0.83444 -0.25114,0.27806 -0.50249,0.55635 -0.75365,0.83444 z m -32.1687,-60.93991 c 2.2422,-1.96308 5.90429,-2.89482 7.89759,4.8e-4 2.59344,2.90296 6.48458,4.52515 8.033,8.27603 1.38269,1.336 5.58935,6.28848 1.12834,3.98498 -3.64828,-0.0241 -6.25839,-3.59275 -9.93072,-3.08806 -3.02337,-1.05288 -8.29892,-0.4965 -10.08395,-2.52698 0.76598,-2.30477 1.75802,-4.53379 2.95569,-6.64638 z m 33.51483,59.3722 c 2.99464,-2.68224 0.75774,-7.04263 3.56412,-9.98752 2.04969,-3.36377 1.45816,-8.07407 4.36648,-10.75379 1.93553,-0.89154 2.62802,-8.02362 3.20128,-2.85794 1.12078,3.05226 4.1179,3.80816 6.95202,3.48292 0.081,0.31587 -1.78786,2.05531 -2.48159,2.92523 -5.20618,5.7107 -10.36607,11.57839 -15.59841,17.19465 z M 400.99844,546.968 c 0.78802,-2.84843 -1.47363,-5.70022 -4.42711,-6.22454 -3.63943,-0.81584 3.31414,-1.6529 3.14259,-4.06725 3.54703,-2.05012 7.44699,-2.93195 10.86499,-5.28606 1.08781,-1.63002 6.69958,-2.78664 6.27038,-1.43313 -5.3256,5.89646 -10.65119,11.7929 -15.97676,17.68935 l 0.11848,-0.68622 z m 17.23039,-18.52236 c -2.83073,1.09487 0.88114,-1.17804 0.24149,-0.26739 l -0.15266,0.16903 z m 1.11518,-1.10806 c -1.51672,0.0352 -2.31108,0.37763 -0.43384,-0.61401 -1.59477,-0.29132 -4.16127,0.75265 -1.11479,-0.64546 -3.49846,0.12045 -6.50587,2.51899 -10.04868,3.09131 -3.31127,1.55592 -6.29367,3.48023 -9.64258,4.98313 2.29637,-2.77038 4.9189,-4.94951 7.4119,-7.56294 1.47517,-3.19636 4.91359,-3.88231 7.17922,-6.06406 1.02579,-1.80468 -2.96841,1.97435 -0.53595,-0.83279 2.42717,-3.21147 -1.46079,0.30509 -1.05895,-0.44124 2.38214,-2.48535 -0.62259,-0.84078 -1.04657,-0.0243 2.31304,-3.37925 -1.58287,0.80758 -2.74617,1.68773 -2.47199,2.83814 -5.92387,4.83366 -8.0883,7.904 -2.59921,2.28734 -5.43189,7.28585 -9.14213,4.07282 -3.72303,-1.23014 -6.02281,-3.80996 -7.86998,-7.1746 -1.68397,-2.37094 -1.9861,-5.48877 -3.67813,-7.93159 -1.5363,-2.26941 -3.01785,-4.37376 -3.29037,-7.19585 -0.10685,-3.0318 -0.56504,-6.12355 -2.64556,-8.50002 -2.18907,-2.13515 -5.6937,-8.05438 -0.83962,-8.56743 4.68285,-0.80855 9.67154,-1.11112 14.27884,-0.0425 10.80249,9.75667 21.60485,19.5132 32.40732,29.26983 0.38737,1.50914 0.67595,3.05664 0.90377,4.58829 z m -53.63876,-32.03674 c 1.24625,2.51533 3.38653,5.45616 3.9243,8.70697 0.5716,3.58199 3.04572,6.58136 2.78098,10.38916 -0.0758,1.78133 2.53901,5.09092 -0.54817,2.54743 -2.67562,-1.07669 -4.12044,-3.73363 -5.87424,-5.94158 -2.27586,-3.45647 -6.48983,-4.8841 -10.28446,-5.91931 -0.76944,-2.12546 -4.19957,-1.75005 -1.39917,-3.22278 3.34224,-2.81634 7.44508,-5.18592 11.4004,-6.5603 z m -15.43124,10.47445 c 2.79933,0.26679 5.75575,1.67832 8.09475,3.58092 2.17753,2.46434 5.56824,3.70049 6.90615,6.82716 1.02887,1.74701 5.38432,5.55107 4.51296,5.67677 -2.92644,-2.27687 -5.94854,-4.44094 -7.86156,-7.72002 -2.14842,-2.91054 -5.74139,-3.87128 -8.7244,-5.70502 -1.47946,-0.31255 -2.23112,-2.26695 -2.9265,-2.66137 z m -9.17758,20.27015 c 2.14834,-0.8029 3.33917,-4.77121 6.43201,-2.41615 3.21887,2.22818 7.22835,2.37265 10.6813,3.67973 3.81931,1.07575 6.64278,4.07796 10.61017,4.93974 2.64359,0.36052 4.44268,2.18166 6.8531,3.13144 3.16825,1.66511 4.93073,4.75061 6.87735,7.69964 2.18794,3.24323 -2.38391,5.43539 -3.70997,7.98889 -3.15765,1.72026 -4.45327,5.35088 -6.68103,8.09131 -1.41087,0.63237 -5.02522,7.34479 -2.03763,3.3985 -0.40656,0.84294 -0.88165,3.83169 -2.04519,1.84152 -8.68365,-7.84293 -17.36714,-15.68573 -26.05077,-23.52865 -1.25508,-4.82072 -1.58289,-9.89093 -0.92917,-14.82581 z m 0.62526,-3.6663 c 0.20479,-2.57004 0.98324,-0.98748 0,0 z m 27.76611,43.25453 c 2.42147,0.24768 3.68164,-3.49117 4.955,-5.61284 2.72868,-2.20542 4.42289,-5.36281 7.02229,-7.59738 2.73723,-3.99583 0.18159,2.45559 -0.53769,4.01727 -1.71962,3.18323 -0.86144,7.26948 -3.27157,10.18241 -0.40097,1.73342 -0.0218,5.91234 0.54884,1.85979 0.40026,1.41881 -0.56617,4.85241 0.84598,1.23686 0.73892,3.19743 -3.89166,1.77253 -5.10079,-0.047 -1.48583,-1.34467 -2.97154,-2.68924 -4.45534,-4.03615 z m 40.30846,-6.61376 c -7.44075,8.39048 -18.74608,13.07964 -29.93552,12.57262 13.13519,-14.54318 26.27036,-29.08635 39.40555,-43.62952 1.63735,11.08839 -1.88026,22.79008 -9.47003,31.0569 z m 11.36962,-33.82261 c -1.80076,3.26547 -2.03015,-0.40861 -1.93124,-1.74426 0.64394,0.58158 1.28748,1.16282 1.93124,1.74426 z m -14.72411,-21.91365 c 5.53913,4.98465 9.64171,11.52647 11.77251,18.66325 -10.51391,-9.496 -21.02772,-18.99192 -31.54163,-28.48793 7.31856,1.40155 14.24579,4.81669 19.76912,9.82468 z m -21.19435,-10.52737 c -11.62121,-1.66331 -23.94458,1.78585 -32.63692,9.7848 6.50989,-7.20768 13.01979,-14.4154 19.52968,-21.62308 4.36904,3.94604 8.7382,7.89222 13.10724,11.83828 z m -56.4457,36.1303 c 6.3345,-7.01351 12.66901,-14.02703 19.00353,-21.04054 -1.01896,2.15159 -4.4813,3.93313 -3.37741,5.70522 -4.16497,8.16059 -5.22573,17.83828 -3.00738,26.71834 -4.20507,-3.78584 -8.42724,-7.62954 -12.61766,-11.38395 z m 46.03003,42.17177 c -15.36628,-2.38214 -28.67786,-14.40497 -32.60705,-29.4502 10.86903,9.81674 21.73804,19.63347 32.60705,29.4502 z"
       id="davinci" />
  </g>
  <g
     inkscape:groupmode="layer"
     id="layer2"
     inkscape:label="Vehicles"
     style="display:inline" />
</svg>
