<?xml version="1.0" encoding="UTF-8" standalone="no"?>
<!-- Created with Inkscape (http://www.inkscape.org/) -->

<svg
   xmlns:dc="http://purl.org/dc/elements/1.1/"
   xmlns:cc="http://creativecommons.org/ns#"
   xmlns:rdf="http://www.w3.org/1999/02/22-rdf-syntax-ns#"
   xmlns:svg="http://www.w3.org/2000/svg"
   xmlns="http://www.w3.org/2000/svg"
   xmlns:sodipodi="http://sodipodi.sourceforge.net/DTD/sodipodi-0.dtd"
   xmlns:inkscape="http://www.inkscape.org/namespaces/inkscape"
   width="24mm"
   height="24mm"
   viewBox="0 0 24 24"
   version="1.1"
   id="svg8"
   inkscape:version="0.92.3 (2405546, 2018-03-11)"
   sodipodi:docname="scale-background.svg">
  <defs
     id="defs2" />
  <sodipodi:namedview
     id="base"
     pagecolor="#ffffff"
     bordercolor="#666666"
     borderopacity="1.0"
     inkscape:pageopacity="0.0"
     inkscape:pageshadow="2"
     inkscape:zoom="6.0358075"
     inkscape:cx="31.561645"
     inkscape:cy="45.354331"
     inkscape:document-units="mm"
     inkscape:current-layer="layer1"
     showgrid="true"
     inkscape:snap-grids="true"
     inkscape:window-width="1278"
     inkscape:window-height="1021"
     inkscape:window-x="2750"
     inkscape:window-y="332"
     inkscape:window-maximized="0">
    <inkscape:grid
       type="xygrid"
       id="grid10"
       units="mm"
       spacingx="1"
       spacingy="1"
       snapvisiblegridlinesonly="false" />
  </sodipodi:namedview>
  <metadata
     id="metadata5">
    <rdf:RDF>
      <cc:Work
         rdf:about="">
        <dc:format>image/svg+xml</dc:format>
        <dc:type
           rdf:resource="http://purl.org/dc/dcmitype/StillImage" />
        <dc:title />
      </cc:Work>
    </rdf:RDF>
  </metadata>
  <g
     inkscape:label="Layer 1"
     inkscape:groupmode="layer"
     id="layer1"
     style="display:inline"
     transform="translate(0,-273)">
    <circle
       id="path3717"
       cx="12"
       cy="285"
       style="fill:#18426b;fill-opacity:0.99033815;stroke:none;stroke-width:0.26666665;stroke-opacity:1"
       r="12" />
    <path
       inkscape:connector-curvature="0"
       d="m 0.63651683,284.55746 a 0.26333955,0.26333955 0 0 1 0.051113,0.004 c 0.036256,0.007 0.070224,0.0228 0.1025033,0.0407 l -0.054344,-0.0636 c 0.021375,0.0249 0.106295,-0.002 0.1326726,-0.006 0.061242,-0.009 0.1024243,-0.0146 0.15547447,0.0245 a 2.158101,2.158101 0 0 1 0.1901068,0.15748 0.55842092,0.55842092 0 0 0 -0.1474572,-0.18553 0.52070303,0.52070303 0 0 1 0.3102324,0.15478 0.4200403,0.4200403 0 0 0 -0.077568,-0.10632 l 0.225468,0.0173 c 0.06078,0.005 0.127332,0.0118 0.170464,0.055 0.04004,0.0402 0.07501,0.0874 0.108927,0.13274 0.04096,0.0547 0.09728,0.0999 0.136947,0.15327 -0.06942,-0.0938 -0.131316,-0.20467 -0.166327,-0.31598 0.16416,0.0114 0.314043,0.158 0.44324,0.24652 a 0.50605673,0.50605673 0 0 1 -0.143698,-0.15048 c 0.08576,0.0184 0.180175,0.0209 0.262586,0.0468 0.08241,0.0259 0.161277,0.0816 0.225049,0.13712 a 0.37717906,0.37717906 0 0 0 -0.130442,-0.12057 l 0.07015,0.0122 a 0.21832298,0.21832298 0 0 1 0.04524,0.0113 c 0.01936,0.008 0.036,0.0212 0.05233,0.0343 l 0.08129,0.0651 a 1.2615904,1.2615904 0 0 0 -0.09887,-0.0968 c 0.149163,0.0377 0.319671,0.0549 0.386911,0.22066 l -0.06371,-0.15696 c 0.104874,0.024 0.202742,0.0337 0.289746,0.0698 0.08869,0.0369 0.166363,0.0994 0.250376,0.15143 l 0.0024,-0.0376 c 0.107731,0.0205 0.195732,0.069 0.273429,0.17114 -0.792799,0.11996 -1.55675,0.0539 -2.311538,-0.17142 0.01493,0.007 0.02914,0.0164 0.04479,0.021 0.363161,0.10577 0.723668,0.21938 1.105135,0.24874 0.695084,0.0535 1.374531,-0.0141 2.037537,-0.23426 0.0957,-0.0318 0.192981,-0.0596 0.289654,-0.0891 l 0.01271,0.0203 c -0.02691,0.0168 -0.05214,0.038 -0.08119,0.0497 -0.300126,0.12014 -0.611022,0.20235 -0.929371,0.25615 -0.06795,0.0115 -0.10969,0.0337 -0.138513,0.0926 -0.03206,0.0655 -0.07132,0.12362 -0.128036,0.17056 l 0.0231,-0.0583 a 0.96895822,0.96895822 0 0 1 -0.295747,0.17232 0.03830572,0.03830572 0 0 1 0.01614,-0.0372 c -0.0053,8.5e-4 -0.107486,0.0347 -0.108167,0.0308 l -0.01341,-0.0787 c -0.08643,0.0677 -0.183474,0.0809 -0.28389,0.0681 l 0.09223,-0.1406 c -0.202544,0.21946 -0.460415,0.16934 -0.707476,0.16551 l -0.0093,-0.0158 0.194174,-0.20062 c -0.04041,0.0192 -0.07452,0.0458 -0.109666,0.0711 -0.05608,0.0403 -0.107659,0.094 -0.170289,0.1168 -0.09078,0.0331 -0.187139,0.0296 -0.280595,0.0108 -0.04569,-0.009 -0.09065,-0.0214 -0.1356,-0.0333 -0.04495,-0.0119 -0.09358,-0.0182 -0.137071,-0.0342 0.03658,-0.0287 0.08581,-0.0464 0.127097,-0.0675 l 0.06875,-0.035 c 0.01754,-0.009 0.0492,-0.0338 0.06875,-0.035 a 0.49665175,0.49665175 0 0 0 -0.126119,0.0245 c -0.03609,0.012 -0.07263,0.018 -0.109156,0.0288 a 1.1892896,1.1892896 0 0 1 -0.123967,0.0272 0.06260192,0.06260192 0 0 1 -0.04386,-0.004 q -0.0633,-0.024 -0.125835,-0.0491 c -0.0096,-0.004 -0.107688,-0.0506 -0.1101877,-0.0482 0.00996,-0.01 0.014725,-0.02 0.022749,-0.0308 0.010496,-0.0142 0.025935,-0.0238 0.039467,-0.0348 a 0.06622676,0.06622676 0 0 1 -0.061732,0.003 0.23247945,0.23247945 0 0 1 0.048195,-0.0522 l -0.1412935,0.0513 a 0.05657686,0.05657686 0 0 1 -0.019233,0.005 0.05388272,0.05388272 0 0 1 -0.02404,-0.008 0.50943663,0.50943663 0 0 1 -0.051817,-0.0311 0.86383799,0.86383799 0 0 1 0.080233,-0.063 c -0.068463,-0.005 -0.1254065,0.0429 -0.1890957,-10e-4 -0.058665,-0.0405 -0.11776127,-0.0984 -0.17325037,-0.14496 a 0.40044659,0.40044659 0 0 1 -0.028479,-0.0298 l 0.23766857,-0.0426 c -0.08909,-0.008 -0.17746877,0.008 -0.26163737,-0.005 -0.093985,-0.0141 -0.1412093,-0.0974 -0.1977533,-0.18386 l 0.134919,0.0489 c -0.034428,-0.0338 -0.073739,-0.0559 -0.1117199,-0.0803 -0.1074939,-0.0687 -0.1721442,-0.19163 -0.255761,-0.28582 0.088589,0.014 0.1786215,-0.023 0.2672756,-0.0234 z"
       id="path4537"
       style="fill:#c4c3c1;fill-opacity:1;stroke-width:0.00489843" />
    <g
       transform="matrix(-0.01065151,0.09388903,-0.09388903,-0.01065151,23.602324,283.27883)"
       id="g4604"
       style="fill:#c4c3c1;fill-opacity:1">
      <path
         inkscape:connector-curvature="0"
         style="fill:#c4c3c1;fill-opacity:1"
         d="M 35.88,13.611 C 35.048,12.982 34.138,12.394 33.173,12.016 30.993,11.162 28.775,10.405 26.571,9.63 26.05,9.447 25.676,8.848 25.626,8.298 25.478,6.67 24.614,5.177 23.12,4.144 22.539,3.742 22.536,3.423 22.822,2.891 23.004,2.553 23.172,2.208 23.336,1.864 23.572,1.365 23.438,0.638 22.932,0.415 21.718,-0.121 19.912,-0.15 18.669,0.403 c -0.504,0.225 -0.655,0.96 -0.439,1.468 0.121,0.284 0.243,0.57 0.366,0.859 0.216,0.508 0.016,1.166 -0.402,1.527 -1.259,1.087 -1.998,2.426 -2.116,4.093 -0.039,0.551 -0.423,1.141 -0.948,1.311 -1.901,0.616 -3.782,1.19 -5.606,1.908 -1.305,0.513 -2.624,1.167 -3.689,2.055 -0.844,0.704 -1.592,1.783 -1.88,2.833 -0.376,1.368 0.022,4.278 1.085,6.2 0.266,0.484 0.855,0.498 1.218,0.084 C 6.594,22.356 6.935,21.98 7.326,21.665 8.359,20.832 8.376,19.811 8.034,18.712 7.929,18.374 7.778,18.051 7.606,17.703 7.361,17.208 7.531,16.828 7.982,16.859 c 0.289,0.019 0.554,0.034 0.818,0.033 0.83,-0.004 1.985,-0.382 2.405,0.021 0.499,0.478 0.439,1.613 0.473,2.469 0.017,0.427 -0.181,0.99 -0.483,1.281 -1.127,1.083 -2.376,2.039 -3.509,3.115 -1.868,1.778 -2.837,3.889 -1.948,6.491 0.765,2.24 1.594,4.459 2.436,6.672 0.829,2.179 0.483,3.029 -1.709,3.993 -0.082,0.036 -0.156,0.094 -0.239,0.161 -0.123,0.101 -0.134,0.248 -0.028,0.336 0.084,0.069 0.151,0.122 0.214,0.118 1.777,-0.127 3.56,-0.217 5.323,-0.452 0.505,-0.067 0.955,-0.455 0.379,-1.196 -0.39,-0.503 -0.622,-1.273 -0.605,-1.916 0.05,-1.889 0.314,-3.771 0.378,-5.66 0.013,-0.392 -0.054,-0.785 -0.138,-1.158 -0.121,-0.538 0.191,-1.139 0.705,-1.342 1.213,-0.479 2.405,-0.951 3.628,-1.435 0.514,-0.203 0.857,0.074 0.768,0.619 -0.082,0.499 -0.163,0.991 -0.247,1.483 -0.234,1.369 0.399,2.272 1.617,2.279 3.095,0.018 6.045,-0.677 8.603,-2.4 0.791,-0.532 1.486,-0.676 2.155,-0.604 0.549,0.06 0.969,0.687 0.964,1.239 -0.01,1.14 -0.029,2.246 0.018,3.349 0.074,1.796 0.642,3.634 -0.295,5.429 -0.254,0.49 -0.219,1.002 0.19,1.217 0.269,0.141 0.519,0.255 0.778,0.287 1.365,0.172 2.744,0.237 4.119,0.322 0.133,0.008 0.269,-0.008 0.403,-0.029 0.22,-0.037 0.414,-0.141 0.433,-0.228 0.02,-0.088 -0.125,-0.239 -0.323,-0.34 -0.119,-0.06 -0.239,-0.119 -0.361,-0.173 -1.7,-0.745 -2.164,-1.865 -1.489,-3.578 0.641,-1.622 1.398,-3.212 1.867,-4.883 0.454,-1.621 1.029,-3.389 0.797,-4.983 -0.358,-2.457 -2.264,-3.922 -4.093,-5.461 -0.423,-0.356 -0.871,-0.218 -1.044,0.306 -2.25,6.805 -7.771,9.02 -11.91,8.984 -0.552,-0.005 -0.953,-0.482 -0.895,-1.012 0.036,-0.32 0.08,-0.639 0.154,-0.949 0.184,-0.768 -0.093,-1.109 -0.759,-1.532 -1.186,-0.753 -2.364,-1.608 -3.296,-2.646 -0.828,-0.92 -1.654,-1.91 -2.002,-3.178 -0.146,-0.534 0.108,-0.628 0.467,-0.209 2.607,3.04 5.866,4.681 9.871,3.292 3.541,-1.229 6.985,-2.99 7.739,-7.151 0.1,-0.543 0.572,-0.992 1.125,-0.992 0.624,0 1.227,0 1.792,0 0.552,0 0.901,0.437 0.742,0.966 -0.296,0.973 -0.636,1.943 -0.396,2.739 0.26,0.864 1.096,1.554 1.907,2.302 0.406,0.374 0.935,0.311 1.16,-0.193 0.668,-1.489 0.94,-2.929 1.11,-4.426 0.218,-1.937 -0.355,-3.479 -1.871,-4.625 z M 20.811,12.178 C 18.883,12.17 17.61,10.756 17.626,8.641 c 0.018,-2.246 1.53,-4.126 3.282,-4.079 1.713,0.046 3.11,1.898 3.11,4.124 0,2.142 -1.247,3.5 -3.207,3.492 z"
         id="path4602" />
    </g>
    <g
       transform="matrix(0.01324242,0.01818921,-0.01818921,0.01324242,18.805188,275.47807)"
       id="g5000"
       style="fill:#c4c3c1;fill-opacity:1">
      <path
         inkscape:connector-curvature="0"
         d="m 140.457,0.394 c 0,0 7.837,-2.476 10.869,4.987 0,0 11.624,12.909 12.891,22.213 0,0 0.481,2.841 -2.283,4.375 -2.064,1.124 -4.872,3.922 -6.723,6.187 0,0 -6.235,7.843 -17.537,7.843 0,0 -1.498,-0.161 -4.664,7.17 -1.607,3.742 -5.998,9.378 -9.219,13.713 -1.955,2.618 -4.592,9.578 -5.304,11.661 -1.565,4.494 -2.027,15.637 -0.384,18.803 0,0 5.176,12.243 6.576,17.674 0.092,0.329 2.497,7.447 1.285,17.708 -0.116,0.998 -0.786,4.896 -1.041,7.203 -0.372,3.301 -0.25,10.133 1.017,13.25 1.212,2.983 4.853,5.742 5.87,13.506 1.028,7.581 -1.157,18.541 -0.311,25.13 0.475,3.684 2.137,8.951 9.225,12.337 0,0 6.729,1.631 3.708,3.908 0,0 -7.757,0.293 -12.306,-1.382 0,0 -7.752,0.615 -8.763,-2.259 0,0 0.019,-2.253 0.847,-4.08 0,0 -1.705,-11.277 -7.258,-18.693 -4.007,-5.353 -4.875,-7.575 -2.838,-26.762 0,0 -6.327,-4.001 -10.068,-18.444 -1.096,-4.25 -2.786,-11.575 -4.141,-17.019 0,0 -9.715,20.386 -8.884,30.634 0,0 4.625,10.504 5.237,14.499 0.518,3.416 0.411,8.926 -1.023,13.755 -1.483,4.993 1.696,16.604 2.707,20.538 0,0 2.512,6.79 -2.356,6.632 0,0 -8.424,-1.06 -11.125,0.913 0,0 -9.608,1.182 -11.615,0.293 0,0 -3.206,-1.2 2.189,-3.617 0,0 5.736,-0.152 7.742,-3.77 0,0 2.533,-3.026 3.367,-3.489 0,0 -3.528,-8.823 -6.938,-21.586 -1.303,-4.914 -2.177,-16.246 -2.975,-21.251 -0.505,-3.117 1.148,-10.443 0.149,-13.481 -2.625,-8.05 -6.677,-14.176 -0.351,-33.521 0,0 3.438,-8.12 5.396,-12.69 2.667,-6.235 2.862,-17.527 0,-26.731 0,0 -5.718,-8.162 -6.056,-15.999 0,0 0.682,-5.124 -7.587,-4.98 0,0 -6.223,1.363 -16.499,-8.175 l -6.068,-4.521 c 0,0 -3.212,-1.589 0.149,-10.425 0,0 5.83,-11.094 8.948,-14.34 l 2.183,-4.549 c 0,0 1.939,-5.054 10.282,-2.855 0,0 4.795,0.682 4.034,3.538 0,0 1.178,8.972 -1.677,7.849 0,0 -1.358,-0.743 -1.684,-2.563 0,0 -4.214,-0.204 -5.148,-1.428 0,0 -2.189,6.865 -3.273,8.077 0,0 1.083,9.8 0.155,11.776 0,0 8.765,-4.533 14.333,3.404 0,0 10.781,-3.246 15.077,2.563 0,0 7.334,5.532 8.494,-1.132 l -0.158,-4.01 c 0,0 -1.023,-2.415 -1.264,-4.153 0,0 -1.854,1.133 -2.451,-3.86 0,0 -1.087,-3.248 1.184,-2.719 0,0 -3.796,-9.883 6.564,-12.602 0,0 13.472,-3.081 12.291,11.627 0,0 4.89,-1.145 0,7.395 0,0 -1.452,-0.329 -1.179,0.32 0.174,0.38 0.436,4.458 0.436,4.458 0,0 0.329,6.418 5.889,5.355 0,0 9.931,-6.957 14.735,-3.023 0,0 6.32,-8.007 14.833,-3.766 0,0 2.691,0.441 3.459,-1.888 0,0 -5.316,-4.311 -4.037,-16.087 0,0 -0.414,-4.153 -2.29,-3.182 l -1.863,0.356 c 0,0 -0.407,3.047 -5.888,2.755 0,0 0.194,1.054 -0.067,1.272 -0.858,0.731 -3.744,0.579 -4.725,0 -2.247,-1.315 -2.479,-7.8 2.697,-9.292 z"
         id="path4998"
         style="fill:#c4c3c1;fill-opacity:1" />
    </g>
    <g
       id="g5081"
       transform="matrix(0.00516073,-0.00524798,-0.00524798,-0.00516073,5.5417702,278.99318)"
       style="fill:#c4c3c1;fill-opacity:1">
      <path
         d="m 0,0 c -21.481,-7.829 -39.348,2.008 -39.348,2.008 12.246,10.439 8.231,23.488 8.231,23.488 -1.004,2.811 -0.602,9.235 -0.602,9.235 0.504,1.915 0.704,4.897 0.778,7.392 0.065,2.164 -0.094,4.325 -0.327,6.477 -0.881,8.135 2.493,24.073 2.493,24.073 l 13.317,45.572 c 5.219,12.848 8.231,32.322 8.231,32.322 1.606,13.852 1.204,38.344 1.204,38.344 L 7.227,169.437 C 14.053,159.801 5.822,152.172 5.822,152.172 -4.216,142.737 -11.242,123.866 -11.242,123.866 -21.481,94.957 -13.451,69.863 -13.451,69.863 -8.633,47.78 26.5,33.727 26.5,33.727 c 7.026,-2.008 7.227,-8.432 7.227,-8.432 l 1.204,-12.447 z m 151.905,72.272 -5.22,7.762 c -1.07,3.614 -5.353,4.685 -5.353,4.685 -7.227,2.007 -13.15,6.926 -13.15,6.926 -8.331,4.617 -10.539,16.562 -10.539,16.562 l -15.258,59.825 c -1.004,6.224 -2.677,12.514 -2.677,12.514 -2.141,25.697 1.473,69.194 1.473,69.194 l 5.219,6.625 c 3.012,3.412 1.004,7.829 1.004,7.829 -8.833,22.886 -35.232,22.485 -35.232,22.485 -9.135,0.602 -21.046,2.275 -21.046,2.275 -2.008,0.401 0.803,9.235 0.803,9.235 3.613,10.707 -1.473,22.886 -1.473,22.886 -1.338,1.204 -0.936,4.684 -0.936,4.684 0.267,4.684 -4.149,13.116 -4.149,13.116 -0.134,10.305 -7.629,15.391 -7.629,15.391 0.39,2.303 0.126,4.43 -0.444,6.287 -1.295,4.217 -4.438,7.585 -8.357,9.609 -24.924,12.867 -46.34,-4.787 -46.34,-4.787 -19.674,2.81 -22.618,-20.21 -22.618,-20.21 -2.677,-18.603 6.29,-29.712 6.29,-29.712 9.235,-11.242 21.548,-10.171 21.548,-10.171 3.881,-15.659 17.399,-14.789 17.399,-14.789 5.018,-7.127 4.818,-17.466 4.818,-17.466 -0.803,-7.829 -23.689,-16.06 -23.689,-16.06 -26.099,-10.44 -26.701,-31.318 -26.701,-31.318 l 5.019,-2.409 3.212,-64.041 c -0.803,-14.053 -5.621,-28.307 -5.621,-28.307 -7.026,-19.674 -8.633,-58.419 -8.633,-58.419 -0.401,-8.834 -3.011,-23.89 -3.011,-23.89 -1.472,-2.945 -1.204,-6.157 -1.204,-6.157 0,-2.141 -1.071,-4.015 -1.071,-4.015 L -62.1,26.366 c -2.945,-1.874 -3.748,-5.755 -3.748,-5.755 l -3.078,-4.952 c -2.811,-4.283 -0.402,-7.495 -0.402,-7.495 -1.137,-3.413 2.109,-6.424 2.109,-6.424 -1.64,-3.614 -0.636,-7.763 -0.636,-7.763 -0.536,-2.543 -1.004,-8.13 -1.004,-8.13 l -23.288,-15.458 1.606,-2.51 21.782,12.447 c 4.015,1.807 3.313,-1.205 3.313,-1.205 -0.904,-9.234 -12.046,-21.782 -12.046,-21.782 -4.918,-4.918 -2.007,-9.736 -2.007,-9.736 7.629,-17.867 29.109,-27.303 29.109,-27.303 12.146,-5.521 7.027,4.718 7.027,4.718 l -6.826,8.933 c -6.223,6.023 0,8.633 0,8.633 10.038,7.428 27.303,22.886 27.303,22.886 21.079,8.833 60.628,10.239 60.628,10.239 l 5.019,-28.508 c 3.011,-10.84 -2.409,-27.302 -2.409,-27.302 -10.239,-19.875 -2.811,-44.167 -2.811,-44.167 l 3.012,-33.927 c 5.621,-47.78 -0.402,-51.594 -0.402,-51.594 -14.053,-11.042 -4.216,-30.515 -4.216,-30.515 6.826,-12.648 6.224,-33.727 6.224,-33.727 l 2.81,-0.602 c -2.409,-16.261 14.856,-20.477 14.856,-20.477 17.667,-6.023 15.86,8.231 15.86,8.231 0,12.451 -4.216,19.874 -4.216,19.874 l -5.621,23.69 c -6.023,25.696 5.219,84.317 5.219,84.317 11.243,50.992 9.034,91.343 9.034,91.343 2.008,5.22 2.409,14.053 2.409,14.053 l 2.744,26.968 6.692,7.763 c 28.373,1.071 37.474,18.47 37.474,18.47 11.51,16.863 -4.55,31.518 -4.55,31.518 -9.837,13.049 -36.337,39.348 -36.337,39.348 -0.401,26.098 -4.216,29.913 -4.216,29.913 1.606,34.128 -6.156,53.668 -6.156,53.668 -3.48,12.179 -1.205,17.934 -1.205,17.934 5.354,-23.02 21.28,-54.337 21.28,-54.337 4.952,-7.629 12.581,-24.359 12.581,-24.359 2.811,-9.77 7.629,-17.666 7.629,-17.666 1.338,-5.488 8.699,-14.722 8.699,-14.722 -4.55,-2.008 -2.677,-4.685 -2.677,-4.685 h 6.558 c 1.874,-1.873 3.882,0.67 3.882,0.67 l 5.487,0.401 c 5.22,-0.134 8.432,3.614 8.432,3.614 l 3.078,6.692 c 1.338,1.74 0,4.684 0,4.684"
         style="fill:#c4c3c1;fill-opacity:1;fill-rule:nonzero;stroke:none"
         id="path5083"
         inkscape:connector-curvature="0" />
    </g>
    <g
       id="g1419"
       transform="translate(0.3542884)">
      <path
         id="path5192"
         d="m 13.96633,275.69417 c 0,-0.32179 -0.06631,-0.63384 -0.187351,-0.92703 -0.06022,-0.1466 -0.135648,-0.28529 -0.225675,-0.41607 v -0.19161 H 13.41279 c -0.04015,-0.0517 -0.08211,-0.0998 -0.125911,-0.14538 -0.212904,-0.21899 -0.461086,-0.39296 -0.737249,-0.51279 -0.285895,-0.12409 -0.590038,-0.18857 -0.902697,-0.18857 -0.312659,0 -0.616802,0.0626 -0.903307,0.18675 -0.276161,0.12044 -0.524343,0.29684 -0.737243,0.51522 -0.0438,0.045 -0.08577,0.0931 -0.1259248,0.14477 h -0.186134 v 0.23236 c -0.07116,0.11801 -0.135648,0.24332 -0.189786,0.37471 -0.120444,0.29441 -0.179445,0.60585 -0.179445,0.92764 0,0.32178 0.05778,0.63383 0.178837,0.92703 0.05414,0.13138 0.119828,0.25669 0.191002,0.3747 v 1.10647 h 3.8589728 v -1.06511 c 0.09063,-0.13017 0.165455,-0.26886 0.225675,-0.41606 0.120445,-0.2932 0.186744,-0.60525 0.186744,-0.92703 z m -0.439182,-1.50856 v 0.12774 c -0.03224,-0.0468 -0.05718,-0.0888 -0.09307,-0.12774 z m -1.393586,3.81153 c -0.0438,-0.004 -0.118006,-0.0292 -0.118006,-0.0292 -0.01582,-0.0109 -0.149639,-0.0894 -0.149639,-0.0894 l -0.02433,-0.0535 c -0.0292,-0.0493 -0.01764,-0.23419 -0.01764,-0.23419 0.01338,-0.0693 -0.0091,-0.27251 -0.0091,-0.27251 -0.01338,-0.10949 0,-0.17884 0,-0.17884 0.01338,-0.0134 0.03589,-0.1028 0.03589,-0.1028 0.02433,-0.0201 0.01582,-0.16971 0.01582,-0.16971 0.01764,-0.0177 0.06691,-0.23236 0.06691,-0.23236 0,0.0359 0.153897,0.29015 0.153897,0.29015 -0.01101,0.0177 0.04684,0.16971 0.04684,0.16971 0.01338,0.18309 0.138689,0.24088 0.138689,0.24088 0.02433,0.11619 0.116184,0.2056 0.116184,0.2056 0.04015,0.0426 0.08941,0.1095 0.08941,0.1095 0.0091,0.0201 0.03345,0.076 0.03345,0.076 0,0.0377 0.01764,0.0937 0.01764,0.0937 0.01153,0.0177 0.02433,0.0274 0.03711,0.0322 -0.138081,0.0627 -0.282853,0.11132 -0.4331,0.14477 z m 1.271929,-3.80848 c -0.0122,0 -0.02555,0 -0.02555,0 -0.0025,-0.0109 -0.111923,0.0122 -0.111923,0.0122 -0.01764,0.0268 -0.07787,0.0438 -0.07787,0.0438 -0.05353,0.0158 -0.08516,0.0913 -0.08516,0.0913 -0.04258,0.004 -0.116184,0.0468 -0.116184,0.0468 -0.04441,0.0225 -0.122869,0.0401 -0.122869,0.0401 -0.203776,0.0146 -0.361931,0.16728 -0.361931,0.16728 -0.142948,0.0134 -0.256697,0.087 -0.256697,0.087 -0.176403,-0.0602 -0.250005,0.0219 -0.250005,0.0219 -0.04198,0.002 -0.116184,0.0487 -0.116184,0.0487 l -0.02981,-0.017 c 0.02311,-0.006 0.05049,-0.0505 0.05049,-0.0505 0.03405,-0.009 0.04015,-0.0864 0.04015,-0.0864 0.03405,-0.0189 0.02373,-0.0742 0.02373,-0.0742 0.03832,-0.0529 -0.01338,-0.0773 -0.01338,-0.0773 0.03589,-0.0791 -0.01272,-0.0773 -0.01272,-0.0773 -0.0085,-0.0742 -0.06144,-0.0742 -0.06144,-0.0742 -0.0018,-0.0931 -0.0657,-0.0985 -0.0657,-0.0985 -0.0042,-0.005 -0.0097,-0.007 -0.01582,-0.007 h 1.601619 c 0.0037,6.1e-4 0.0055,6.1e-4 0.0074,0.004 z m -1.938003,0.0189 c -0.04866,0.0146 -0.059,0.0754 -0.059,0.0754 -0.0657,-0.0274 -0.07178,0.0645 -0.07178,0.0645 -0.04198,0.0256 -0.0085,0.0882 -0.0085,0.0882 -0.02129,0.0274 0.01041,0.0675 0.01041,0.0675 -0.03832,0.042 0.0042,0.0949 0.0042,0.0949 -0.01041,0.0213 0.02738,0.0487 0.02738,0.0487 -0.01041,0.0256 0.03832,0.0718 0.03832,0.0718 l -0.0146,0.0128 -0.02555,-0.017 c -0.160687,-0.0906 -0.299986,-0.0444 -0.299986,-0.0444 -0.05292,-0.0487 -0.299886,-0.10584 -0.299886,-0.10584 -0.08029,-0.11192 -0.447699,-0.17944 -0.447699,-0.17944 -0.09307,-0.0316 -0.141731,-0.0614 -0.141731,-0.0614 -0.02311,-0.0547 -0.07787,-0.0864 -0.07787,-0.0864 l -0.03163,-0.0456 c -0.0037,-0.004 -0.0074,-0.005 -0.01153,-0.005 h 1.444073 c -0.02373,0.0128 -0.03467,0.0219 -0.03467,0.0219 z m -1.4896958,-0.0219 c 0.01825,0.0128 0.05231,0.0225 0.05231,0.0225 v 0.0286 c -0.01947,-0.017 -0.06813,-0.0383 -0.1003698,-0.0511 z m -0.09245,-0.005 c 0.0074,0.0231 0.07969,0.0706 0.07969,0.0706 -0.0146,-0.002 -0.08942,-0.0274 -0.08942,-0.0274 0.0042,0.0395 0.03467,0.0487 0.03467,0.0487 0.03832,0.0103 0.09123,0.0675 0.09123,0.0675 l -0.04866,-0.0146 c -0.03405,-0.0231 -0.06144,-0.0274 -0.06144,-0.0274 0.0018,0.0462 0.1234848,0.0846 0.1234848,0.0846 0.08029,0.087 0.140515,0.076 0.140515,0.076 0.01764,0.0177 0.163022,0.0846 0.163022,0.0846 0.180661,0.15207 0.40816,0.16788 0.40816,0.16788 0.04684,0.0426 0.267647,0.12288 0.267647,0.12288 0,0 0.07603,0.0158 -0.0091,0 -0.08516,-0.0158 -0.207426,0.0122 -0.207426,0.0122 -0.06265,0.0177 -0.104618,-0.0122 -0.104618,-0.0122 -0.136256,-0.0401 -0.388695,-0.0109 -0.388695,-0.0109 -0.0292,0.007 -0.189785,-0.009 -0.189785,-0.009 -0.03771,-0.0335 -0.1052378,-0.0493 -0.1052378,-0.0493 l -0.03589,-0.011 c -0.02919,-0.0243 -0.06935,-0.0134 -0.06935,-0.0134 -0.05353,-0.002 -0.0736,0.004 -0.0736,0.004 -0.0042,0.0426 0.08029,0.0268 0.08029,0.0268 l 0.03345,0.0158 c -0.05109,0.002 -0.06265,0.0109 -0.06265,0.0109 l -0.03771,-0.002 c -0.02919,0 -0.09123,0.0225 -0.09123,0.0225 -0.0042,0.0243 0.05961,0.0201 0.05961,0.0201 0.09185,0.002 0.09185,0.0201 0.09185,0.0201 l -0.06935,0.004 c -0.06265,0 -0.06935,0.009 -0.06935,0.009 -0.0025,0.0335 0.165455,0.0335 0.165455,0.0335 l -0.06935,0.009 c -0.03771,-0.002 -0.04928,0.0134 -0.04928,0.0134 -0.0025,0.0292 0.14538,0.011 0.14538,0.011 l 0.06022,0.0158 c 0.03345,0.0158 0.1386898,0 0.1386898,0 0.05353,-0.009 0.153898,0.0176 0.153898,0.0176 0.250006,0.0669 0.397211,0.0158 0.397211,0.0158 0.0511,0.0292 0.225675,0.0109 0.225675,0.0109 0.05596,0.0335 0.187353,0.0292 0.187353,0.0292 0.08029,-0.0158 0.120443,0.0292 0.120443,0.0292 0.0025,0.0511 0.05778,0.13199 0.05778,0.13199 0.0025,0.132 0.08699,0.31692 0.08699,0.31692 -0.01101,0 -0.02433,0.0894 -0.02433,0.0894 -0.02677,0.0535 -0.01582,0.12288 -0.01582,0.12288 -0.01582,0.002 -0.03589,0.12043 -0.03589,0.12043 -0.01088,0.0225 -0.03101,0.12531 -0.03101,0.12531 -0.04258,0.0377 -0.140514,0.26339 -0.140514,0.26339 l -0.04928,0.14295 c -0.02677,0.0468 -0.04258,0.20742 -0.04258,0.20742 -0.04441,0.0401 -0.113745,0.17215 -0.113745,0.17215 l -0.132044,0.14052 c -0.100371,0.0827 -0.13869,0.27251 -0.13869,0.27251 -0.01101,0.0268 -0.06448,0.29685 -0.06448,0.29685 0,0.0268 -0.06022,0.13199 -0.06022,0.13199 -0.01764,0.009 -0.06935,0.0468 -0.06935,0.0468 -0.03953,-0.007 -0.0596,0.0128 -0.06631,0.0262 -0.259091,-0.17822 -0.4871988,-0.40876 -0.6611698,-0.67823 v -2.58522 c 0.0511,-0.0773 0.107663,-0.15086 0.164846,-0.22081 z m 0.7171698,3.60896 c 0.04684,-0.002 0.03467,-0.0803 0.03467,-0.0803 0,0 -0.0122,-0.0444 0.0097,-0.0602 0.02251,-0.0158 0.03345,-0.087 0.03345,-0.087 0.0042,-0.0493 0.04258,-0.11375 0.04258,-0.11375 0.0292,-0.0426 0.105238,-0.17397 0.105238,-0.17397 0.0736,-0.0511 0.12287,-0.2123 0.12287,-0.2123 0.02251,-0.0937 0.09185,-0.17883 0.09185,-0.17883 0.05778,-0.0335 0.129568,-0.14052 0.129568,-0.14052 0.02919,-0.0268 0.06935,-0.0961 0.06935,-0.0961 0.01582,-0.0402 0.05353,-0.132 0.04684,-0.0919 -6.11e-4,0.002 -6.11e-4,0.005 -6.11e-4,0.009 6.11e-4,0.056 0.05414,0.24575 0.05414,0.24575 -0.0292,0.0359 -0.04015,0.24332 -0.04015,0.24332 l -0.03589,0.1539 c -0.03589,0.17883 0.04928,0.36618 0.04928,0.36618 -0.01338,0.0444 0.109484,0.26765 0.109484,0.26765 -0.0042,0.0243 -0.0025,0.0961 -0.0025,0.0961 -0.03589,0.0268 -0.0091,0.0669 -0.0091,0.0669 -0.0037,0.0182 0.02799,0.0335 0.04015,0.0383 -0.306577,-0.0268 -0.59673,-0.11557 -0.857076,-0.25426 0.0037,10e-4 0.006,0.002 0.006,0.002 z m 1.066936,0.26096 c 0.0055,-0.0584 -0.04928,-0.0687 -0.04928,-0.0687 l -0.03345,-0.0669 c -0.0025,-0.0426 -0.02251,-0.0779 -0.02251,-0.0779 -0.03101,-0.0359 -0.04015,-0.12288 -0.04015,-0.12288 0.0025,-0.0645 -0.01764,-0.15876 -0.01764,-0.15876 l -0.0025,-0.0627 c 0.01764,-0.076 -0.0067,-0.23905 -0.0067,-0.23905 -0.02433,-0.0894 0,-0.16728 0,-0.16728 0.02251,-0.0158 0.03771,-0.11862 0.03771,-0.11862 0.02007,-0.0292 0.02311,-0.16728 0.02311,-0.16728 0.0048,-0.15815 0.02919,-0.24149 0.04624,-0.28103 -0.01101,0.0967 0.02433,0.36133 0.02433,0.36133 0,0.0779 -0.05353,0.3303 -0.05353,0.3303 -0.05596,0.19222 0.04441,0.3303 0.04441,0.3303 -0.02007,0.0535 0.02981,0.22324 0.02981,0.22324 0.03405,0.0627 0.04136,0.16971 0.04136,0.16971 -0.02433,0.056 -0.02251,0.0894 -0.02251,0.0894 0.003,0.0116 0.0085,0.0201 0.01642,0.0262 -0.0042,5.3e-4 -0.0097,5.3e-4 -0.0152,5.3e-4 z m 1.248204,-0.39904 c -0.0018,-0.0304 -0.04928,-0.0274 -0.04928,-0.0274 -0.01338,-0.0225 -0.09489,0.011 -0.09489,0.011 -0.01338,-0.007 -0.113143,0 -0.113143,0 -0.08272,-0.0493 -0.142334,-0.30171 -0.142334,-0.30171 -0.03589,-0.1764 -0.156331,-0.33942 -0.156331,-0.33942 -0.05778,-0.0645 -0.05778,-0.0961 -0.05778,-0.0961 -0.01582,-0.12956 -0.04684,-0.16302 -0.04684,-0.16302 -0.04684,-0.0645 -0.04928,-0.13625 -0.04928,-0.13625 0.01101,-0.12045 -0.04015,-0.2123 -0.04015,-0.2123 -0.01338,-0.076 -0.08455,-0.21412 -0.08455,-0.21412 0,-0.0109 -0.0736,-0.15389 -0.0736,-0.15389 0.01338,-0.0669 -0.02433,-0.16971 -0.02433,-0.16971 L 11.947434,275.73 c 0.0292,-0.0645 -0.0025,-0.13382 -0.0025,-0.13382 0,-0.0109 -0.01101,-0.0961 -0.01101,-0.0961 0.01764,-0.0225 0.04258,-0.1539 0.04258,-0.1539 0.04015,-0.0693 0.04928,-0.17884 0.04928,-0.17884 l 0.01101,-0.0377 c 0.03589,-0.0937 0.131998,-0.10523 0.131998,-0.10523 0.04015,0.0243 0.192218,-0.007 0.192218,-0.007 0.04684,0.0109 0.216551,-0.009 0.216551,-0.009 0.111923,0.0894 0.397211,-0.009 0.397211,-0.009 0.07787,-0.0134 0.20986,-0.0134 0.20986,-0.0134 0.01582,0.009 0.127129,0 0.127129,0 l 0.04684,-0.0134 c 0.118621,-0.004 0.131998,-0.031 0.131998,-0.031 -0.0067,-0.0243 -0.12287,0 -0.12287,0 l 0.0067,-0.0243 0.08942,-6.1e-4 c 0.05352,0.004 0.04441,-0.0359 0.04441,-0.0359 0.01219,6.2e-4 0.02069,-6.1e-4 0.02069,-0.003 v 2.14789 c -0.163028,0.24757 -0.369846,0.45926 -0.611335,0.62593 z m -0.184922,0.1174 c -0.02495,0.014 -0.05048,0.0274 -0.07665,0.0408 0.01703,-0.031 0.05353,-0.045 0.05353,-0.045 0.0079,0.003 0.01582,0.004 0.02311,0.004 z m 0.794422,-2.92099 c -0.01272,-0.0116 -0.03832,-0.0128 -0.03832,-0.0128 0.01338,0 0.01582,-0.017 0.01582,-0.017 -0.02251,-0.0292 -0.122869,-0.0268 -0.122869,-0.0268 h -0.04258 c -0.07603,-0.0128 -0.147205,0.0511 -0.147205,0.0511 -0.01582,-0.002 -0.05596,0.003 -0.05596,0.003 -0.04684,0.0176 -0.192218,10e-4 -0.192218,10e-4 -0.133822,-0.0243 -0.355239,0.0195 -0.355239,0.0195 -0.07786,-0.031 -0.244533,-0.0189 -0.244533,-0.0189 0.06204,-0.009 0.274338,-0.12896 0.274338,-0.12896 0.155114,-0.009 0.253047,-0.0985 0.253047,-0.0985 0.16363,-0.12835 0.299886,-0.15268 0.299886,-0.15268 0.03467,0.007 0.07665,-0.0146 0.07665,-0.0146 0.01642,-0.0164 0.06022,-0.0529 0.06022,-0.0529 0.0146,-0.005 0.07665,-0.0511 0.07665,-0.0511 0.0438,-0.0347 0.02615,-0.0548 0.02615,-0.0548 -0.0146,-0.002 -0.103398,0.0614 -0.103398,0.0614 v -0.0158 l 0.03345,-0.0274 c 0.0146,-0.005 0.05292,-0.0359 0.05292,-0.0359 0.05596,-0.0243 0.04988,-0.0426 0.04988,-0.0426 -0.03042,-0.01 -0.11558,0.0359 -0.11558,0.0359 l 0.0048,-0.0177 c 0.0657,-0.0304 0.07907,-0.0456 0.08333,-0.0499 0.04076,0.0511 0.07847,0.10401 0.11132,0.15815 z m -1.880214,-1.50064 c 0.690406,0 1.31025,0.309 1.731185,0.81206 H 9.9157462 c 0.4209368,-0.50306 1.0407808,-0.81207 1.7311868,-0.81207 z m -1.9270548,0.83821 h 0.139299 c -0.04624,0.0517 -0.09429,0.10585 -0.139299,0.16668 z m -0.376529,1.50856 c 0,-0.45926 0.13139,-0.88871 0.350981,-1.25125 v 2.5031 c -0.219596,-0.36315 -0.350987,-0.7926 -0.350987,-1.25185 z m 0.376529,1.34188 c 0.08395,0.12226 0.178227,0.23662 0.2816358,0.34246 0.212903,0.21899 0.463516,0.39539 0.739679,0.51522 0.221416,0.0961 0.455607,0.15633 0.694664,0.18249 H 9.7198832 Z m 3.8072688,1.04078 h -1.669748 c 0.04015,-0.007 0.07969,-0.0134 0.119225,-0.0189 0.06265,0.0164 0.219591,0.009 0.219591,0.009 0.01338,0 0.01338,-0.0341 0.01338,-0.0341 6.12e-4,-0.01 -0.0055,-0.017 -0.0146,-0.0219 0.120445,-0.0298 0.239058,-0.0706 0.354025,-0.12044 0.276162,-0.11983 0.519477,-0.29198 0.732376,-0.51096 0.09186,-0.0943 0.174578,-0.19587 0.245139,-0.30354 v 1.00124 z m 0.02615,-3.67649 c 0.239058,0.37166 0.377748,0.81632 0.377748,1.29383 0,0.4775 -0.13869,0.92216 -0.377748,1.29382 z"
         style="fill:#c4c3c1;fill-opacity:1;stroke:#d2ccc9;stroke-width:0.03;stroke-miterlimit:4;stroke-dasharray:none;stroke-opacity:1"
         inkscape:connector-curvature="0" />
    </g>
  </g>
</svg>
