<?xml version="1.0" encoding="UTF-8" standalone="no"?>
<svg
   xmlns:dc="http://purl.org/dc/elements/1.1/"
   xmlns:cc="http://creativecommons.org/ns#"
   xmlns:rdf="http://www.w3.org/1999/02/22-rdf-syntax-ns#"
   xmlns:svg="http://www.w3.org/2000/svg"
   xmlns="http://www.w3.org/2000/svg"
   xmlns:xlink="http://www.w3.org/1999/xlink"
   id="svg8"
   version="1.1"
   viewBox="0 0 500 500"
   height="505"
   width="500">
  <defs
     id="defs2">
    <clipPath
       id="clipPath6346"
       clipPathUnits="userSpaceOnUse">
      <path
         id="path6348"
         d="m 73.00262,76.07201 c 0,0 66.52579,-73.35172 176.99699,-73.57355 110.47121,-0.22183 177.68131,74.23903 177.68131,74.23903 l -85.55149,85.10783 c 0,0 -35.40693,-38.95462 -92.12982,-38.67886 -58.49727,0.28438 -91.7054,38.27326 -91.7054,38.27326 z"
         style="fill:none;stroke:#e81f00;stroke-width:1px;stroke-linecap:butt;stroke-linejoin:miter;stroke-opacity:0.6655949" />
    </clipPath>
  </defs>
  <metadata
     id="metadata817">
    <rdf:RDF>
      <cc:Work
         rdf:about="">
        <dc:title></dc:title>
      </cc:Work>
    </rdf:RDF>
  </metadata>
  <g
     clip-path="url(#clipPath6346)"
     id="scale">
    <circle
       style="fill:none;fill-opacity:1;stroke:none;stroke-width:0.1;stroke-miterlimit:4;stroke-dasharray:none;stroke-opacity:1"
       id="clippreventioncircle"
       cx="250"
       cy="252.5"
       r="250" />
    <g
       id="completescale">
      <g
         id="scaleplate">
        <circle
           r="250"
           cy="252.5"
           cx="250"
           id="bluebackgroundcircle"
           style="fill:#0b1d62;fill-opacity:1;stroke:none;stroke-width:32.08246994;stroke-miterlimit:4;stroke-dasharray:none;stroke-opacity:1" />
        <g
           id="scalenumbers">
          <path
             d="m 237.22281,31.51772 2.57562,-0.11373 -0.39253,-8.88977 -2.77715,0.68567 -0.0634,-1.4361 2.76153,-0.68499 1.57659,-0.0696 0.45595,10.32588 2.57561,-0.11373 0.0586,1.32683 -6.7122,0.29638 z"
             style="fill:#dddddd;fill-opacity:1;stroke:none"
             id="path9780" />
          <path
             d="m 248.55066,31.15897 5.5078,0.009 -0.002,1.32813 -7.40624,-0.0119 0.002,-1.32813 q 0.89993,-0.92824 2.4493,-2.48826 1.5572,-1.56782 1.95637,-2.0203 0.75918,-0.85035 1.057,-1.43581 0.30564,-0.59326 0.30654,-1.16357 0.001,-0.92969 -0.6538,-1.51667 -0.64751,-0.58698 -1.69438,-0.58866 -0.74218,-10e-4 -1.57072,0.25529 -0.82072,0.2565 -1.75906,0.77843 l 0.003,-1.59375 q 0.95375,-0.38128 1.78219,-0.57526 0.82844,-0.19399 1.51594,-0.19288 1.81248,0.003 2.88916,0.91088 1.07667,0.90798 1.07424,2.4236 -0.001,0.71875 -0.27563,1.36675 -0.26665,0.6402 -0.979,1.51406 -0.19568,0.22625 -1.24429,1.3105 -1.04861,1.07645 -2.95797,3.0187 z"
             style="fill:#dddddd;fill-opacity:1;stroke:none"
             id="path9782" />
          <path
             d="m 261.25396,22.12761 q -1.21737,-0.0581 -1.89119,1.11427 -0.66564,1.16491 -0.7803,3.56843 -0.11431,2.39571 0.43704,3.62651 0.55953,1.22337 1.77689,1.28145 1.22517,0.0584 1.89082,-1.10647 0.67382,-1.17234 0.78812,-3.56806 0.11467,-2.40351 -0.44485,-3.62688 -0.55135,-1.2308 -1.77653,-1.28925 z m 0.0596,-1.24858 q 1.95871,0.0935 2.9147,1.69551 0.96417,1.59464 0.82344,4.54441 -0.14036,2.94196 -1.25233,4.44537 -1.10379,1.49597 -3.0625,1.40253 -1.95871,-0.0935 -2.92287,-1.68809 -0.95599,-1.60206 -0.81563,-4.54403 0.14073,-2.94977 1.24452,-4.44574 1.11197,-1.50341 3.07067,-1.40996 z"
             style="fill:#dddddd;fill-opacity:1;stroke:none"
             id="path9784" />
          <path
             d="m 346.60167,53.2987 2.30263,1.15958 4.00231,-7.94756 -2.75799,-0.75909 0.64656,-1.28389 2.74402,0.75206 1.40949,0.70981 -4.64886,9.23145 2.30263,1.15958 -0.59736,1.1862 -6.00079,-3.02193 z"
             style="fill:#dddddd;fill-opacity:1;stroke:none"
             id="path9786" />
          <path
             d="m 356.6594,58.52454 4.79935,2.70226 -0.65161,1.15729 -6.4536,-3.63368 0.65161,-1.15729 q 1.239,-0.36931 3.3535,-0.97189 2.12516,-0.60556 2.69466,-0.80492 1.07812,-0.37023 1.62428,-0.73514 0.55681,-0.36789 0.83661,-0.86485 0.45613,-0.8101 0.17177,-1.64264 -0.27756,-0.82871 -1.18978,-1.34233 -0.64672,-0.36414 -1.4948,-0.54578 -0.8413,-0.17782 -1.91501,-0.18167 l 0.78193,-1.38875 q 1.01835,0.13406 1.83577,0.37016 0.81743,0.23611 1.4165,0.57342 1.57936,0.88925 2.07418,2.20788 0.49483,1.31864 -0.24878,2.63931 -0.35263,0.6263 -0.90903,1.05717 -0.54577,0.42791 -1.59455,0.84155 -0.28135,0.1016 -1.72636,0.53423 -1.44117,0.42583 -4.05664,1.18567 z"
             style="fill:#dddddd;fill-opacity:1;stroke:none"
             id="path9788" />
          <path
             d="m 369.86074,54.20178 5.25228,3.28564 -0.70436,1.12596 -4.02697,-2.51913 -1.51645,2.42413 q 0.35358,0.083 0.674,0.2189 0.32458,0.12932 0.616,0.31162 1.65583,1.03583 2.0552,2.54814 0.39937,1.51232 -0.57017,3.06217 -0.99853,1.59622 -2.54723,1.86225 -1.54456,0.2594 -3.35272,-0.87172 -0.62259,-0.38947 -1.20538,-0.90149 -0.57617,-0.50787 -1.13241,-1.15072 l 0.84109,-1.34453 q 0.39308,0.69744 0.92948,1.25415 0.5364,0.55672 1.24509,1.00005 1.14583,0.7168 2.19183,0.53255 1.04599,-0.18425 1.69235,-1.21748 0.64635,-1.03324 0.35444,-2.05444 -0.29191,-1.02119 -1.43775,-1.73798 -0.53648,-0.33561 -1.14755,-0.552 -0.60444,-0.21224 -1.31825,-0.30859 z"
             style="fill:#dddddd;fill-opacity:1;stroke:none"
             id="path9790" />
          <path
             d="m 434.35546,129.92072 1.3991,2.16547 7.47414,-4.82903 -1.99452,-2.05051 1.20741,-0.7801 1.98604,2.03737 0.85642,1.32553 -8.68154,5.60914 1.3991,2.16546 -1.11554,0.72075 -3.64615,-5.64333 z"
             style="fill:#dddddd;fill-opacity:1;stroke:none"
             id="path9792" />
          <path
             d="m 446.39411,139.97976 q 0.36062,1.10085 0.0173,2.03293 -0.33937,0.93883 -1.31162,1.50483 -1.49214,0.86864 -2.90654,0.31796 -1.4144,-0.55067 -2.51495,-2.44117 -0.36946,-0.63466 -0.63423,-1.38452 -0.26759,-0.73917 -0.43441,-1.60029 l 1.3166,-0.76645 q -6.8e-4,0.75975 0.22358,1.53319 0.22426,0.77343 0.65268,1.50938 0.7468,1.28283 1.6423,1.65647 0.89943,0.38039 1.86493,-0.18168 0.89124,-0.51882 1.02533,-1.43759 0.14477,-0.91595 -0.50376,-2.03 l -0.68391,-1.1748 1.1208,-0.65247 0.71535,1.22882 q 0.58564,1.00602 1.29451,1.30751 0.71561,0.29756 1.47181,-0.14266 0.77645,-0.45201 0.86601,-1.24541 0.10024,-0.79059 -0.4972,-1.81686 -0.32623,-0.56039 -0.82116,-1.13106 -0.49493,-0.57067 -1.19958,-1.19101 l 1.21532,-0.70749 q 0.66807,0.65067 1.16914,1.26296 0.50501,0.61904 0.85483,1.21995 0.90401,1.5529 0.72177,2.87034 -0.1755,1.31351 -1.37731,2.01314 -0.83722,0.48738 -1.69694,0.34603 -0.85296,-0.14528 -1.59067,-0.90005 z"
             style="fill:#dddddd;fill-opacity:1;stroke:none"
             id="path9794" />
          <path
             d="m 454.59168,145.93601 q -0.56351,-1.08065 -1.91567,-1.07163 -1.34163,0.0123 -3.47523,1.1249 -2.12667,1.10894 -2.91172,2.20555 -0.77451,1.09992 -0.21101,2.18058 0.56712,1.08758 1.90875,1.07524 1.35217,-0.009 3.47884,-1.11797 2.1336,-1.11256 2.90811,-2.21248 0.78505,-1.0966 0.21793,-2.18419 z m 1.10836,-0.57795 q 0.90666,1.73875 0.005,3.37198 -0.89118,1.63654 -3.50969,3.00195 -2.61158,1.3618 -4.47054,1.1593 -1.84841,-0.19918 -2.75507,-1.93793 -0.90666,-1.73875 -0.0155,-3.37529 0.90172,-1.63323 3.5133,-2.99503 2.61852,-1.36541 4.46693,-1.16623 1.85895,0.2025 2.7656,1.94125 z"
             style="fill:#dddddd;fill-opacity:1;stroke:none"
             id="path9796" />
          <path
             d="m 471.02292,240.47675 0.10507,2.57598 8.89104,-0.36264 -0.67633,-2.77943 1.4363,-0.0586 0.6757,2.76382 0.0643,1.57682 -10.32735,0.42122 0.10507,2.57599 -1.32702,0.0541 -0.27381,-6.71317 z"
             style="fill:#dddddd;fill-opacity:1;stroke:none"
             id="path9798" />
          <path
             d="m 476.28728,255.25259 q -0.24784,1.13159 -1.01662,1.76057 -0.76882,0.6368 -1.8938,0.63118 -1.72654,-0.009 -2.6659,-1.20083 -0.93939,-1.1922 -0.92845,-3.37967 0.004,-0.73437 0.156,-1.51487 0.14449,-0.77272 0.43768,-1.5994 l 1.52341,0.008 q -0.38609,0.65433 -0.5853,1.4346 -0.19921,0.78026 -0.20346,1.63181 -0.007,1.48436 0.57466,2.26071 0.58203,0.78417 1.6992,0.78975 1.03125,0.005 1.61298,-0.71852 0.58952,-0.71581 0.59596,-2.00486 l 0.007,-1.35936 1.29685,0.006 -0.007,1.42185 q -0.006,1.16405 0.45204,1.78353 0.46566,0.61952 1.34065,0.62389 0.89843,0.004 1.37819,-0.63375 0.48753,-0.63038 0.49345,-1.81787 0.003,-0.64843 -0.13368,-1.39131 -0.13691,-0.74288 -0.42934,-1.63498 l 1.40623,0.007 q 0.24552,0.89967 0.36661,1.68153 0.12106,0.78968 0.11759,1.48498 -0.009,1.79686 -0.8345,2.83962 -0.81772,1.04281 -2.20833,1.03586 -0.96873,-0.005 -1.63783,-0.56287 -0.66129,-0.55799 -0.91399,-1.58271 z"
             style="fill:#dddddd;fill-opacity:1;stroke:none"
             id="path9800" />
          <path
             d="m 481.54086,261.23815 -0.31634,6.18723 -1.32639,-0.0678 0.24254,-4.74381 -2.85565,-0.146 q 0.0995,0.34929 0.13655,0.69538 0.0449,0.34649 0.0273,0.6898 -0.0997,1.95057 -1.22689,3.03506 -1.12715,1.08448 -2.95289,0.99114 -1.88036,-0.0961 -2.86603,-1.31994 -0.97787,-1.2234 -0.86897,-3.35343 0.0375,-0.73342 0.20143,-1.49166 0.16353,-0.75045 0.45469,-1.54912 l 1.58387,0.081 q -0.41821,0.68266 -0.64377,1.42211 -0.22555,0.73945 -0.26823,1.57429 -0.069,1.3498 0.60071,2.17414 0.66972,0.82433 1.88688,0.88656 1.21716,0.0622 1.96746,-0.6895 0.7503,-0.75173 0.81931,-2.10153 0.0323,-0.63199 -0.0758,-1.27116 -0.10853,-0.63136 -0.3715,-1.30191 z"
             style="fill:#dddddd;fill-opacity:1;stroke:none"
             id="path9802" />
          <path
             d="m 448.8675,349.78033 -1.16745,2.29865 7.93383,4.02947 0.76852,-2.75537 1.28167,0.65094 -0.76145,2.74144 -0.71461,1.40705 -9.2155,-4.6804 -1.16745,2.29865 -1.18415,-0.60142 3.04243,-5.99042 z"
             style="fill:#dddddd;fill-opacity:1;stroke:none"
             id="path9804" />
          <path
             d="m 449.93137,366.83191 -3.44853,-6.53857 -1.96666,3.46518 z m 1.40022,0.31859 -0.97949,1.72579 -6.61102,-3.75208 -0.82137,1.44722 -1.14147,-0.64784 0.82137,-1.44722 -2.39166,-1.35738 0.7751,-1.36569 2.39165,1.35738 2.59909,-4.57948 1.32493,0.75196 z"
             style="fill:#dddddd;fill-opacity:1;stroke:none"
             id="path9806" />
          <path
             d="m 445.21474,375.32399 q 0.64987,-1.03103 -0.0388,-2.19469 -0.68627,-1.15289 -2.72189,-2.43597 -2.02901,-1.27891 -3.37175,-1.40494 -1.3403,-0.11525 -1.99017,0.91578 -0.65404,1.03764 0.0322,2.19052 0.68871,1.16367 2.71772,2.44258 2.03562,1.28308 3.37592,1.39833 1.34275,0.12603 1.99679,-0.91161 z m 1.05745,0.66653 q -1.04563,1.6589 -2.91073,1.70231 -1.86267,0.0542 -4.36093,-1.52051 -2.49165,-1.57052 -3.25281,-3.27854 -0.75873,-1.69725 0.2869,-3.35615 1.04563,-1.65889 2.9083,-1.71307 1.86511,-0.0434 4.35676,1.52711 2.49826,1.57469 3.25698,3.27194 0.76117,1.70802 -0.28447,3.36691 z"
             style="fill:#dddddd;fill-opacity:1;stroke:none"
             id="path9808" />
          <path
             d="m 371.94705,437.27272 -2.17025,1.39168 4.80341,7.49063 2.05732,-1.98749 0.77597,1.21008 -2.04417,1.97905 -1.32845,0.85188 -5.57937,-8.7007 -2.17025,1.39168 -0.71692,-1.11801 5.65578,-3.6268 z"
             style="fill:#dddddd;fill-opacity:1;stroke:none"
             id="path9810" />
          <path
             d="m 364.23302,452.51789 0.33612,-7.3846 -3.45027,1.99273 z m 1.04624,0.98359 -1.71836,0.99246 -3.80183,-6.58255 -1.44099,0.83226 -0.65643,-1.13655 1.44099,-0.83226 -1.37538,-2.38136 1.35981,-0.78537 1.37538,2.38136 4.55975,-2.63353 0.76192,1.31921 z"
             style="fill:#dddddd;fill-opacity:1;stroke:none"
             id="path9812" />
          <path
             d="m 359.32371,456.83385 -5.50313,2.84558 -0.61003,-1.17975 4.21931,-2.18172 -1.31335,-2.53991 q -0.25152,0.26198 -0.53174,0.46844 -0.27664,0.21341 -0.58198,0.3713 -1.73492,0.89709 -3.23971,0.47026 -1.5048,-0.42683 -2.34447,-2.05071 -0.8648,-1.67246 -0.30469,-3.14063 0.56369,-1.46123 2.45821,-2.44085 0.65233,-0.33731 1.38984,-0.57793 0.73056,-0.23704 1.56711,-0.38816 l 0.72843,1.40875 q -0.8004,-0.0171 -1.55272,0.16084 -0.75232,0.17793 -1.49487,0.56189 -1.20056,0.62079 -1.57493,1.61472 -0.37436,0.99393 0.18543,2.07652 0.55979,1.08258 1.58722,1.35167 1.02745,0.26908 2.22801,-0.35171 0.56211,-0.29065 1.05963,-0.70623 0.49059,-0.41198 0.93717,-0.97711 z"
             style="fill:#dddddd;fill-opacity:1;stroke:none"
             id="path9814" />
          <path
             d="m 261.26585,473.56179 -2.57633,0.0964 0.33274,8.89221 2.78169,-0.66698 0.0538,1.4365 -2.76608,0.66639 -1.57702,0.059 -0.38649,-10.32871 -2.57632,0.0964 -0.0497,-1.3272 6.71405,-0.25123 z"
             style="fill:#dddddd;fill-opacity:1;stroke:none"
             id="path9816" />
          <path
             d="m 251.19284,484.19103 -6.19509,-0.0519 0.0111,-1.32808 4.74984,0.0398 0.024,-2.85928 q -0.34472,0.1143 -0.68892,0.16611 -0.34426,0.0596 -0.688,0.0567 -1.95305,-0.0164 -3.08466,-1.09621 -1.13161,-1.07984 -1.11629,-2.9079 0.0158,-1.88275 1.1964,-2.91976 1.18055,-1.0292 3.31329,-1.01132 0.73435,0.006 1.4989,0.13757 0.75673,0.13135 1.56711,0.38816 l -0.0133,1.58588 q -0.69989,-0.3887 -1.44829,-0.58248 -0.7484,-0.19378 -1.58431,-0.20079 -1.35152,-0.0113 -2.14651,0.69296 -0.795,0.7043 -0.80522,1.92301 -0.0102,1.21871 0.77286,1.93623 0.78307,0.71753 2.13459,0.72887 0.63279,0.005 1.26676,-0.13001 0.62615,-0.13538 1.28487,-0.42674 z"
             style="fill:#dddddd;fill-opacity:1;stroke:none"
             id="path9818" />
          <path
             d="m 237.17104,482.78892 q 1.21693,0.0664 1.89874,-1.10134 0.67357,-1.16035 0.80465,-3.56303 0.13064,-2.39487 -0.4123,-3.6294 -0.55117,-1.22716 -1.76811,-1.29354 -1.22474,-0.0668 -1.89832,1.09353 -0.6818,1.16772 -0.81244,3.5626 -0.13107,2.40268 0.42009,3.62984 0.54294,1.23453 1.76769,1.30134 z m -0.0681,1.24814 q -1.95803,-0.10681 -2.90306,-1.71536 -0.95327,-1.60118 -0.79241,-4.54992 0.16043,-2.94094 1.28263,-4.43672 1.11397,-1.48841 3.072,-1.3816 1.95803,0.10681 2.91129,1.70799 0.94504,1.60855 0.78461,4.54949 -0.16086,2.94874 -1.27483,4.43715 -1.1222,1.49578 -3.08023,1.38897 z"
             style="fill:#dddddd;fill-opacity:1;stroke:none"
             id="path9820" />
        </g>
        <g
           id="scalestrokes">
          <path
             id="path7949"
             d="m 249.99961,2.49846 v 10"
             style="fill:none;stroke:#dddddd;stroke-width:2;stroke-linecap:butt;stroke-linejoin:miter;stroke-miterlimit:4;stroke-dasharray:none;stroke-opacity:1" />
          <use
             height="100%"
             width="100%"
             id="use9584"
             transform="rotate(6,249.99957,252.49923)"
             xlink:href="#path7949"
             y="0"
             x="0" />
          <use
             height="100%"
             width="100%"
             id="use9586"
             transform="rotate(12,249.99961,252.49923)"
             xlink:href="#path7949"
             y="0"
             x="0" />
          <use
             height="100%"
             width="100%"
             id="use9588"
             transform="rotate(18,249.99961,252.49923)"
             xlink:href="#path7949"
             y="0"
             x="0" />
          <use
             height="100%"
             width="100%"
             id="use9590"
             transform="rotate(24,249.99962,252.49923)"
             xlink:href="#path7949"
             y="0"
             x="0" />
          <use
             height="100%"
             width="100%"
             id="use9592"
             transform="rotate(30,249.99962,252.49923)"
             xlink:href="#path7949"
             y="0"
             x="0" />
          <use
             height="100%"
             width="100%"
             id="use9594"
             transform="rotate(36,249.99961,252.49923)"
             xlink:href="#path7949"
             y="0"
             x="0" />
          <use
             height="100%"
             width="100%"
             id="use9596"
             transform="rotate(42,249.99961,252.49923)"
             xlink:href="#path7949"
             y="0"
             x="0" />
          <use
             height="100%"
             width="100%"
             id="use9598"
             transform="rotate(48,249.99961,252.49923)"
             xlink:href="#path7949"
             y="0"
             x="0" />
          <use
             height="100%"
             width="100%"
             id="use9600"
             transform="rotate(54,249.99962,252.49923)"
             xlink:href="#path7949"
             y="0"
             x="0" />
          <use
             height="100%"
             width="100%"
             id="use9602"
             transform="rotate(60,249.99962,252.49923)"
             xlink:href="#path7949"
             y="0"
             x="0" />
          <use
             height="100%"
             width="100%"
             id="use9604"
             transform="rotate(66,249.99962,252.49923)"
             xlink:href="#path7949"
             y="0"
             x="0" />
          <use
             height="100%"
             width="100%"
             id="use9606"
             transform="rotate(72,249.99962,252.49923)"
             xlink:href="#path7949"
             y="0"
             x="0" />
          <use
             height="100%"
             width="100%"
             id="use9608"
             transform="rotate(78,249.99962,252.49923)"
             xlink:href="#path7949"
             y="0"
             x="0" />
          <use
             height="100%"
             width="100%"
             id="use9610"
             transform="rotate(84,249.99961,252.49923)"
             xlink:href="#path7949"
             y="0"
             x="0" />
          <use
             height="100%"
             width="100%"
             id="use9612"
             transform="rotate(90,249.99961,252.49923)"
             xlink:href="#path7949"
             y="0"
             x="0" />
          <use
             height="100%"
             width="100%"
             id="use9614"
             transform="rotate(96,249.99962,252.49923)"
             xlink:href="#path7949"
             y="0"
             x="0" />
          <use
             height="100%"
             width="100%"
             id="use9616"
             transform="rotate(102,249.99961,252.49923)"
             xlink:href="#path7949"
             y="0"
             x="0" />
          <use
             height="100%"
             width="100%"
             id="use9618"
             transform="rotate(108,249.99961,252.49923)"
             xlink:href="#path7949"
             y="0"
             x="0" />
          <use
             height="100%"
             width="100%"
             id="use9620"
             transform="rotate(114,249.99961,252.49923)"
             xlink:href="#path7949"
             y="0"
             x="0" />
          <use
             height="100%"
             width="100%"
             id="use9622"
             transform="rotate(120,249.99962,252.49923)"
             xlink:href="#path7949"
             y="0"
             x="0" />
          <use
             height="100%"
             width="100%"
             id="use9624"
             transform="rotate(126,249.99961,252.49923)"
             xlink:href="#path7949"
             y="0"
             x="0" />
          <use
             height="100%"
             width="100%"
             id="use9626"
             transform="rotate(132,249.99962,252.49923)"
             xlink:href="#path7949"
             y="0"
             x="0" />
          <use
             height="100%"
             width="100%"
             id="use9628"
             transform="rotate(138,249.99961,252.49923)"
             xlink:href="#path7949"
             y="0"
             x="0" />
          <use
             height="100%"
             width="100%"
             id="use9630"
             transform="rotate(144,249.99962,252.49923)"
             xlink:href="#path7949"
             y="0"
             x="0" />
          <use
             height="100%"
             width="100%"
             id="use9632"
             transform="rotate(150,249.99962,252.49923)"
             xlink:href="#path7949"
             y="0"
             x="0" />
          <use
             height="100%"
             width="100%"
             id="use9634"
             transform="rotate(156,249.99961,252.49923)"
             xlink:href="#path7949"
             y="0"
             x="0" />
          <use
             height="100%"
             width="100%"
             id="use9636"
             transform="rotate(162,249.99962,252.49923)"
             xlink:href="#path7949"
             y="0"
             x="0" />
          <use
             height="100%"
             width="100%"
             id="use9638"
             transform="rotate(168,249.99962,252.49923)"
             xlink:href="#path7949"
             y="0"
             x="0" />
          <use
             height="100%"
             width="100%"
             id="use9640"
             transform="rotate(174,249.99962,252.49923)"
             xlink:href="#path7949"
             y="0"
             x="0" />
          <use
             height="100%"
             width="100%"
             id="use9642"
             transform="rotate(180,249.99962,252.49923)"
             xlink:href="#path7949"
             y="0"
             x="0" />
          <path
             style="fill:none;stroke:#fd3d09;stroke-width:10.33217144;stroke-linecap:butt;stroke-linejoin:miter;stroke-miterlimit:4;stroke-dasharray:none;stroke-opacity:1"
             d="M 435.7864,419.7824 416.59064,402.49846"
             id="use9646" />
        </g>
        <circle
           cy="252.5"
           cx="250"
           id="circlefortextpath"
           style="fill:none;fill-opacity:1;stroke:none;stroke-width:0.1;stroke-miterlimit:4;stroke-dasharray:none;stroke-opacity:1"
           r="220" />
      </g>
      <path
         id="skateboard"
         d="m 238.8511,114.48149 c -0.92622,-0.41054 -3.08691,-1.90257 -3.14969,-2.17496 -0.0244,-0.10794 -0.13295,-0.28514 -0.2402,-0.39398 -0.16056,-0.16289 -0.27045,-0.11504 -0.62143,0.27061 -1.95152,2.14424 -4.69282,2.45429 -7.17919,0.81197 -1.45074,-0.95826 -2.14547,-2.01866 -2.39638,-3.65766 -0.14916,-0.97422 -0.11599,-1.41413 0.1822,-2.41723 l 0.36453,-1.22624 -0.45535,-0.0687 c -0.55755,-0.0841 -2.45493,-1.20578 -3.28404,-1.94145 -1.18772,-1.05388 -1.05603,-1.61566 1.14443,-4.88237 0.87206,-1.29462 0.95922,-1.37311 1.70483,-1.53487 0.74542,-0.16172 0.85652,-0.12676 2.16218,0.6813 0.75703,0.46847 1.39636,0.81518 1.42076,0.77046 0.0245,-0.0447 0.86696,-2.21606 1.87234,-4.82521 4.41014,-11.44521 7.03379,-16.80575 12.0395,-24.59872 5.17008,-8.04885 10.23866,-14.3432 15.30185,-19.00249 0.71217,-0.65533 1.31696,-1.22316 1.344,-1.26183 0.027,-0.0386 -0.33206,-0.35142 -0.798,-0.69498 -1.63477,-1.20544 -1.43701,-2.17277 1.18569,-5.79963 1.03814,-1.43562 1.73914,-1.41146 4.06657,0.14017 1.03805,0.69204 1.51268,1.12117 1.68071,1.51965 l 0.23417,0.55527 1.75596,-0.45739 c 1.88059,-0.48988 3.23822,-0.52461 4.41548,-0.11301 1.13219,0.39585 2.29381,2.59197 2.62368,4.96024 l 0.20146,1.44639 0.63765,-0.018 c 0.4745,-0.0134 1.0157,0.21665 2.1148,0.89886 1.64305,1.01987 2.07823,1.45374 2.24939,2.24266 0.10049,0.46326 -0.0816,0.84355 -1.34196,2.80228 -1.43202,2.22553 -1.47176,2.26923 -2.2101,2.42942 -0.64619,0.14019 -0.88111,0.0912 -1.67143,-0.34902 -0.50577,-0.28167 -0.94395,-0.47423 -0.97376,-0.4279 -0.0299,0.0464 -0.3535,0.96602 -0.71932,2.0438 -2.87534,8.47147 -9.76044,20.69254 -16.60888,29.48086 -2.98901,3.83568 -7.46892,8.78213 -13.0924,14.45589 l -2.36362,2.38474 1.33282,0.86487 c 1.51773,0.98486 1.9489,1.58272 1.77474,2.4609 -0.0616,0.31066 -0.69175,1.4536 -1.40032,2.53988 -1.09338,1.6762 -1.383,2.009 -1.91408,2.19949 -0.51495,0.1847 -0.76103,0.16457 -1.38959,-0.1141 z m -5.59334,-3.5779 c 1.47285,-1.36686 11.28198,-11.780183 13.52313,-14.182743 5.68742,-6.09708 8.63508,-9.786844 12.85295,-16.343834 7.34994,-11.42601 12.02908,-21.280742 12.63568,-27.831542 0.27004,-2.91614 -0.16543,-4.821976 -1.2337,-6.113966 -0.85822,-1.03797 -3.74208,-0.276502 -6.70522,1.450088 -7.43106,4.32996 -17.89369,17.876418 -24.87575,31.268198 -2.63084,5.04606 -5.13181,9.922872 -9.91229,22.558889 -2.04675,5.41009 -2.31527,6.2482 -2.24299,7.00079 0.10888,1.13348 0.62256,1.8754 1.71275,2.54852 1.16292,0.71803 1.33951,0.79354 2.40325,0.57082 0.76672,-0.16005 1.05795,-0.19737 1.84219,-0.92522 z m -1.68849,-0.93335 c -0.35006,-0.4114 -0.26131,-0.9511 0.19355,-1.1762 0.46395,-0.22959 0.93173,-0.0174 1.03764,0.47075 0.16211,0.74721 -0.75062,1.27019 -1.23119,0.70545 z m -2.80832,-1.80702 c -0.35008,-0.4114 -0.26121,-0.95112 0.19354,-1.17618 0.46396,-0.22961 0.93174,-0.0174 1.03765,0.47074 0.16211,0.74721 -0.75062,1.27019 -1.23119,0.70544 z m 4.90969,-0.93771 c -0.22577,-0.10018 -0.35615,-0.31744 -0.38954,-0.64901 -0.0427,-0.42427 0.0276,-0.52328 0.47317,-0.6659 0.42976,-0.13764 0.57409,-0.0996 0.80701,0.21254 0.23701,0.31754 0.24629,0.4451 0.0564,0.77526 -0.26507,0.4609 -0.47907,0.53482 -0.94704,0.32711 z m -2.80833,-1.80702 c -0.22577,-0.10018 -0.35615,-0.31743 -0.38952,-0.649 -0.0428,-0.42428 0.0276,-0.52328 0.47316,-0.66591 0.4351,-0.13932 0.57344,-0.10038 0.82049,0.2306 0.2646,0.35452 0.26256,0.44121 -0.0187,0.79157 -0.37488,0.46694 -0.44254,0.4893 -0.88539,0.29271 z m 37.05061,-51.88684 c -0.39372,-0.38724 -0.37635,-0.83406 0.0417,-1.074 0.72569,-0.41644 1.40849,0.13118 1.09498,0.8782 -0.21872,0.52112 -0.71847,0.6072 -1.13673,0.19583 z m -2.81013,-1.80879 c -0.49724,-0.48908 -0.32874,-1.07268 0.35229,-1.22043 0.60586,-0.13144 1.02142,0.35758 0.80489,0.94723 -0.20647,0.56223 -0.73617,0.68728 -1.15717,0.27325 z M 269.7995,50.684 c -0.58096,-0.45502 -0.10792,-1.44754 0.63534,-1.3331 0.39053,0.0601 0.70394,0.71966 0.51493,1.08355 -0.19324,0.37202 -0.82024,0.50805 -1.15027,0.24955 z m -2.76687,-1.76647 c -0.64843,-0.41723 -0.24617,-1.44788 0.53638,-1.37436 0.42946,0.0404 0.77486,0.69458 0.57243,1.08426 -0.18092,0.3483 -0.77628,0.50407 -1.10882,0.29009 z"
         style="fill:#dddddd;fill-opacity:1;stroke-width:0.16866797" />
      <g
         id="moped">
        <path
           d="M 351.18858,118.79555 A 15.596377,15.596377 0 1 1 328.67821,97.202241 15.596377,15.596377 0 1 1 351.18858,118.79555 Z"
           style="opacity:1;fill:none;fill-opacity:1;fill-rule:nonzero;stroke:#dddddd;stroke-width:4.52153254;stroke-linecap:round;stroke-linejoin:round;stroke-miterlimit:4;stroke-dasharray:none;stroke-dashoffset:0;stroke-opacity:1"
           id="path15475" />
        <path
           d="m 415.52961,145.85133 -23.629,-22.66637 c -1.22311,-0.50905 -2.40338,-0.55429 -3.39088,1.48762 l 2.31222,9.80259 c 4.48104,0.54541 7.49361,2.81371 10.57675,4.99919 l 10.64925,10.14769 z"
           style="fill:#dddddd;fill-opacity:1;fill-rule:evenodd;stroke:none;stroke-width:0.15363432px;stroke-linecap:butt;stroke-linejoin:miter;stroke-opacity:1"
           id="path12814" />
        <path
           d="m 388.09962,159.80378 -24.56777,-23.62304 c -4.98702,-5.08387 -3.84013,-12.15512 -2.6107,-19.82206 2.15074,-13.41237 1.42984,-14.27045 3.87498,-19.111132 l 8.18232,7.865432 c 0.38629,0.68976 0.85387,1.29475 0.75125,2.49419 l -1.80164,11.74715 c -1.25679,2.13255 -2.94443,3.20957 -4.8039,4.28544 -2.14706,1.24226 -3.10829,6.20243 0.0963,9.03655 l 25.857,22.05516 z"
           style="fill:#dddddd;fill-opacity:1;fill-rule:evenodd;stroke:none;stroke-width:0.15363432px;stroke-linecap:butt;stroke-linejoin:miter;stroke-opacity:1"
           id="path13701" />
        <path
           d="m 339.13551,105.57738 c 0.77362,-0.40713 31.83439,-14.158883 31.83439,-14.158883 3.0759,-0.94303 5.73361,-0.538761 7.94569,1.301199 l 6.38404,6.123963 -3.63172,3.715381 -6.15532,-5.904561 c -0.68427,-0.792679 -1.70498,-0.861002 -3.45578,0.02052 l -30.99772,13.744511 c -2.9226,1.24139 -5.63991,-2.78796 -1.92358,-4.84213 z"
           style="fill:#dddddd;fill-opacity:1;fill-rule:evenodd;stroke:none;stroke-width:0.15363432px;stroke-linecap:butt;stroke-linejoin:miter;stroke-opacity:1"
           id="path14588" />
        <path
           d="m 399.18705,164.92136 a 15.596377,15.596377 0 1 1 -22.51036,-21.59331 15.596377,15.596377 0 1 1 22.51036,21.59331 z"
           style="opacity:1;fill:none;fill-opacity:1;fill-rule:nonzero;stroke:#dddddd;stroke-width:4.52153254;stroke-linecap:round;stroke-linejoin:round;stroke-miterlimit:4;stroke-dasharray:none;stroke-dashoffset:0;stroke-opacity:1"
           id="path17247" />
      </g>
      <g
         id="car">
        <path
           d="m 407.79758,216.70022 a 8.1019436,8.1019436 0 1 1 0.0314,-16.20385 8.1019436,8.1019436 0 1 1 -0.0314,16.20385 z"
           style="opacity:1;fill:#dddddd;fill-opacity:1;fill-rule:nonzero;stroke:none;stroke-width:4.95253897;stroke-linecap:round;stroke-linejoin:round;stroke-miterlimit:4;stroke-dasharray:none;stroke-dashoffset:0;stroke-opacity:1"
           id="path25345" />
        <path
           style="fill:#dddddd;fill-opacity:1;fill-rule:evenodd;stroke:none;stroke-width:0.15292056px;stroke-linecap:butt;stroke-linejoin:miter;stroke-opacity:1"
           d="m 439.57336,236.33756 c 0.0576,-0.90733 -0.3707,-1.39912 -0.86936,-1.83153 l -13.10051,-13.12624 -4.70269,-28.65852 c -0.34724,-0.39978 -0.68826,-0.80122 -1.58438,-1.12368 l -9.85707,0.0414 c -1.58084,0.61828 -1.37598,1.04138 -1.59686,1.51122 l -0.0107,5.51606 c 13.39915,0.0259 13.30928,19.98599 -0.0387,19.96014 l -0.0986,50.89785 c 13.42727,0.026 13.36154,19.83569 -0.0384,19.80974 l -0.009,4.52078 c 0.0684,0.75981 0.73817,1.18758 1.52309,1.55117 l 13.70551,-0.0487 c 0.29401,-0.0539 0.64155,-0.1613 1.09628,-0.37535 l 15.5051,-19.44951 z m -4.12784,-0.38694 -0.0336,17.36062 -11.80033,-0.0229 0.0526,-27.15564 c 0.40975,-1.03297 1.02831,-1.17126 1.77967,-0.7397 l 9.6154,9.78125 c 0.18663,0.22048 0.44371,0.39382 0.38628,0.77632 z m -0.0414,20.58533 -0.0283,14.6048 c 0.056,0.38273 -0.20181,0.55654 -0.38929,0.77631 l -8.4429,8.34992 c -1.16332,0.76921 -2.75547,2.31522 -2.98805,1.13694 l 0.0482,-24.89082 z"
           id="path24454" />
        <path
           d="m 407.66398,287.447 a 8.1019452,8.1019452 0 1 1 0.0314,-16.20386 8.1019452,8.1019452 0 1 1 -0.0314,16.20386 z"
           style="opacity:1;fill:#dddddd;fill-opacity:1;fill-rule:nonzero;stroke:none;stroke-width:4.95253897;stroke-linecap:round;stroke-linejoin:round;stroke-miterlimit:4;stroke-dasharray:none;stroke-dashoffset:0;stroke-opacity:1"
           id="path25343" />
      </g>
      <path
         id="racecar"
         d="m 365.69578,353.27346 c 0.27274,-0.12423 1.59453,-0.48783 2.93731,-0.80792 l 2.44144,-0.58193 1.32496,-1.45655 c 8.16147,-8.97236 11.48045,-11.8321 21.75488,-18.74478 4.45419,-2.9968 4.75037,-3.13421 7.31718,-3.39427 1.46335,-0.14827 2.17897,0.0543 3.81026,1.07832 2.38446,1.49686 3.00345,1.999 2.76818,2.2456 -0.29577,0.31002 -5.25686,0.024 -6.78658,-0.39121 -1.15968,-0.3148 -1.72992,-0.28521 -1.35713,0.0704 0.28736,0.27414 3.46426,1.58865 4.24808,1.75775 0.42974,0.0927 1.56665,0.0795 2.52646,-0.0293 2.02185,-0.22916 3.21318,-0.0381 3.91052,0.62719 0.39905,0.3807 0.53438,1.00653 0.70096,3.24093 0.11346,1.52304 0.18311,3.52262 0.15479,4.44357 -0.10731,3.48886 -1.25927,8.31062 -2.71084,11.34669 -1.59059,3.32687 -4.55274,6.85478 -6.92214,8.24427 -0.72619,0.42586 -1.28998,0.80326 -1.25288,0.83866 0.0372,0.0354 0.56652,-0.0642 1.17644,-0.22138 l 1.10898,-0.28572 -0.7587,4.16212 c -1.40909,7.73008 -2.36933,11.09876 -4.11787,14.44626 l -1.18294,2.26468 -3.54669,3.70081 c -2.65114,2.7663 -3.964,4.00345 -5.19926,4.89931 -2.01644,1.4624 -4.31742,2.72085 -4.32576,2.36586 -0.003,-0.14362 1.5882,-1.78534 3.53688,-3.64826 1.94867,-1.86291 4.16175,-4.01779 4.91796,-4.78862 1.54211,-1.57182 3.08031,-3.54282 2.8996,-3.71522 -0.1185,-0.11305 -2.18786,1.66445 -3.49193,2.9994 l -0.68594,0.7022 0.36953,-1.30552 c 0.20324,-0.71803 0.4714,-1.41899 0.59592,-1.55771 0.47313,-0.52708 1.39393,-4.00047 1.47221,-5.55333 0.0449,-0.89113 0.0197,-2.66581 -0.056,-3.94374 -0.11676,-1.97024 -0.20165,-2.32012 -0.55835,-2.30135 -0.23135,0.0122 -1.43162,0.61772 -2.66727,1.34565 -1.23564,0.72793 -2.34303,1.33265 -2.46086,1.34382 -0.36235,0.0344 3.57682,-3.7849 6.33136,-6.13866 1.43516,-1.2263 2.66772,-2.35353 2.73902,-2.50496 0.14698,-0.31212 -2.09017,0.73133 -4.21939,1.96804 -2.19838,1.27686 -2.1757,1.14129 0.42083,-2.51434 2.30296,-3.24232 7.00205,-11.1485 8.52742,-14.34732 1.34441,-2.81932 2.07836,-6.00605 1.5085,-6.5497 -0.10184,-0.0971 -0.63482,-0.0696 -1.18444,0.0612 -1.36827,0.32568 -4.20906,2.41646 -6.34115,4.66705 -1.48249,1.56505 -1.73516,1.93629 -2.48736,3.65634 -1.2824,2.93259 -3.70441,9.03726 -4.71583,11.88635 -0.82635,2.32778 -4.06172,9.0397 -5.73828,11.90434 -0.81725,1.39639 -0.89924,1.49345 -0.98478,1.16575 -0.13299,-0.50952 0.87574,-3.46886 6.27971,-18.42273 1.02083,-2.82485 1.93575,-4.88008 2.17498,-4.88571 0.078,-0.002 0.001,0.88352 -0.17017,1.96745 -0.1716,1.08393 -0.28571,1.99588 -0.25356,2.02655 0.18307,0.17465 0.88804,-1.59678 2.00006,-5.02562 0.43121,-1.3296 1.07746,-2.89724 1.43613,-3.48368 1.09663,-1.793 4.10934,-4.54811 7.28697,-6.66387 2.99117,-1.99162 3.27794,-2.35338 2.17049,-2.7381 -0.72397,-0.25149 -1.41522,0.1748 -4.57079,2.81887 -4.38704,3.67592 -12.37695,12.35656 -13.2636,14.41022 -0.098,0.22712 0.37578,-0.23241 1.05294,-1.02113 1.02534,-1.19425 1.27055,-1.39655 1.46661,-1.20951 0.39139,0.3734 -0.67717,2.92321 -3.83575,9.15291 -3.92984,7.75085 -5.66986,11.73598 -6.92265,15.85483 -0.56679,1.86346 -1.14347,3.50669 -1.28151,3.65161 -0.13805,0.14493 -0.93622,0.33306 -1.77374,0.41806 -1.3387,0.13589 -1.49036,0.19678 -1.25478,0.50388 0.14738,0.19213 0.58805,0.44296 0.97926,0.55741 0.91482,0.26764 1.33969,0.69048 2.72555,2.71247 2.07646,3.02964 3.19696,5.5543 3.53232,7.95885 0.39323,2.81931 -0.1352,4.11479 -2.99599,7.34478 -2.02138,2.28226 -3.67867,3.69762 -7.91996,6.76381 -2.568,1.85651 -2.87391,1.87259 -2.35594,0.12389 0.47388,-1.5998 0.31565,-2.33054 -0.22294,-1.02957 -0.8138,1.96569 -3.97807,6.18579 -5.25041,7.00232 l -0.75566,0.48494 0.73648,-0.80472 c 0.85216,-0.93105 2.95367,-4.0151 2.95069,-4.33012 -0.001,-0.11732 -0.96424,0.79523 -2.14027,2.02794 -1.33233,1.39655 -2.61193,2.56087 -3.39507,3.08922 -1.44554,0.97526 -1.60897,0.94378 -3.24288,-0.62442 -1.24359,-1.19349 -1.29346,-1.64278 -0.20363,-1.83242 0.43602,-0.0759 0.9886,-0.34323 1.22796,-0.59412 0.64809,-0.67933 0.7691,-2.35426 0.28912,-4.00213 l -0.42558,-1.46115 0.79093,-0.0882 c 1.13277,-0.12627 2.26101,-0.88072 3.41151,-2.28124 1.35103,-1.64463 1.39756,-1.92764 0.52247,-3.17778 -0.4007,-0.5724 -0.76989,-1.08031 -0.82045,-1.12869 -0.0505,-0.0485 -0.71922,0.56856 -1.48591,1.37095 -0.7667,0.80242 -1.89916,1.86603 -2.51659,2.36361 l -1.12258,0.90468 0.71592,1.76413 c 0.76992,1.89722 1.02209,3.51396 0.71292,4.57072 -0.27135,0.92747 -0.57362,1.17751 -1.6251,1.34431 -0.89691,0.14224 -0.92136,0.16177 -1.04491,0.83375 l -0.12651,0.68807 -0.14779,-0.63326 c -0.12387,-0.52782 -0.60682,-1.06772 -2.9095,-3.24567 -4.50889,-4.2647 -5.93517,-6.99307 -5.11289,-9.78063 0.29081,-0.98586 3.00392,-7.19686 5.48408,-12.55453 3.3614,-7.26126 5.35716,-12.86107 6.59623,-18.50799 0.97302,-4.43451 2.42562,-8.00815 4.54223,-11.17467 1.16142,-1.73752 3.54035,-4.30686 4.31417,-4.65946 z m -5.83326,11.11165 c -1.0837,3.12907 1.19601,8.20758 4.87131,10.85184 2.30309,1.65701 4.44904,2.01729 6.1714,1.0361 2.15672,-1.22865 2.08346,-5.38107 -0.15965,-9.04931 -0.85108,-1.39183 -3.37175,-3.78847 -4.6995,-4.46823 -1.96728,-1.00726 -4.34282,-0.89915 -5.4212,0.2467 -0.24659,0.26217 -0.58974,0.8844 -0.76238,1.38293 z m 2.47878,-0.65417 c 0.26336,0.0557 2.12593,2.37005 2.23086,2.77201 0.0319,0.12309 -0.13522,0.24627 -0.37187,0.27388 -0.3227,0.0377 -0.60907,-0.15968 -1.14559,-0.78951 -1.09161,-1.28142 -1.44901,-2.41187 -0.7134,-2.25638 z m -0.69496,2.48566 c 0.2464,0.0171 0.89711,0.40147 1.44605,0.85422 0.83119,0.68556 0.95797,0.86524 0.75802,1.07485 -0.3504,0.36728 -1.52265,-0.0521 -2.34882,-0.84026 -0.76515,-0.72997 -0.70958,-1.14799 0.14475,-1.08881 z m 3.23379,-2.80353 c 0.45473,0.15117 0.5895,0.38458 0.90342,1.5646 0.39818,1.49661 0.34171,1.76803 -0.30213,1.45338 -0.59485,-0.29069 -1.132,-1.4141 -1.13403,-2.37176 l -0.002,-0.8239 z m 1.86258,0.75292 c 0.42289,0.40345 0.42424,0.5033 0.0129,0.93448 -0.48032,0.50345 -0.58873,0.40635 -0.69089,-0.61879 -0.0727,-0.72878 0.14085,-0.82819 0.67803,-0.31571 z m -3.50256,4.81993 c 0.83266,0.0797 1.09201,0.26531 1.10437,0.79055 0.0117,0.49905 -0.19881,0.67697 -0.93562,0.79058 -0.59809,0.0923 -0.63101,0.0684 -0.88749,-0.64266 -0.32306,-0.89563 -0.22135,-1.02839 0.71874,-0.93847 z m 5.00267,-3.69026 c 0.49031,0.46778 0.52371,0.6304 0.26697,1.30012 -0.47154,1.23003 -0.67293,1.32723 -1.37069,0.66156 -0.54888,-0.52364 -0.58312,-0.65959 -0.315,-1.24984 0.53608,-1.17993 0.79293,-1.30881 1.41868,-0.71183 z m -3.36567,5.44538 c 0.67924,-0.016 0.96883,1.15025 0.46945,1.89067 -0.21319,0.31616 -0.33476,0.28356 -0.87871,-0.23539 -0.58758,-0.56056 -0.60293,-0.6385 -0.22121,-1.12616 0.22555,-0.28819 0.5092,-0.52631 0.63039,-0.5291 z m 4.86923,-3.79859 c 0.68235,0.88683 0.65928,0.95319 -0.31408,0.9033 -0.79924,-0.041 -0.83976,-0.0683 -0.77974,-0.52567 0.0349,-0.26537 0.18163,-0.60646 0.32623,-0.75802 0.2189,-0.22944 0.34733,-0.16581 0.76759,0.38039 z m -0.23674,1.24625 c 0.72184,-0.002 0.94716,0.0999 1.26283,0.56864 0.51699,0.76762 0.44637,0.91874 -0.52285,1.11889 -0.95261,0.1967 -1.61001,-0.0854 -1.84169,-0.79042 -0.21937,-0.66734 0.0602,-0.89492 1.10171,-0.89711 z m -2.91491,3.69973 c 0.50389,-0.13156 0.87997,0.82888 0.97231,2.48477 0.0698,1.24871 0.0482,1.31415 -0.3443,1.04155 -0.52032,-0.36144 -1.21227,-2.24199 -1.07687,-2.92669 0.0616,-0.3116 0.23554,-0.54395 0.44886,-0.59963 z m 2.48036,-1.3874 c 0.10827,0.0229 0.66652,0.39805 1.24052,0.83371 0.90823,0.68931 1.04165,0.86788 1.02829,1.37608 -0.015,0.5689 -0.0328,0.5761 -0.6883,0.27827 -0.84346,-0.3832 -1.70531,-1.19445 -1.90079,-1.78911 -0.15528,-0.47266 -0.0188,-0.77057 0.32025,-0.69892 z m -0.86338,1.26223 c 0.2683,0.0567 1.64633,2.16042 1.87909,2.86863 0.0754,0.22923 0.0716,0.48531 -0.008,0.56907 -0.2158,0.22621 -1.52974,-1.10739 -1.88108,-1.90933 -0.36405,-0.83078 -0.35918,-1.60633 0.0103,-1.5284 z m 2.42706,-1.54397 c 0.51192,-0.14805 0.60967,-0.062 0.7237,0.63655 0.0754,0.46181 0.0342,0.52753 -0.29042,0.46238 -0.45177,-0.0907 -1.14221,-0.70118 -0.97533,-0.86246 0.0646,-0.0627 0.3087,-0.16898 0.54208,-0.23651 z m 2.02696,-3.20994 c 0.0961,-0.002 0.42477,-0.73383 0.73023,-1.62569 0.70793,-2.06706 0.59,-3.63793 -0.43495,-5.79343 -1.70691,-3.5897 -2.39486,-3.59974 -0.77141,-0.0112 1.07152,2.36852 1.29982,3.85926 0.78696,5.13862 -0.19941,0.49746 -0.40413,0.90544 -0.45493,0.90663 -0.0509,8.2e-4 -0.634,-0.91128 -1.29603,-2.02773 -0.80857,-1.36358 -1.54797,-2.35109 -2.25255,-3.00838 -1.03848,-0.96879 -1.02623,-0.94181 1.23447,2.72344 1.25585,2.03605 2.36203,3.70006 2.45821,3.69779 z m 2.29073,-11.99633 c 0.15059,0.43744 0.77988,1.29643 1.56292,2.13365 1.27276,1.36085 1.32033,1.39141 1.64123,1.05505 0.24825,-0.26021 0.22547,-0.60014 -0.0916,-1.36608 -0.3511,-0.84823 -0.61352,-1.16678 -1.56095,-1.89482 -1.78278,-1.36992 -2.04407,-1.35777 -1.55161,0.0722 z m 7.21412,-2.65747 -0.32839,1.04332 0.65365,-0.88374 c 0.3595,-0.48606 1.82676,-2.20643 3.26057,-3.82304 2.27437,-2.56432 2.51585,-2.89161 1.89282,-2.56547 -0.45709,0.23927 -1.51253,1.23983 -2.93219,2.77973 -1.94333,2.10791 -2.25874,2.53511 -2.54646,3.4492 z M 361.318,375.461 c 0.23771,0.65523 0.74339,1.2947 2.13556,2.7008 1.0032,1.01331 2.10636,2.02579 2.45134,2.2501 l 0.62726,0.40777 0.21257,-0.72653 c 0.20608,-0.70445 0.18493,-0.74722 -0.69479,-1.40536 -0.49906,-0.37331 -1.77792,-1.50818 -2.84197,-2.52187 -1.06391,-1.01381 -1.99467,-1.78014 -2.06804,-1.70323 -0.0734,0.0768 0.007,0.52616 0.17808,0.99832 z m 25.8492,-26.539 c -0.78043,1.17172 -1.13983,1.86732 -0.93897,1.8174 0.17908,-0.044 2.16332,-2.0052 4.40965,-4.35712 4.35709,-4.56213 8.57627,-8.37234 9.9253,-8.96373 0.96218,-0.42178 0.96953,-0.63777 0.0258,-0.75625 -0.81639,-0.10249 -2.53177,0.82473 -4.50689,2.43615 -1.96522,1.60335 -7.50733,7.71036 -8.91485,9.82355 z m -25.96569,30.29506 c 0.55042,2.74293 0.10265,4.72461 -2.29998,10.1773 -0.7201,1.63428 -1.47722,3.43852 -1.68248,4.0094 -0.3719,1.0345 -0.36989,1.04318 0.59771,2.57668 l 0.97085,1.53867 0.67593,-0.90941 c 0.37177,-0.50017 1.52199,-2.39279 2.55609,-4.20581 l 1.88018,-3.2964 -0.97068,0.92331 c -0.53382,0.50788 -1.03729,0.85978 -1.11871,0.78209 -0.30581,-0.29174 0.22945,-2.13668 1.03763,-3.57651 0.46068,-0.82071 1.31979,-2.16847 1.90915,-2.995 1.60246,-2.24734 1.63163,-2.03702 -0.54422,-3.92203 -2.2488,-1.94817 -2.6386,-2.20419 -2.91495,-1.91453 -0.11793,0.12365 -0.16139,0.4891 -0.0965,0.81219 z M 374.3827,366.6034 c -0.26941,0.63958 -0.57467,1.45291 -0.67838,1.80738 -0.20841,0.71236 0.022,2.89345 0.30492,2.88679 0.0986,-0.002 0.21989,-0.63376 0.26984,-1.4032 0.05,-0.76945 0.27056,-2.15626 0.49023,-3.08181 0.4457,-1.87795 0.34031,-1.93497 -0.38661,-0.20916 z m -28.77882,34.85648 c -0.20884,0.95961 0.0655,2.04003 0.957,3.76817 0.94271,1.82752 3.85845,4.70418 5.12477,5.05606 1.3052,0.36269 1.81042,0.31428 2.32257,-0.22255 0.55817,-0.58507 0.57004,-1.91637 0.0305,-3.41895 -1.16264,-3.23782 -5.06624,-6.85796 -7.08315,-6.56879 -0.86782,0.12446 -1.13723,0.40069 -1.35168,1.38606 z m 2.27808,0.0134 c 0.96994,1.21183 1.18282,1.61455 0.81211,1.53619 -0.38375,-0.0811 -1.5056,-1.62226 -1.50227,-2.06371 0.002,-0.24148 0.18955,-0.098 0.69016,0.52752 z m -0.78165,0.99658 c 1.07111,0.52983 1.64569,1.09969 1.38464,1.37332 -0.27712,0.29048 -0.74159,0.0784 -1.57979,-0.72122 -0.89765,-0.85637 -0.81,-1.14925 0.19512,-0.65206 z m 2.23973,-1.24556 c 0.14889,0.14204 0.37099,0.64248 0.49358,1.11205 0.16342,0.62604 0.1315,0.85596 -0.11971,0.86187 -0.25121,0.006 -0.41621,-0.22204 -0.61854,-0.85444 -0.30372,-0.94919 -0.17828,-1.52299 0.24467,-1.11948 z m -1.29547,3.01703 c 0.27133,0.0752 0.60454,0.24287 0.74045,0.37254 0.39805,0.37975 -0.25431,0.83461 -0.88353,0.61603 -0.71955,-0.24998 -0.81204,-0.33527 -0.4625,-0.4265 0.1516,-0.0401 0.239,-0.21308 0.19403,-0.38543 -0.0604,-0.23111 0.0477,-0.2775 0.41154,-0.17658 z m 2.54312,-2.12821 c 0.28934,0.27604 0.31424,0.46059 0.0934,0.69206 -0.34861,0.36541 -0.49794,0.26822 -0.60447,-0.3934 -0.10506,-0.65275 0.0468,-0.74153 0.51106,-0.29866 z m 0.76392,0.82217 c 0.47663,0.19898 0.61844,0.86629 0.28485,1.33956 -0.28297,0.40128 -0.71565,0.17839 -1.05864,-0.54545 -0.20745,-0.43779 0.32321,-0.9823 0.77393,-0.79417 z m -2.63887,2.89093 c 0.68227,-0.3102 1.15729,0.24031 0.91675,1.06247 -0.10896,0.37245 -0.28509,0.67921 -0.39141,0.68171 -0.41585,0.01 -1.36745,-1.21486 -1.11366,-1.43332 0.0588,-0.0505 0.3235,-0.19046 0.58832,-0.31086 z m 3.72599,-1.62443 c 0.10262,0.10968 0.27479,0.38817 0.38248,0.61902 0.18981,0.40693 0.17943,0.41519 -0.34023,0.27111 -0.2948,-0.0817 -0.56454,-0.25798 -0.59944,-0.3916 -0.0915,-0.35076 0.33669,-0.73391 0.55719,-0.49854 z m 0.0872,1.10935 c 0.70495,0.20626 1.28109,0.85335 1.01142,1.13602 -0.26402,0.27674 -1.41789,-0.22091 -1.65527,-0.71392 -0.2981,-0.61912 -0.21526,-0.67343 0.64385,-0.4221 z m -2.02035,1.42371 c 0.32489,0.0687 0.83736,2.39088 0.54516,2.4672 -0.31579,0.0824 -0.69066,-0.56462 -0.87914,-1.51734 -0.14595,-0.73781 -0.0431,-1.02984 0.33466,-0.95 z m 2.42441,0.62763 c 0.52081,0.49686 0.92597,1.00254 0.90037,1.12372 -0.0651,0.30797 -1.0894,-0.37758 -1.55387,-1.03998 -0.67994,-0.9697 -0.32309,-1.01542 0.6535,-0.0837 z m -1.32921,-0.3637 c 0.2758,0.26312 1.01251,1.99694 0.89905,2.11586 -0.16096,0.16872 -0.86987,-0.76479 -1.10225,-1.45159 -0.11529,-0.34086 0.0332,-0.82645 0.2032,-0.66427 z m 1.79453,-0.21623 c 0.41192,0.17196 0.55425,0.57875 0.23181,0.66296 -0.29518,0.077 -0.88736,-0.47836 -0.70934,-0.66495 0.0739,-0.0775 0.28874,-0.0765 0.47731,0.002 z m 21.6794,-35.67527 c -0.2985,0.64307 -0.47342,1.73469 -0.5013,3.12849 -0.0236,1.17741 0.0135,2.13943 0.0824,2.13781 0.25704,-0.006 1.59888,-4.83652 1.65177,-5.94631 0.0549,-1.1528 0.0548,-1.15317 -0.35974,-0.73056 -0.22792,0.23273 -0.62103,0.86732 -0.87318,1.41057 z m 31.74118,-31.10898 c -0.0425,2.19575 -0.20049,3.72285 -0.36851,3.56257 -0.0554,-0.0528 -0.2105,-0.6209 -0.34474,-1.26236 -0.13422,-0.64146 -0.31724,-1.16458 -0.40673,-1.16246 -0.0895,0.002 -0.14341,1.77609 -0.11986,3.9422 0.041,3.77469 -0.16035,5.4333 -1.21792,10.03024 -0.57518,2.50012 -0.30386,2.8153 1.12449,1.30623 2.58355,-2.72955 4.05792,-7.28444 4.04158,-12.48591 -0.009,-2.98669 -0.167,-3.73424 -1.1081,-5.25504 -1.16528,-1.88317 -1.54421,-1.56954 -1.60026,1.32454 z m -52.48016,53.96384 c -0.4268,0.90946 -0.62005,2.45575 -0.31496,2.52023 0.12952,0.0274 0.37692,-0.18002 0.54987,-0.46083 0.46857,-0.76101 1.41084,-3.23289 1.27995,-3.35775 -0.36354,-0.34682 -0.99792,0.19683 -1.51483,1.29836 z m 0.42322,5.40991 c -0.67645,1.54441 -1.10331,2.76509 -0.9486,2.7126 0.42317,-0.1436 2.36709,-1.7696 3.47824,-2.90944 l 0.98234,-1.00769 -0.45868,-0.78999 c -0.25226,-0.43449 -0.6371,-1.05491 -0.85518,-1.3787 -0.46923,-0.69669 -0.30543,-0.94811 -2.19811,3.37323 z m 9.13298,-6.60186 c -2.28649,3.43057 -3.81775,6.08292 -3.72551,6.45302 0.11042,0.4433 1.38278,1.66994 1.55017,1.49447 0.21723,-0.2277 3.08026,-7.63891 3.90616,-10.11146 0.82049,-2.45633 0.93848,-3.43217 0.15017,-1.24192 -0.25124,0.69799 -1.09765,2.23063 -1.88094,3.40584 z m 6.80081,-5.36212 c -0.18403,1.00088 0.0932,0.74184 0.90393,-0.84481 0.4687,-0.91717 0.63374,-1.44014 0.43837,-1.38916 -0.40345,0.10535 -1.19232,1.4182 -1.34231,2.23396 z m 0.79853,0.65053 c -0.60317,1.42004 -1.93818,5.6191 -1.82179,5.73014 0.0377,0.0359 0.34053,-0.63486 0.67315,-1.49052 0.71701,-1.84448 2.6794,-5.95877 3.0049,-6.29995 0.12574,-0.13181 0.1576,-0.3074 0.0708,-0.39021 -0.28397,-0.2709 -1.34336,1.07625 -1.92707,2.45054 z m -9.78133,18.99836 c 0.25028,0.6867 0.67581,1.54825 0.94558,1.91458 l 0.49051,0.66604 0.47976,-0.94559 c 0.73549,-1.44955 0.6954,-1.71459 -0.38607,-2.55223 -0.94987,-0.73572 -1.66661,-0.94784 -1.87018,-0.55349 -0.0631,0.12222 0.0901,0.78403 0.34046,1.47068 z m 2.26913,-2.69264 c -0.29383,0.9842 -0.17506,1.58801 0.31005,1.5766 0.17622,-0.004 0.26899,-0.53485 0.24118,-1.38003 -0.0505,-1.53295 -0.1425,-1.56576 -0.55129,-0.19656 z m 14.68828,-23.09403 c 2.06452,-1.93037 2.65264,-2.06016 1.80142,-0.39747 -0.71141,1.38946 -3.06743,4.84733 -3.30659,4.85296 -0.10744,0.003 -0.25907,-0.36105 -0.33683,-0.80799 -0.15396,-0.8849 0.16866,-2.14392 0.65673,-2.56276 0.16915,-0.14518 0.70256,-0.63322 1.1853,-1.08464 z m -12.86728,29.92955 c 0.32436,-0.2709 1.36524,-1.04144 2.31311,-1.71231 0.94786,-0.67088 2.40071,-1.76062 3.22853,-2.42166 0.82784,-0.66102 1.55422,-1.15506 1.61419,-1.09785 0.06,0.0573 -0.14579,0.61431 -0.45726,1.23799 -0.54204,1.08542 -0.65186,1.1968 -2.56548,2.60201 -2.94199,2.16022 -5.95729,3.87201 -6.27933,3.56476 -0.0829,-0.0791 1.22622,-1.40443 2.14624,-2.17294 z"
         style="fill:#dddddd;fill-opacity:1;stroke-width:0.21812381" />
      <g
         id="lorry">
        <path
           style="fill:#dddddd;fill-opacity:0.86666667;fill-rule:evenodd;stroke:none;stroke-width:0.11048654"
           d="m 273.69559,444.78736 -0.29738,-27.42839 -43.30106,0.43404 c 2.51851,-2.10356 4.07389,-4.98222 4.01243,-8.73765 l 42.98427,-0.44049 c 0.56973,14.56599 21.24109,14.29229 21.53375,-0.14924 3.10506,-0.0105 3.54337,0.68999 3.60432,3.5497 l 0.11858,10.93752 c 0.092,4.88746 0.66742,1.65429 -2.85033,10.96251 -3.61584,9.92098 -2.59938,8.99657 -5.96401,9.28808 z m 8.42504,-16.26561 -0.045,11.6552 11.04611,-0.80533 c 2.01365,-0.15685 2.03028,-0.16968 2.71502,-2.51464 l 2.7459,-7.57105 c 0.92486,-2.32312 0.76627,-3.00299 -1.82821,-2.63677 z m -82.83865,-10.41537 -0.0879,-6.16204 7.11045,-2.60406 6.2672,-0.0641 c 0.0132,3.57348 1.53077,6.56265 4.18657,8.64518 z"
           id="path11756" />
        <rect
           x="-264.43323"
           y="-455.97717"
           height="33.333958"
           width="69.752808"
           style="fill:#dddddd;fill-opacity:0.86666667;stroke:none;stroke-width:0.11048654"
           id="rect11758"
           transform="rotate(179.37883)" />
        <circle
           r="8.5074635"
           cx="-283.41782"
           cy="-411.80008"
           style="fill:#dddddd;fill-opacity:0.86666667;stroke:none;stroke-width:0.11048654"
           id="circle11760"
           transform="rotate(179.37883)" />
        <circle
           r="8.5074635"
           cx="-218.89366"
           cy="-411.80008"
           style="fill:#dddddd;fill-opacity:0.86666667;stroke:none;stroke-width:0.11048654"
           id="circle11762"
           transform="rotate(179.37883)" />
      </g>
    </g>
  </g>
  <g
     id="scalewindow">
    <path
       id="scalewindowborder"
       d="m 73.00262,76.07201 c 0,0 66.52579,-73.35172 176.99699,-73.57355 110.47121,-0.22183 177.68131,74.23903 177.68131,74.23903 l -85.55149,85.10783 c 0,0 -35.40693,-38.95462 -92.12982,-38.67886 -58.49727,0.28438 -91.7054,38.27326 -91.7054,38.27326 z"
       style="fill:none;stroke:#dddddd;stroke-width:1px;stroke-linecap:butt;stroke-linejoin:miter;stroke-opacity:1" />
    <path
       style="fill:none;stroke:#ff1f00;stroke-width:4;stroke-linecap:round;stroke-linejoin:miter;stroke-miterlimit:4;stroke-dasharray:none;stroke-opacity:0.6655949"
       d="m 250.07385,17.56615 -0.0742,119.93231"
       id="hand" />
  </g>
</svg>
