<?xml version="1.0" encoding="UTF-8" standalone="no"?>
<!-- Created with Inkscape (http://www.inkscape.org/) -->

<svg
   xmlns:dc="http://purl.org/dc/elements/1.1/"
   xmlns:cc="http://creativecommons.org/ns#"
   xmlns:rdf="http://www.w3.org/1999/02/22-rdf-syntax-ns#"
   xmlns:svg="http://www.w3.org/2000/svg"
   xmlns="http://www.w3.org/2000/svg"
   xmlns:sodipodi="http://sodipodi.sourceforge.net/DTD/sodipodi-0.dtd"
   xmlns:inkscape="http://www.inkscape.org/namespaces/inkscape"
   width="210mm"
   height="297mm"
   viewBox="0 0 210 297"
   version="1.1"
   id="svg8"
   inkscape:version="0.92.3 (2405546, 2018-03-11)"
   sodipodi:docname="scale-hires.svg">
  <defs
     id="defs2" />
  <sodipodi:namedview
     id="base"
     pagecolor="#ffffff"
     bordercolor="#666666"
     borderopacity="1.0"
     inkscape:pageopacity="0.0"
     inkscape:pageshadow="2"
     inkscape:zoom="31.678384"
     inkscape:cx="62.771867"
     inkscape:cy="1098.3802"
     inkscape:document-units="mm"
     inkscape:current-layer="layer2"
     showgrid="true"
     inkscape:snap-grids="true"
     inkscape:window-width="1944"
     inkscape:window-height="1169"
     inkscape:window-x="308"
     inkscape:window-y="191"
     inkscape:window-maximized="0">
    <inkscape:grid
       type="xygrid"
       id="grid10" />
    <inkscape:grid
       type="xygrid"
       id="grid3715" />
  </sodipodi:namedview>
  <metadata
     id="metadata5">
    <rdf:RDF>
      <cc:Work
         rdf:about="">
        <dc:format>image/svg+xml</dc:format>
        <dc:type
           rdf:resource="http://purl.org/dc/dcmitype/StillImage" />
        <dc:title></dc:title>
      </cc:Work>
    </rdf:RDF>
  </metadata>
  <g
     inkscape:label="Layer 1"
     inkscape:groupmode="layer"
     id="layer1"
     sodipodi:insensitive="true"
     style="display:none">
    <circle
       id="path3717"
       cx="17.197916"
       cy="15.218749"
       r="11.90625"
       style="fill:#000000;fill-opacity:0.99033813;stroke:none;stroke-width:0.26458332;stroke-opacity:1" />
    <path
       inkscape:connector-curvature="0"
       d="m 5.8529579,14.757878 a 0.26333955,0.26333955 0 0 1 0.051113,0.0044 c 0.036256,0.0069 0.070224,0.02276 0.1025033,0.04067 l -0.054344,-0.06364 c 0.021375,0.02488 0.106295,-0.0019 0.1326726,-0.0056 0.061242,-0.0087 0.1024243,-0.0146 0.1554745,0.02447 a 2.158101,2.158101 0 0 1 0.1901068,0.157475 0.55842092,0.55842092 0 0 0 -0.1474572,-0.185531 0.52070303,0.52070303 0 0 1 0.3102324,0.154782 0.4200403,0.4200403 0 0 0 -0.077568,-0.106316 l 0.2254681,0.01725 c 0.060783,0.0047 0.1273317,0.01176 0.1704641,0.05502 0.040039,0.04018 0.075014,0.08739 0.1089272,0.132733 0.040962,0.05474 0.09728,0.09986 0.1369465,0.15327 -0.069424,-0.09379 -0.1313156,-0.204665 -0.1663272,-0.315977 0.1641603,0.01139 0.3140429,0.158 0.4432406,0.24652 A 0.50605673,0.50605673 0 0 1 7.2907122,14.916921 c 0.085761,0.0184 0.1801754,0.0209 0.2625858,0.04676 0.08241,0.02587 0.1612774,0.08159 0.2250496,0.137125 A 0.37717906,0.37717906 0 0 0 7.6479058,14.980233 l 0.070154,0.01222 a 0.21832298,0.21832298 0 0 1 0.045241,0.0113 c 0.019361,0.0079 0.036004,0.02119 0.052328,0.03432 l 0.081294,0.06513 a 1.2615904,1.2615904 0 0 0 -0.098875,-0.09678 c 0.1491628,0.03774 0.3196706,0.05492 0.3869108,0.220663 l -0.06371,-0.156962 c 0.1048742,0.02399 0.2027422,0.03375 0.2897456,0.0698 0.088692,0.0369 0.1663632,0.09939 0.250376,0.151427 l 0.0024,-0.03762 c 0.1077311,0.02052 0.1957325,0.06896 0.2734293,0.171142 -0.7927988,0.119957 -1.5567498,0.05389 -2.3115382,-0.171416 0.014927,0.0071 0.029142,0.01642 0.044791,0.021 0.363161,0.105762 0.7236681,0.219373 1.1051351,0.248738 0.6950843,0.0535 1.3745313,-0.01413 2.0375365,-0.234259 0.0957,-0.03178 0.1929811,-0.05957 0.2896541,-0.08907 l 0.01271,0.02025 c -0.02691,0.01684 -0.05214,0.03801 -0.08119,0.04968 -0.3001252,0.120139 -0.6110214,0.202343 -0.9293702,0.25615 -0.067953,0.01149 -0.1096901,0.03373 -0.1385131,0.09261 -0.032056,0.06553 -0.07132,0.123619 -0.1280363,0.17056 l 0.023097,-0.05825 a 0.96895822,0.96895822 0 0 1 -0.295747,0.172316 0.03830572,0.03830572 0 0 1 0.016139,-0.03724 c -0.00525,8.55e-4 -0.1074865,0.03466 -0.1081675,0.03081 l -0.013406,-0.07866 c -0.086427,0.0677 -0.1834735,0.08093 -0.2838896,0.06811 l 0.09223,-0.140594 c -0.2025442,0.21946 -0.4604147,0.169335 -0.7074757,0.165507 l -0.00931,-0.01579 0.1941733,-0.200626 c -0.040411,0.01917 -0.074516,0.04584 -0.1096654,0.07112 -0.056083,0.0403 -0.1076588,0.09396 -0.1702895,0.116803 -0.090783,0.03308 -0.1871389,0.0296 -0.2805949,0.01083 -0.045694,-0.0092 -0.090651,-0.0214 -0.1355998,-0.03334 -0.044951,-0.01194 -0.09358,-0.01823 -0.1370706,-0.03421 0.036579,-0.02871 0.085814,-0.04645 0.127097,-0.06747 l 0.068746,-0.03503 c 0.017538,-0.0089 0.049202,-0.03384 0.068746,-0.03503 a 0.49665175,0.49665175 0 0 0 -0.126119,0.02448 c -0.036086,0.01197 -0.072633,0.01795 -0.109156,0.02876 a 1.1892896,1.1892896 0 0 1 -0.1239676,0.02718 0.06260192,0.06260192 0 0 1 -0.043855,-0.0044 q -0.063301,-0.02398 -0.1258347,-0.04913 c -0.00957,-0.0038 -0.1076881,-0.05061 -0.1101878,-0.04823 0.00996,-0.0096 0.014725,-0.02004 0.022749,-0.03085 0.010496,-0.01416 0.025935,-0.02383 0.039467,-0.0348 a 0.06622676,0.06622676 0 0 1 -0.061732,0.003 0.23247945,0.23247945 0 0 1 0.048195,-0.05223 l -0.1412935,0.05128 a 0.05657686,0.05657686 0 0 1 -0.019233,0.0046 0.05388272,0.05388272 0 0 1 -0.02404,-0.0078 0.50943663,0.50943663 0 0 1 -0.051817,-0.03111 0.86383799,0.86383799 0 0 1 0.080233,-0.06301 c -0.068463,-0.0054 -0.1254065,0.04286 -0.1890957,-0.0011 -0.058665,-0.04046 -0.1177613,-0.0984 -0.1732504,-0.144958 a 0.40044659,0.40044659 0 0 1 -0.028479,-0.02984 l 0.2376686,-0.04261 c -0.08909,-0.0078 -0.1774688,0.0076 -0.2616374,-0.005 -0.093985,-0.01408 -0.1412093,-0.09744 -0.1977533,-0.183865 l 0.134919,0.04886 C 5.9187429,15.113799 5.8794319,15.091669 5.841451,15.067319 5.7339571,14.998669 5.6693068,14.875698 5.58569,14.7815 5.674279,14.79546 5.7643115,14.75851 5.8529656,14.75809 Z"
       id="path4537"
       style="fill:#c4c3c1;fill-opacity:1;stroke-width:0.00489843" />
    <g
       transform="matrix(-0.01065151,0.09388903,-0.09388903,-0.01065151,28.818764,13.47924)"
       id="g4604"
       style="fill:#c4c3c1;fill-opacity:1">
      <path
         inkscape:connector-curvature="0"
         style="fill:#c4c3c1;fill-opacity:1"
         d="M 35.88,13.611 C 35.048,12.982 34.138,12.394 33.173,12.016 30.993,11.162 28.775,10.405 26.571,9.63 26.05,9.447 25.676,8.848 25.626,8.298 25.478,6.67 24.614,5.177 23.12,4.144 22.539,3.742 22.536,3.423 22.822,2.891 23.004,2.553 23.172,2.208 23.336,1.864 23.572,1.365 23.438,0.638 22.932,0.415 21.718,-0.121 19.912,-0.15 18.669,0.403 c -0.504,0.225 -0.655,0.96 -0.439,1.468 0.121,0.284 0.243,0.57 0.366,0.859 0.216,0.508 0.016,1.166 -0.402,1.527 -1.259,1.087 -1.998,2.426 -2.116,4.093 -0.039,0.551 -0.423,1.141 -0.948,1.311 -1.901,0.616 -3.782,1.19 -5.606,1.908 -1.305,0.513 -2.624,1.167 -3.689,2.055 -0.844,0.704 -1.592,1.783 -1.88,2.833 -0.376,1.368 0.022,4.278 1.085,6.2 0.266,0.484 0.855,0.498 1.218,0.084 C 6.594,22.356 6.935,21.98 7.326,21.665 8.359,20.832 8.376,19.811 8.034,18.712 7.929,18.374 7.778,18.051 7.606,17.703 7.361,17.208 7.531,16.828 7.982,16.859 c 0.289,0.019 0.554,0.034 0.818,0.033 0.83,-0.004 1.985,-0.382 2.405,0.021 0.499,0.478 0.439,1.613 0.473,2.469 0.017,0.427 -0.181,0.99 -0.483,1.281 -1.127,1.083 -2.376,2.039 -3.509,3.115 -1.868,1.778 -2.837,3.889 -1.948,6.491 0.765,2.24 1.594,4.459 2.436,6.672 0.829,2.179 0.483,3.029 -1.709,3.993 -0.082,0.036 -0.156,0.094 -0.239,0.161 -0.123,0.101 -0.134,0.248 -0.028,0.336 0.084,0.069 0.151,0.122 0.214,0.118 1.777,-0.127 3.56,-0.217 5.323,-0.452 0.505,-0.067 0.955,-0.455 0.379,-1.196 -0.39,-0.503 -0.622,-1.273 -0.605,-1.916 0.05,-1.889 0.314,-3.771 0.378,-5.66 0.013,-0.392 -0.054,-0.785 -0.138,-1.158 -0.121,-0.538 0.191,-1.139 0.705,-1.342 1.213,-0.479 2.405,-0.951 3.628,-1.435 0.514,-0.203 0.857,0.074 0.768,0.619 -0.082,0.499 -0.163,0.991 -0.247,1.483 -0.234,1.369 0.399,2.272 1.617,2.279 3.095,0.018 6.045,-0.677 8.603,-2.4 0.791,-0.532 1.486,-0.676 2.155,-0.604 0.549,0.06 0.969,0.687 0.964,1.239 -0.01,1.14 -0.029,2.246 0.018,3.349 0.074,1.796 0.642,3.634 -0.295,5.429 -0.254,0.49 -0.219,1.002 0.19,1.217 0.269,0.141 0.519,0.255 0.778,0.287 1.365,0.172 2.744,0.237 4.119,0.322 0.133,0.008 0.269,-0.008 0.403,-0.029 0.22,-0.037 0.414,-0.141 0.433,-0.228 0.02,-0.088 -0.125,-0.239 -0.323,-0.34 -0.119,-0.06 -0.239,-0.119 -0.361,-0.173 -1.7,-0.745 -2.164,-1.865 -1.489,-3.578 0.641,-1.622 1.398,-3.212 1.867,-4.883 0.454,-1.621 1.029,-3.389 0.797,-4.983 -0.358,-2.457 -2.264,-3.922 -4.093,-5.461 -0.423,-0.356 -0.871,-0.218 -1.044,0.306 -2.25,6.805 -7.771,9.02 -11.91,8.984 -0.552,-0.005 -0.953,-0.482 -0.895,-1.012 0.036,-0.32 0.08,-0.639 0.154,-0.949 0.184,-0.768 -0.093,-1.109 -0.759,-1.532 -1.186,-0.753 -2.364,-1.608 -3.296,-2.646 -0.828,-0.92 -1.654,-1.91 -2.002,-3.178 -0.146,-0.534 0.108,-0.628 0.467,-0.209 2.607,3.04 5.866,4.681 9.871,3.292 3.541,-1.229 6.985,-2.99 7.739,-7.151 0.1,-0.543 0.572,-0.992 1.125,-0.992 0.624,0 1.227,0 1.792,0 0.552,0 0.901,0.437 0.742,0.966 -0.296,0.973 -0.636,1.943 -0.396,2.739 0.26,0.864 1.096,1.554 1.907,2.302 0.406,0.374 0.935,0.311 1.16,-0.193 0.668,-1.489 0.94,-2.929 1.11,-4.426 0.218,-1.937 -0.355,-3.479 -1.871,-4.625 z M 20.811,12.178 C 18.883,12.17 17.61,10.756 17.626,8.641 c 0.018,-2.246 1.53,-4.126 3.282,-4.079 1.713,0.046 3.11,1.898 3.11,4.124 0,2.142 -1.247,3.5 -3.207,3.492 z"
         id="path4602" />
    </g>
    <g
       transform="matrix(0.01324242,0.01818921,-0.01818921,0.01324242,24.021628,5.6784864)"
       id="g5000"
       style="fill:#c4c3c1;fill-opacity:1">
      <path
         inkscape:connector-curvature="0"
         d="m 140.457,0.394 c 0,0 7.837,-2.476 10.869,4.987 0,0 11.624,12.909 12.891,22.213 0,0 0.481,2.841 -2.283,4.375 -2.064,1.124 -4.872,3.922 -6.723,6.187 0,0 -6.235,7.843 -17.537,7.843 0,0 -1.498,-0.161 -4.664,7.17 -1.607,3.742 -5.998,9.378 -9.219,13.713 -1.955,2.618 -4.592,9.578 -5.304,11.661 -1.565,4.494 -2.027,15.637 -0.384,18.803 0,0 5.176,12.243 6.576,17.674 0.092,0.329 2.497,7.447 1.285,17.708 -0.116,0.998 -0.786,4.896 -1.041,7.203 -0.372,3.301 -0.25,10.133 1.017,13.25 1.212,2.983 4.853,5.742 5.87,13.506 1.028,7.581 -1.157,18.541 -0.311,25.13 0.475,3.684 2.137,8.951 9.225,12.337 0,0 6.729,1.631 3.708,3.908 0,0 -7.757,0.293 -12.306,-1.382 0,0 -7.752,0.615 -8.763,-2.259 0,0 0.019,-2.253 0.847,-4.08 0,0 -1.705,-11.277 -7.258,-18.693 -4.007,-5.353 -4.875,-7.575 -2.838,-26.762 0,0 -6.327,-4.001 -10.068,-18.444 -1.096,-4.25 -2.786,-11.575 -4.141,-17.019 0,0 -9.715,20.386 -8.884,30.634 0,0 4.625,10.504 5.237,14.499 0.518,3.416 0.411,8.926 -1.023,13.755 -1.483,4.993 1.696,16.604 2.707,20.538 0,0 2.512,6.79 -2.356,6.632 0,0 -8.424,-1.06 -11.125,0.913 0,0 -9.608,1.182 -11.615,0.293 0,0 -3.206,-1.2 2.189,-3.617 0,0 5.736,-0.152 7.742,-3.77 0,0 2.533,-3.026 3.367,-3.489 0,0 -3.528,-8.823 -6.938,-21.586 -1.303,-4.914 -2.177,-16.246 -2.975,-21.251 -0.505,-3.117 1.148,-10.443 0.149,-13.481 -2.625,-8.05 -6.677,-14.176 -0.351,-33.521 0,0 3.438,-8.12 5.396,-12.69 2.667,-6.235 2.862,-17.527 0,-26.731 0,0 -5.718,-8.162 -6.056,-15.999 0,0 0.682,-5.124 -7.587,-4.98 0,0 -6.223,1.363 -16.499,-8.175 l -6.068,-4.521 c 0,0 -3.212,-1.589 0.149,-10.425 0,0 5.83,-11.094 8.948,-14.34 l 2.183,-4.549 c 0,0 1.939,-5.054 10.282,-2.855 0,0 4.795,0.682 4.034,3.538 0,0 1.178,8.972 -1.677,7.849 0,0 -1.358,-0.743 -1.684,-2.563 0,0 -4.214,-0.204 -5.148,-1.428 0,0 -2.189,6.865 -3.273,8.077 0,0 1.083,9.8 0.155,11.776 0,0 8.765,-4.533 14.333,3.404 0,0 10.781,-3.246 15.077,2.563 0,0 7.334,5.532 8.494,-1.132 l -0.158,-4.01 c 0,0 -1.023,-2.415 -1.264,-4.153 0,0 -1.854,1.133 -2.451,-3.86 0,0 -1.087,-3.248 1.184,-2.719 0,0 -3.796,-9.883 6.564,-12.602 0,0 13.472,-3.081 12.291,11.627 0,0 4.89,-1.145 0,7.395 0,0 -1.452,-0.329 -1.179,0.32 0.174,0.38 0.436,4.458 0.436,4.458 0,0 0.329,6.418 5.889,5.355 0,0 9.931,-6.957 14.735,-3.023 0,0 6.32,-8.007 14.833,-3.766 0,0 2.691,0.441 3.459,-1.888 0,0 -5.316,-4.311 -4.037,-16.087 0,0 -0.414,-4.153 -2.29,-3.182 l -1.863,0.356 c 0,0 -0.407,3.047 -5.888,2.755 0,0 0.194,1.054 -0.067,1.272 -0.858,0.731 -3.744,0.579 -4.725,0 -2.247,-1.315 -2.479,-7.8 2.697,-9.292 z"
         id="path4998"
         style="fill:#c4c3c1;fill-opacity:1" />
    </g>
    <g
       id="g5081"
       transform="matrix(0.00516073,-0.00524798,-0.00524798,-0.00516073,10.758211,9.1935946)"
       style="fill:#c4c3c1;fill-opacity:1">
      <path
         d="m 0,0 c -21.481,-7.829 -39.348,2.008 -39.348,2.008 12.246,10.439 8.231,23.488 8.231,23.488 -1.004,2.811 -0.602,9.235 -0.602,9.235 0.504,1.915 0.704,4.897 0.778,7.392 0.065,2.164 -0.094,4.325 -0.327,6.477 -0.881,8.135 2.493,24.073 2.493,24.073 l 13.317,45.572 c 5.219,12.848 8.231,32.322 8.231,32.322 1.606,13.852 1.204,38.344 1.204,38.344 L 7.227,169.437 C 14.053,159.801 5.822,152.172 5.822,152.172 -4.216,142.737 -11.242,123.866 -11.242,123.866 -21.481,94.957 -13.451,69.863 -13.451,69.863 -8.633,47.78 26.5,33.727 26.5,33.727 c 7.026,-2.008 7.227,-8.432 7.227,-8.432 l 1.204,-12.447 z m 151.905,72.272 -5.22,7.762 c -1.07,3.614 -5.353,4.685 -5.353,4.685 -7.227,2.007 -13.15,6.926 -13.15,6.926 -8.331,4.617 -10.539,16.562 -10.539,16.562 l -15.258,59.825 c -1.004,6.224 -2.677,12.514 -2.677,12.514 -2.141,25.697 1.473,69.194 1.473,69.194 l 5.219,6.625 c 3.012,3.412 1.004,7.829 1.004,7.829 -8.833,22.886 -35.232,22.485 -35.232,22.485 -9.135,0.602 -21.046,2.275 -21.046,2.275 -2.008,0.401 0.803,9.235 0.803,9.235 3.613,10.707 -1.473,22.886 -1.473,22.886 -1.338,1.204 -0.936,4.684 -0.936,4.684 0.267,4.684 -4.149,13.116 -4.149,13.116 -0.134,10.305 -7.629,15.391 -7.629,15.391 0.39,2.303 0.126,4.43 -0.444,6.287 -1.295,4.217 -4.438,7.585 -8.357,9.609 -24.924,12.867 -46.34,-4.787 -46.34,-4.787 -19.674,2.81 -22.618,-20.21 -22.618,-20.21 -2.677,-18.603 6.29,-29.712 6.29,-29.712 9.235,-11.242 21.548,-10.171 21.548,-10.171 3.881,-15.659 17.399,-14.789 17.399,-14.789 5.018,-7.127 4.818,-17.466 4.818,-17.466 -0.803,-7.829 -23.689,-16.06 -23.689,-16.06 -26.099,-10.44 -26.701,-31.318 -26.701,-31.318 l 5.019,-2.409 3.212,-64.041 c -0.803,-14.053 -5.621,-28.307 -5.621,-28.307 -7.026,-19.674 -8.633,-58.419 -8.633,-58.419 -0.401,-8.834 -3.011,-23.89 -3.011,-23.89 -1.472,-2.945 -1.204,-6.157 -1.204,-6.157 0,-2.141 -1.071,-4.015 -1.071,-4.015 L -62.1,26.366 c -2.945,-1.874 -3.748,-5.755 -3.748,-5.755 l -3.078,-4.952 c -2.811,-4.283 -0.402,-7.495 -0.402,-7.495 -1.137,-3.413 2.109,-6.424 2.109,-6.424 -1.64,-3.614 -0.636,-7.763 -0.636,-7.763 -0.536,-2.543 -1.004,-8.13 -1.004,-8.13 l -23.288,-15.458 1.606,-2.51 21.782,12.447 c 4.015,1.807 3.313,-1.205 3.313,-1.205 -0.904,-9.234 -12.046,-21.782 -12.046,-21.782 -4.918,-4.918 -2.007,-9.736 -2.007,-9.736 7.629,-17.867 29.109,-27.303 29.109,-27.303 12.146,-5.521 7.027,4.718 7.027,4.718 l -6.826,8.933 c -6.223,6.023 0,8.633 0,8.633 10.038,7.428 27.303,22.886 27.303,22.886 21.079,8.833 60.628,10.239 60.628,10.239 l 5.019,-28.508 c 3.011,-10.84 -2.409,-27.302 -2.409,-27.302 -10.239,-19.875 -2.811,-44.167 -2.811,-44.167 l 3.012,-33.927 c 5.621,-47.78 -0.402,-51.594 -0.402,-51.594 -14.053,-11.042 -4.216,-30.515 -4.216,-30.515 6.826,-12.648 6.224,-33.727 6.224,-33.727 l 2.81,-0.602 c -2.409,-16.261 14.856,-20.477 14.856,-20.477 17.667,-6.023 15.86,8.231 15.86,8.231 0,12.451 -4.216,19.874 -4.216,19.874 l -5.621,23.69 c -6.023,25.696 5.219,84.317 5.219,84.317 11.243,50.992 9.034,91.343 9.034,91.343 2.008,5.22 2.409,14.053 2.409,14.053 l 2.744,26.968 6.692,7.763 c 28.373,1.071 37.474,18.47 37.474,18.47 11.51,16.863 -4.55,31.518 -4.55,31.518 -9.837,13.049 -36.337,39.348 -36.337,39.348 -0.401,26.098 -4.216,29.913 -4.216,29.913 1.606,34.128 -6.156,53.668 -6.156,53.668 -3.48,12.179 -1.205,17.934 -1.205,17.934 5.354,-23.02 21.28,-54.337 21.28,-54.337 4.952,-7.629 12.581,-24.359 12.581,-24.359 2.811,-9.77 7.629,-17.666 7.629,-17.666 1.338,-5.488 8.699,-14.722 8.699,-14.722 -4.55,-2.008 -2.677,-4.685 -2.677,-4.685 h 6.558 c 1.874,-1.873 3.882,0.67 3.882,0.67 l 5.487,0.401 c 5.22,-0.134 8.432,3.614 8.432,3.614 l 3.078,6.692 c 1.338,1.74 0,4.684 0,4.684"
         style="fill:#c4c3c1;fill-opacity:1;fill-rule:nonzero;stroke:none"
         id="path5083"
         inkscape:connector-curvature="0" />
    </g>
    <path
       inkscape:connector-curvature="0"
       style="fill:#c4c3c1;fill-opacity:1;stroke-width:0.00608287"
       d="m 19.18277,5.8945804 c 0,-0.321785 -0.06631,-0.6338359 -0.187351,-0.9270304 C 18.935196,4.8209525 18.859771,4.6822631 18.769744,4.5514814 V 4.3598711 H 18.62923 C 18.589077,4.3081646 18.547116,4.2601128 18.503319,4.2144907 18.290415,3.995507 18.042233,3.8215368 17.76607,3.7017046 17.480175,3.577614 17.176032,3.5131359 16.863373,3.5131359 c -0.312659,0 -0.616802,0.062651 -0.903307,0.1867437 -0.276161,0.1204401 -0.524343,0.2968439 -0.737242,0.515219 -0.0438,0.045013 -0.08577,0.093067 -0.125925,0.1447725 h -0.186134 v 0.2323658 c -0.07116,0.1180071 -0.135648,0.2433149 -0.189786,0.3747046 -0.120444,0.2944109 -0.179445,0.6058539 -0.179445,0.9276389 0,0.3217821 0.05778,0.6338332 0.178837,0.9270282 0.05414,0.1313897 0.119828,0.2566976 0.191002,0.3747039 v 1.1064749 h 3.858972 V 7.2376765 C 18.860979,7.1075044 18.9358,6.9688132 18.99602,6.8216086 19.116465,6.5284136 19.182764,6.2163625 19.182764,5.8945804 Z M 18.743588,4.3860273 v 0.1277404 c -0.03224,-0.046839 -0.05718,-0.088809 -0.09307,-0.1277404 z m -1.393586,3.8115259 c -0.0438,-0.00422 -0.118006,-0.029196 -0.118006,-0.029196 -0.01582,-0.010945 -0.149639,-0.089419 -0.149639,-0.089419 l -0.02433,-0.053533 c -0.0292,-0.049265 -0.01764,-0.2341887 -0.01764,-0.2341887 0.01338,-0.069346 -0.0091,-0.2725127 -0.0091,-0.2725127 -0.01338,-0.1094929 0,-0.1788382 0,-0.1788382 0.01338,-0.013371 0.03589,-0.1027993 0.03589,-0.1027993 0.02433,-0.020071 0.01582,-0.1697102 0.01582,-0.1697102 0.01764,-0.017651 0.06691,-0.2323658 0.06691,-0.2323658 0,0.035888 0.153897,0.2901516 0.153897,0.2901516 -0.01101,0.017651 0.04684,0.1697128 0.04684,0.1697128 0.01338,0.1830936 0.138689,0.2408826 0.138689,0.2408826 0.02433,0.1161824 0.116184,0.205599 0.116184,0.205599 0.04015,0.04258 0.08941,0.1094929 0.08941,0.1094929 0.0091,0.020071 0.03345,0.076036 0.03345,0.076036 0,0.037714 0.01764,0.093675 0.01764,0.093675 0.01153,0.017651 0.02433,0.027377 0.03711,0.032242 -0.138081,0.062657 -0.282853,0.111319 -0.4331,0.1447731 z m 1.271929,-3.8084844 c -0.0122,0 -0.02555,0 -0.02555,0 -0.0025,-0.010946 -0.111923,0.012165 -0.111923,0.012165 -0.01764,0.026763 -0.07787,0.043794 -0.07787,0.043794 -0.05353,0.015818 -0.08516,0.091243 -0.08516,0.091243 -0.04258,0.00422 -0.116184,0.046839 -0.116184,0.046839 -0.04441,0.022504 -0.122869,0.040147 -0.122869,0.040147 -0.203776,0.014598 -0.361931,0.1672792 -0.361931,0.1672792 -0.142948,0.013386 -0.256697,0.086985 -0.256697,0.086985 -0.176403,-0.060218 -0.250005,0.021903 -0.250005,0.021903 -0.04198,0.00184 -0.116184,0.04866 -0.116184,0.04866 l -0.02981,-0.01703 c 0.02311,-0.00607 0.05049,-0.050486 0.05049,-0.050486 0.03405,-0.00852 0.04015,-0.086376 0.04015,-0.086376 0.03405,-0.018857 0.02373,-0.074211 0.02373,-0.074211 0.03832,-0.052919 -0.01338,-0.077252 -0.01338,-0.077252 0.03589,-0.079078 -0.01272,-0.077253 -0.01272,-0.077253 -0.0085,-0.07421 -0.06144,-0.07421 -0.06144,-0.07421 -0.0018,-0.093069 -0.0657,-0.098543 -0.0657,-0.098543 -0.0042,-0.00484 -0.0097,-0.00731 -0.01582,-0.00731 h 1.601619 c 0.0037,6.114e-4 0.0055,6.114e-4 0.0074,0.00368 z m -1.938003,0.018857 c -0.04866,0.014598 -0.059,0.075428 -0.059,0.075428 -0.0657,-0.02737 -0.07178,0.064477 -0.07178,0.064477 -0.04198,0.025549 -0.0085,0.088202 -0.0085,0.088202 -0.02129,0.027377 0.01041,0.067524 0.01041,0.067524 -0.03832,0.041974 0.0042,0.094892 0.0042,0.094892 -0.01041,0.021291 0.02738,0.04866 0.02738,0.04866 -0.01041,0.02555 0.03832,0.071779 0.03832,0.071779 l -0.0146,0.012768 -0.02555,-0.01703 C 16.424121,4.8239901 16.284822,4.8702171 16.284822,4.8702171 16.231901,4.821557 15.984936,4.7643763 15.984936,4.7643763 15.904645,4.6524504 15.537237,4.5849315 15.537237,4.5849315 c -0.09307,-0.031629 -0.141731,-0.061437 -0.141731,-0.061437 -0.02311,-0.054745 -0.07787,-0.086377 -0.07787,-0.086377 l -0.03163,-0.045621 c -0.0037,-0.00368 -0.0074,-0.00546 -0.01153,-0.00546 h 1.444073 c -0.02373,0.012768 -0.03467,0.021897 -0.03467,0.021897 z m -1.489695,-0.021897 c 0.01825,0.012768 0.05231,0.022504 0.05231,0.022504 v 0.028589 c -0.01947,-0.017031 -0.06813,-0.038321 -0.100371,-0.0511 z m -0.09245,-0.00484 c 0.0074,0.023116 0.07969,0.070561 0.07969,0.070561 -0.0146,-0.00184 -0.08942,-0.02737 -0.08942,-0.02737 0.0042,0.039542 0.03467,0.04866 0.03467,0.04866 0.03832,0.010345 0.09123,0.067518 0.09123,0.067518 l -0.04866,-0.014598 c -0.03405,-0.023116 -0.06144,-0.02737 -0.06144,-0.02737 0.0018,0.046227 0.123485,0.084552 0.123485,0.084552 0.08029,0.086985 0.140514,0.076036 0.140514,0.076036 0.01764,0.017644 0.163022,0.084552 0.163022,0.084552 0.180661,0.152072 0.40816,0.1678877 0.40816,0.1678877 0.04684,0.04258 0.267647,0.1228731 0.267647,0.1228731 0,0 0.07603,0.015817 -0.0091,0 -0.08516,-0.015818 -0.207426,0.012165 -0.207426,0.012165 -0.06265,0.017645 -0.104618,-0.012165 -0.104618,-0.012165 -0.136256,-0.040147 -0.388695,-0.010946 -0.388695,-0.010946 -0.0292,0.00668 -0.189785,-0.00913 -0.189785,-0.00913 -0.03771,-0.033456 -0.105237,-0.049274 -0.105237,-0.049274 l -0.03589,-0.010946 c -0.02919,-0.02433 -0.06935,-0.013385 -0.06935,-0.013385 -0.05353,-0.00245 -0.0736,0.00422 -0.0736,0.00422 -0.0042,0.04258 0.08029,0.026763 0.08029,0.026763 l 0.03345,0.015817 c -0.05109,0.00245 -0.06265,0.010945 -0.06265,0.010945 l -0.03771,-0.00245 c -0.02919,0 -0.09123,0.022504 -0.09123,0.022504 -0.0042,0.02433 0.05961,0.020071 0.05961,0.020071 0.09185,0.00245 0.09185,0.020077 0.09185,0.020077 l -0.06935,0.00422 c -0.06265,0 -0.06935,0.00913 -0.06935,0.00913 -0.0025,0.033456 0.165455,0.033456 0.165455,0.033456 l -0.06935,0.00913 c -0.03771,-0.00245 -0.04928,0.013384 -0.04928,0.013384 -0.0025,0.029196 0.14538,0.010945 0.14538,0.010945 l 0.06022,0.015817 c 0.03345,0.015817 0.138689,0 0.138689,0 0.05353,-0.00913 0.153898,0.017645 0.153898,0.017645 0.250006,0.06691 0.397211,0.015817 0.397211,0.015817 0.0511,0.029196 0.225675,0.010946 0.225675,0.010946 0.05596,0.033456 0.187353,0.029196 0.187353,0.029196 0.08029,-0.015817 0.120443,0.029197 0.120443,0.029197 0.0025,0.051093 0.05778,0.1319983 0.05778,0.1319983 0.0025,0.1319984 0.08699,0.3169176 0.08699,0.3169176 -0.01101,0 -0.02433,0.089418 -0.02433,0.089418 -0.02677,0.053533 -0.01582,0.1228757 -0.01582,0.1228757 -0.01582,0.00239 -0.03589,0.1204388 -0.03589,0.1204388 -0.01088,0.02251 -0.03101,0.1253074 -0.03101,0.1253074 -0.04258,0.037714 -0.140514,0.2633873 -0.140514,0.2633873 l -0.04928,0.1429494 c -0.02677,0.04684 -0.04258,0.2074254 -0.04258,0.2074254 -0.04441,0.040147 -0.113745,0.1721452 -0.113745,0.1721452 l -0.132044,0.1405229 c -0.100371,0.082726 -0.13869,0.2725128 -0.13869,0.2725128 -0.01101,0.026763 -0.06448,0.2968418 -0.06448,0.2968418 0,0.026763 -0.06022,0.1319983 -0.06022,0.1319983 -0.01764,0.00913 -0.06935,0.046839 -0.06935,0.046839 -0.03953,-0.00732 -0.0596,0.012781 -0.06631,0.026156 C 15.339,7.6871526 15.110893,7.4566105 14.936922,7.1871415 V 4.6019198 c 0.0511,-0.077252 0.107663,-0.1508549 0.164846,-0.2208082 z m 0.717169,3.6089664 c 0.04684,-0.00239 0.03467,-0.080294 0.03467,-0.080294 0,0 -0.0122,-0.044407 0.0097,-0.060218 0.02251,-0.015817 0.03345,-0.086984 0.03345,-0.086984 0.0042,-0.049272 0.04258,-0.1137506 0.04258,-0.1137506 0.0292,-0.04258 0.105238,-0.1739683 0.105238,-0.1739683 0.0736,-0.051099 0.12287,-0.2122927 0.12287,-0.2122927 0.02251,-0.093677 0.09185,-0.1788355 0.09185,-0.1788355 0.05778,-0.033455 0.129568,-0.1405145 0.129568,-0.1405145 0.02919,-0.026763 0.06935,-0.096109 0.06935,-0.096109 0.01582,-0.040147 0.05353,-0.1319982 0.04684,-0.091851 -6.11e-4,0.00239 -6.11e-4,0.00546 -6.11e-4,0.00913 6.11e-4,0.055966 0.05414,0.2457493 0.05414,0.2457493 -0.0292,0.035888 -0.04015,0.2433141 -0.04015,0.2433141 l -0.03589,0.1538979 c -0.03589,0.1788355 0.04928,0.3661871 0.04928,0.3661871 -0.01338,0.044407 0.109484,0.2676459 0.109484,0.2676459 -0.0042,0.024324 -0.0025,0.096109 -0.0025,0.096109 -0.03589,0.026763 -0.0091,0.066916 -0.0091,0.066916 -0.0037,0.018236 0.02799,0.033456 0.04015,0.038321 -0.306577,-0.026763 -0.59673,-0.1155741 -0.857076,-0.2542627 0.0037,0.00137 0.006,0.00184 0.006,0.00184 z m 1.066936,0.2609557 c 0.0055,-0.058398 -0.04928,-0.068737 -0.04928,-0.068737 l -0.03345,-0.06691 c -0.0025,-0.04258 -0.02251,-0.077863 -0.02251,-0.077863 -0.03101,-0.035888 -0.04015,-0.1228731 -0.04015,-0.1228731 0.0025,-0.064477 -0.01764,-0.1587625 -0.01764,-0.1587625 l -0.0025,-0.062657 c 0.01764,-0.076037 -0.0067,-0.2390561 -0.0067,-0.2390561 -0.02433,-0.089419 0,-0.1672786 0,-0.1672786 0.02251,-0.015818 0.03771,-0.118618 0.03771,-0.118618 0.02007,-0.029196 0.02311,-0.1672786 0.02311,-0.1672786 0.0048,-0.1581531 0.02919,-0.2414903 0.04624,-0.2810288 -0.01101,0.096718 0.02433,0.3613233 0.02433,0.3613233 0,0.077862 -0.05353,0.3303011 -0.05353,0.3303011 -0.05596,0.1922188 0.04441,0.3302982 0.04441,0.3302982 -0.02007,0.053533 0.02981,0.223241 0.02981,0.223241 0.03405,0.062657 0.04136,0.1697129 0.04136,0.1697129 -0.02433,0.055966 -0.02251,0.089419 -0.02251,0.089419 0.003,0.011562 0.0085,0.020071 0.01642,0.026156 -0.0042,5.315e-4 -0.0097,5.315e-4 -0.0152,5.315e-4 z m 1.248204,-0.3990357 c -0.0018,-0.030415 -0.04928,-0.027377 -0.04928,-0.027377 -0.01338,-0.022517 -0.09489,0.010946 -0.09489,0.010946 -0.01338,-0.00668 -0.113143,0 -0.113143,0 -0.08272,-0.049266 -0.142334,-0.3017059 -0.142334,-0.3017059 -0.03589,-0.1764032 -0.156331,-0.3394237 -0.156331,-0.3394237 -0.05778,-0.064477 -0.05778,-0.096109 -0.05778,-0.096109 -0.01582,-0.1295665 -0.04684,-0.1630198 -0.04684,-0.1630198 -0.04684,-0.064477 -0.04928,-0.1362562 -0.04928,-0.1362562 0.01101,-0.1204414 -0.04015,-0.2122928 -0.04015,-0.2122928 -0.01338,-0.076036 -0.08455,-0.2141185 -0.08455,-0.2141185 0,-0.010945 -0.0736,-0.1538951 -0.0736,-0.1538951 0.01338,-0.06691 -0.02433,-0.1697129 -0.02433,-0.1697129 L 17.163874,5.930495 c 0.0292,-0.064477 -0.0025,-0.1338248 -0.0025,-0.1338248 0,-0.010945 -0.01101,-0.096109 -0.01101,-0.096109 0.01764,-0.022504 0.04258,-0.1538965 0.04258,-0.1538965 0.04015,-0.069346 0.04928,-0.1788369 0.04928,-0.1788369 l 0.01101,-0.037714 c 0.03589,-0.093676 0.131998,-0.1052339 0.131998,-0.1052339 0.04015,0.02433 0.192218,-0.00668 0.192218,-0.00668 0.04684,0.010946 0.216551,-0.00913 0.216551,-0.00913 0.111923,0.089418 0.397211,-0.00913 0.397211,-0.00913 0.07787,-0.013384 0.20986,-0.013384 0.20986,-0.013384 0.01582,0.00913 0.127129,0 0.127129,0 l 0.04684,-0.013386 c 0.118621,-0.00422 0.131998,-0.031022 0.131998,-0.031022 -0.0067,-0.02433 -0.12287,0 -0.12287,0 l 0.0067,-0.02433 0.08942,-6.114e-4 c 0.05352,0.00422 0.04441,-0.035888 0.04441,-0.035888 0.01219,6.12e-4 0.02069,-6.113e-4 0.02069,-0.00307 V 7.226136 C 18.582361,7.4737083 18.375543,7.6853923 18.134054,7.8520643 Z M 17.94917,7.9694763 c -0.02495,0.013978 -0.05048,0.027377 -0.07665,0.040754 0.01703,-0.031022 0.05353,-0.045013 0.05353,-0.045013 0.0079,0.00301 0.01582,0.00422 0.02311,0.00422 z m 0.794422,-2.9209937 c -0.01272,-0.011562 -0.03832,-0.012768 -0.03832,-0.012768 0.01338,0 0.01582,-0.01703 0.01582,-0.01703 -0.02251,-0.029196 -0.122869,-0.026763 -0.122869,-0.026763 h -0.04258 c -0.07603,-0.012768 -0.147205,0.0511 -0.147205,0.0511 -0.01582,-0.00245 -0.05596,0.00307 -0.05596,0.00307 -0.04684,0.017645 -0.192218,0.00123 -0.192218,0.00123 -0.133822,-0.02433 -0.355239,0.019464 -0.355239,0.019464 -0.07786,-0.031022 -0.244533,-0.018857 -0.244533,-0.018857 0.06204,-0.00913 0.274338,-0.128957 0.274338,-0.128957 0.155114,-0.00852 0.253047,-0.098543 0.253047,-0.098543 0.16363,-0.1283487 0.299886,-0.15268 0.299886,-0.15268 0.03467,0.00731 0.07665,-0.014598 0.07665,-0.014598 0.01642,-0.016424 0.06022,-0.052919 0.06022,-0.052919 0.0146,-0.00546 0.07665,-0.0511 0.07665,-0.0511 0.0438,-0.034675 0.02615,-0.054745 0.02615,-0.054745 -0.0146,-0.00184 -0.103398,0.061438 -0.103398,0.061438 v -0.015822 l 0.03345,-0.02737 c 0.0146,-0.00546 0.05292,-0.035888 0.05292,-0.035888 0.05596,-0.02433 0.04988,-0.04258 0.04988,-0.04258 -0.03042,-0.00972 -0.11558,0.035888 -0.11558,0.035888 l 0.0048,-0.017645 c 0.0657,-0.030415 0.07907,-0.04562 0.08333,-0.049879 0.04076,0.051093 0.07847,0.1040178 0.11132,0.1581545 z M 16.863378,3.547839 c 0.690406,0 1.31025,0.3090095 1.731185,0.8120629 h -3.462376 c 0.420936,-0.503055 1.04078,-0.8120645 1.731186,-0.8120645 z m -1.927054,0.8382191 h 0.139299 c -0.04624,0.051707 -0.09429,0.1058421 -0.139299,0.1666706 z m -0.376529,1.5085531 c 0,-0.4592577 0.13139,-0.8887086 0.350981,-1.2512475 v 2.5031 C 14.69118,6.7833167 14.559789,6.3538653 14.559789,5.8946096 Z m 0.376529,1.341879 c 0.08395,0.1222675 0.178227,0.236624 0.281636,0.3424673 0.212902,0.2189824 0.463515,0.3953854 0.739678,0.5152182 0.221416,0.096109 0.455607,0.1563294 0.694664,0.1824877 h -1.715978 z m 3.807268,1.0407791 h -1.669748 c 0.04015,-0.00668 0.07969,-0.013371 0.119225,-0.018844 0.06265,0.016424 0.219591,0.00851 0.219591,0.00851 0.01338,0 0.01338,-0.034069 0.01338,-0.034069 6.12e-4,-0.00972 -0.0055,-0.017038 -0.0146,-0.021903 0.120445,-0.029809 0.239058,-0.070561 0.354025,-0.1204414 0.276162,-0.1198332 0.519477,-0.2919778 0.732376,-0.5109601 0.09186,-0.094286 0.174578,-0.1958684 0.245139,-0.3035376 v 1.0012407 z m 0.02615,-3.6764861 c 0.239058,0.3716637 0.377748,0.8163216 0.377748,1.293828 0,0.4775032 -0.13869,0.9221617 -0.377748,1.2938246 z"
       id="path5192" />
  </g>
  <g
     inkscape:groupmode="layer"
     id="layer2"
     inkscape:label="Layer 2">
    <path
       id="path5288"
       transform="scale(0.26458333)"
       style="fill:none;stroke:#8218f2;stroke-width:1.00157481;stroke-linecap:round;stroke-linejoin:miter;stroke-opacity:1;stroke-miterlimit:4;stroke-dasharray:none"
       d="M 90.849477,20.591858 78.697658,37.9516 M 39.033072,20.424073 51.41823,38.117157 M 39.033756,20.423872 a 45.178565,45.178565 0 0 1 25.787669,-8.082758 45.178565,45.178565 0 0 1 26.027649,8.25074 M 51.418535,38.117017 a 24.091122,24.072836 0 0 1 13.760039,-4.313026 24.091122,24.072836 0 0 1 13.519478,4.147913" />
  </g>
</svg>
